<?xml version="1.0" encoding="utf-8"?>
<!-- Generator: Adobe Illustrator 26.0.2, SVG Export Plug-In . SVG Version: 6.00 Build 0)  -->
<svg version="1.1" id="Layer_1" xmlns="http://www.w3.org/2000/svg" xmlns:xlink="http://www.w3.org/1999/xlink" x="0px" y="0px"
	 viewBox="0 0 500.4 218.6" style="enable-background:new 0 0 500.4 218.6;" xml:space="preserve">
<style type="text/css">
	.st0{fill:#9ECADD;}
	.st1{clip-path:url(#SVGID_00000148635249698704822650000000553852940270058118_);}
	.st2{fill:#B1D7E7;}
	.st3{fill:#FFFFFF;}
	.st4{fill:#BBBBBC;}
	.st5{fill:#FF9253;}
	.st6{fill:#EA6928;}
	.st7{fill:none;}
	.st8{fill:#6D6E71;}
	.st9{fill:#68330F;}
	.st10{fill:#EFF3FA;}
	.st11{fill:#414042;}
	.st12{fill:#FFCE38;}
</style>
<g>
	<path class="st0" d="M118.2,132.2h21.7v30.6h-21.7v41.5h-38v-41.5H1.9l-1.8-23.9l79.7-126h38.4V132.2z M38,132.2h42.3V64.8
		l-2.5,4.3L38,132.2z"/>
	<path class="st0" d="M478.4,132.2h21.7v30.6h-21.7v41.5h-38v-41.5H362l-1.8-23.9l79.7-126h38.4L478.4,132.2z M398.1,132.2h42.3
		V64.8l-2.5,4.3L398.1,132.2z"/>
	<g>
		<defs>
			<path id="SVGID_1_" d="M350.1,46.1c-2.2-4.3-1.3-9.5-1.1-14.3s-0.9-10.5-5.2-12.8c-3.8-2-8.7-0.6-12.4-2.4
				c-5-2.3-6.8-9.3-12.2-10.4s-9.9,4.2-15.4,4.7c-3.7,0.3-7.3-1.7-11-1.6c-4.4,0.1-8,3-11.4,6C230.3-1.7,175,26,158,77.3
				c-11.6,34.9-2.6,73.3,23.2,99.5c-3.9,4.5-6.8,9.8-8.5,15.5c-1.4,4.9-1.9,10.4,0.5,14.9c2.7,5.1,8.3,7.7,13.6,10
				c1.6,0.9,3.5,1.4,5.3,1.4c1.9,0,3.6-1.2,4.1-3c0.5-2.4-2-4.6-1.6-7.1c0.4-2.4,2.8-3.2,4.9-3.8c11.5-2.8,23.4,1.2,35,3.7
				c16.4,3.5,33.3,4,50.1,4.4c4.2,0.1,8.6,0.2,12.3-1.9c2.6-1.8,4.9-4,6.6-6.7l22.6-30.2c3-3.6,5.4-7.6,7.4-11.8
				c0.5-1.3,0.9-2.6,1.2-4c9.1-15.2,13.9-32.5,13.9-50.2c0-6.8-0.7-13.6-2.1-20.3c0.3-1.1,0.4-2.2,0.4-3.3
				c0.2-6.3-3.7-13.1-0.6-18.6c2.3-4.2,8-6.5,8.1-11.3C354.2,51.4,351.5,48.9,350.1,46.1z"/>
		</defs>
		<clipPath id="SVGID_00000099632924423926334910000000026949931632593301_">
			<use xlink:href="#SVGID_1_"  style="overflow:visible;"/>
		</clipPath>
		<g style="clip-path:url(#SVGID_00000099632924423926334910000000026949931632593301_);">
			<circle class="st2" cx="250.7" cy="108" r="97.7"/>
			<path class="st3" d="M236.6,133.2c0.6-0.7,1.3-1.3,1.8-2c-2.9-3.5-6.9-6-11.3-7.1c4,0.2,7.8,1.6,11,3.9c3.7-2.7,7.3-5.5,10.6-8.7
				c5.5-6.6,9.7-11.7,14-13.3c1.4-0.5,3-0.9,4.5-1.1l0,0c-13.6,1.1-28.1,7.1-44.1,20.8c0.9,0,1.9,0.2,2.8,0.4
				C230,127.4,233.7,129.9,236.6,133.2z"/>
			<path class="st4" d="M227,124.1c4.4,1.1,8.4,3.6,11.3,7.1c4-4.2,7.3-8.3,10.3-11.9c-3.4,3.1-6.9,6-10.6,8.7
				C234.8,125.6,231,124.3,227,124.1z"/>
			<path class="st5" d="M224.5,127.2l-2.6,2.2c-2.6,2.2-5,4.6-7.4,7c-3.5,3.7,13.4-41.4,14.7-64.9c3.8-7.2,1-16.1-6.2-19.9
				c-2-1.1-4.3-1.6-6.6-1.7c-4.7,0-10.6,2.4-12.5,6.7s-1.6,9.2-1.3,13.9c0,2.3,0.4,4.6,1.2,6.8c1.1,2.3,3.3,4,5.8,4.5
				c-12.8,25.9-20.4,53.9-24.8,82.4c18.4-5,35.2-14.6,48.9-27.9C231.4,132.6,228.2,129.4,224.5,127.2z"/>
			<path class="st6" d="M233.5,136.2c1-1,2.1-2,3.1-3c-2.8-3.3-6.5-5.7-10.6-7.1c-0.9-0.2-1.8-0.4-2.8-0.4c-0.6,1.2-1,2.4-1.2,3.7
				l2.6-2.2C228.2,129.4,231.3,132.5,233.5,136.2z"/>
			<path class="st7" d="M241.2,205.3c17.2,4,34.9,5.4,52.6,4.2c8.1-8.4,15.1-17.6,21-27.6c-17.8,15.5-40.5,24-64.1,23.9
				C247.5,205.8,244.3,205.6,241.2,205.3z"/>
			<path class="st8" d="M324.2,169.2c-0.7,1.6-1.4,3.2-2,4.7c-0.9-0.1-1.8-0.3-2.6-0.5c-1.1,2.1-2.3,4.2-3.5,6.3
				c-0.4,0.7-0.9,1.5-1.3,2.2c4.8-4.1,9.1-8.7,13-13.7c1.1-4.5,2.1-9,2.8-13.4C328.6,159.4,326.4,164.4,324.2,169.2z"/>
			<path class="st8" d="M214.1,196.2c-0.9,0.5-1.8,1-2.5,1.4c9.4,4.1,19.5,6.7,29.7,7.7C231.9,203.2,222.8,200.1,214.1,196.2z"/>
			<path class="st3" d="M205.1,174.8c2.3-1,4.9-1.2,7.3-0.6c20.1,5.1,40.7,8,61.5,8.5c4.5,0.1,8.7-2.2,10.9-6.1
				c2.7-4.6,5.1-9.3,7.2-14.2c0.4-0.8,0.7-1.6,1-2.3c-1-0.9-2-1.8-2.9-2.6c4.5-5.1,7.1-11.7,9.5-18.1c2.4-6.4,5-13,9.5-18.1
				c3.8-4.6,9.5-7.3,15.5-7.4l0,0c-16.7,0-41.6-11.3-57.4-9.1c-1.5,0.2-3,0.6-4.5,1.1c-4.3,1.6-8.5,6.7-14,13.3
				c-3,3.5-6.3,7.7-10.3,11.9l-1.8,2c-1,1-2,2-3.1,3c-13.7,13.3-30.5,22.9-48.9,27.9c-8.3,2.3-16.8,3.9-25.3,4.7
				c6.2,7.1,12.9,13.9,19.9,20.3c0.5-1.5,1.2-2.9,1.8-4.3C190.8,181.5,196.5,178.5,205.1,174.8z"/>
			<path class="st5" d="M214.1,196.2c24.4,11.1,52.9,15.1,79.7,13.3c8.6-9,16.1-19,22.3-29.8c-9.3-3.6-17.6-9.5-24-17.1
				c-2.1,4.9-4.6,9.6-7.2,14.2c-2.3,3.9-6.5,6.2-10.9,6.1c-20.7-0.5-41.3-3.4-61.4-8.5c-2.4-0.6-5-0.4-7.3,0.6
				c-8.6,3.7-14.3,6.7-24.1,10.1c-0.6,1.4-1.2,2.8-1.8,4.3c-1.8,4.4-3.2,8.9-4.2,13.6c4.9,4.1,10.1,7.9,15.5,11.4
				c0.9-1.1,1.2-2.5,0.9-3.9c-0.4-1.4-1.3-2.6-2.7-3.3c0.4-1.9,0.7-3.7,1.1-5.6c1.9,0.2,3.5,0.4,5.3,0.4
				C202.1,202,207,200.4,214.1,196.2z"/>
			<path class="st6" d="M292.1,162.6c6.4,7.7,14.6,13.6,24,17.1c1.2-2.1,2.4-4.2,3.5-6.3c-9.8-2.1-18.9-6.6-26.4-13.2
				C292.8,161,292.4,161.8,292.1,162.6z"/>
			<path class="st4" d="M331.5,116.4c1.8,2.3,3.1,4.9,3.8,7.7c1.6,7-0.8,14.2-3.4,20.9c-2.7,7-5.9,13.8-9.2,20.6
				c-9.6-0.9-18.8-3.8-27.3-8.3c8.5,6.3,18.4,10.4,28.8,11.9c2.1-4.8,4.3-9.7,6.4-14.4l0.4-0.9c2.9-6.9,5.9-13.9,6.1-21.3
				C337.2,126.7,335.6,119.8,331.5,116.4z"/>
			<path class="st3" d="M309.2,121.4c-4.5,5.1-7.1,11.7-9.5,18.1s-5,13-9.5,18.1c0.9,0.9,1.9,1.8,2.9,2.6
				c7.5,6.6,16.6,11.1,26.4,13.2c0.9,0.2,1.8,0.3,2.6,0.5c0.7-1.5,1.3-3.1,2-4.7c-10.5-1.5-20.4-5.6-28.8-11.9
				c8.5,4.6,17.7,7.4,27.3,8.3c3.2-6.8,6.4-13.6,9.2-20.6c2.6-6.7,5-13.9,3.4-20.9c-0.6-2.8-1.9-5.5-3.7-7.7c-1.2-1-2.6-1.7-4.1-2.1
				c-0.9-0.2-1.8-0.3-2.8-0.3C318.6,114.1,313,116.8,309.2,121.4z"/>
			<path class="st6" d="M285.9,101c-1.1,2.8-2.6,5.5-4.3,8.1c10.7,1.7,21.6-0.9,30.4-7.2c0.3-1,0.6-2,0.9-3
				c-1.4,0.9-2.9,1.6-4.5,2.2C301.3,104.1,293.1,104.1,285.9,101z"/>
			<path class="st5" d="M281.6,109.1c-2,3.1-4.5,5.9-7.2,8.4c10.1,5.8,22.6,5.4,32.3-1c2-4.8,3.8-9.6,5.3-14.6
				C303.3,108.2,292.3,110.8,281.6,109.1z"/>
			<path class="st9" d="M345,58.4c2.7-3.7,2.8-8.6,0.3-12.4c-1.1-1.4-1.8-3.1-1.9-4.9c0.1-1.8,0.3-3.6,0.8-5.3
				c0.9-3.4,0.9-6.9,0-10.2c-0.9-3.3-3.7-5.9-7.1-6.6c-2.5-0.3-5,0.7-7.5,0.3c-4.4-0.7-6.9-5.6-11-7.5c-2.7-1.1-5.7-1.2-8.4-0.2
				c-2.7,1-5.3,2.4-7.6,4c-2.1-1.2-4.3-2.1-6.6-2.6c-2.3-0.5-4.6,0.2-6.3,1.9c-1.1,1.7-1.9,3.6-2.4,5.6c-1.1,3.1-3.4,5.6-6.2,7.2
				c-2.9,1.6-6.6,2.3-8.2,5.2s-0.1,6.4,0,9.7c-0.1,2.5-0.7,5-1.7,7.4c-1,2.3-1.7,4.8-2,7.3c0.2,3.3,1.5,6.5,3.7,9
				c0.2-1.7,0.5-3.3,0.8-5l0.2-1v-0.1l0.1-0.9l0,0c0-0.3,0.1-0.6,0.2-0.9l0,0l0.2-0.9l0,0l0.2-0.9l0,0c0-0.3,0.1-0.6,0.2-0.9l0,0
				c0-0.3,0.1-0.6,0.2-0.9l0,0l0.2-0.9l0,0c0-0.3,0.1-0.6,0.2-1l0,0l0.2-1l0,0c0-0.3,0.1-0.6,0.2-1l0,0c0-0.3,0.1-0.6,0.2-1l0,0
				c0.1-0.3,0.2-0.6,0.2-1l0,0l0.3-1l0,0l0.3-1l0,0c0.1-0.3,0.2-0.6,0.3-1l0,0c4.3-1.4,8-4.3,10.2-8.2c4-1.2,8.4-0.3,11.6,2.4
				c3.1,2.6,5.5,5.8,7.2,9.4c1.7,3.8,3.5,7.5,5.6,11.1c2.1,3.6,5.3,6.4,9.1,8.1c-0.6,1.4-0.6,2.9,0,4.3c0.6,1.1,1.6,2.1,1.8,3.4
				c-0.1,1.1-0.3,2.1-0.7,3.1c-0.4,1.7-0.1,3.4,0.9,4.8v-0.1c0.6-2.3,1.5-4.5,2.7-6.6c1.5-2.8,3.8-5,6.7-6.3c3-1.2,6.4-0.4,8.5,2
				c0.3,0.4,0.5,0.8,0.7,1.3c0.2-0.9,0.3-1.8,0.3-2.7c0-3.1-1.3-6.3-0.1-9.1C342.4,61.4,343.6,59.9,345,58.4z"/>
			<path class="st5" d="M331.8,71.7c-2.9,1.3-5.2,3.5-6.7,6.3c-1.2,2.1-2.1,4.3-2.8,6.6v0.1c-1-1.4-1.3-3.2-0.9-4.8
				c0.4-1,0.7-2.1,0.7-3.1c-0.1-1.2-1.2-2.2-1.8-3.4c-0.6-1.4-0.6-2.9,0.1-4.3c-3.8-1.6-7-4.5-9.1-8.1c-2.2-3.5-3.7-7.4-5.6-11.1
				c-1.7-3.8-4.2-7.1-7.3-9.8c-3.2-2.7-7.6-3.6-11.6-2.4c-2.2,3.9-5.8,6.7-10.1,8.1l0,0c-0.1,0.3-0.2,0.6-0.3,1l0,0
				c0,0.3-0.2,0.6-0.3,1l0,0l-0.3,1l0,0c-0.1,0.3-0.2,0.6-0.2,1l0,0c0,0.3-0.1,0.6-0.2,1l0,0c0,0.3-0.1,0.6-0.2,1l0,0l-0.2,1l0,0
				c0,0.3-0.1,0.6-0.2,1l0,0l-0.2,0.9l0,0c0,0.3-0.1,0.6-0.2,0.9l0,0c0,0.3-0.1,0.6-0.2,0.9l0,0l-0.2,0.9l0,0c0,0.3,0,0.6-0.1,0.9
				v0.1c0,0.3-0.1,0.6-0.2,0.9l0,0l-0.1,0.9v0.5c0,0.3-0.1,0.6-0.2,1c-0.3,1.6-0.5,3.3-0.8,5c-1.3,9.4-1.6,19.2,3.7,26.8
				c2.4,3.4,5.7,6.1,9.5,7.7c7.2,3,15.4,3.1,22.6,0.1c1.5-0.6,3-1.4,4.5-2.2c4.1-2.5,7.8-5.7,10.8-9.5c0.9,0.3,1.9,0.4,2.9,0.2
				c3.3-0.5,6.4-1.7,9.2-3.5c2.1-1.3,3.8-3.1,4.9-5.3c0.8-1.8,0.9-3.9,0.2-5.7c-0.2-0.5-0.4-0.9-0.7-1.3
				C338.2,71.3,334.8,70.5,331.8,71.7z"/>
			<path class="st10" d="M200.6,40.1l26.8,48.5c1.2,2.3,9.5,0.1,18.3-4.8c8.9-4.9,15-10.7,13.8-13l-26.8-48.5L200.6,40.1z"/>
			<path class="st10" d="M263.4,74l-3.8-3.2l-16,8.9l-16.1,8.9l0.7,4.9l0,0l0,0c0,0.2,0.1,0.3,0.2,0.5c1.4,2.5,10.5,0.2,20.2-5.3
				c9.8-5.5,16.6-11.8,15.2-14.4C263.7,74.2,263.5,74.1,263.4,74z"/>
			<path class="st2" d="M244.9,82.4c-3.4,1.9-7.1,3.5-10.8,4.7c-3.4,1-4.9,0.8-5.3,0.6l-25.9-46.9L232,24.7L258,71.6
				c0,0.4-0.7,1.8-3.3,4.1C251.7,78.3,248.4,80.5,244.9,82.4z"/>
			<path class="st9" d="M277.2,56.1c3.3-1.3,7-0.4,9.2,2.4c0.4,0.6,1.2,0.8,1.8,0.5c0.6-0.4,0.8-1.2,0.5-1.8c-3-4-8.3-5.4-12.8-3.4
				c-0.6,0.4-0.8,1.1-0.5,1.8c0,0,0,0,0,0l0,0C275.8,56.2,276.6,56.4,277.2,56.1L277.2,56.1z"/>
			<path class="st9" d="M297.9,62.8c4.1-1,8.7,0.2,10.8,4c0.4,0.6,1.3,0.7,1.8,0.3c0.5-0.4,0.7-1,0.4-1.6c-2.7-4.9-8.5-6.5-13.7-5.3
				C295.5,60.6,296.2,63.2,297.9,62.8z"/>
			<path class="st11" d="M300.7,70c0.7-0.1,1.2-0.7,1.2-1.5c-0.1-0.6-0.5-1.1-1.2-1.2c-0.7,0.1-1.2,0.7-1.2,1.5
				C299.6,69.5,300.1,69.9,300.7,70z"/>
			<path class="st11" d="M280.6,64.2c0.7,0,1.3-0.6,1.3-1.3c0-0.7-0.6-1.3-1.3-1.3c-0.7,0-1.3,0.6-1.3,1.3
				C279.3,63.6,279.9,64.2,280.6,64.2z"/>
			<path class="st6" d="M290.2,81.6c-2.5-0.7-4.7-1.9-6.7-3.5c0,0.6,0.1,1.3,0.2,1.9c0.2,0.6,0.5,1.1,1,1.5c0.7,0.4,1.5,0.6,2.2,0.5
				C288,81.9,289.1,81.8,290.2,81.6z"/>
			<path class="st3" d="M290.1,92.5c-2.6-1.9-5.8-2.8-9-2.8c0.5-0.8,1.2-1.4,2-1.8c1-0.4,2.1-0.5,3.1-0.1c1,0.4,1.8,1.1,2.5,1.9
				C289.2,90.6,289.7,91.5,290.1,92.5z"/>
		</g>
	</g>
	<circle class="st12" cx="346.9" cy="175.9" r="5.5"/>
	<circle class="st0" cx="370.8" cy="75" r="4.2"/>
	<path class="st0" d="M171.4,27.6c-6.1,0-11.1-5-11.1-11.1c0-6.1,5-11.1,11.1-11.1c6.1,0,11.1,5,11.1,11.1l0,0
		C182.5,22.6,177.6,27.5,171.4,27.6z M171.4,6.6c-5.5,0-9.9,4.4-9.9,9.9c0,5.5,4.4,9.9,9.9,9.9c5.5,0,9.9-4.4,9.9-9.9
		S176.9,6.6,171.4,6.6L171.4,6.6z"/>
	<circle class="st0" cx="131.8" cy="41.7" r="4.5"/>
	<path class="st6" d="M226.5,82.8c0.7-3.9,1.2-7.9,1.4-11.8c3.3-6.2,1-13.9-5.2-17.2c-1.8-1-3.9-1.5-5.9-1.5c-2.2,0-4.4,0.5-6.4,1.5
		L226.5,82.8z"/>
	<path class="st12" d="M244.9,82.4c-3.4,1.9-7.1,3.5-10.8,4.7c-3.4,1-4.9,0.8-5.3,0.6c-0.5-0.2-0.9-1.5-1-1.8
		c-0.6-1.2-2.3-2.9-1.2-4.1c0.5-0.5,1.1-0.8,1.8-1c2.9-1,6-1.5,9.1-1.6c2.7,0,5.5-0.2,8.1-0.7c1.1-0.2,2-0.6,3.1-0.9
		c0.4,0,3.8-0.1,3.8-0.2l-0.1,0.4c0,0-1.1,0.7-1.2,0.8c-0.6,0.5-1.3,0.9-1.9,1.3C247.8,80.7,246.4,81.6,244.9,82.4z"/>
	<path class="st10" d="M232,81.8l5.4-0.7c4.8-0.7,9.6-1.8,14.2-3.4c-4.2-1.1-8.1,0.8-12.3,1.4c-2.1,0.3-5.2-0.4-7.3,0
		c-1,0.2-1.8,0.7-2.9,0.8c-0.9,0.2-1.8,0.6-2.6,1c-0.8,0.4-1.3,1.3-0.3,1.6c1,0,1.9-0.1,2.8-0.3L232,81.8z"/>
</g>
</svg>
