<?xml version="1.0" encoding="utf-8"?>
<!-- Generator: Adobe Illustrator 26.0.2, SVG Export Plug-In . SVG Version: 6.00 Build 0)  -->
<svg version="1.1" id="Layer_1" xmlns="http://www.w3.org/2000/svg" xmlns:xlink="http://www.w3.org/1999/xlink" x="0px" y="0px"
	 viewBox="0 0 280.7 100" style="enable-background:new 0 0 280.7 100;" xml:space="preserve">
<style type="text/css">
	.st0{fill:#444444;}
	.st1{fill:#FFC38D;}
	.st2{fill:#F97939;}
	.st3{fill:#F3FCFF;}
	.st4{fill:#F7872B;}
	.st5{fill:#C65305;}
	.st6{fill:#913B00;}
	.st7{fill:#F9DA95;}
	.st8{fill:#E5B973;}
	.st9{opacity:0.43;}
	.st10{fill:#FFFFFF;}
	.st11{opacity:0.25;enable-background:new    ;}
	.st12{fill:#FFF6D2;}
	.st13{fill:#FFE8D4;}
	.st14{fill:#F3AE00;}
	.st15{fill:#FFB522;}
	.st16{fill:#FF9B24;}
	.st17{fill:#E27817;}
	.st18{fill:#EDCC64;}
	.st19{opacity:0.2;enable-background:new    ;}
	.st20{fill:#B1D2DD;}
	.st21{fill:#EF7D00;}
	.st22{fill:#FFA20D;}
	.st23{opacity:0.45;}
</style>
<g>
	<path class="st0" d="M111.3,102.7c0,0,15.3-30.8,16.3-34.9c0.6-2.5,1.4-7,2.1-7.6s4.4-3.1,4.5-3.1l0,0c0-0.1,0-0.2,0-0.2
		c-0.1-2.2,0-4.4,0.3-6.5l1.7-10.1c-0.6,1.5-1.2,2.4-1.9,1.5s-0.1-2.4,1-3c0.8-0.4,1.5-0.7,2.4-0.9c1-0.3,1.6-1.6,0.9-2.1
		s-1.3,1.2-1.9,0.2s0.9-2.2,1.9-1.3s1.1,1.4,1.8,1.8c1.2,0.6,2.7,0,3.3-1.2c0.1-0.2,0.1-0.4,0.2-0.6c0.4-1.5-0.4-1.3-1.1-1.4
		s-0.6-1.3,0.9-0.6c0.6,0.3,1,0.9,1,1.6c0.1,0.7,0.6,0.7,1.1,0c0.4-0.5,0.8-2.3,2.3-2.2s2.4,2.1,1.1,1.9c-2.1-0.2-2.4,0.5-2.7,0.8
		c-0.7,1.1,0.7,3.2,2,2.8c0.8-0.2,1.9-1.5,3.5-0.8c0.8,0.3,1.4,1.3,0.1,1.8c-0.7,0.2-1.6-2-2.4-0.6c-0.4,0.7,0.4,1.7,1.7,1.8
		s2.2-0.3,3.5-0.2c1.8,0.2,3.1,1.6,1.6,2.2c-1.1,0.3-0.7-1.3-1.7-1.5s-1.3,0.5-1.3,1.3c0.1,1,2,1.4,1.4,3.3
		c-0.4,1.3-1.5,1.1-1.3,0.2c0-0.1,0.1-0.3,0.1-0.4l-2.6,8.7c-0.7,2.3-1.7,4.5-2.9,6.6h0.3c0.3,0,0.6,0.3,0.6,0.7
		c0.1,0.3,0.1,0.5,0.1,0.8c0,0.7-0.3,1.5-0.7,1.6c0,0-0.1,0-0.1,0l-1.9-0.1l0,0l2.2,0.1c0.3,0,0.5,0.2,0.6,0.4l0,0
		c0.4,0.8-0.3,2.5-1.1,2.7c-0.1,0-0.1,0-0.2,0l-2.6-0.2l0,0l1.8,0.2c0.4,0,0.7,0.3,0.8,0.7c0,0.1,0,0.2,0,0.3c0,1-0.6,1.8-1.5,2.1
		c-0.1,0-0.2,0-0.2,0c0.1,0,0.2,0.1,0.2,0.2l0,0c0.3,0.7-0.4,2.2-1.2,2.2H145l-0.6-0.1c-0.5,3.7-0.9,7.5-0.9,8.4c0,0.1,0,0.1,0,0.2
		c-0.3,1.3-3.7,1.5-7.5,0.6c-0.9-0.2-1.7-0.5-2.6-0.8c-0.7,2.4-1.6,5.3-8.8,23.7L111.3,102.7z"/>
	<path class="st0" d="M244.6,104.7c-11.2-18.9-12.1-21.8-12.8-24.2c-0.8,0.3-1.7,0.6-2.6,0.8c-3.9,0.9-7.2,0.6-7.5-0.6
		c0-0.1,0-0.1,0-0.2c-0.1-0.9-0.4-4.7-0.9-8.4l-0.6,0.1H220c-0.8-0.1-1.5-1.6-1.2-2.2l0,0c0-0.1,0.1-0.2,0.2-0.2c-0.1,0-0.2,0-0.2,0
		c-0.9-0.3-1.5-1.1-1.5-2.1c0-0.1,0-0.2,0-0.3c0.1-0.4,0.4-0.6,0.8-0.7l1.7-0.2l0,0l-2.6,0.2c-0.1,0-0.1,0-0.2,0
		c-0.9-0.2-1.5-1.9-1.1-2.7l0,0c0.1-0.3,0.3-0.4,0.6-0.4l2.2-0.1l0,0l-1.9,0.1c0,0-0.1,0-0.1,0c-0.5-0.1-0.7-0.9-0.7-1.6
		c0-0.3,0-0.5,0.1-0.8c0.1-0.4,0.3-0.7,0.6-0.7h0.3c-1.2-2.1-2.2-4.3-2.9-6.6l-2.6-8.7c0,0.1,0,0.3,0.1,0.4c0.2,0.9-0.9,1.1-1.3-0.2
		c-0.6-1.9,1.4-2.3,1.5-3.3c0.1-0.8-0.3-1.5-1.3-1.3s-0.6,1.8-1.7,1.5c-1.5-0.5-0.3-1.9,1.6-2.2c1.2-0.2,2.2,0.3,3.5,0.2
		s2.1-1.1,1.7-1.8c-0.7-1.4-1.7,0.9-2.4,0.6c-1.4-0.5-0.7-1.5,0.1-1.8c1.6-0.6,2.7,0.6,3.5,0.8c1.3,0.4,2.8-1.7,2-2.8
		c-0.2-0.4-0.6-1-2.7-0.8c-1.3,0.1-0.4-1.8,1.1-1.9s1.9,1.7,2.3,2.2c0.5,0.7,1,0.7,1.1,0c0-0.7,0.4-1.3,1-1.6
		c1.5-0.7,1.5,0.5,0.9,0.6s-1.5,0-1.1,1.4c0.3,1.3,1.6,2.2,2.9,2c0.2,0,0.4-0.1,0.6-0.2c0.7-0.4,0.8-0.9,1.8-1.8
		c0.4-0.5,1.2-0.5,1.7-0.1c0.3,0.3,0.5,0.8,0.3,1.2c-0.6,1-1.2-0.8-1.9-0.2s-0.2,1.8,0.9,2.1c0.8,0.2,1.6,0.5,2.4,0.9
		c1,0.6,1.7,2.1,1,3s-1.3,0-1.9-1.5l1.6,10c0.4,2.2,0.5,4.4,0.3,6.5c0,0.1,0,0.1,0,0.2l0,0c0.1,0,3.8,2.5,4.5,3.1s1.6,5.2,2.1,7.6
		c1,4.1,20.3,35.5,20.3,35.5L244.6,104.7z"/>
	<path class="st0" d="M46.2,44.2L46.2,44.2L46.2,44.2c-0.1-0.1-0.7-1.5-3.6-2.9c-1.6-0.8-2.2,0.4-3.2,0c-0.9-0.4-2.2,0.7-2.2,0.7
		l-0.3,0c-0.6-0.1-1.2,0.2-1.3,0.8c0,0,0,0,0,0c0,0,0,0,0,0.1l-2.1,11.7c-0.6,0.3-2.8,1.7-3.3,2.1s-1.3,3.8-1.8,5.6
		C27.4,65.2,0,102.4,0,102.4h15.1C24.5,87.3,29.9,77.7,33.3,71l0,0l0,0l0,0l4.8,1c0.4,0.1,0.9-0.2,1-0.6l1.7-5.4l0.4,0.1
		c0,0,0.1,0,0.1,0c0.5,0,1-0.9,1-1.4c0-0.1,0-0.2,0-0.2c0-0.1-0.2-0.2-0.3-0.2l-0.6-0.1l0,0l1.1,0.1h0.1c0.7-0.2,1.2-0.8,1.2-1.5
		c0-0.1,0-0.2,0-0.3c-0.1-0.3-0.4-0.5-0.7-0.4L42,61.9l0,0l1.3,0.1c0.1,0,0.2,0,0.2,0c0.6-0.5,0.9-1.3,0.7-2
		c-0.1-0.2-0.3-0.3-0.5-0.3l-1.1-0.1l0,0h0.9c0,0,0.1,0,0.1,0c0.5-0.1,0.6-1.1,0.4-1.8l0,0c-0.1-0.3-0.2-0.5-0.5-0.5h-0.3l3.5-11.6
		c0.2-0.5,0-1.2-0.5-1.4C46.3,44.2,46.2,44.2,46.2,44.2z M37.3,42l0.3,0.1l1.5,0.3c0.2,0,0.3,0.1,0.5,0.1L37.3,42z"/>
	<path class="st0" d="M157.2,57.2l3.5,11.6h-0.3c-0.2,0-0.4,0.2-0.5,0.5l0,0c-0.2,0.7,0,1.7,0.4,1.8c0,0,0.1,0,0.1,0h0.9l0,0
		l-1.1,0.1c-0.2,0-0.4,0.1-0.4,0.3c-0.2,0.7,0,1.5,0.7,2c0.1,0,0.2,0,0.3,0l1.3-0.1l0,0l-1.1,0.1c-0.3,0-0.5,0.2-0.6,0.5
		c0,0.1,0,0.2,0,0.3c0,0.7,0.5,1.3,1.2,1.5h0.2l1.1-0.1l0,0l-0.6,0.1c-0.1,0-0.2,0.1-0.3,0.2c0,0.1,0,0.2,0,0.2c0,0.6,0.5,1.4,1,1.4
		c0,0,0.1,0,0.1,0l0.4-0.1l1.6,5.4c0.1,0.4,0.6,0.7,1,0.6l4.7-1.1l0,0l0,0l0,0c3.4,6.8,8.8,16.3,10.7,19.8h15.1
		c0,0-19.9-25.6-20.8-28.6c-0.5-1.8-1.3-5.1-1.8-5.6s-2.7-1.7-3.3-2.1l-2.1-11.6c0,0,0,0,0-0.1c-0.1-0.6-0.7-1-1.3-0.8c0,0,0,0,0,0
		l-0.2,0.1c0,0-1.3-1.1-2.2-0.7s-1.6-0.9-3.2,0c-2.9,1.3-3.6,2.8-3.6,2.9l0,0H158C157.4,56,157.1,56.6,157.2,57.2
		C157.2,57.2,157.2,57.2,157.2,57.2z M164.5,54.2l0.5-0.1l1.4-0.3l0.3-0.1L164.5,54.2z"/>
	<path class="st1" d="M191.7,39.3c0,0,4.8,2.9,5.7,3.6s2.1,6.3,3,9.3c1.4,5,28.3,50.1,28.3,50.1h-20.2
		c-5.9-12.8-16.4-40.4-19.2-47.3l-1.7-13.6L191.7,39.3z"/>
	<path class="st2" d="M191.9,46.4l-2.4,2.7l4.2,17.2l0.4,0.9c3.9-0.8,3.3-2.2,2.9-4.4l-1.5-8.3c0.9,0.3,1.9,0.4,2.8,0.2
		c-2.4-1-4.1-3.1-4.5-7.9l-0.7-1L191.9,46.4z"/>
	<path class="st3" d="M195.2,66l-11.3,2.6c-0.8,0.2-1.5-0.3-1.7-1l-12.7-43.3c-0.3-1,0.3-2,1.3-2.3c0,0,0,0,0,0h0.1l15.4-3.6
		c1-0.2,2,0.4,2.2,1.4c0,0,0,0.1,0,0.1l7.8,44.4C196.4,65.1,195.9,65.8,195.2,66z"/>
	<path class="st4" d="M186.8,21.1L188,28l6.3,35.5c0.1,0.5-0.2,1-0.7,1.1l-9,2.1c-0.5,0.1-1-0.2-1.1-0.7L174,33.3l-2.5-8.6
		c-0.1-0.5,0.1-1,0.6-1.2c0,0,0,0,0,0l0,0l13.5-3.1C186.2,20.3,186.7,20.6,186.8,21.1L186.8,21.1z"/>
	<path class="st5" d="M184.6,63.7l-10.9-37.5c-0.2-0.7,0.2-1.3,0.8-1.5h0.1l9.4-2.2c0.7-0.1,1.3,0.3,1.5,0.9c0,0,0,0,0,0.1l6.8,38.4
		c0.1,0.6-0.3,1.2-0.9,1.4l-5.3,1.2C185.4,64.7,184.8,64.3,184.6,63.7z"/>
	<circle class="st6" cx="189.4" cy="60.9" r="0.9"/>
	<circle class="st6" cx="185.6" cy="44.6" r="0.9"/>
	<circle class="st6" cx="186.7" cy="32.2" r="0.9"/>
	<circle class="st6" cx="179.3" cy="39" r="0.9"/>
	<circle class="st6" cx="184.7" cy="54.5" r="0.9"/>
	<path class="st6" d="M185.6,58.2c0.1,0.2-0.1,0.5-0.3,0.5c0,0,0,0,0,0c-0.2,0.1-0.5-0.1-0.5-0.3c0,0,0,0,0,0
		c-0.1-0.2,0.1-0.5,0.3-0.5c0,0,0,0,0,0l0,0C185.3,57.9,185.5,58,185.6,58.2z"/>
	<path class="st6" d="M189.1,53.7c0.1,0.2-0.1,0.5-0.3,0.5c0,0,0,0,0,0c-0.2,0.1-0.5,0-0.6-0.3c-0.1-0.2,0-0.5,0.3-0.6
		c0,0,0.1,0,0.1,0C188.8,53.3,189,53.4,189.1,53.7C189.1,53.7,189.1,53.7,189.1,53.7z"/>
	<path class="st6" d="M189,48.1c0.1,0.2-0.1,0.5-0.3,0.5c-0.2,0.1-0.5-0.1-0.5-0.3c0,0,0,0,0,0c-0.1-0.2,0.1-0.5,0.3-0.5
		c0,0,0,0,0,0C188.8,47.7,189,47.9,189,48.1C189,48.1,189,48.1,189,48.1z"/>
	<path class="st6" d="M186,50.1c0.1,0.2-0.1,0.5-0.3,0.5c-0.2,0.1-0.5-0.1-0.5-0.3s0.1-0.5,0.3-0.5C185.7,49.8,186,49.9,186,50.1z"
		/>
	<path class="st6" d="M181.9,46.8c0.1,0.2-0.1,0.5-0.3,0.5c-0.2,0-0.5-0.1-0.5-0.4c0-0.2,0.1-0.4,0.3-0.5l0,0
		C181.6,46.4,181.9,46.6,181.9,46.8z"/>
	<path class="st6" d="M183.1,41.9c0.1,0.2-0.1,0.5-0.3,0.5c-0.2,0.1-0.5-0.1-0.5-0.3c0,0,0,0,0,0c-0.1-0.2,0.1-0.5,0.3-0.5
		c0,0,0,0,0,0C182.8,41.5,183,41.6,183.1,41.9z"/>
	<path class="st6" d="M187.2,38.2c0.1,0.2-0.1,0.5-0.3,0.5c-0.2,0.1-0.5-0.1-0.5-0.3c0,0,0,0,0,0c-0.1-0.2,0.1-0.5,0.3-0.5
		c0,0,0,0,0,0l0,0C186.9,37.8,187.1,37.9,187.2,38.2C187.2,38.2,187.2,38.2,187.2,38.2z"/>
	<path class="st6" d="M183.4,35.4c0.1,0.2-0.1,0.5-0.3,0.5c0,0,0,0,0,0c-0.2,0.1-0.5-0.1-0.5-0.3c-0.1-0.2,0.1-0.5,0.3-0.5l0,0
		C183.2,35,183.4,35.2,183.4,35.4C183.4,35.4,183.4,35.4,183.4,35.4z"/>
	<path class="st6" d="M180.7,31.6c0.1,0.2-0.1,0.5-0.3,0.5c-0.2,0.1-0.5-0.1-0.5-0.3c0,0,0,0,0,0c-0.1-0.2,0.1-0.5,0.3-0.5
		c0,0,0,0,0,0l0,0C180.4,31.3,180.7,31.4,180.7,31.6C180.7,31.6,180.7,31.6,180.7,31.6z"/>
	<path class="st7" d="M186.8,21.1L188,28c-0.6,1.2-4.4,0.2-6.5,0.4s-2.6,4.6-4.2,5.4c-1.1,0.4-2.4,0.2-3.3-0.6l-2.5-8.6
		c-0.1-0.5,0.2-1,0.6-1.2l0,0l13.5-3.1C186.1,20.3,186.6,20.6,186.8,21.1L186.8,21.1z"/>
	<ellipse transform="matrix(0.9739 -0.227 0.227 0.9739 -1.9708 41.0173)" class="st8" cx="177.4" cy="29.1" rx="0.6" ry="0.6"/>
	<path class="st8" d="M180.6,23.6c0.1,0.3-0.1,0.7-0.4,0.8c-0.3,0.1-0.7-0.1-0.8-0.4c-0.1-0.3,0.1-0.7,0.4-0.8c0,0,0,0,0,0l0,0
		C180.1,23.1,180.5,23.3,180.6,23.6C180.6,23.6,180.6,23.6,180.6,23.6z"/>
	<path class="st8" d="M184.2,24.5c0.1,0.2,0,0.4-0.2,0.4c0,0,0,0,0,0c-0.2,0.1-0.4,0-0.4-0.2c0,0,0,0,0,0c-0.1-0.2,0-0.4,0.2-0.4
		c0,0,0,0,0,0l0,0C184,24.2,184.2,24.3,184.2,24.5C184.2,24.5,184.2,24.5,184.2,24.5z"/>
	<path class="st8" d="M185.5,27c0.1,0.2,0,0.4-0.2,0.5c-0.2,0.1-0.4,0-0.5-0.2c0,0,0-0.1,0-0.1c-0.1-0.2,0-0.4,0.2-0.4c0,0,0,0,0,0
		l0,0C185.2,26.7,185.4,26.8,185.5,27C185.5,27,185.5,27,185.5,27L185.5,27z"/>
	<path class="st8" d="M173.2,24.2c0,0.2-0.1,0.4-0.2,0.4s-0.4-0.1-0.4-0.2l0,0c-0.1-0.2,0-0.4,0.2-0.4c0,0,0,0,0,0l0,0
		C173,23.9,173.2,24,173.2,24.2C173.2,24.2,173.2,24.2,173.2,24.2z"/>
	<path class="st8" d="M180.3,27.3c0.1,0.2,0,0.4-0.2,0.4c0,0,0,0,0,0c-0.2,0.1-0.4,0-0.4-0.2c0,0,0,0,0,0c-0.1-0.2,0-0.4,0.2-0.4
		c0,0,0,0,0,0l0,0C180.1,27,180.3,27.1,180.3,27.3L180.3,27.3z"/>
	<path class="st8" d="M176.4,32.7c0.1,0.2-0.1,0.4-0.2,0.4c0,0,0,0,0,0c-0.2,0.1-0.4-0.1-0.4-0.2c-0.1-0.2,0.1-0.4,0.2-0.4l0,0
		C176.2,32.4,176.3,32.5,176.4,32.7L176.4,32.7z"/>
	<path class="st8" d="M186.5,21.9c0.1,0.2,0,0.4-0.2,0.4c0,0,0,0,0,0c-0.2,0.1-0.4,0-0.5-0.2c-0.1-0.2,0-0.4,0.2-0.5
		c0,0,0.1,0,0.1,0l0,0C186.3,21.6,186.5,21.7,186.5,21.9z"/>
	<path class="st8" d="M175.9,25.8c0.1,0.2,0,0.4-0.2,0.4c0,0,0,0,0,0c-0.2,0.1-0.4,0-0.4-0.2c0,0,0,0,0,0c-0.1-0.2,0.1-0.4,0.3-0.4
		c0,0,0,0,0,0l0,0C175.7,25.5,175.9,25.6,175.9,25.8C175.9,25.8,175.9,25.8,175.9,25.8z"/>
	<g class="st9">
		<path class="st10" d="M178,26.1l8.8,36.2c0.1,0.3-0.1,0.7-0.4,0.8c0,0,0,0,0,0c-0.4,0.1-0.7-0.1-0.8-0.5L174.6,27
			c-0.3-0.9,0.2-1.9,1.1-2.2s1.9,0.2,2.2,1.1c0,0,0,0.1,0,0.1C177.9,26,178,26.1,178,26.1z"/>
	</g>
	<path class="st11" d="M188.5,19.9l7.8,44.4c0.1,0.8-0.4,1.5-1.1,1.7l-3.9,0.9l-4.3-20.4c-1.3,1-2.7-0.2-2.8-1.7l1.8-3.2l-4.6-22
		l5-1.1C187.3,18.2,188.3,18.8,188.5,19.9L188.5,19.9z"/>
	<path class="st2" d="M189.8,43c0.4-0.3,0.7-0.6,0.9-1c0,0.5-0.1,1-0.3,1.5L189.8,43z"/>
	<path class="st11" d="M173.9,21.7c0.2,1.2,0,2.3-0.4,3.4c-0.5,1,0.2,3.2,0.1,4c-0.1,1.4,0,2.9,0.2,4.3c0.3,1.8,1.4,4.5,2.5,4.9
		c1.6,0.5,3.3-0.2,4-1.8c0.7-1.8-1.7-5.5-2.4-6.9c-0.7-1.4-1.2-2.9-1.4-4.5c0-0.9,0-3.3,0.7-3.8c0.5-0.4,0.8-1,1.1-1.5l-2.3,0.1
		C175.2,20.4,174.5,21,173.9,21.7z"/>
	<path class="st12" d="M185.9,18.5L185.9,18.5l-0.9,0.2l-2.4,0.5c-1.6,0.4-3.8,1-5.2,1.5c-0.4,0.1-1.7,0.8-1.4,5
		c0.2,2.8,4.9,9.3,2.8,11c-0.3,0.2-0.5,0.4-0.8,0.5c-0.4,0.2-0.9,0.1-1.2-0.1c-1-0.5-1.7-1.5-1.9-2.7c-0.9-3.3-0.3-4.3-0.7-6.6
		c-0.4-2.8,0.6-4.6,0.5-5.6c0-0.2-0.1-0.3-0.2-0.5c-0.6-0.6-3.4,0.1-3.5,0.1l0,0c0-0.1,1.1-2.5,6.1-4.8c2.7-1.4,3.8,0.7,5.3,0.1
		S185.9,18.5,185.9,18.5z"/>
	<path class="st8" d="M174.5,22.3L174.5,22.3c0-0.2-0.1-0.3-0.2-0.5c-0.6-0.6-3.4,0.1-3.5,0.1s1-0.6,1.3-0.9s0.8-0.1,1-0.1
		s0.5-0.4,0.9-0.1S174.5,22.3,174.5,22.3z"/>
	<path class="st8" d="M185.8,18.5l-0.8,0.2l-2.4,0.5c-1.6,0.4-3.8,1-5.2,1.5c-0.4,0.1-1.7,0.8-1.4,5c0.2,2.8,4.9,9.3,2.8,11
		c-0.2,0.2-0.5,0.4-0.8,0.5v-0.1c0.7-0.7,0.9-1.8,0.5-2.7c-0.6-1.7-2.3-5.2-2.6-6.2c-0.3-1.8-0.4-3.7-0.3-5.5
		c0.1-0.6,0.9-2.4,1.6-2.7s0.4-0.3,1.2-0.3c0.5,0,1-0.3,1.2-0.8c0.5-0.4,1.2-0.6,1.9-0.3c0.6,0.3,1.3-0.4,1.8-0.4
		S185.6,18.1,185.8,18.5C185.8,18.5,185.8,18.5,185.8,18.5z"/>
	<path class="st1" d="M184.6,45.4c1.6,0.5,3.9-1.2,5.2-2.4c0,0,2.7,1.8,3.2,2.9l-1.2-6.6c-0.6-0.5-1.3-0.8-2-1.2
		c-1-0.1-2.1,1.2-3.5,2.6S183.2,45,184.6,45.4z"/>
	<path class="st13" d="M187.6,42.2c0.1,0.6-1.1,1.9-1.7,2.2c-0.5,0.3-1,0.3-1.5,0c-0.2-0.2,1.1-2.4,1.7-2.9c0.4-0.3,1-0.2,1.3,0.2
		C187.6,41.8,187.6,42,187.6,42.2z"/>
	<path class="st11" d="M184.1,52h-1.1c0.3,0.2,0.6,0.5,0.7,0.9c0.1,0.2,0.2,0.5,0.2,0.7c0.2,0.8-0.3,1.6-1,2
		c0.2,0.1,0.3,0.3,0.4,0.5c0.1,0.2,0.2,0.5,0.3,0.7c0.2,0.9-0.1,1.7-0.6,1.8l-0.3,0l-3,0.6l-4.4-14.9l7.2,0.2c1,0,1.8,0.7,1.9,1.7
		c0.1,0.8-0.4,1.5-1.1,1.8h0.7c0.7,0,1.4,0.5,1.6,1.2c0.1,0.2,0.1,0.5,0.1,0.7c0.2,1-0.5,1.9-1.5,2C184.2,52,184.2,52,184.1,52z"/>
	<path class="st1" d="M178.7,58.7L182,58l0.3,0c0.6-0.1,0.8-0.9,0.6-1.8c0-0.3-0.1-0.5-0.3-0.7c-0.3-0.5-0.7-0.8-1.1-0.7l-4.1,0.9
		c-0.2,0-0.4,0.2-0.4,0.4C176.6,56.8,177.7,58.9,178.7,58.7z"/>
	<path class="st1" d="M174,47.6l6.2-0.1l0,0h1.5c1,0,1.8-0.8,1.8-1.8c0-0.1,0-0.1,0-0.2c-0.1-1-0.9-1.7-1.9-1.7l-7.7-0.2
		c-0.4,0-0.7,0.4-0.8,0.9C172.8,45.8,173.1,47.6,174,47.6z"/>
	<path class="st13" d="M179.7,46.7l2.3,0.1c0.3,0,0.6-0.5,0.6-1.1l0,0c0-0.6-0.2-1.1-0.5-1.1l-2.3-0.1
		C179.4,44.6,179.3,46.7,179.7,46.7z"/>
	<path class="st1" d="M176.6,55.5l4.3-0.5l1-0.1c0.9-0.2,1.5-1.2,1.2-2.1c0-0.3-0.1-0.5-0.2-0.7c-0.2-0.6-0.8-1-1.4-1l-6.1,0.6
		c-0.5,0-0.9,0.3-1,0.8C174.2,53.7,175.3,55.7,176.6,55.5z"/>
	<path class="st1" d="M174.5,51.6l7.6-0.3l0,0h1.2c1-0.1,1.7-1,1.6-2c0-0.2-0.1-0.5-0.1-0.7c-0.2-0.7-0.9-1.2-1.6-1.2l-9.4,0.4
		c-0.3,0-0.6,0.2-0.8,0.5C172.5,49.3,173.3,51.7,174.5,51.6z"/>
	<path class="st13" d="M180.2,57.6l1.8-0.4c0.2,0,0.4-0.5,0.2-0.9l0,0c-0.1-0.5-0.4-0.8-0.6-0.7l-1.8,0.4
		C179.5,56,179.9,57.7,180.2,57.6z"/>
	<path class="st13" d="M181.2,50.5l2.3-0.1c0.3,0,0.5-0.5,0.5-1.1l0,0c0-0.6-0.3-1.1-0.6-1l-2.3,0.1
		C180.8,48.3,180.9,50.5,181.2,50.5z"/>
	<path class="st13" d="M179.7,54.3l2.3-0.2c0.3,0,0.5-0.5,0.4-1.1l0,0c-0.1-0.6-0.4-1-0.6-1l-2.3,0.2
		C179.1,52.2,179.3,54.3,179.7,54.3z"/>
	<path class="st2" d="M178.7,58.7L182,58c-1.2,0.1-2.3,0.1-3.5,0.1c-0.7-0.1-1.6-2-1.5-2.1C176.6,56.8,177.7,58.9,178.7,58.7z"/>
	<path class="st2" d="M174,47.6l8.1-0.2c0,0-7-0.3-7.9-0.6s-1.1-2.2-1.1-2.2C172.8,45.8,173.1,47.6,174,47.6z"/>
	<path class="st2" d="M174.5,51.6l7.6-0.3c-0.3,0-6.5,0-7.5-0.3s-1.6-2.7-1.6-2.7C172.5,49.3,173.3,51.7,174.5,51.6z"/>
	<path class="st2" d="M176.6,55.5l4.3-0.5l1.5-0.3c-1.9,0.1-3.9,0.1-5.8,0c-1.6-0.3-2.1-2.3-2.1-2.3l0,0
		C174.2,53.7,175.3,55.7,176.6,55.5z"/>
	<path class="st1" d="M105.3,44.7c0,0-6.8,4-8.1,5.1s-3.1,8.9-4.3,13.2c-2,7.1-26.4,41.2-26.4,41.2l29.1,2.1
		c-10,12.7,12.6-26.8,16-37.2l-0.5-21.4L105.3,44.7z"/>
	<path class="st2" d="M105.1,54.8l3.3,3.9l-3.5,24.9l-0.8,1.5l-3.2-0.8c-4.5-1.5-3.7-3.5-3.2-6.3l2.2-11.7c0,0-0.7,0.4-4,0.3
		c3.3-1.5,5.8-4.3,6.5-11.1l1.1-1.4L105.1,54.8z"/>
	<path class="st3" d="M100.1,82.4l16,3.9c1.1,0.3,2.2-0.3,2.5-1.3c0,0,0,0,0-0.1l18.5-61.3c0.4-1.4-0.3-2.8-1.7-3.3c0,0,0,0,0,0
		l-0.1-0.1l-22-5.3c-1.4-0.3-2.8,0.6-3.2,2c0,0,0,0,0,0c0,0,0,0.1,0,0.1L98.5,80C98.3,81.1,99,82.2,100.1,82.4z"/>
	<path class="st4" d="M112.5,18.8l-1.8,9.8l-9.4,50.3c-0.1,0.7,0.3,1.4,1,1.6l12.8,3.1c0.7,0.2,1.4-0.2,1.6-0.9l13.9-46.4l3.6-12.2
		c0.2-0.7-0.2-1.4-0.9-1.7c0,0-0.1,0-0.1,0l-19.1-4.6C113.4,17.5,112.7,18,112.5,18.8C112.5,18.7,112.5,18.7,112.5,18.8
		C112.5,18.7,112.5,18.8,112.5,18.8z"/>
	<path class="st5" d="M115.1,79.3L131,26.2c0.3-0.9-0.2-1.9-1.2-2.2h-0.1l-13.3-3.2c-0.9-0.2-1.8,0.3-2.1,1.2c0,0,0,0,0,0.1
		c0,0,0,0,0,0.1l-10.2,54.4c-0.2,0.9,0.4,1.8,1.3,2l7.6,1.8C113.9,80.7,114.8,80.2,115.1,79.3z"/>
	<circle class="st6" cx="108.3" cy="75.3" r="1.2"/>
	<circle class="st6" cx="113.9" cy="52.2" r="1.2"/>
	<path class="st6" d="M111.3,34.3c-0.2,0.7,0.2,1.3,0.9,1.5c0.7,0.2,1.3-0.2,1.5-0.9c0.2-0.7-0.2-1.3-0.9-1.5
		C112.2,33.3,111.5,33.7,111.3,34.3z"/>
	<circle class="st6" cx="123" cy="44.4" r="1.2"/>
	<path class="st6" d="M113.9,65.9c-0.2,0.7,0.2,1.3,0.9,1.5c0.7,0.2,1.3-0.2,1.5-0.9c0.2-0.7-0.2-1.3-0.9-1.5c0,0,0,0,0,0
		C114.7,64.8,114.1,65.2,113.9,65.9z"/>
	<path class="st6" d="M113.8,71.6c-0.1,0.3,0.1,0.7,0.5,0.7c0.3,0.1,0.7-0.1,0.7-0.5c0.1-0.3-0.1-0.7-0.5-0.7l0,0
		C114.2,71,113.9,71.2,113.8,71.6C113.8,71.6,113.8,71.6,113.8,71.6z"/>
	<path class="st6" d="M108.9,65.1c-0.1,0.3,0.1,0.7,0.4,0.8s0.7-0.1,0.8-0.4c0,0,0,0,0-0.1c0.1-0.3-0.1-0.7-0.4-0.7l0,0
		C109.3,64.5,109,64.7,108.9,65.1C108.9,65,108.9,65,108.9,65.1z"/>
	<circle class="st6" cx="109.6" cy="57.3" r="0.6"/>
	<circle class="st6" cx="113.9" cy="60.2" r="0.6"/>
	<path class="st6" d="M119.1,55.4c-0.1,0.3,0.1,0.7,0.5,0.7c0,0,0,0,0,0c0.3,0.1,0.7-0.1,0.7-0.5s-0.1-0.7-0.5-0.7l0,0
		C119.5,54.8,119.2,55,119.1,55.4z"/>
	<path class="st6" d="M117.5,48.4c-0.1,0.3,0.1,0.7,0.4,0.8c0.3,0.1,0.7-0.1,0.8-0.4c0,0,0-0.1,0-0.1c0.1-0.3-0.1-0.7-0.5-0.7
		c0,0,0,0,0,0C117.9,47.8,117.6,48,117.5,48.4C117.5,48.4,117.5,48.4,117.5,48.4L117.5,48.4z"/>
	<path class="st6" d="M111.7,43.1c-0.1,0.3,0.1,0.7,0.5,0.8c0.3,0.1,0.7-0.1,0.7-0.5c0.1-0.3-0.1-0.7-0.5-0.7l0,0l0,0
		C112.2,42.5,111.8,42.7,111.7,43.1C111.7,43.1,111.7,43.1,111.7,43.1z"/>
	<circle class="st6" cx="117.7" cy="39.3" r="0.6"/>
	<path class="st6" d="M121,33.8c-0.1,0.3,0.1,0.7,0.5,0.7c0,0,0,0,0,0c0.3,0.1,0.7-0.1,0.7-0.5s-0.1-0.7-0.5-0.7
		C121.4,33.3,121.1,33.5,121,33.8z"/>
	<path class="st7" d="M112.5,18.8l-1.8,9.8c0.8,1.6,6.3,0.3,9.2,0.7s3.6,6.6,6,7.7s4.8-0.7,4.8-0.7l3.6-12.2
		c0.2-0.7-0.2-1.5-0.9-1.7c0,0,0,0,0,0h-0.1l-19.1-4.6C113.4,17.5,112.6,18,112.5,18.8C112.5,18.7,112.5,18.7,112.5,18.8L112.5,18.8
		z"/>
	<path class="st8" d="M124.9,30c-0.2,0.5,0.1,1,0.6,1.2c0.5,0.2,1-0.1,1.2-0.6c0,0,0-0.1,0-0.1c0.1-0.5-0.2-1-0.6-1.1l0,0
		C125.6,29.3,125.1,29.6,124.9,30L124.9,30z"/>
	<path class="st8" d="M121.3,22.5c-0.2,0.5,0.1,1,0.6,1.2c0.5,0.2,1-0.1,1.2-0.6c0,0,0-0.1,0-0.1c0.1-0.5-0.2-1-0.6-1.1l0,0
		C122,21.7,121.5,22,121.3,22.5C121.3,22.5,121.3,22.5,121.3,22.5L121.3,22.5z"/>
	<path class="st8" d="M116.1,23.7c-0.1,0.3,0.1,0.5,0.3,0.6c0.3,0,0.5-0.1,0.6-0.4c0-0.2-0.1-0.4-0.3-0.5l0,0
		C116.4,23.3,116.2,23.4,116.1,23.7L116.1,23.7z"/>
	<path class="st8" d="M114.3,27.2c-0.1,0.3,0.1,0.5,0.3,0.6s0.5-0.1,0.6-0.3c0.1-0.3-0.1-0.5-0.3-0.6c0,0,0,0,0,0l0,0
		C114.7,26.8,114.4,26.9,114.3,27.2C114.3,27.2,114.3,27.2,114.3,27.2z"/>
	<path class="st8" d="M131.7,23.4c-0.1,0.3,0.1,0.5,0.3,0.6c0.3,0.1,0.5-0.1,0.6-0.3c0.1-0.3-0.1-0.5-0.3-0.6l0,0
		C132.1,22.9,131.8,23,131.7,23.4C131.7,23.3,131.7,23.3,131.7,23.4L131.7,23.4z"/>
	<path class="st8" d="M121.6,27.7c-0.1,0.3,0,0.5,0.2,0.7c0.3,0.1,0.5,0,0.7-0.2c0,0,0-0.1,0-0.1c0.1-0.3-0.1-0.5-0.3-0.6l0,0
		C122,27.3,121.7,27.5,121.6,27.7C121.6,27.7,121.6,27.7,121.6,27.7z"/>
	<path class="st8" d="M127.1,35.3c-0.1,0.3,0.1,0.5,0.3,0.6s0.5-0.1,0.6-0.3s-0.1-0.5-0.3-0.6c0,0,0,0,0,0l0,0
		C127.5,34.9,127.2,35.1,127.1,35.3C127.1,35.3,127.1,35.3,127.1,35.3z"/>
	<path class="st8" d="M112.9,20c-0.1,0.3,0.1,0.5,0.3,0.6c0.3,0.1,0.5-0.1,0.6-0.3c0.1-0.3-0.1-0.5-0.3-0.6c0,0,0,0,0,0l0,0
		C113.3,19.6,113,19.7,112.9,20C112.9,20,112.9,20,112.9,20z"/>
	<path class="st8" d="M127.9,25.6c-0.1,0.3,0.1,0.5,0.4,0.6c0.3,0.1,0.5-0.1,0.6-0.4c0.1-0.3-0.1-0.5-0.4-0.6l0,0
		C128.3,25.2,128,25.3,127.9,25.6C127.9,25.6,127.9,25.6,127.9,25.6L127.9,25.6z"/>
	<g class="st9">
		<path class="st10" d="M129.6,27.4l-15.7,50.4c-0.2,0.5-0.7,0.7-1.2,0.5c-0.4-0.2-0.7-0.6-0.6-1L124.9,26c0.4-1.3,1.8-2,3.1-1.6
			c1.2,0.4,1.9,1.6,1.7,2.8C129.7,27.3,129.6,27.3,129.6,27.4z"/>
	</g>
	<path class="st11" d="M110.1,17.1L98.5,80c-0.2,1.1,0.5,2.1,1.6,2.4l5.5,1.4l6.3-28.9c1.8,1.4,3.8-0.3,4.1-2.4l-2.5-4.6l6.9-31.2
		l-7.1-1.7C111.9,14.7,110.4,15.6,110.1,17.1C110.1,17,110.1,17,110.1,17.1C110.1,17,110.1,17.1,110.1,17.1z"/>
	<path class="st2" d="M108,49.8c-0.5-0.4-0.9-0.9-1.2-1.5c0,0.7,0.1,1.4,0.4,2.1L108,49.8z"/>
	<path class="st11" d="M130.8,19.9c-0.2,1.6,0,3.3,0.6,4.9c0.7,1.4-0.4,4.6-0.2,5.6c0.1,2,0,4.1-0.3,6.1c-0.4,2.6-2.1,6.3-3.6,6.9
		c-2.2,0.7-4.7-0.4-5.6-2.5c-0.9-2.5,2.5-7.8,3.5-9.8c1-2,1.7-4.1,2-6.3c0-1.2,0-4.6-0.9-5.4c-0.7-0.6-1.2-1.4-1.5-2.2l3.3,0.1
		C129.1,18,130,18.9,130.8,19.9z"/>
	<path class="st12" d="M113.8,15.1h0.1l1.2,0.3l3.5,0.8c2.3,0.6,5.4,1.4,7.4,2.2c0.5,0.2,2.4,1.2,1.9,7.2c-0.3,4-7,13.2-4,15.6
		c0.4,0.3,0.7,0.5,1.2,0.7c0.6,0.2,1.2,0.2,1.8-0.1c0.9-0.4,2-1.2,2.7-3.8c1.3-4.7,0.5-6.1,1.1-9.3c0.7-4-0.8-6.6-0.6-8
		c0-0.2,0.1-0.5,0.3-0.6c0.9-0.8,4.9,0.2,5,0.3l0,0c0-0.1-1.5-3.6-8.6-6.8c-3.8-2-5.4,1-7.6,0.1S113.8,15.1,113.8,15.1z"/>
	<path class="st8" d="M129.9,20.6L129.9,20.6c0.1-0.2,0.2-0.5,0.3-0.6c0.9-0.8,4.9,0.2,5,0.3c-0.1,0-1.4-0.9-1.9-1.3
		s-1.1-0.1-1.5-0.2s-0.7-0.5-1.3-0.2S129.9,20.6,129.9,20.6z"/>
	<path class="st8" d="M113.9,15.1l1.1,0.3l3.5,0.8c2.3,0.6,5.4,1.4,7.4,2.2c0.5,0.2,2.4,1.2,1.9,7.2c-0.3,4-7,13.2-4,15.6
		c0.4,0.3,0.7,0.5,1.2,0.7v-0.1c-1-1-1.3-2.6-0.7-3.9c0.9-2.5,3.3-7.4,3.8-8.7c0.5-2.6,0.6-5.2,0.5-7.8c-0.2-0.9-1.2-3.3-2.3-3.9
		s-0.6-0.4-1.6-0.4c-0.7,0-1.4-0.4-1.7-1.1c-0.7-0.6-1.7-0.8-2.6-0.5c-0.9,0.4-1.9-0.5-2.6-0.5S114.3,14.7,113.9,15.1
		C114,15.1,113.9,15.1,113.9,15.1z"/>
	<path class="st1" d="M115.3,53.4c-2.3,0.8-5.6-1.7-7.3-3.5c0,0-3.8,2.6-4.6,4l1.8-9.3c0.9-0.7,1.9-1.2,2.9-1.7
		c1.4-0.2,3.1,1.8,4.9,3.7S117.3,52.8,115.3,53.4z"/>
	<path class="st13" d="M111.1,48.8c-0.2,0.8,1.5,2.7,2.4,3.1c0.6,0.4,1.4,0.4,2.1,0.1c0.3-0.3-1.5-3.5-2.4-4.1
		c-0.5-0.4-1.3-0.3-1.8,0.2C111.3,48.3,111.2,48.5,111.1,48.8z"/>
	<path class="st11" d="M115.9,62.7l1.5,0.1c-0.5,0.3-0.8,0.7-1,1.2c-0.2,0.3-0.3,0.7-0.3,1c-0.3,1.2,0.3,2.4,1.4,2.9
		c-0.2,0.2-0.4,0.4-0.6,0.7c-0.2,0.3-0.3,0.6-0.4,1c-0.3,1.3,0.1,2.4,0.9,2.6l0.4,0.1l4.3,1l6.4-21.1l-10.2,0.2
		c-1.4,0-2.5,1-2.7,2.3c-0.1,1.1,0.5,2.2,1.6,2.6h-0.9c-1,0-2,0.7-2.3,1.7c-0.1,0.3-0.2,0.6-0.2,1C113.7,61.2,114.6,62.4,115.9,62.7
		z"/>
	<path class="st1" d="M123.5,72.3l-4.6-1l-0.4-0.1c-0.8-0.2-1.1-1.3-0.9-2.6c0.1-0.4,0.2-0.7,0.4-1c0.4-0.7,1-1.1,1.5-0.9l5.9,1.3
		c0.3,0,0.5,0.2,0.6,0.5C126.5,69.7,125,72.6,123.5,72.3z"/>
	<path class="st1" d="M129.3,56.6l-7.9-0.2l0,0h-2.2c-1.4,0-2.6-1.2-2.6-2.6c0-0.1,0-0.1,0-0.2c0.2-1.4,1.3-2.4,2.7-2.3l10-0.1
		c0.6,0,0.9,0.5,1.2,1.3C131.1,54,130.6,56.6,129.3,56.6z"/>
	<path class="st13" d="M122.3,55.3l-3.2,0.1c-0.4,0-0.8-0.7-0.8-1.5l0,0c0-0.8,0.3-1.5,0.7-1.6l3.2-0.1
		C122.7,52.2,122.8,55.3,122.3,55.3z"/>
	<path class="st1" d="M126.5,67.8l-6.2-0.7L119,67c-1.1-0.1-1.9-1.5-1.7-3c0-0.3,0.1-0.7,0.3-1c0.3-0.9,1.1-1.5,2.1-1.5l8.6,1
		c0.7,0,1.2,0.5,1.4,1.1C130,65.2,128.4,68,126.5,67.8z"/>
	<path class="st1" d="M128.6,62.3l-9.8-0.5l0,0l-1.8-0.1c-1.4-0.2-2.4-1.5-2.2-2.9c0-0.3,0.1-0.7,0.2-1c0.3-1,1.2-1.7,2.3-1.7
		l12.4,0.7c0.5,0,0.9,0.3,1.1,0.7C131.5,59,130.3,62.4,128.6,62.3z"/>
	<path class="st13" d="M121.4,70.7l-2.5-0.5c-0.3-0.1-0.5-0.7-0.3-1.3l0,0c0.1-0.6,0.5-1.1,0.9-1.1l2.5,0.5
		C122.4,68.4,121.9,70.8,121.4,70.7z"/>
	<path class="st13" d="M120,60.6l-3.2-0.2c-0.4,0-0.7-0.7-0.7-1.6l0,0c0-0.8,0.4-1.5,0.9-1.5l3.2,0.2
		C120.8,57.5,120.6,60.6,120,60.6z"/>
	<path class="st13" d="M122.2,66l-3.2-0.4c-0.4-0.1-0.7-0.8-0.6-1.6l0,0c0.1-0.8,0.5-1.5,0.9-1.4l3.2,0.4
		C123.1,63,122.8,66.1,122.2,66z"/>
	<path class="st2" d="M123.5,72.3l-4.6-1c1.6,0.1,3.3,0.2,4.9,0.2c1.1-0.1,2.3-2.8,2.2-3C126.5,69.7,125,72.6,123.5,72.3z"/>
	<path class="st2" d="M129.3,56.6l-10.5-0.4c0,0,9-0.3,10.2-0.7s1.6-3.1,1.6-3.2C131.1,54,130.6,56.6,129.3,56.6z"/>
	<path class="st2" d="M128.6,62.3l-9.8-0.5c0.4,0,8.2,0.1,9.7-0.4s2.3-3.8,2.3-3.8C131.5,59,130.3,62.4,128.6,62.3z"/>
	<path class="st2" d="M126.5,67.8l-6.2-0.7l-2.1-0.4c0,0,6.1,0.5,8.3,0.1c2.3-0.4,3-3.3,3-3.3l0,0C130,65.2,128.4,68,126.5,67.8z"/>
	<path class="st12" d="M244.6,18.3c0,0,2-0.1,2.5,1.2c1,2.5,1.9,3.9,3.1,2.5s0.1-3.8-1.5-4.7c-1.2-0.6-2.5-1.1-3.8-1.5
		c-1.6-0.6-2.5-2.5-1.4-3.4s2.1,2,3,0.3s-1.4-3.6-3.1-2s-1.8,2.3-2.9,3c-2,0.9-4.4,0-5.3-2c-0.1-0.3-0.2-0.6-0.3-0.8
		c-0.6-2.3,0.7-2.1,1.8-2.3c0.9-0.2,0.9-2.1-1.5-1c-1,0.4-1.7,1.4-1.7,2.4c-0.1,1.2-0.9,1.2-1.7,0.1c-0.6-0.9-1.3-3.7-3.7-3.6
		s-3.8,3.3-1.8,3.1c3.3-0.3,3.9,0.7,4.3,1.3c1.2,1.8-1.1,5.1-3.2,4.4c-1.3-0.4-3-2.4-5.6-1.4c-1.2,0.5-2.3,2.1-0.1,2.9
		c1.1,0.4,2.6-3.1,3.8-0.9c0.6,1.1-0.7,2.7-2.7,2.9s-3.5-0.5-5.5-0.3c-2.9,0.4-4.9,2.6-2.5,3.4c1.7,0.6,1.1-2,2.7-2.4s2.1,0.8,2,2.1
		c-0.1,1.7-3.2,2.2-2.3,5.3c0.6,2.1,2.4,1.8,2.1,0.3c-0.1-1.1,0-2.3,0.4-3.3l15.6-5L244.6,18.3z"/>
	<path class="st7" d="M246.3,18.4c0,0-2.1-2.6-3.7-2.5c-0.9,0.1-0.6-1.1-1.5-1.3c-2-0.5-1.6,1.1-3.2,1.2s-3.7-3.3-4.9-3
		c-1.6,0.4-2.1,4-3.5,4.2s-2.8-1.3-2.9-0.1c-0.2,1.7-2.6,3.3-3.8,3.3s-2.4-0.4-2.5,0.2c-0.1,0.2,0.3,1.3,0,2c-0.5,1.1-1.6,2.6-1,2.4
		l5.1,0.7l19.1-5.1L246.3,18.4z"/>
	<path class="st8" d="M243.5,19.1c0,0,0.4-1.8-0.9-1.7c-0.7,0-1.1-0.8-1.8-1c-1.6-0.4-2.1,1.1-3.4,1.2s-3-2.7-3.9-2.4
		c-1.3,0.3-1.7,3.3-2.8,3.4s-3-1-3.2,0c-0.1,1.4-1.4,1.4-2.4,1.8c-1.3,0.5-4.3,0.6-4.2,2.7c0,1,1.4,1.8,1.4,1.8l4.1,0.5l15.4-4.1
		L243.5,19.1z"/>
	<path class="st1" d="M250.3,46.4c0,0,6,3.9,7.1,5s2.5,8.2,3.4,12.2c1.5,6.6,19.8,39.3,19.8,39.3l-21.2,2.2
		c-8.9-24.2-9.8-29.4-13-38.5L245,49L250.3,46.4z"/>
	<path class="st2" d="M250.2,55.5L247,59l4.7,24.7l0.4,1.3c5.5-2.5,7.5-4.3,6.5-6.9c-1.2-3.2-4.9-13-4.9-13c1.2,1,2.8,1.5,4.4,1.4
		c-3-1.5-5-3.2-6-5.6L250.2,55.5z"/>
	<path class="st3" d="M232.2,59.2c1.7,6.3,3.4,24.6,3.4,24.6l22.4-5.2c0,0-6.6-17.2-7.9-23.6c-0.1-0.3-0.1-0.7-0.1-1
		c0-2.6,0.1-5.1,0.4-7.7c0-0.1,0-0.2,0-0.3c0.2-3.5,0-7-0.5-10.4l-2.7-16.1c-1.3-5.4-29.4,1.2-28.1,6.5l4.4,14.7
		c1.1,3.8,2.8,7.4,4.8,10.7C229.9,53.9,231.2,56.5,232.2,59.2z"/>
	<path class="st14" d="M252.2,72.9C252.2,72.9,252.2,72.9,252.2,72.9L252.2,72.9z"/>
	<path class="st15" d="M222.9,24.7c-0.9,0.5-1.3,1.5-1,2.5l2.7,8.9l1.3,4.2c1.3,4,3,7.9,5.3,11.4c1.7,2.4,3,5.1,3.9,7.9
		c1.4,6.1,2.4,12.3,3,18.5c0.2-1.6,14.2-4.9,15-3.5c-2.2-5.8-4-11.9-5.2-18c-0.4-3-0.4-6.1-0.1-9.1c0.3-3.6,0.1-7.3-0.5-10.9
		l-0.9-5.6l-1.5-9.1c-0.2-1-1-1.7-2-1.7c-0.4,0-0.9,0-1.5,0c-2.9,0.3-5.9,0.7-8.7,1.4c-2.9,0.6-5.7,1.5-8.4,2.6
		C223.8,24.2,223.3,24.5,222.9,24.7z"/>
	<path class="st16" d="M250.2,72.3c-1.7-5.1-3.1-10.2-4.2-15.5c-0.4-3.2-0.5-6.4-0.2-9.6c0.3-3.5,0.1-7-0.4-10.4l-2.3-14.7
		c0-0.1-0.1-0.1-0.2-0.1c-0.4,0-0.9,0-1.4,0c-2.8,0.2-5.6,0.7-8.3,1.3c-2.8,0.6-5.5,1.5-8.1,2.5c-0.4,0.2-0.9,0.4-1.2,0.6
		c-0.1,0-0.1,0.1-0.1,0.2c0,0,0,0,0,0l4,13c1.2,3.9,2.9,7.5,5.1,10.9c2.4,3.7,3.6,6.3,4.1,8.5c1.2,5.2,2.1,10.4,2.8,15.7
		C243.2,73.5,246.7,72.7,250.2,72.3L250.2,72.3z"/>
	<ellipse transform="matrix(0.9739 -0.227 0.227 0.9739 -3.7784 54.3388)" class="st17" cx="234.4" cy="43.6" rx="1.1" ry="1"/>
	<ellipse transform="matrix(0.9739 -0.227 0.227 0.9739 -1.8153 53.6154)" class="st17" cx="232.2" cy="34.7" rx="1.1" ry="1"/>
	<path class="st17" d="M241.8,30.4c0.6-0.1,1.1,0.2,1.3,0.7s-0.2,1.1-0.8,1.2s-1.1-0.2-1.3-0.7C240.9,31.1,241.2,30.5,241.8,30.4z"
		/>
	<path class="st17" d="M242.1,64.9c0.6-0.1,1.1,0.2,1.3,0.7c0.1,0.5-0.2,1.1-0.8,1.2c-0.6,0.1-1.1-0.2-1.3-0.7
		C241.2,65.6,241.6,65.1,242.1,64.9z"/>
	<ellipse transform="matrix(0.9739 -0.227 0.227 0.9739 -6.0417 56.6973)" class="st17" cx="243.5" cy="54.6" rx="1" ry="1"/>
	<ellipse transform="matrix(0.9739 -0.227 0.227 0.9739 -4.4797 55.8663)" class="st17" cx="240.7" cy="47.4" rx="0.6" ry="0.5"/>
	<path class="st17" d="M241.3,68.7c0.3,0,0.5,0.2,0.5,0.5s-0.2,0.5-0.5,0.5c-0.3,0-0.5-0.2-0.5-0.5S241.1,68.7,241.3,68.7z"/>
	<ellipse transform="matrix(0.9739 -0.227 0.227 0.9739 -2.8881 56.5062)" class="st17" cx="244.2" cy="40.8" rx="0.6" ry="0.5"/>
	<ellipse transform="matrix(0.9739 -0.227 0.227 0.9739 -2.4826 55.0139)" class="st17" cx="238" cy="38.3" rx="0.6" ry="0.5"/>
	<ellipse transform="matrix(0.9739 -0.227 0.227 0.9739 -1.3655 54.5525)" class="st17" cx="236.5" cy="33.2" rx="0.6" ry="0.5"/>
	<ellipse transform="matrix(0.9739 -0.227 0.227 0.9739 -2.818 53.3425)" class="st17" cx="230.5" cy="38.9" rx="0.6" ry="0.5"/>
	<circle class="st17" cx="246.8" cy="69.8" r="0.5"/>
	<ellipse transform="matrix(0.9739 -0.227 0.227 0.9739 -7.5124 57.2277)" class="st17" cx="245.1" cy="61.3" rx="0.6" ry="0.5"/>
	<ellipse transform="matrix(0.9739 -0.227 0.227 0.9739 -5.5009 55.073)" class="st17" cx="236.7" cy="51.5" rx="0.6" ry="0.5"/>
	<ellipse transform="matrix(0.9739 -0.227 0.227 0.9739 -7.1202 55.6523)" class="st17" cx="238.4" cy="58.8" rx="0.6" ry="0.5"/>
	<path class="st12" d="M221.9,27.1l2.3,7.4c6.7-5.2,14.2-2.1,22-5.5l-1.2-7.3c-0.2-1-1-1.7-2-1.7c-0.4,0-0.9,0-1.5,0
		c-2.9,0.3-5.9,0.7-8.7,1.4c-2.9,0.7-5.7,1.5-8.4,2.6c-0.5,0.2-1,0.5-1.4,0.7C222.1,25.1,221.6,26.2,221.9,27.1z"/>
	<ellipse transform="matrix(0.9739 -0.227 0.227 0.9739 -0.2934 54.0332)" class="st18" cx="234.8" cy="28.3" rx="0.8" ry="0.8"/>
	<ellipse transform="matrix(0.9739 -0.227 0.227 0.9739 0.9581 55.0204)" class="st18" cx="239.7" cy="23.3" rx="0.8" ry="0.8"/>
	
		<ellipse transform="matrix(0.9739 -0.227 0.227 0.9739 -1.356838e-02 52.1177)" class="st18" cx="226.6" cy="26.1" rx="0.8" ry="0.8"/>
	<path class="st18" d="M232.4,23.4c0,0.2,0.3,0.4,0.5,0.4c0,0,0,0,0,0c0.2,0,0.4-0.2,0.4-0.5s-0.2-0.4-0.5-0.4c0,0-0.1,0-0.1,0l0,0
		C232.5,23,232.4,23.2,232.4,23.4L232.4,23.4z"/>
	<path class="st18" d="M223.1,28.7c0,0.2,0.3,0.4,0.5,0.3c0.2,0,0.4-0.3,0.3-0.5c0-0.2-0.3-0.4-0.5-0.3l0,0
		C223.2,28.3,223,28.5,223.1,28.7L223.1,28.7z"/>
	<path class="st18" d="M229.5,28.3c0,0.2,0.2,0.4,0.5,0.4c0.2,0,0.4-0.2,0.4-0.5c0,0,0-0.1,0-0.1c0-0.2-0.3-0.4-0.5-0.4l0,0
		C229.6,27.8,229.5,28,229.5,28.3C229.5,28.3,229.5,28.3,229.5,28.3z"/>
	<path class="st18" d="M226.9,31.2c0,0.2,0.3,0.4,0.5,0.4c0.2,0,0.4-0.3,0.4-0.5c-0.1-0.2-0.3-0.4-0.5-0.4l0,0
		C227,30.7,226.9,30.9,226.9,31.2z"/>
	<path class="st18" d="M243.6,24c0.1,0.2,0.3,0.4,0.5,0.4c0.2,0,0.4-0.3,0.4-0.5c0-0.2-0.3-0.4-0.5-0.3l0,0
		C243.7,23.5,243.5,23.8,243.6,24L243.6,24z"/>
	<path class="st18" d="M240.1,27c0.1,0.2,0.3,0.4,0.5,0.4c0.2-0.1,0.4-0.3,0.4-0.5c-0.1-0.2-0.3-0.4-0.5-0.4l0,0
		C240.2,26.5,240.1,26.8,240.1,27z"/>
	<path class="st19" d="M232.2,59.2c1.7,6.3,3.4,24.6,3.4,24.6l8.4-2c0,0-1.8-11.8-3.4-19.7c-0.1-0.3,1.1-0.1,1.8-1.2
		c0.5-1.3,0.3-2.7-0.6-3.8c-0.4-0.5-2.1,0.9-2.2,0.4c-0.2-0.7-0.2-1-0.5-1.9c0,0,1.9,0,2.1-1.4c0-0.1-0.1-2.2-1.7-2.5
		c-0.8-0.1-1.5,1-1.6,1c-0.5-1.1-1-2.2-1.6-3.2c-2.1-3.3-3.7-6.9-4.8-10.7l-4.2-18.7c-4.9,1.6-8.5,3.8-8,5.9l4.4,14.7
		c1.1,3.8,2.8,7.4,4.8,10.7C230,53.9,231.2,56.5,232.2,59.2z"/>
	<ellipse transform="matrix(0.9739 -0.227 0.227 0.9739 -12.0061 58.1295)" class="st20" cx="246.7" cy="81.3" rx="11.5" ry="3.7"/>
	<ellipse transform="matrix(0.9739 -0.227 0.227 0.9739 -12.0061 58.1295)" class="st21" cx="246.7" cy="81.3" rx="8.6" ry="2"/>
	<path class="st22" d="M238.4,83.2c0.2,1,3.4,1.2,8.8,0s8.2-2.8,7.9-3.8c-0.1-0.3-1-1-3.1-0.8c-0.3,1.2-1.6,1.9-5.3,2.8
		s-5.8,0.7-6.2-0.1C238.8,81.9,238.3,82.9,238.4,83.2z"/>
	<path class="st1" d="M233.1,70.4l4.2-0.8l0.4-0.1c0.7-0.1,1.1-1.2,0.9-2.3c-0.1-0.3-0.2-0.6-0.3-0.9c-0.2-0.6-0.7-0.9-1.3-0.9
		l-5.4,1c-0.3,0-0.5,0.2-0.6,0.4C230.5,67.9,231.8,70.6,233.1,70.4z"/>
	<g class="st23">
		<path class="st10" d="M237.7,25c0.1,0.5,0.3,1,0.4,1.5l0.4,1.5c0.2,1,0.5,2,0.7,3c0.5,2,1,4,1.4,6c0.2,1,0.4,2,0.6,3s0.3,2,0.4,3
			c0,0.5,0.1,1,0.1,1.4v0.7c0,0.3,0,0.5,0,0.8c0,1.1,0,2.1,0,3.2c0,2.1,0.2,4.2,0.5,6.3c0.2,1.1,0.4,2.1,0.7,3.1
			c0,0.1,0.1,0.2,0.1,0.4s0.1,0.2,0.1,0.4l0.1,0.4l0.1,0.4l0.5,1.5c1.3,3.9,2.5,7.9,3.8,11.8c0.1,0.3,0.4,0.4,0.7,0.3c0,0,0,0,0,0
			c0.2-0.1,0.4-0.4,0.3-0.7l0,0c-1.1-4-2.2-8-3.3-12l-0.4-1.5l-0.2-0.8c0-0.1-0.1-0.2-0.1-0.4c0-0.1-0.1-0.2-0.1-0.4
			c-0.2-1-0.4-2-0.5-3c-0.2-2-0.3-4-0.3-6c0-1,0.1-2,0.1-3c0-0.2,0-0.5,0.1-0.8v-0.2v-0.2c0-0.1,0-0.3,0-0.4c0-0.6,0-1.1,0-1.7
			c-0.1-1.1-0.2-2.1-0.3-3.2s-0.3-2.1-0.5-3.1c-0.4-2.1-0.7-4.1-1.1-6.1c-0.2-1-0.4-2-0.6-3l-0.3-1.5c-0.1-0.5-0.2-1-0.4-1.5
			c-0.1-0.9-1-1.4-1.8-1.3c-0.9,0.1-1.4,1-1.3,1.8c0,0.1,0,0.1,0,0.2C237.7,25,237.7,25,237.7,25L237.7,25z"/>
	</g>
	<path class="st1" d="M227.8,56.2l8-0.2l0,0l2-0.1c1.3,0,2.3-1.1,2.3-2.4c0-0.1,0-0.1,0-0.2c-0.2-1.2-1.2-2.1-2.5-2.1h-10
		c-0.5,0-0.9,0.5-1,1.2C226.2,53.9,226.6,56.3,227.8,56.2z"/>
	<path class="st13" d="M235.1,55l2.9,0.1c0.4,0,0.7-0.6,0.7-1.4l0,0c0-0.8-0.3-1.4-0.7-1.4l-2.9-0.1C234.6,52.2,234.6,55,235.1,55z"
		/>
	<path class="st1" d="M231.4,66.4l5.6-0.7l1.3-0.2c1-0.1,1.7-1.4,1.5-2.7c0-0.3-0.1-0.6-0.3-0.9c-0.3-0.8-1.1-1.3-1.9-1.3l-7.8,1
		c-0.6,0-1.1,0.4-1.3,1C228.2,64.1,229.6,66.6,231.4,66.4z"/>
	<path class="st1" d="M228.5,61.4l9.8-0.6l0,0l1.6-0.1c1.3-0.2,2.2-1.4,2-2.7c0,0,0,0,0,0c0-0.3-0.1-0.6-0.2-0.9
		c-0.3-0.9-1.2-1.5-2.1-1.5l-12.1,0.8c-0.4,0-0.9,0.3-1,0.7C225.9,58.5,227,61.5,228.5,61.4z"/>
	<path class="st13" d="M235,69.1l2.3-0.4c0.3-0.1,0.4-0.6,0.4-1.2l0,0c-0.1-0.6-0.4-1-0.7-1l-2.3,0.4
		C234.3,66.9,234.6,69.1,235,69.1z"/>
	<path class="st19" d="M243.5,57c1.7,0.1,3.3-0.3,4.8-1.1l3.2,4.3c-0.6-2-1.1-3.8-1.4-5.2c-0.1-0.3-0.1-0.7-0.1-1c0-0.5,0-1,0-1.5
		l-2.2-1.5l-2.3-0.2l-2.2,1.9l-2.2,1.6c-0.2,1.3,0.8,2.6,2.1,2.7C243.3,57,243.4,57,243.5,57z"/>
	<path class="st1" d="M241.6,55c2.1,0.7,5.2-0.5,6.8-2.2c0,0,1,1.4,1.8,2.7c-0.1-3.1-0.1-6.1,0.2-9.1c-0.7-0.5-1.5-0.8-2.3-1
		c-1.3-0.1-2.7,1.7-4.4,3.5S239.9,54.5,241.6,55z"/>
	<path class="st13" d="M245.4,50.8c0.2,0.7-1.4,2.5-2.1,2.9c-0.6,0.4-1.3,0.4-1.9,0.1c-0.3-0.2,1.3-3.2,2.1-3.8
		c0.5-0.4,1.3-0.3,1.7,0.3C245.3,50.4,245.4,50.6,245.4,50.8z"/>
	<path class="st13" d="M237.2,59.8l2.9-0.2c0.4,0,0.7-0.7,0.6-1.5l0,0c0-0.8-0.4-1.4-0.8-1.3l-3,0.2C236.5,57,236.7,59.8,237.2,59.8
		z"/>
	<path class="st13" d="M235.3,64.7l2.9-0.4c0.4,0,0.6-0.7,0.5-1.5l0,0c-0.1-0.8-0.5-1.3-0.9-1.3l-2.9,0.4
		C234.4,62,234.8,64.8,235.3,64.7z"/>
	<path class="st2" d="M233.1,70.4l4.2-0.8c-1.5,0.1-3,0.1-4.5,0c-0.9-0.2-2-2.6-1.9-2.8C230.5,67.9,231.8,70.6,233.1,70.4z"/>
	<path class="st2" d="M227.8,56.2l10.4-0.5c0,0-9-0.2-10.2-0.5s-1.5-2.8-1.5-2.9C226.2,53.9,226.6,56.3,227.8,56.2z"/>
	<path class="st2" d="M228.5,61.4l9.8-0.6c-0.4,0-8.3,0.2-9.7-0.2s-2.1-3.4-2.1-3.4C225.9,58.5,227,61.5,228.5,61.4z"/>
	<path class="st2" d="M231.4,66.4l5.6-0.7l1.9-0.4c-2.5,0.3-5,0.3-7.5,0.2c-2.1-0.3-2.7-2.9-2.7-2.9l0,0
		C228.2,64.1,229.6,66.6,231.4,66.4z"/>
	<path class="st2" d="M248.4,52.9c0.4-0.5,0.7-1,0.8-1.5c0,0.7-0.1,1.5-0.4,2.2L248.4,52.9z"/>
	<path class="st12" d="M78.5,22.5l10.1,3.3c0.3,0.7,0.3,1.4,0.2,2.2c-0.2,0.9,1,1.1,1.3-0.2c0.6-2-1.4-2.4-1.5-3.5
		c0-0.9,0.3-1.6,1.3-1.4s0.7,1.9,1.8,1.6c1.6-0.5,0.3-2-1.6-2.2c-1.3-0.2-2.3,0.4-3.6,0.2s-2.1-1.2-1.8-1.9c0.8-1.4,1.7,0.9,2.4,0.6
		c1.4-0.5,0.7-1.6-0.1-1.9c-1.7-0.6-2.8,0.6-3.6,0.9c-1.3,0.4-2.9-1.7-2.1-2.9c0.2-0.4,0.6-1.1,2.8-0.9c1.3,0.1,0.4-1.9-1.1-2
		s-2,1.7-2.4,2.3s-1.1,0.7-1.1,0c0-0.7-0.4-1.4-1.1-1.7c-1.6-0.8-1.5,0.5-1,0.6s1.5,0,1.1,1.5c-0.2,1.4-1.6,2.3-3,2.1
		c-0.2,0-0.4-0.1-0.6-0.2c-0.8-0.4-0.8-0.9-1.9-1.9c-0.5-0.5-1.2-0.5-1.7,0c-0.4,0.4-0.5,0.9-0.3,1.4c0.6,1.1,1.3-0.8,2-0.2
		s0.2,1.8-0.9,2.2c-0.9,0.2-1.7,0.6-2.5,1c-1.1,0.6-1.8,2.1-1,3.1s1.4,0,2-1.6c0.4-0.9,1.6-0.8,1.6-0.8L78.5,22.5z"/>
	<path class="st7" d="M73.2,23.3l12.4,3.3l3.3-0.5c0.4,0.1-0.3-0.8-0.7-1.6c-0.2-0.4,0-1.1,0-1.3c-0.1-0.4-0.9-0.1-1.7-0.1
		c-1.2-0.2-2.1-1-2.5-2.2c-0.1-0.8-1,0.2-1.9,0s-1.2-2.5-2.3-2.8c-0.8-0.2-2.1,2-3.1,2s-0.8-1.1-2.1-0.8c-0.6,0.2-0.4,0.9-1,0.9
		c-1-0.1-2.4,1.6-2.4,1.6L73.2,23.3z"/>
	<path class="st8" d="M74.2,24l10,2.7l2.7-0.4c0,0,0.9-0.5,0.9-1.2c0-1.4-1.9-1.4-2.8-1.7c-0.6-0.2-1.4-0.3-1.5-1.2
		c-0.1-0.7-1.3,0.1-2.1,0s-1-2.1-1.8-2.2c-0.6-0.1-1.7,1.7-2.5,1.6s-1.1-1.1-2.2-0.8c-0.5,0.1-0.7,0.7-1.2,0.6
		c-0.8,0-0.6,1.1-0.6,1.1L74.2,24z"/>
	<path class="st1" d="M72.2,41.9l-0.9,11.4c-2.1,6-2.7,9.3-21.9,49H29.9c0,0,31-46.7,32-51c0.6-2.6,1.5-7.3,2.2-7.9s4.6-3.2,4.6-3.2
		L72.2,41.9z"/>
	<path class="st2" d="M67.5,49.8c-0.8,1.7-2.2,2.9-3.9,3.6c1,0,2-0.3,2.8-0.9c0,0-2.4,6.3-3.2,8.4c-0.6,1.7,0.7,2.9,4.2,4.5l0.3-0.9
		l3.1-16.1l-2.1-2.2L67.5,49.8z"/>
	<path class="st3" d="M83,43.5c1.3-2.2,2.4-4.5,3.1-7l2.9-9.5c0.8-3.5-17.5-7.8-18.3-4.3l-1.7,10.5c-0.4,2.2-0.5,4.5-0.3,6.8
		c0,0.1,0,0.1,0,0.2c0.2,1.7,0.3,3.3,0.3,5c0,0.2,0,0.4-0.1,0.6c-0.8,4.1-5.1,15.3-5.1,15.3l14.5,3.4c0,0,1.1-11.9,2.2-16
		C81.2,46.8,82,45.1,83,43.5z"/>
	<path class="st14" d="M67.5,57.4L67.5,57.4z"/>
	<path class="st14" d="M76.6,59.6L76.6,59.6z"/>
	<path class="st15" d="M85.6,25.7C83.8,25,82,24.4,80.1,24c-1.9-0.4-3.8-0.7-5.7-0.9c-0.3,0-0.7,0-1,0c-0.6,0-1.2,0.5-1.3,1.1
		l-1,5.9l-0.5,3.6c-0.4,2.3-0.5,4.7-0.3,7.1c0.2,2,0.2,4-0.1,5.9c-0.8,4-1.9,7.9-3.4,11.7c0.5-0.9,9.7,1.2,9.8,2.3
		c0.4-4.1,1-8.1,2-12c0.6-1.8,1.4-3.6,2.5-5.1c1.5-2.3,2.7-4.8,3.5-7.4l0.8-2.7l1.8-5.7c0.2-0.6-0.1-1.3-0.7-1.6
		C86.3,26,85.9,25.8,85.6,25.7z"/>
	<path class="st16" d="M68.8,57.1c2.3,0.3,4.6,0.8,6.7,1.6c0.4-3.4,1-6.9,1.8-10.2c0.6-2,1.5-3.8,2.7-5.5c1.4-2.2,2.5-4.6,3.3-7.1
		l2.6-8.5c0,0,0-0.1,0-0.1l-0.8-0.4c-1.7-0.7-3.5-1.2-5.2-1.6c-1.8-0.4-3.6-0.7-5.4-0.9h-0.9c-0.1,0-0.1,0-0.1,0.1L71.9,34
		c-0.4,2.2-0.5,4.5-0.3,6.8c0.2,2.1,0.2,4.2-0.1,6.2C70.8,50.4,69.9,53.7,68.8,57.1L68.8,57.1z"/>
	<ellipse transform="matrix(0.227 -0.9739 0.9739 0.227 23.7331 106.7436)" class="st17" cx="79.1" cy="38.4" rx="0.7" ry="0.7"/>
	<ellipse transform="matrix(0.227 -0.9739 0.9739 0.227 30.458 103.6457)" class="st17" cx="80.5" cy="32.6" rx="0.7" ry="0.7"/>
	<ellipse transform="matrix(0.227 -0.9739 0.9739 0.227 27.6161 95.7511)" class="st17" cx="74.1" cy="30.5" rx="0.7" ry="0.7"/>
	<ellipse transform="matrix(0.227 -0.9739 0.9739 0.227 5.5918 112.9086)" class="st17" cx="73.9" cy="52.9" rx="0.7" ry="0.7"/>
	<ellipse transform="matrix(0.227 -0.9739 0.9739 0.227 12.1709 106.5021)" class="st17" cx="73.2" cy="45.6" rx="0.7" ry="0.7"/>
	<ellipse transform="matrix(0.227 -0.9739 0.9739 0.227 18.1668 104.6836)" class="st17" cx="75" cy="40.9" rx="0.3" ry="0.4"/>
	<circle class="st17" cx="74.6" cy="55.1" r="0.3"/>
	<ellipse transform="matrix(0.227 -0.9739 0.9739 0.227 20.5331 99.0956)" class="st17" cx="72.7" cy="36.6" rx="0.3" ry="0.4"/>
	<ellipse transform="matrix(0.227 -0.9739 0.9739 0.227 25.2748 101.8226)" class="st17" cx="76.8" cy="35" rx="0.3" ry="0.4"/>
	<ellipse transform="matrix(0.227 -0.9739 0.9739 0.227 29.2315 100.1739)" class="st17" cx="77.7" cy="31.7" rx="0.3" ry="0.4"/>
	<ellipse transform="matrix(0.227 -0.9739 0.9739 0.227 28.6377 106.8338)" class="st17" cx="81.6" cy="35.4" rx="0.3" ry="0.4"/>
	<circle class="st17" cx="71" cy="55.5" r="0.3"/>
	<ellipse transform="matrix(0.227 -0.9739 0.9739 0.227 7.166 108.8645)" class="st17" cx="72.2" cy="49.9" rx="0.3" ry="0.4"/>
	<ellipse transform="matrix(0.227 -0.9739 0.9739 0.227 17.5917 109.2273)" class="st17" cx="77.6" cy="43.5" rx="0.3" ry="0.4"/>
	<ellipse transform="matrix(0.227 -0.9739 0.9739 0.227 12.0917 111.8209)" class="st17" cx="76.5" cy="48.3" rx="0.3" ry="0.4"/>
	<path class="st12" d="M86.5,26.1c-0.2-0.1-0.6-0.3-0.9-0.4C83.8,25,82,24.4,80.1,24c-1.9-0.4-3.8-0.7-5.7-0.9c-0.3,0-0.7,0-1,0
		c-0.6,0-1.2,0.5-1.3,1.1L71.4,29c5.1,2.2,10,0.1,14.3,3.5l1.5-4.8C87.4,27.1,87.1,26.4,86.5,26.1z"/>
	<ellipse transform="matrix(0.227 -0.9739 0.9739 0.227 33.2092 98.7911)" class="st18" cx="78.8" cy="28.5" rx="0.5" ry="0.5"/>
	<ellipse transform="matrix(0.227 -0.9739 0.9739 0.227 33.8809 93.1935)" class="st18" cx="75.6" cy="25.3" rx="0.5" ry="0.5"/>
	<ellipse transform="matrix(0.227 -0.9739 0.9739 0.227 38.6969 102.8872)" class="st18" cx="84.2" cy="27.1" rx="0.5" ry="0.5"/>
	<path class="st18" d="M80.4,25.3c0-0.1-0.1-0.3-0.2-0.3l0,0c-0.2,0-0.3,0.1-0.3,0.2c0,0.2,0.1,0.3,0.2,0.3l0,0
		C80.2,25.6,80.4,25.5,80.4,25.3C80.4,25.3,80.4,25.3,80.4,25.3L80.4,25.3z"/>
	<path class="st18" d="M86.5,28.8c0-0.2-0.1-0.3-0.2-0.3l0,0c-0.2,0-0.3,0.1-0.3,0.2c0,0.2,0.1,0.3,0.2,0.3
		C86.3,29,86.4,28.9,86.5,28.8L86.5,28.8z"/>
	<path class="st18" d="M82,28.1L82,28.1c-0.2,0-0.3,0.1-0.3,0.2c0,0.2,0.1,0.3,0.2,0.3l0,0c0.2,0,0.3-0.1,0.3-0.2c0,0,0,0,0,0
		C82.3,28.3,82.2,28.2,82,28.1C82.1,28.1,82.1,28.1,82,28.1z"/>
	<path class="st18" d="M83.8,30L83.8,30c-0.2,0-0.3,0.1-0.3,0.2c0,0.2,0.1,0.3,0.2,0.3c0.2,0,0.3-0.1,0.3-0.2
		C84,30.2,83.9,30,83.8,30z"/>
	<path class="st18" d="M73.1,25.7c0-0.2-0.1-0.3-0.2-0.3l0,0c-0.2,0-0.3,0.1-0.3,0.2c-0.1,0.1,0,0.3,0.2,0.4c0.1,0.1,0.3,0,0.4-0.2
		C73.2,25.7,73.2,25.7,73.1,25.7L73.1,25.7z"/>
	<path class="st18" d="M75.2,27.3L75.2,27.3c-0.2,0-0.3,0.1-0.3,0.3c0,0.1,0.1,0.2,0.2,0.3c0.2,0,0.3-0.1,0.3-0.2
		C75.4,27.5,75.3,27.4,75.2,27.3z"/>
	<path class="st19" d="M83,43.5c1.3-2.2,2.4-4.5,3.1-7L89,27c0.3-1.3-2.1-2.7-5.2-3.8l-2.8,12.2c-0.7,2.5-1.8,4.8-3.1,7
		c-0.4,0.7-0.7,1.4-1,2.1c0,0-0.5-0.7-1-0.6c-1,0.2-1.1,1.5-1.1,1.6c0.2,0.9,1.4,0.9,1.4,0.9c-0.2,0.6-0.2,0.8-0.3,1.2
		s-1.2-0.6-1.5-0.3c-0.5,0.7-0.7,1.6-0.4,2.5c0.4,0.7,1.2,0.6,1.2,0.8c-1,5.1-2.2,12.8-2.2,12.8l5.4,1.3c0,0,1.1-11.9,2.2-16
		C81.2,46.8,82,45.1,83,43.5z"/>
	<ellipse transform="matrix(0.227 -0.9739 0.9739 0.227 -6.3161 117.8441)" class="st20" cx="71.1" cy="62.9" rx="2.4" ry="7.5"/>
	<ellipse transform="matrix(0.227 -0.9739 0.9739 0.227 -6.3161 117.8441)" class="st21" cx="71.1" cy="62.9" rx="1.3" ry="5.6"/>
	<path class="st22" d="M75.1,62.8c-0.2,0.5-1.7,0.6-4,0s-3.3-1-3.4-1.8c-1.4-0.1-2,0.3-2,0.5c-0.2,0.7,1.6,1.7,5.1,2.5
		c3.6,0.8,5.6,0.7,5.7,0C76.6,64,76.3,63.3,75.1,62.8z"/>
	<path class="st1" d="M81.3,53.5c-0.1-0.2-0.2-0.3-0.4-0.3l-3.5-0.6c-0.3,0-0.7,0.2-0.9,0.6c-0.1,0.2-0.2,0.4-0.2,0.6
		c-0.1,0.8,0.1,1.4,0.6,1.5h0.2l2.7,0.5C80.8,56,81.6,54.2,81.3,53.5z"/>
	<g class="st23">
		<path class="st10" d="M76.9,26.3C76.9,26.3,77,26.3,76.9,26.3c0.2-0.5-0.1-1.1-0.7-1.2c0,0,0,0-0.1,0c-0.5-0.1-1.1,0.2-1.2,0.7
			c0,0,0,0,0,0c-0.1,0.3-0.2,0.7-0.2,1l-0.2,1c-0.2,0.7-0.3,1.3-0.4,2c-0.3,1.3-0.5,2.7-0.8,4c-0.1,0.7-0.2,1.3-0.3,2
			s-0.2,1.4-0.2,2.1c0,0.4,0,0.7,0,1.1c0,0.1,0,0.2,0,0.3v0.2c0,0.2,0,0.3,0,0.5c0,0.7,0.1,1.3,0.1,2c0,1.3,0,2.6-0.2,3.9
			c-0.1,0.6-0.2,1.3-0.3,1.9c0,0.1,0,0.2,0,0.2c0,0.1,0,0.2,0,0.2l-0.1,0.5l-0.3,1c-0.7,2.6-1.4,5.2-2.2,7.8l0,0
			c-0.1,0.2,0,0.4,0.2,0.5c0.2,0.1,0.4,0,0.5-0.2l0,0c0.8-2.6,1.7-5.1,2.5-7.7l0.3-1l0.1-0.2c0-0.1,0.1-0.2,0.1-0.2
			c0-0.1,0-0.2,0.1-0.3s0-0.2,0.1-0.2c0.2-0.7,0.3-1.4,0.4-2c0.2-1.4,0.3-2.8,0.3-4.2c0-0.7,0-1.4,0-2c0-0.2,0-0.3,0-0.5V39
			c0-0.3,0-0.6,0.1-0.9c0.1-0.6,0.2-1.3,0.3-1.9s0.2-1.3,0.4-2c0.3-1.3,0.6-2.6,0.9-3.9c0.2-0.6,0.3-1.3,0.5-1.9l0.3-1
			C76.8,27,76.9,26.7,76.9,26.3L76.9,26.3z"/>
	</g>
	<path class="st1" d="M84.1,44.2c-0.1-0.4-0.3-0.8-0.7-0.8H77c-0.8,0-1.5,0.6-1.6,1.4c-0.1,0.8,0.5,1.6,1.4,1.7c0,0,0.1,0,0.1,0h1.3
		l0,0l5.2,0.2C84.1,46.7,84.4,45.1,84.1,44.2z"/>
	<path class="st13" d="M78.6,44h-1.9c-0.2,0-0.4,0.4-0.4,0.9l0,0c0,0.5,0.2,0.9,0.5,0.9h1.9C79,45.8,78.9,44,78.6,44z"/>
	<path class="st1" d="M82.9,50.8c-0.1-0.4-0.4-0.7-0.8-0.7L77,49.5c-0.6,0-1.1,0.3-1.2,0.8c-0.1,0.2-0.1,0.4-0.2,0.6
		c-0.2,0.8,0.2,1.5,1,1.8l0.8,0.1l3.6,0.5C82.2,53.4,83.1,51.8,82.9,50.8z"/>
	<path class="st1" d="M84.2,47.2c-0.1-0.3-0.3-0.4-0.6-0.4l-7.9-0.5c-0.6,0-1.2,0.4-1.4,1c-0.1,0.2-0.1,0.4-0.1,0.6
		c-0.1,0.8,0.5,1.6,1.3,1.7l1,0.1l0,0l6.4,0.4C83.9,50.1,84.6,48.1,84.2,47.2z"/>
	<path class="st13" d="M78.9,53.6l-1.5-0.3c-0.2,0-0.4,0.2-0.5,0.6l0,0c-0.1,0.4,0,0.7,0.2,0.8l1.5,0.3C78.9,55,79.2,53.6,78.9,53.6
		z"/>
	<path class="st19" d="M74.8,45.4l-1.4-1l-1.4-1.3l-1.5,0.2l-1.5,1c0,0.3,0,0.7,0,1s0,0.4-0.1,0.6c-0.2,0.9-0.5,2-0.9,3.3l2.1-2.8
		c1,0.5,2,0.8,3.1,0.7c0.9,0,1.6-0.7,1.6-1.6C74.8,45.6,74.8,45.5,74.8,45.4z"/>
	<path class="st1" d="M73,41.8c-1.1-1.2-2-2.3-2.8-2.2c-0.5,0.1-1,0.3-1.5,0.7c0.2,2,0.2,4,0.1,6c0.5-0.8,1.2-1.7,1.2-1.7
		c1.1,1.2,2.8,1.7,4.4,1.4C75.5,45.5,74.1,43,73,41.8z"/>
	<path class="st13" d="M73.2,42.6c0.6,0.4,1.6,2.3,1.4,2.4c-0.4,0.2-0.8,0.2-1.2,0c-0.5-0.3-1.5-1.4-1.4-1.9c0-0.4,0.4-0.7,0.9-0.7
		C73,42.5,73.1,42.5,73.2,42.6z"/>
	<path class="st13" d="M77.4,47.1L75.5,47c-0.2,0-0.5,0.4-0.5,0.9l0,0c0,0.5,0.1,0.9,0.4,0.9l1.9,0.1C77.6,48.9,77.7,47.1,77.4,47.1
		z"/>
	<path class="st13" d="M78.7,50.3l-1.9-0.2c-0.2,0-0.5,0.3-0.6,0.8l0,0c-0.1,0.5,0.1,0.9,0.3,1l1.9,0.2
		C78.8,52.2,79.1,50.4,78.7,50.3z"/>
	<path class="st2" d="M81.3,53.5c0,0.1-0.6,1.7-1.2,1.8c-1,0.1-1.9,0.1-2.9,0l2.7,0.5C80.8,56,81.6,54.2,81.3,53.5z"/>
	<path class="st2" d="M84.1,44.1c0,0.1-0.2,1.7-1,1.9s-6.6,0.3-6.6,0.3l6.8,0.3C84.1,46.7,84.4,45.1,84.1,44.1z"/>
	<path class="st2" d="M84.2,47.2c0,0-0.5,1.9-1.4,2.2c-2.1,0.2-4.2,0.2-6.3,0.1l6.4,0.4C83.9,50.1,84.6,48.1,84.2,47.2z"/>
	<path class="st2" d="M82.9,50.8L82.9,50.8c0,0-0.4,1.7-1.8,1.9c-1.6,0.1-3.3,0-4.9-0.2l1.2,0.3l3.6,0.5
		C82.2,53.4,83.1,51.8,82.9,50.8z"/>
	<path class="st2" d="M69.7,44.9c-0.2-0.5-0.2-0.9-0.2-1.4c0.1,0.4,0.3,0.7,0.5,1L69.7,44.9z"/>
</g>
</svg>
