<svg id="Layer_1" data-name="Layer 1" xmlns="http://www.w3.org/2000/svg" xmlns:xlink="http://www.w3.org/1999/xlink" viewBox="0 0 406.49 342.78"><defs><clipPath id="clip-path"><path d="M363.12,67.79c-3.48-7-2.05-15.33-1.74-23.16S360,27.67,353,24c-6.1-3.23-14-.89-20.18-3.85-7.91-3.74-11-14.91-19.57-16.86s-16.05,6.8-24.81,7.61c-6,.56-11.78-2.69-17.8-2.55-7.11.17-12.89,4.84-18.38,9.67A157.92,157.92,0,0,0,90.12,278.84a67.46,67.46,0,0,0-13.75,25.07c-2.32,7.9-3.06,16.81.81,24.08,4.36,8.19,13.44,12.48,21.91,16.24,2.71,1.2,5.53,2.42,8.49,2.32s6.07-1.94,6.62-4.85c.73-3.89-3.25-7.5-2.59-11.41.59-3.47,4.44-5.25,7.86-6.09,18.57-4.54,37.78,1.91,56.48,5.91,26.51,5.67,53.79,6.41,80.88,7.13,6.77.18,13.92.27,19.82-3.05,4.52-2.55,7.77-6.81,10.88-11q18.3-24.35,36.59-48.7c4.53-6,9.1-12.12,11.89-19.11a36.91,36.91,0,0,0,1.91-6.38,158.37,158.37,0,0,0,19-114,24.12,24.12,0,0,0,.74-5.33c.26-10.2-6-21.09-1.06-30,3.68-6.71,13-10.57,13.06-18.22C369.7,76.32,365.39,72.37,363.12,67.79Z" style="fill:none"/></clipPath></defs><g style="clip-path:url(#clip-path)"><circle cx="202.45" cy="167.88" r="157.9" style="fill:#b1d7e7"/><path d="M179.61,208.46c1-1.07,2.06-2.13,3.06-3.19a35.23,35.23,0,0,0-18.29-11.56,33.75,33.75,0,0,1,17.72,6.34c6.23-4,11.51-9.26,17.19-14,8.87-10.72,15.67-18.93,22.6-21.53a33.78,33.78,0,0,1,7.27-1.79h0c-22,1.77-45.41,11.52-71.21,33.55a18.25,18.25,0,0,1,4.46.69C168.2,198.56,174.38,202.76,179.61,208.46Z" style="fill:#fff"/><path d="M164.38,193.71a35.23,35.23,0,0,1,18.29,11.56c6.38-6.82,11.81-13.38,16.62-19.21-5.68,4.73-11,10-17.19,14A33.75,33.75,0,0,0,164.38,193.71Z" style="fill:#bbbbbc"/><path d="M160.1,198.85c-1.38,1.15-2.75,2.31-4.11,3.5q-6.19,5.4-12,11.31s21.61-66.94,23.73-104.84a23.8,23.8,0,0,0-20.77-35c-7.57-.07-17.31,3.89-20.28,10.85s-2.6,14.84-2.19,22.4c.2,3.73.42,7.56,1.92,11s5.68,6.87,9.4,7.2c-20.66,41.8-33,87.07-40.09,133.15,36.62-10.38,61.15-27.88,79-45A42.25,42.25,0,0,0,160.1,198.85Z" style="fill:#ff9253"/><path d="M174.69,213.37q2.55-2.46,4.92-4.91c-5.23-5.7-11.41-9.9-17.21-11.48a18.25,18.25,0,0,0-4.46-.69,21.88,21.88,0,0,0-1.95,6.06c1.36-1.19,2.73-2.35,4.11-3.5A42.25,42.25,0,0,1,174.69,213.37Z" style="fill:#ea6928"/><path d="M187.11,325a289,289,0,0,0,84.89,6.7c12.17-12.35,23.85-27.78,34-44.63a157.33,157.33,0,0,1-103.52,38.67Q194.68,325.78,187.11,325Z" style="fill:none"/><path d="M321.24,266.61c-1.12,2.57-2.23,5.11-3.28,7.59-1.44-.21-2.87-.47-4.29-.75q-2.71,5.13-5.62,10.14c-.68,1.18-1.38,2.35-2.08,3.52A159,159,0,0,0,327,265c1.77-7.2,3.32-14.5,4.56-21.67C328.28,250.87,324.65,258.87,321.24,266.61Z" style="fill:#6d6e71"/><path d="M143.3,310.28c-1.41.84-2.76,1.62-4.08,2.33A157,157,0,0,0,187.11,325,238.62,238.62,0,0,1,143.3,310.28Z" style="fill:#6d6e71"/><path d="M128.9,275.7a18.26,18.26,0,0,1,11.8-.91A446.38,446.38,0,0,0,240,288.53a19.79,19.79,0,0,0,17.69-9.78A232,232,0,0,0,269.34,256c.56-1.26,1.11-2.52,1.65-3.79-1.6-1.36-3.17-2.77-4.68-4.22,7.32-8.29,11.4-18.86,15.33-29.2s8-20.92,15.28-29.23c6.31-7.18,15.64-12.41,25-12.09l-.05,0c-26.94,0-67.17-18.24-92.73-14.66a33.78,33.78,0,0,0-7.27,1.79c-6.93,2.6-13.73,10.81-22.6,21.53-4.81,5.83-10.24,12.39-16.62,19.21-1,1.06-2,2.12-3.06,3.19q-2.37,2.44-4.92,4.91c-17.81,17.15-42.34,34.65-79,45a243,243,0,0,1-40.79,7.73,402.91,402.91,0,0,0,32.16,32.8C88,296.56,89,294.24,90,292,105.72,286.49,115,281.68,128.9,275.7Z" style="fill:#fff"/><path d="M143.3,310.28c39.48,17.88,85.46,24.38,128.7,21.46,13-13.2,25.46-29.93,36.05-48.15-14.8-6.06-28.67-14.95-38.71-27.64a232,232,0,0,1-11.68,22.8A19.79,19.79,0,0,1,240,288.53a446.38,446.38,0,0,1-99.27-13.74,18.26,18.26,0,0,0-11.8.91C115,281.68,105.72,286.49,90,292c-1,2.25-2,4.57-2.93,6.94a144.66,144.66,0,0,0-6.84,21.91,255.38,255.38,0,0,0,24.94,18.42,7.3,7.3,0,0,0,1.44-6.28,8,8,0,0,0-4.3-5.26c.68-3.1,1.13-5.91,1.81-9,3.06.34,5.87.56,8.49.62C123.92,319.59,131.94,317.07,143.3,310.28Z" style="fill:#ff9253"/><path d="M269.34,256c10,12.69,23.91,21.58,38.71,27.64q2.91-5,5.62-10.14c-15.77-3.19-30.4-10.83-42.68-21.29C270.45,253.43,269.9,254.69,269.34,256Z" style="fill:#ea6928"/><path d="M333,181.3a31.41,31.41,0,0,1,6,12.46c2.57,11.31-1.27,23-5.47,33.8-4.38,11.29-9.55,22.33-14.79,33.24a117.55,117.55,0,0,1-44.08-13.45,103.4,103.4,0,0,0,46.61,19.26c3.41-7.74,7-15.74,10.27-23.28l.63-1.46c4.69-11.07,9.46-22.45,9.83-34.46C342.25,198,339.69,187,333,181.3Z" style="fill:#bbbbbc"/><path d="M296.92,189.51c-7.29,8.31-11.36,18.9-15.28,29.23s-8,20.91-15.33,29.2c1.51,1.45,3.08,2.86,4.68,4.22,12.28,10.46,26.91,18.1,42.68,21.29,1.42.28,2.85.54,4.29.75,1.05-2.48,2.16-5,3.28-7.59a103.4,103.4,0,0,1-46.61-19.26,117.55,117.55,0,0,0,44.08,13.45c5.24-10.91,10.41-22,14.79-33.24,4.2-10.8,8-22.49,5.47-33.8a31.41,31.41,0,0,0-6-12.46,15.57,15.57,0,0,0-6.63-3.32,23.45,23.45,0,0,0-4.38-.56C312.56,177.1,303.23,182.33,296.92,189.51Z" style="fill:#fff"/><path d="M259.32,156.57a72.18,72.18,0,0,1-6.86,13.05c16.89,2.89,35.18-1.6,49.18-11.63.49-1.6,1-3.21,1.43-4.81a56,56,0,0,1-7.19,3.59A48,48,0,0,1,259.32,156.57Z" style="fill:#ea6928"/><path d="M252.46,169.62a70.67,70.67,0,0,1-11.64,13.49A50,50,0,0,0,293,181.55,228.38,228.38,0,0,0,301.64,158C287.64,168,269.35,172.51,252.46,169.62Z" style="fill:#ff9253"/><path d="M354.79,87.75a17.42,17.42,0,0,0,.43-20,14.63,14.63,0,0,1-3.08-7.85,37.68,37.68,0,0,1,1.27-8.54c1.15-5.45,1.74-11.2.07-16.51s-6.08-10-11.6-10.72c-4-.48-8.11,1.19-12.11.52-7.14-1.2-11.14-9.1-17.72-12.13-4.23-1.95-9.21-1.69-13.63-.25s-8.41,3.95-12.31,6.48c-3.26-1.76-7-3.57-10.69-4.16s-7.76.24-10.21,3c-2.19,2.49-2.68,6-3.81,9.09a22,22,0,0,1-10.06,11.65c-4.69,2.54-10.73,3.73-13.23,8.43s-.14,10.34-.05,15.63c.07,4.1-1.25,8.07-2.66,11.92s-2.92,7.72-3.26,11.8,2.93,11.83,5.91,14.64c.37-2.69.79-5.35,1.21-8,.09-.53.18-1.06.26-1.58l0-.18.24-1.42,0-.15c.08-.49.16-1,.25-1.45l0-.14c.08-.49.17-1,.25-1.47l0-.1.27-1.51v-.09c.09-.51.19-1,.28-1.52v-.08c.1-.51.2-1,.29-1.52l0-.08.3-1.53v-.06c.11-.51.21-1,.32-1.54v-.05c.11-.52.22-1,.34-1.55v0c.11-.52.23-1,.35-1.56v0c.12-.52.24-1,.37-1.56v0q.18-.78.39-1.56h0l.42-1.56h0c.15-.52.29-1,.44-1.55h0l.47-1.55h0A29,29,0,0,0,261,54.27c6.28-2.24,13.49-.19,18.75,3.89s8.87,9.93,11.83,15.89,5.41,12.21,9,17.84S309,102.63,315.2,105a8,8,0,0,0-.12,6.89c.91,1.85,2.6,3.4,2.83,5.45.19,1.74-.72,3.38-1.15,5.07a9.71,9.71,0,0,0,1.53,7.8c0-.06,0-.12,0-.17a42.5,42.5,0,0,1,4.43-10.6c2.56-4.36,6.1-8.39,10.82-10.2s10.75-.84,13.74,3.24a9.28,9.28,0,0,1,1.15,2.12,18.07,18.07,0,0,0,.51-4.4c-.05-5-2.12-10.15-.2-14.73C350.05,92.42,352.81,90.34,354.79,87.75Z" style="fill:#68330f"/><path d="M333.58,109.19c-4.72,1.81-8.26,5.84-10.82,10.2a42.5,42.5,0,0,0-4.43,10.6s0,.11,0,.17a9.71,9.71,0,0,1-1.53-7.8c.43-1.69,1.34-3.33,1.15-5.07-.23-2.05-1.92-3.6-2.83-5.45a8,8,0,0,1,.12-6.89c-6.24-2.32-11.09-7.42-14.65-13.06s-6-11.88-9-17.84S285,62.24,279.76,58.16,267.29,52,261,54.27a29,29,0,0,1-16.33,13.07h0l-.47,1.55h0c-.15.51-.29,1-.44,1.55h0L243.35,72h0q-.21.78-.39,1.56v0c-.13.52-.25,1-.37,1.56v0c-.12.52-.24,1-.35,1.56v0c-.12.51-.23,1-.34,1.55v.05c-.11.51-.21,1-.32,1.54V80l-.3,1.53,0,.08c-.09.5-.19,1-.29,1.52v.08c-.09.51-.19,1-.28,1.52v.09l-.27,1.51,0,.1c-.08.49-.17,1-.25,1.47l0,.14c-.09.48-.17,1-.25,1.45l0,.15-.24,1.42,0,.18c-.08.52-.17,1.05-.26,1.58-.42,2.62-.84,5.28-1.21,8-2.07,15.13-2.55,31,5.88,43.31a35.54,35.54,0,0,0,15.39,12.47,48,48,0,0,0,36.56.2,56,56,0,0,0,7.19-3.59,68.09,68.09,0,0,0,17.67-15.4,10.3,10.3,0,0,0,4.73.3,35.16,35.16,0,0,0,14.8-5.57,21,21,0,0,0,7.87-8.72,12.38,12.38,0,0,0,.33-9.24,9.28,9.28,0,0,0-1.15-2.12C344.33,108.35,338.3,107.38,333.58,109.19Z" style="fill:#ff9253"/><path d="M122.3,43.17,86.13,125.08c-1.7,3.85,9.06,12.34,24.05,19s28.5,8.85,30.21,5l36.16-81.92Z" style="fill:#eff3fa"/><path d="M140,157.06l.43-8-27.13-12-27.13-12-5.64,5.72-.09.09h0a2.27,2.27,0,0,0-.45.66c-1.87,4.24,10,13.6,26.51,20.9s31.43,9.76,33.31,5.51A2.45,2.45,0,0,0,140,157.06Z" style="fill:#eff3fa"/><path d="M111.29,141.5a89.81,89.81,0,0,1-16.6-9.33c-4.55-3.37-5.81-5.48-6-6.14l35-79.21L172.9,68.54l-35,79.21c-.58.34-3,.83-8.54-.26A89.49,89.49,0,0,1,111.29,141.5Z" style="fill:#ffce38"/><path d="M159,42.44c2.83,2.41,7,2.45,10.65,1.87s7.39-1.67,11.06-1c6.65,1.15,11.32,8.18,11,14.91S186.73,71,180.88,74.34c-3.82,2.19-8.11,3.4-12.34,4.58s-9.13,2.32-12.95.06c-4.54-2.69-5.84-9.19-10.56-11.55-3.36-1.67-7.43-.71-11.06-1.66-4.7-1.23-8-5.4-10.77-9.36-2.55-3.58-5.14-7.4-5.54-11.78s2.24-9.35,6.59-9.93c3.69-.5,7.1,2.17,10.82,2.41,3,.18,5.8-1.2,8.6-2.24s6.06-1.74,8.67-.28C155.36,36.28,156.36,40.19,159,42.44Z" style="fill:#fff"/><path d="M99.54,124.66A1.51,1.51,0,1,1,98,123.15,1.51,1.51,0,0,1,99.54,124.66Z" style="fill:#feb806"/><circle cx="104.44" cy="116.75" r="1.13" style="fill:#feb806"/><circle cx="114.91" cy="128.73" r="1.43" style="fill:#feb806"/><path d="M118.79,114.4a1.23,1.23,0,1,1-1.23-1.23A1.23,1.23,0,0,1,118.79,114.4Z" style="fill:#feb806"/><path d="M119.45,101.12a.95.95,0,1,1-.94-.94A.94.94,0,0,1,119.45,101.12Z" style="fill:#feb806"/><circle cx="132.54" cy="117.46" r="3.06" style="fill:#feb806"/><path d="M136.45,106.4a1.51,1.51,0,1,1-1.51-1.51A1.51,1.51,0,0,1,136.45,106.4Z" style="fill:#feb806"/><path d="M127,87a1.51,1.51,0,1,1-1.5-1.51A1.51,1.51,0,0,1,127,87Z" style="fill:#feb806"/><path d="M114.91,91.39A1.94,1.94,0,1,1,113,89.45,1.94,1.94,0,0,1,114.91,91.39Z" style="fill:#feb806"/><circle cx="134.56" cy="93.4" r="1.13" style="fill:#feb806"/><path d="M140.73,78.14A2.14,2.14,0,1,1,138.59,76,2.14,2.14,0,0,1,140.73,78.14Z" style="fill:#feb806"/><circle cx="153.93" cy="94.88" r="2.61" style="fill:#feb806"/><circle cx="124.11" cy="75.23" r="2.91" style="fill:#feb806"/><circle cx="129.29" cy="129.56" r="2.26" style="fill:#feb806"/><path d="M129.29,139.16a1.88,1.88,0,1,1-1.88-1.88A1.88,1.88,0,0,1,129.29,139.16Z" style="fill:#feb806"/><path d="M142.73,122.59a2.07,2.07,0,1,1-2.07-2.07A2.07,2.07,0,0,1,142.73,122.59Z" style="fill:#feb806"/><path d="M144.92,101.28a1.1,1.1,0,1,1-1.09-1.1A1.09,1.09,0,0,1,144.92,101.28Z" style="fill:#feb806"/><path d="M245.36,83.92a12.71,12.71,0,0,1,14.88,4,2.16,2.16,0,0,0,2.9.76,2.14,2.14,0,0,0,.76-2.9,17.07,17.07,0,0,0-20.68-5.47,2.11,2.11,0,0,0-.76,2.9,2.17,2.17,0,0,0,2.9.76Z" style="fill:#68330f"/><path d="M282.22,89.25c6.75.18,13.43,3.83,15.16,10.72.67,2.65,4.75,1.51,4.08-1.14-2.2-8.76-10.7-13.59-19.3-13.81-2.73-.07-2.67,4.16.06,4.23Z" style="fill:#68330f"/><path d="M286.46,108.56c2.73,0,2.73-4.24,0-4.24s-2.74,4.24,0,4.24Z" style="fill:#414042"/><path d="M254,99.15c2.74,0,2.74-4.24,0-4.24s-2.73,4.24,0,4.24Z" style="fill:#414042"/><path d="M266.21,125.17a28.76,28.76,0,0,1-10.82-5.7,15.08,15.08,0,0,0,.34,3.09,4.66,4.66,0,0,0,1.63,2.39,6.3,6.3,0,0,0,3.61.87A33.35,33.35,0,0,0,266.21,125.17Z" style="fill:#ea6928"/><path d="M276.52,137.15c-9.1,1.35-18.55-.16-25.76-4.12a14.57,14.57,0,0,0,2.79,7.08,11.18,11.18,0,0,0,7.53,4,16.36,16.36,0,0,0,8.48-1.75C272.14,141.1,274.32,138.8,276.52,137.15Z" style="fill:#fff"/></g><circle cx="45.62" cy="216.13" r="27.97" style="fill:#9ecadd"/><circle cx="357.91" cy="277.57" r="8.9" style="fill:#ffce38"/><circle cx="396.47" cy="114.44" r="6.78" style="fill:#9ecadd"/><path d="M74.43,37.88A17.94,17.94,0,1,1,92.37,19.94,18,18,0,0,1,74.43,37.88Zm0-33.9a16,16,0,1,0,16,16A16,16,0,0,0,74.43,4Z" style="fill:#9ecadd"/><circle cx="10.45" cy="60.62" r="7.2" transform="translate(-50.94 56.7) rotate(-76.57)" style="fill:#9ecadd"/></svg>