<?xml version="1.0" encoding="utf-8"?>
<!-- Generator: Adobe Illustrator 26.0.2, SVG Export Plug-In . SVG Version: 6.00 Build 0)  -->
<svg version="1.1" id="Layer_1" xmlns="http://www.w3.org/2000/svg" xmlns:xlink="http://www.w3.org/1999/xlink" x="0px" y="0px"
	 viewBox="0 0 1000 500" style="enable-background:new 0 0 1000 500;" xml:space="preserve">
<style type="text/css">
	.st0{clip-path:url(#SVGID_00000065066460391471914080000005461692138026254773_);}
	.st1{opacity:5.000000e-02;fill:#FFFFFF;enable-background:new    ;}
	.st2{fill:#FFF6D2;}
	.st3{fill:#FFC38D;}
	.st4{fill:#F97939;}
	.st5{fill:#F3FCFF;}
	.st6{fill:#F7872B;}
	.st7{fill:#C65305;}
	.st8{fill:#913B00;}
	.st9{fill:#F9DA95;}
	.st10{fill:#E5B973;}
	.st11{opacity:0.43;}
	.st12{fill:#FFFFFF;}
	.st13{opacity:0.25;enable-background:new    ;}
	.st14{fill:#FFE8D4;}
	.st15{fill:#375A7F;}
	.st16{fill:#F3AE00;}
	.st17{fill:#FFB522;}
	.st18{fill:#FF9B24;}
	.st19{fill:#E27817;}
	.st20{fill:#EDCC64;}
	.st21{opacity:0.2;enable-background:new    ;}
	.st22{fill:#B1D2DD;}
	.st23{fill:#EF7D00;}
	.st24{fill:#FFA20D;}
	.st25{opacity:0.45;}
	.st26{clip-path:url(#SVGID_00000104692309967738922790000002234232199183911812_);fill:#375A7F;}
	.st27{clip-path:url(#SVGID_00000108298002469088294060000000464196643183394480_);fill:#375A7F;}
	.st28{enable-background:new    ;}
</style>
<g>
	<g>
		<defs>
			<rect id="SVGID_1_" width="1000" height="500"/>
		</defs>
		<clipPath id="SVGID_00000151529237696650102650000001572491568180299956_">
			<use xlink:href="#SVGID_1_"  style="overflow:visible;"/>
		</clipPath>
		<g style="clip-path:url(#SVGID_00000151529237696650102650000001572491568180299956_);">
			<g>
				<g>
					<circle class="st1" cx="494.1" cy="250" r="621.2"/>
					<circle class="st1" cx="500" cy="248.5" r="501.4"/>
					<circle class="st1" cx="500" cy="248.5" r="362.6"/>
					<circle class="st1" cx="500" cy="248.5" r="265.6"/>
					<circle class="st1" cx="500" cy="248.5" r="183.3"/>
					<circle class="st1" cx="500" cy="248.5" r="131.9"/>
				</g>
				<g>
					<circle class="st2" cx="405.7" cy="61.5" r="5.6"/>
					<circle class="st2" cx="676.3" cy="353.7" r="5.6"/>
					<circle class="st2" cx="277.1" cy="-43.1" r="5.6"/>
					<circle class="st2" cx="315.2" cy="372.9" r="5.6"/>
					<circle class="st2" cx="579" cy="88.1" r="3.5"/>
					<circle class="st2" cx="732.6" cy="250.3" r="3.5"/>
					<path class="st2" d="M455.6,175.4c0,1.9-1.5,3.5-3.5,3.5c-1.9,0-3.5-1.5-3.5-3.4s1.5-3.5,3.5-3.5l0,0
						C454.1,172,455.6,173.5,455.6,175.4z"/>
					<path class="st2" d="M347.8,153.1c0,1.9-1.5,3.5-3.5,3.5s-3.5-1.5-3.5-3.5c0-1.9,1.5-3.5,3.5-3.5l0,0
						C346.2,149.6,347.7,151.1,347.8,153.1C347.8,153,347.8,153.1,347.8,153.1z"/>
					<path class="st2" d="M892.9-13.5c0,1.7-1.4,3.1-3.1,3.1s-3.1-1.4-3.1-3.1s1.4-3.1,3.1-3.1l0,0
						C891.5-16.6,892.9-15.2,892.9-13.5L892.9-13.5z"/>
					<circle class="st2" cx="969.2" cy="192.7" r="3.1"/>
					<circle class="st2" cx="730.4" cy="-2.7" r="5"/>
					<ellipse class="st2" cx="693.6" cy="137.1" rx="5" ry="5"/>
					<circle class="st2" cx="931.7" cy="82.5" r="5"/>
					<path class="st2" d="M140.8-43.1c0,1.7,1.4,3.1,3.1,3.2c1.7,0,3.2-1.4,3.2-3.1c0-1.7-1.4-3.2-3.1-3.2
						C142.2-46.3,140.8-44.9,140.8-43.1C140.8-43.2,140.8-43.2,140.8-43.1z"/>
					<path class="st2" d="M99.8,114.5c0,1.7,1.4,3.2,3.1,3.2s3.2-1.4,3.2-3.1s-1.4-3.2-3.1-3.2C101.2,111.3,99.8,112.7,99.8,114.5
						L99.8,114.5z"/>
					<path class="st2" d="M47.1,230.9c0,1.7,1.4,3.2,3.1,3.2c1.7,0,3.2-1.4,3.2-3.1c0-1.7-1.4-3.2-3.1-3.2
						C48.6,227.8,47.1,229.2,47.1,230.9L47.1,230.9z"/>
					<circle class="st2" cx="68.8" cy="49.5" r="5"/>
				</g>
			</g>
			<g>
				<path class="st3" d="M920.6,207.5c0,0,26.4,15.8,31.4,20s11.9,34.9,16.5,51.6c7.6,27.9,32.1,56.7,32.1,56.7v198.6
					C981,485,922.7,333,907.2,294.5l-9.1-75L920.6,207.5z"/>
				<path class="st4" d="M921.4,246.7l-13,15.1l23.2,95.1l2,4.8c21.4-4.3,18.4-12,16.1-24.4l-8.1-45.7c0,0,2.6,1.5,15.7,1.3
					c-13-5.8-22.6-16.9-25.1-43.6l-4.1-5.4L921.4,246.7z"/>
				<path class="st5" d="M939.6,354.8l-62.5,14.5c-4.2,1-8.4-1.5-9.6-5.6l-70.1-239.2c-1.6-5.4,1.5-11.2,7-12.8
					c0.2-0.1,0.4-0.1,0.6-0.2l85.4-19.9c5.5-1.3,11.1,2.2,12.4,7.7c0,0.2,0.1,0.4,0.1,0.6l42.9,245.6
					C946.5,349.7,943.8,353.8,939.6,354.8z"/>
				<path class="st6" d="M893.5,106.5l6.8,38.1l34.8,196.2c0.5,2.7-1.3,5.4-4,6l-49.9,11.7c-2.7,0.6-5.5-1-6.2-3.6l-52.5-181.2
					l-13.7-47.4c-0.8-2.8,0.8-5.7,3.6-6.5c0.1,0,0.2,0,0.2-0.1l74.6-17.4c2.8-0.7,5.7,1.1,6.3,3.9
					C893.5,106.3,893.5,106.4,893.5,106.5z"/>
				<path class="st7" d="M881.2,342.1l-60.1-207.2c-1-3.6,1-7.3,4.6-8.4c0.1,0,0.2-0.1,0.3-0.1l51.9-12.1c3.6-0.8,7.2,1.4,8.1,5
					c0,0.1,0.1,0.2,0.1,0.4l37.7,212.4c0.6,3.5-1.6,6.9-5.1,7.7l-29.5,6.9C885.8,347.6,882.2,345.5,881.2,342.1z"/>
				<circle class="st8" cx="907.8" cy="326.6" r="4.8"/>
				<circle class="st8" cx="886.8" cy="236.6" r="4.8"/>
				<circle class="st8" cx="892.8" cy="168.2" r="4.8"/>
				<circle class="st8" cx="851.7" cy="205.9" r="4.8"/>
				<circle class="st8" cx="881.8" cy="291" r="4.8"/>
				<path class="st8" d="M886.7,312c0.3,1.3-0.5,2.6-1.8,2.9s-2.6-0.5-2.9-1.8c-0.3-1.3,0.5-2.6,1.8-2.9l0,0
					C885.1,310,886.4,310.8,886.7,312L886.7,312z"/>
				<path class="st8" d="M905.9,286.8c0.3,1.3-0.5,2.6-1.8,2.9s-2.6-0.5-2.9-1.8c-0.3-1.3,0.5-2.5,1.8-2.9
					C904.3,284.7,905.6,285.5,905.9,286.8L905.9,286.8z"/>
				<path class="st8" d="M905.8,256c0.3,1.3-0.5,2.6-1.8,2.9s-2.6-0.5-2.9-1.8c-0.3-1.3,0.5-2.6,1.8-2.9
					C904.2,253.9,905.5,254.7,905.8,256L905.8,256z"/>
				<path class="st8" d="M889,267.2c0.3,1.3-0.5,2.6-1.8,2.9s-2.6-0.5-2.9-1.8c-0.3-1.3,0.5-2.6,1.8-2.9
					C887.4,265.1,888.7,265.9,889,267.2L889,267.2z"/>
				<path class="st8" d="M866.5,248.7c0.3,1.3-0.5,2.6-1.8,2.9c-1.3,0.3-2.6-0.5-2.9-1.8s0.5-2.6,1.8-2.9l0,0
					C865,246.7,866.2,247.4,866.5,248.7L866.5,248.7z"/>
				<path class="st8" d="M873,221.5c0.3,1.3-0.5,2.6-1.8,2.9c-1.3,0.3-2.6-0.5-2.9-1.8c-0.3-1.3,0.5-2.6,1.8-2.9
					C871.4,219.5,872.7,220.3,873,221.5L873,221.5z"/>
				<path class="st8" d="M895.5,201.1c0.3,1.3-0.5,2.6-1.8,2.9c-1.3,0.3-2.6-0.5-2.9-1.8s0.5-2.6,1.8-2.9l0,0
					C893.9,199,895.2,199.8,895.5,201.1L895.5,201.1z"/>
				<path class="st8" d="M874.9,185.7c0.3,1.3-0.5,2.6-1.8,2.9c-1.3,0.3-2.6-0.5-2.9-1.8s0.5-2.6,1.8-2.9l0,0
					C873.3,183.6,874.6,184.4,874.9,185.7C874.9,185.6,874.9,185.7,874.9,185.7z"/>
				<path class="st8" d="M859.8,165c0.3,1.3-0.5,2.6-1.8,2.9c-1.3,0.3-2.6-0.5-2.9-1.8s0.5-2.6,1.8-2.9l0,0
					C858.2,162.9,859.5,163.7,859.8,165z"/>
				<path class="st9" d="M893.5,106.5l6.8,38.1c-3.3,6.4-24.4,1-35.9,2.3S850,172.5,841,176.7s-18.5-3.1-18.5-3.1l-13.7-47.4
					c-0.8-2.8,0.8-5.7,3.6-6.5c0.1,0,0.2,0,0.2-0.1l74.6-17.4c2.8-0.6,5.7,1.2,6.3,4C893.5,106.4,893.5,106.4,893.5,106.5z"/>
				
					<ellipse transform="matrix(0.9739 -0.227 0.227 0.9739 -12.2695 194.8874)" class="st10" cx="841.2" cy="150.8" rx="3.5" ry="3.4"/>
				<path class="st10" d="M859,120.7c0.5,1.9-0.6,3.9-2.5,4.4s-3.9-0.6-4.4-2.5s0.6-3.9,2.5-4.4h0.1
					C856.6,117.6,858.5,118.8,859,120.7z"/>
				<path class="st10" d="M879.2,125.5c0.3,1-0.3,2.1-1.4,2.4c-1.1,0.3-2.1-0.3-2.4-1.4c-0.3-1,0.3-2.1,1.4-2.4c0,0,0,0,0.1,0
					C877.9,123.9,879,124.5,879.2,125.5z"/>
				<path class="st10" d="M886.1,139.5c0.3,1-0.3,2.1-1.4,2.4s-2.1-0.3-2.4-1.4s0.3-2.1,1.4-2.4c0,0,0,0,0.1,0
					C884.8,137.8,885.8,138.4,886.1,139.5L886.1,139.5z"/>
				<path class="st10" d="M818.5,123.6c0.3,1-0.3,2.1-1.4,2.4s-2.1-0.3-2.4-1.4c-0.3-1,0.3-2.1,1.4-2.4c0,0,0,0,0.1,0
					C817.2,122,818.3,122.6,818.5,123.6z"/>
				<path class="st10" d="M857.7,141.1c0.3,1-0.3,2.1-1.4,2.4s-2.1-0.3-2.4-1.4s0.3-2.1,1.4-2.4c0,0,0,0,0.1,0
					C856.4,139.5,857.5,140.1,857.7,141.1L857.7,141.1z"/>
				<path class="st10" d="M836,170.5c0.3,1-0.3,2.1-1.4,2.4s-2.1-0.3-2.4-1.4s0.3-2.1,1.4-2.4c0,0,0,0,0.1,0
					C834.7,168.9,835.7,169.5,836,170.5L836,170.5z"/>
				<path class="st10" d="M891.8,111.1c0.3,1-0.3,2.1-1.4,2.4s-2.1-0.3-2.4-1.4c-0.3-1,0.3-2.1,1.4-2.4c0,0,0,0,0.1,0
					C890.5,109.5,891.5,110.1,891.8,111.1z"/>
				<path class="st10" d="M833.2,132.4c0.3,1-0.3,2.1-1.4,2.4s-2.1-0.3-2.4-1.4s0.3-2.1,1.4-2.4c0,0,0,0,0.1,0
					C831.9,130.8,833,131.4,833.2,132.4z"/>
				<g class="st11">
					<path class="st12" d="M844.8,134.4l48.4,199.9c0.5,2-0.7,4-2.7,4.5c-1.9,0.5-3.9-0.6-4.5-2.6l-59.7-196.8
						c-1.5-5,1.3-10.4,6.4-11.9s10.4,1.3,11.9,6.4C844.7,134,844.7,134.2,844.8,134.4z"/>
				</g>
				<path class="st13" d="M902.8,99.9l42.9,245.6c0.7,4.2-2,8.3-6.1,9.3l-21.6,5l-23.8-112.7c-7.2,5.4-14.7-1.2-15.7-9.4l9.9-17.7
					L862.8,98.1l27.6-6.4c5.5-1.3,11.1,2.2,12.4,7.7C902.8,99.6,902.8,99.7,902.8,99.9z"/>
				<path class="st4" d="M909.8,227.6c2-1.5,3.7-3.5,4.8-5.7c0,0-0.3,6.6-1.5,8.1L909.8,227.6z"/>
				<path class="st13" d="M821.9,110c0,0,1.7,10.2-2.5,18.8c-2.6,5.3,1.4,17.8,0.7,21.9s0.3,18.3,1,23.6c1.4,10,7.8,24.6,13.9,27
					s18.2,0.2,21.9-9.7s-9.3-30.4-13.2-38.2c-4-8.1-7.5-20-7.5-24.8s0-18,3.7-21s5.8-8.5,5.8-8.5s-11.9,0.3-12.9,0.3
					S821.9,110,821.9,110z"/>
				<path class="st2" d="M888.5,92.1l-0.5,0.1l-4.5,1l-13.5,3c-9,2.3-21,5.4-29,8.3c-2,0.7-9.4,4.4-7.6,27.8
					c1.2,15.6,26.9,51.6,15.2,60.8c-1.4,1.1-2.9,2-4.5,2.7c-2.2,0.9-4.8,0.8-6.9-0.4c-3.5-1.8-7.7-4.9-10.4-14.9
					c-4.9-18.3-1.9-23.7-3.9-36.3c-2.5-15.5,3.4-25.7,2.6-31.1c-0.1-0.9-0.5-1.8-1.2-2.5c-3.2-3.2-18.9,0.7-19.3,0.8l0,0
					c0.1-0.3,5.9-14,33.6-26.3c14.8-7.6,20.9,4.1,29.5,0.5S888.5,92.1,888.5,92.1z"/>
				<path class="st10" d="M825.5,113.3L825.5,113.3c-0.2-0.9-0.6-1.8-1.3-2.5c-3.2-3.2-18.9,0.7-19.3,0.8c0.2-0.1,5.3-3.4,7.3-4.9
					s4.1-0.3,5.8-0.7s2.9-2,4.9-0.8S825.5,113.3,825.5,113.3z"/>
				<path class="st10" d="M887.9,92.3l-4.5,1l-13.5,3c-9,2.3-21,5.4-29,8.3c-2,0.7-9.4,4.4-7.6,27.8c1.2,15.6,26.9,51.6,15.2,60.8
					c-1.4,1.1-2.9,2-4.5,2.7l-0.2-0.4c0,0,6.1-5.4,2.8-15s-12.7-28.8-14.5-34.1s-2.3-27.2-1.5-30.6s4.8-13,8.9-15s2.3-1.7,6.4-1.6
					s5.6-2.7,6.6-4.2s6.6-3.6,10.2-1.8s7.4-2,10.2-2s13.8-0.8,15,0.8C887.8,92,887.9,92.1,887.9,92.3z"/>
				<path class="st3" d="M881.2,241.1c9,3,21.8-6.6,28.6-13.5c0,0,14.7,10.2,17.8,15.8L921,207c0,0-8.8-6.1-11.2-6.5
					c-5.4-0.7-11.9,6.7-19.1,14.3S873.7,238.6,881.2,241.1z"/>
				<path class="st14" d="M897.7,223.4c0.6,3.1-6.1,10.3-9.4,12.1s-6.8,1.3-8.1,0.2s5.8-13.3,9.5-16.1
					C891.5,218.3,896.4,217.4,897.7,223.4z"/>
				<path class="st13" d="M878.6,277.2l-5.9,0.3c1.8,1.2,3.2,2.8,4,4.8c0.6,1.3,0.9,2.7,1.1,4.1c0.6,5.3-1.8,10-5.5,11.2
					c0.9,0.8,1.7,1.7,2.2,2.7c0.7,1.2,1.2,2.6,1.5,4c1,4.9-0.6,9.4-3.6,10l-1.5,0.3l-16.8,3.5L830,235.8l39.7,0.9
					c5.3,0,9.8,4,10.4,9.2c0.7,4.5-2.2,8.4-6.2,10l3.6-0.2c3.9-0.2,7.3,2.6,8.8,6.6c0.4,1.2,0.7,2.5,0.8,3.8
					C887.5,272,883.6,277,878.6,277.2z"/>
				<path class="st3" d="M848.8,314.4l17.9-3.8l1.5-0.3c3-0.6,4.6-5.1,3.6-10c-0.3-1.4-0.8-2.8-1.5-4c-1.5-2.7-3.7-4.2-5.8-3.8
					l-22.8,4.8c-1.1,0.2-2.1,0.9-2.5,2C837.1,304.1,843,315.5,848.8,314.4z"/>
				<path class="st3" d="M822.9,253.1l34.4-0.4l0,0l8.5-0.1c5.6-0.1,11-5,10.1-10.9c-0.7-5.3-5.1-9.2-10.4-9.2l-42.8-1
					c-2.2,0-3.8,2.1-4.6,4.9C816.2,242.9,817.9,253.2,822.9,253.1z"/>
				<path class="st14" d="M854,248.4l12.6,0.5c1.7,0.1,3.1-2.6,3.2-5.9l0,0c0.1-3.3-1.1-6-2.7-6.1l-12.6-0.5
					C852.4,236.4,851.9,248.4,854,248.4z"/>
				<path class="st3" d="M837.3,297l24-2.5l5.4-0.6c4.4-0.5,7.5-5.6,6.8-11.5c-0.1-1.4-0.5-2.8-1.1-4.1c-1.6-3.7-4.7-6.1-8-5.7
					L831,276c-2.6,0-4.9,1.8-5.5,4.4C823.7,286.8,829.7,297.7,837.3,297z"/>
				<path class="st3" d="M825.3,275.3l42-1.9l0,0l6.9-0.3c5-0.2,8.8-5.2,8.6-11.2c-0.1-1.3-0.3-2.5-0.8-3.8c-1.5-4-4.9-6.8-8.8-6.6
					l-51.9,2.3c-1.8,0-3.5,1.1-4.2,2.8C814.3,262.6,819,275.8,825.3,275.3z"/>
				<path class="st14" d="M856.9,308.4l9.7-2c1.3-0.3,1.9-2.5,1.3-5.1l0,0c-0.5-2.5-2-4.4-3.3-4.1l-9.7,2
					C853.3,299.5,855.2,308.8,856.9,308.4z"/>
				<path class="st14" d="M862.7,268.9l12.6-0.6c1.7-0.1,2.9-2.8,2.7-6.1l0,0c-0.2-3.3-1.6-5.9-3.3-5.8l-12.6,0.6
					C860,257.1,860.6,269,862.7,268.9z"/>
				<path class="st14" d="M854,290l12.5-1.3c1.7-0.2,2.7-3,2.4-6.3l0,0c-0.3-3.3-2-5.8-3.6-5.6l-12.6,1.3
					C850.6,278.3,851.8,290.2,854,290z"/>
				<path class="st4" d="M848.8,314.4l17.9-3.8c0,0-15.1,1.1-19.2,0.5s-8.7-11-8.5-11.8C837.1,304.1,843,315.5,848.8,314.4z"/>
				<path class="st4" d="M822.9,253.1l44.7-1.2c0,0-38.6-1.5-43.4-3.1s-6.1-12-6.1-12.4C816.2,242.9,817.9,253.2,822.9,253.1z"/>
				<path class="st4" d="M825.3,275.3l42-1.9c-1.6,0-35.7,0.2-41.4-1.8s-8.8-14.9-8.8-14.9C814.3,262.6,819,275.8,825.3,275.3z"/>
				<path class="st4" d="M837.3,297l24-2.5l8.1-1.5c0,0-23.8,1.7-32.2,0.3c-9-1.5-11.5-12.8-11.5-12.8h-0.2
					C823.7,286.8,829.7,297.7,837.3,297z"/>
			</g>
			<g>
				<path class="st3" d="M78.7,213.3c0,0-26.5,15.5-31.5,19.7S35,267.8,30.3,284.5C22.4,312.2-19.8,379-19.8,379l0.5,172.1
					C1.8,502.7,89.8,349,103,308.6l-1.8-83.3L78.7,213.3z"/>
				<path class="st4" d="M78.1,252.8L90.9,268l-13.8,97.1l-3.2,5.8l-12.6-3.3C43.8,361.7,46.9,353.9,49,343l8.4-45.6
					c0,0-2.6,1.5-15.7,1.2c13-5.7,22.7-16.7,25.5-43.4l4.1-5.3L78.1,252.8z"/>
				<path class="st5" d="M58.5,360.4l62.3,15.1c4.2,1,8.4-1.4,9.6-5.5l72.1-238.6c1.7-5.4-1.4-11.2-6.8-12.8
					c-0.2-0.1-0.4-0.1-0.6-0.2l-85.3-20.6c-5.5-1.3-11.1,2.1-12.4,7.6c0,0.2-0.1,0.4-0.1,0.6L52.4,351
					C51.6,355.3,54.3,359.4,58.5,360.4z"/>
				<path class="st6" d="M106.6,112.5l-7.1,38L63,346.5c-0.5,2.8,1.2,5.4,4,6.1l49.9,12c2.7,0.7,5.5-0.9,6.3-3.6l54-180.7l14.2-47.3
					c0.8-2.8-0.8-5.7-3.5-6.5c-0.1,0-0.2-0.1-0.3-0.1l-74.5-18c-2.8-0.7-5.7,1-6.4,3.9C106.6,112.3,106.6,112.4,106.6,112.5z"/>
				<path class="st7" d="M116.9,348.2l61.8-206.7c1.1-3.6-1-7.3-4.5-8.4c-0.1,0-0.2-0.1-0.3-0.1l-51.7-12.5c-3.6-0.9-7.3,1.3-8.1,5
					c0,0.1-0.1,0.2-0.1,0.4l-39.6,212c-0.7,3.5,1.5,6.9,5,7.8l29.4,7.1C112.3,353.7,115.9,351.6,116.9,348.2z"/>
				<circle class="st8" cx="90.5" cy="332.5" r="4.8"/>
				<circle class="st8" cx="112.2" cy="242.7" r="4.8"/>
				<path class="st8" d="M102.2,173.1c-0.6,2.6,1,5.2,3.5,5.8s5.2-1,5.8-3.5c0.6-2.6-1-5.2-3.5-5.8
					C105.4,169,102.8,170.6,102.2,173.1z"/>
				<circle class="st8" cx="147.6" cy="212.2" r="4.8"/>
				<path class="st8" d="M112.1,295.9c-0.6,2.6,1,5.2,3.5,5.8c2.6,0.6,5.2-1,5.8-3.5c0.6-2.6-1-5.2-3.5-5.8
					C115.4,291.8,112.8,293.4,112.1,295.9L112.1,295.9z"/>
				<path class="st8" d="M111.7,318.1c-0.3,1.3,0.5,2.6,1.8,2.9s2.6-0.5,2.9-1.8s-0.5-2.6-1.8-2.9l0,0
					C113.3,316,112,316.8,111.7,318.1z"/>
				<path class="st8" d="M92.7,292.7c-0.3,1.3,0.5,2.6,1.7,2.9s2.6-0.5,2.9-1.7c0.3-1.3-0.5-2.6-1.7-2.9l0,0
					C94.3,290.6,93,291.4,92.7,292.7z"/>
				
					<ellipse transform="matrix(1 -2.967021e-03 2.967021e-03 1 -0.7781 0.2842)" class="st8" cx="95.4" cy="262.4" rx="2.4" ry="2.4"/>
				
					<ellipse transform="matrix(0.107 -0.9943 0.9943 0.107 -172.1388 355.9365)" class="st8" cx="112.1" cy="273.8" rx="2.4" ry="2.4"/>
				<path class="st8" d="M132.4,255c-0.3,1.3,0.5,2.6,1.8,2.9s2.6-0.5,2.9-1.8c0.3-1.3-0.5-2.6-1.8-2.9l0,0
					C134,252.9,132.7,253.7,132.4,255z"/>
				<path class="st8" d="M126.2,227.7c-0.3,1.3,0.5,2.6,1.8,2.9c1.3,0.3,2.6-0.5,2.9-1.8c0.3-1.3-0.5-2.6-1.8-2.9
					C127.8,225.6,126.5,226.4,126.2,227.7L126.2,227.7z"/>
				<path class="st8" d="M103.8,207.1c-0.3,1.3,0.5,2.6,1.8,2.9c1.3,0.3,2.6-0.5,2.9-1.8s-0.5-2.6-1.8-2.9l0,0
					C105.4,205,104.1,205.8,103.8,207.1z"/>
				<circle class="st8" cx="126.9" cy="192.4" r="2.4"/>
				<path class="st8" d="M139.8,171.2c-0.3,1.3,0.5,2.6,1.8,2.9s2.6-0.5,2.9-1.8c0.3-1.3-0.5-2.6-1.8-2.9
					C141.4,169.2,140.2,170,139.8,171.2L139.8,171.2z"/>
				<path class="st9" d="M106.6,112.5l-7.1,38c3.2,6.4,24.4,1.2,35.9,2.6s14.2,25.7,23.2,30s18.6-2.9,18.6-2.9l14.1-47.3
					c0.8-2.8-0.8-5.7-3.5-6.5c-0.1,0-0.2-0.1-0.3-0.1l-74.5-18c-2.8-0.7-5.7,1-6.4,3.9C106.6,112.3,106.6,112.4,106.6,112.5z"/>
				<path class="st10" d="M155.1,156.4c-0.5,1.9,0.6,3.8,2.5,4.4c1.9,0.5,3.8-0.6,4.4-2.5c0.5-1.9-0.6-3.8-2.5-4.4h-0.1
					C157.5,153.5,155.6,154.6,155.1,156.4L155.1,156.4z"/>
				<path class="st10" d="M141,127c-0.5,1.9,0.6,3.9,2.5,4.4s3.9-0.6,4.4-2.5s-0.6-3.9-2.5-4.4h-0.1C143.4,124,141.5,125.1,141,127
					L141,127z"/>
				<path class="st10" d="M120.7,131.6c-0.3,1,0.3,2.1,1.3,2.4c1,0.3,2.1-0.3,2.4-1.3s-0.3-2.1-1.3-2.4c0,0,0,0-0.1,0
					C122,130,121,130.6,120.7,131.6L120.7,131.6z"/>
				<path class="st10" d="M113.8,145.5c-0.3,1,0.3,2.1,1.3,2.4c1,0.3,2.1-0.3,2.4-1.3s-0.3-2.1-1.3-2.4c0,0,0,0-0.1,0
					C115.1,143.9,114,144.5,113.8,145.5z"/>
				<path class="st10" d="M181.4,130.3c-0.3,1,0.3,2.1,1.3,2.4c1,0.3,2.1-0.3,2.4-1.3c0.3-1-0.3-2.1-1.3-2.4c0,0,0,0-0.1,0
					C182.8,128.6,181.7,129.2,181.4,130.3L181.4,130.3z"/>
				<path class="st10" d="M142.1,147.4c-0.3,1,0.3,2.1,1.3,2.4c1,0.3,2.1-0.3,2.4-1.3c0.3-1-0.3-2.1-1.3-2.4c0,0,0,0-0.1,0
					C143.4,145.8,142.4,146.4,142.1,147.4z"/>
				<path class="st10" d="M163.6,177c-0.3,1,0.3,2.1,1.3,2.4c1,0.3,2.1-0.3,2.4-1.3s-0.3-2.1-1.3-2.4l0,0
					C164.9,175.4,163.9,176,163.6,177L163.6,177z"/>
				<path class="st10" d="M108.3,117.1c-0.3,1,0.3,2.1,1.3,2.4s2.1-0.3,2.4-1.3s-0.3-2.1-1.3-2.4c0,0,0,0-0.1,0
					C109.6,115.5,108.6,116.1,108.3,117.1z"/>
				<path class="st10" d="M166.7,139c-0.3,1,0.4,2.1,1.4,2.4c1,0.3,2.1-0.4,2.4-1.4c0.3-1-0.4-2.1-1.4-2.4c0,0,0,0-0.1,0
					C168,137.3,166.9,138,166.7,139L166.7,139z"/>
				<g class="st11">
					<path class="st12" d="M173.5,145.9l-61.3,196.3c-0.6,1.9-2.7,3-4.6,2.4s-2.9-2.5-2.5-4.4l50.1-199.5c1.4-5.1,6.6-8.1,11.7-6.7
						c4.9,1.4,7.9,6.3,6.8,11.3C173.6,145.6,173.5,145.8,173.5,145.9z"/>
				</g>
				<path class="st13" d="M97.3,105.9L52.4,351c-0.8,4.2,1.9,8.3,6.1,9.3l21.5,5.2L104.7,253c7.1,5.5,14.7-1.1,15.8-9.2l-9.8-17.9
					l26.7-121.6l-27.6-6.7c-5.5-1.3-11.1,2.1-12.4,7.6C97.4,105.5,97.4,105.7,97.3,105.9z"/>
				<path class="st4" d="M89.3,233.5c-2-1.5-3.6-3.5-4.7-5.7c0,0,0.3,6.6,1.4,8.1L89.3,233.5z"/>
				<path class="st13" d="M178.2,116.7c0,0-1.8,10.2,2.4,18.9c2.6,5.3-1.5,17.8-0.9,21.9s-0.4,18.3-1.2,23.6
					c-1.4,10-8,24.6-14.1,26.9s-18.2,0-21.8-9.9s9.6-30.3,13.6-38.1c4.1-8.1,7.6-20,7.7-24.7s0.1-18-3.6-21.1s-5.7-8.5-5.7-8.5
					s11.9,0.4,12.9,0.4S178.2,116.7,178.2,116.7z"/>
				<path class="st2" d="M111.8,98.2l0.6,0.1l4.5,1.1l13.5,3.2c9,2.4,21,5.6,29,8.5c2,0.7,9.4,4.5,7.4,27.9
					c-1.3,15.6-27.3,51.4-15.7,60.6c1.4,1.1,2.9,2.1,4.5,2.8c2.2,0.9,4.8,0.8,6.9-0.4c3.6-1.7,7.7-4.8,10.5-14.8
					c5.1-18.3,2.1-23.6,4.2-36.3c2.6-15.5-3.2-25.7-2.4-31.1c0.1-0.9,0.5-1.8,1.2-2.5c3.3-3.2,18.9,0.9,19.3,1l0,0
					c-0.1-0.3-5.8-14-33.4-26.6c-14.7-7.8-20.9,3.9-29.5,0.3S111.8,98.2,111.8,98.2z"/>
				<path class="st10" d="M174.6,119.8L174.6,119.8c0.2-0.9,0.6-1.8,1.3-2.5c3.3-3.2,18.9,0.9,19.3,1c-0.2-0.1-5.3-3.5-7.3-5
					s-4.1-0.4-5.8-0.7s-2.9-2.1-4.9-0.9S174.6,119.8,174.6,119.8z"/>
				<path class="st10" d="M112.3,98.3l4.5,1.1l13.5,3.2c9,2.4,21,5.6,29,8.5c2,0.7,9.4,4.5,7.4,27.9c-1.3,15.6-27.3,51.4-15.7,60.6
					c1.4,1.1,2.9,2.1,4.5,2.8l0.2-0.4c0,0-6.1-5.4-2.7-15.1s13-28.7,14.8-34s2.5-27.2,1.8-30.5s-4.7-13-8.8-15.1s-2.3-1.7-6.4-1.7
					s-5.6-2.8-6.6-4.3s-6.6-3.6-10.2-1.9s-7.4-2.1-10.2-2.1s-13.8-0.9-15,0.6C112.5,98,112.4,98.2,112.3,98.3z"/>
				<path class="st3" d="M117.8,247.2c-9,3-21.7-6.8-28.5-13.8c0,0-14.8,10.1-18,15.6l6.9-36.4c0,0,8.8-6.1,11.3-6.4
					c5.4-0.7,11.9,6.8,19,14.5C115.6,228.4,125.3,244.8,117.8,247.2z"/>
				<path class="st14" d="M101.5,229.4c-0.7,3.1,6,10.4,9.3,12.2s6.8,1.3,8.1,0.2s-5.7-13.4-9.4-16.1
					C107.7,224.3,102.8,223.4,101.5,229.4z"/>
				<path class="st13" d="M120.1,283.4l5.9,0.3c-1.8,1.1-3.3,2.8-4.1,4.8c-0.6,1.3-1,2.7-1.1,4.1c-0.6,5.3,1.7,10,5.4,11.3
					c-0.9,0.8-1.7,1.7-2.3,2.7c-0.7,1.2-1.2,2.6-1.5,4c-1.1,4.9,0.5,9.4,3.5,10.1l1.5,0.3l16.8,3.7l24.9-82.3l-39.7,0.6
					c-5.3,0-9.8,3.9-10.5,9.1c-0.7,4.5,2.2,8.4,6.1,10.1l-3.6-0.2c-3.9-0.2-7.4,2.5-8.9,6.5c-0.5,1.2-0.7,2.5-0.8,3.7
					C111.3,278,115.1,283.1,120.1,283.4z"/>
				<path class="st3" d="M149.6,320.8l-17.9-3.9l-1.5-0.3c-3-0.6-4.5-5.2-3.5-10.1c0.3-1.4,0.8-2.8,1.5-4c1.5-2.6,3.8-4.2,5.9-3.7
					l22.8,5c1.1,0.2,2.1,0.9,2.5,2C161.4,310.6,155.4,321.9,149.6,320.8z"/>
				<path class="st3" d="M172.3,259.8l-30.7-0.8l0,0l-8.4-0.2c-5.6-0.1-10.9-5.1-10-11c0.7-5.3,5.2-9.2,10.5-9.1l39.1-0.5
					c2.2,0,3.7,2.1,4.5,4.9C179.1,249.6,177.3,259.9,172.3,259.8z"/>
				<path class="st14" d="M144.9,254.8l-12.6,0.4c-1.6,0.1-3.1-2.6-3.2-5.9l0,0c-0.1-3.3,1.1-6,2.8-6.1l12.6-0.4
					C146.6,242.8,147,254.7,144.9,254.8z"/>
				<path class="st3" d="M161.3,303.5l-24-2.7l-5.4-0.6c-4.4-0.5-7.4-5.7-6.7-11.6c0.2-1.4,0.5-2.8,1.1-4.1c1.6-3.7,4.8-6,8-5.7
					l33.4,3.8c2.6,0.1,4.9,1.9,5.5,4.4C174.9,293.4,168.8,304.2,161.3,303.5z"/>
				<path class="st3" d="M169.6,281.8l-38.2-2.1h-0.1l-6.9-0.4c-5-0.3-8.8-5.3-8.5-11.2c0.1-1.3,0.3-2.5,0.8-3.7
					c1.5-4,5-6.7,8.9-6.5l48.2,2.6c1.8,0,3.5,1.1,4.2,2.8C180.7,269.2,176,282.3,169.6,281.8z"/>
				<path class="st14" d="M141.5,314.7l-9.7-2.1c-1.3-0.3-1.9-2.6-1.3-5.1l0,0c0.6-2.5,2-4.4,3.3-4.1l9.7,2.1
					C145.2,305.9,143.2,315.1,141.5,314.7z"/>
				<path class="st14" d="M136.1,275.2l-12.6-0.7c-1.6-0.1-2.9-2.9-2.7-6.1l0,0c0.2-3.3,1.7-5.9,3.3-5.8l12.6,0.7
					C138.9,263.4,138.2,275.3,136.1,275.2z"/>
				<path class="st14" d="M144.6,296.3l-12.6-1.4c-1.6-0.2-2.7-3-2.3-6.3l0,0c0.4-3.3,2-5.8,3.7-5.6l12.6,1.4
					C148.1,284.7,146.7,296.6,144.6,296.3z"/>
				<path class="st4" d="M149.6,320.8l-17.9-3.9c0,0,15.1,1.2,19.2,0.7s8.8-10.9,8.6-11.7C161.4,310.6,155.4,321.9,149.6,320.8z"/>
				<path class="st4" d="M172.3,259.8l-41-1.7c0,0,35-1.1,39.7-2.6s6.2-12,6.2-12.3C179.1,249.6,177.3,259.9,172.3,259.8z"/>
				<path class="st4" d="M169.6,281.8l-38.2-2.1c1.6,0,31.9,0.4,37.7-1.5s8.9-14.9,8.9-14.9C180.7,269.2,176,282.3,169.6,281.8z"/>
				<path class="st4" d="M161.3,303.5l-24-2.7l-8.1-1.6c0,0,23.8,1.9,32.2,0.5c9-1.4,11.6-12.7,11.6-12.7h0.1
					C174.9,293.4,168.8,304.2,161.3,303.5z"/>
			</g>
			<path class="st15" d="M890,499.4c0,0-36.4-63.7-40.1-79.7c-2.2-9.6-5.5-27.2-8.2-29.7s-17.2-11.9-17.4-12l0,0
				c0-0.3,0-0.6,0.1-0.9c0.5-8.5,0.1-17-1.3-25.4l-6.5-39.2c2.5,5.9,4.6,9.5,7.6,6s0.2-9.3-3.7-11.6c-4-2.2-7-2.8-9.2-3.6
				c-4-1.4-6-6.1-3.4-8.3c2.6-2.2,5.2,4.8,7.4,0.8s-3.5-8.7-7.5-5c-4,3.8-4.3,5.6-7.1,7.2c-4.8,2.7-11.8,0-13.6-6.8
				c-1.5-5.7,1.7-5,4.3-5.5c2-0.4,2.3-5.1-3.6-2.3c-2.5,1.2-3.8,2.8-4,6.1c-0.3,2.8-2.3,2.9-4.2,0.2c-1.5-2.2-3.1-9-9-8.7
				s-9.3,8-4.3,7.6c8-0.8,9.5,1.8,10.4,3.2c2.9,4.3-2.8,12.4-7.9,10.7c-3.1-1-7.4-5.7-13.6-3.3c-2.9,1.1-5.6,5.1-0.3,7.1
				c2.6,1,6.3-7.7,9.1-2.3c1.5,2.8-1.7,6.5-6.6,7.2c-4.8,0.7-8.6-1.3-13.4-0.6c-7.1,1-12,6.4-6,8.4c4.1,1.4,2.8-4.9,6.6-5.8
				c3.9-0.9,5.2,1.9,5,5.1c-0.2,4.1-7.8,5.4-5.7,12.9c1.4,5.1,5.9,4.3,5.1,0.8c-0.1-0.5-0.2-1-0.2-1.6l10.3,33.8
				c2.7,8.9,6.5,17.5,11.4,25.5h-1.2c-1.3,0-2.1,1.2-2.5,2.8c-0.2,0.9-0.4,2-0.4,3c0,2.9,1,5.9,2.8,6.3c0.2,0,0.3,0.1,0.5,0.1
				l7.5-0.2c0,0.1,0.1,0.1,0.1,0.2l-8.5,0.6c-1.1,0-2,0.7-2.4,1.6l0,0l0,0c-1.4,3.2,1,9.9,4.2,10.4c0.2,0,0.4,0,0.7,0l10-0.6v0.1
				l-6.8,0.9c-1.5,0.1-2.8,1.1-3.1,2.6c-0.1,0.3-0.1,0.7-0.1,1.1c-0.1,3.3,2.5,7.6,5.9,8.2c0.3,0.1,0.6,0.1,0.9,0.1
				c-0.4,0.2-0.7,0.5-0.8,0.9c0,0,0,0,0,0.1c0,0,0,0,0-0.1c-1.1,2.5,1.6,8.4,4.7,8.7c0.2,0,0.4,0,0.6,0l2.3-0.4
				c1.9,14.4,3.3,29,3.6,32.5c0,0.3,0,0.5,0.1,0.8c1.1,4.9,14.3,6,29.3,2.5c3.6-0.8,6.9-1.8,9.9-3c2.7,9.4,6.1,20.8,10.9,36.1
				L890,499.4z"/>
			<g>
				<path class="st2" d="M660.4,129.3c0,0,9.6-0.7,12.3,6c4.9,11.9,9.2,19,15.1,12s0.5-18.5-7.5-23c-7.9-4.5-13.9-5.6-18.4-7.2
					c-8-2.7-12-12.2-6.8-16.5s10.4,9.5,14.8,1.6s-7-17.4-14.9-9.9s-8.5,11.1-14.2,14.3c-9.6,5.4-23.6,0-27.1-13.6
					c-2.9-11.3,3.4-10,8.5-11c4.1-0.8,4.5-10.2-7.1-4.6c-4.9,2.3-7.5,5.6-8.1,12.1c-0.5,5.6-4.6,5.7-8.4,0.4c-3-4.3-6.3-18-18-17.3
					s-18.6,16-8.5,15.1c16-1.5,18.9,3.6,20.7,6.4c5.7,8.5-5.6,24.7-15.7,21.4c-6.1-2-14.7-11.4-27.1-6.6
					c-5.8,2.3-11.1,10.1-0.6,14.1c5.2,2,12.5-15.3,18.2-4.6c2.9,5.5-3.4,12.9-13.1,14.3s-17.2-2.7-26.8-1.3
					c-14.2,2-23.8,12.7-12,16.7c8.2,2.8,5.5-9.8,13.2-11.6s10.3,3.8,9.9,10.1c-0.5,8.1-15.5,10.7-11.3,25.8
					c2.9,10.2,11.7,8.5,10.1,1.6s1.8-16.1,1.8-16.1l75.8-24.4L660.4,129.3z"/>
				<path class="st9" d="M668.5,129.8c0,0-10.1-12.8-17.8-12.3c-4.4,0.3-2.9-5.2-7.3-6.4c-9.9-2.5-7.8,5.3-15.5,5.9
					s-17.9-16-23.5-14.7c-7.7,1.7-10,19.5-16.8,20.6s-13.6-6.4-14.3-0.4c-0.9,8.3-12.6,15.9-18.5,16.2s-11.5-1.8-12.3,0.9
					c-0.3,1.1,1.4,6.2-0.1,9.5c-2.6,5.5-7.7,12.6-5,11.7l24.6,3.4l92.6-24.9L668.5,129.8z"/>
				<path class="st10" d="M654.7,133.1c0,0,2-8.6-4.2-8.2c-3.5,0.2-5.1-3.8-8.7-4.8c-8-2-10.1,5.3-16.3,5.9s-14.4-12.9-18.9-11.9
					c-6.2,1.4-8.1,15.8-13.5,16.7s-14.8-4.9-15.4,0c-0.7,6.7-6.9,7-11.5,8.7c-6.4,2.3-20.9,2.7-20.5,13c0.2,5,6.9,8.9,6.9,8.9
					l19.8,2.7l74.7-20.1L654.7,133.1z"/>
				<path class="st3" d="M688.1,265.6c0,0,29.2,19,34.7,24s11.9,40,16.4,59.2c7.4,31.9,79.8,158.7,79.8,158.7l-102.8,10.8
					C689.2,433,685,408,669.1,363.6l-7-85.4L688.1,265.6z"/>
				<path class="st4" d="M687.3,310l-15.4,16.5l22.9,120l2,6.5c26.6-12,36.2-20.9,31.7-33.3c-5.7-15.6-23.6-62.9-23.6-62.9
					s6.4,6.6,21.2,7c-14.4-7.2-24.4-15.7-28.9-27.1L687.3,310z"/>
				<path class="st5" d="M599.9,327.9c8.2,30.5,16.4,119.5,16.4,119.5l108.6-25.3c0,0-31.9-83.6-38.1-114.5
					c-0.3-1.6-0.5-3.2-0.6-4.8c-0.8-10.5,1.1-25.1,1.9-37.2c0-0.6,0.1-1.1,0.1-1.7c1.1-16.9,0.2-33.9-2.5-50.6l-12.9-78.1
					c-6.1-26.1-142.6,5.8-136.5,31.8l21.6,71.2c5.5,18.3,13.4,35.7,23.4,52C588.8,302.5,597.1,317.4,599.9,327.9z"/>
				<path class="st16" d="M697.2,394.2c0-0.1-0.1-0.2-0.1-0.3L697.2,394.2z"/>
				<path class="st16" d="M629.6,409.6c0,0.1,0,0.2,0,0.4V409.6z"/>
				<path class="st17" d="M555.2,160.2c-4.3,2.3-6.4,7.2-5,11.9l13.3,42.8l6.3,20.2c6.1,19.5,14.7,38.1,25.8,55.3
					c8,12.4,16.1,26.6,18.9,38.3c4.4,18.8,12.9,62,14.5,89.9c0.8-7.7,69-23.6,72.9-17c-11.8-28.8-21.5-68.6-25.2-87.3
					c-2.4-12.2-1.7-29.4-0.6-44.3c1.3-17.6,0.6-35.3-2.2-52.8l-4.3-27l-7.1-44.3c-0.8-4.8-4.9-8.3-9.7-8.4c-2.1-0.1-4.5-0.1-7.4,0
					c-10.2,0.4-29.9,3.9-42.4,6.8s-31.8,8.5-41,12.7C559.3,158.1,557.1,159.2,555.2,160.2z"/>
				<path class="st18" d="M687.6,391.3c-9.7-27.3-17.1-58.8-20.4-75c-2.7-13.7-1.8-32.2-0.8-46.8c1.3-16.9,0.6-33.9-2.1-50.7
					L653,147.5c-0.1-0.4-0.4-0.7-0.8-0.7c-2-0.1-4.2-0.1-6.7,0c-9.2,0.3-28.2,3.6-40.5,6.5s-30.9,8.3-39.2,12.1c-2.2,1-4.2,2-6,2.9
					c-0.4,0.2-0.6,0.6-0.4,1l19.6,63.1c5.8,18.7,14.1,36.6,24.8,53.1c11.4,17.7,17.6,30.4,20.1,41.1c3,12.7,10.2,47.4,13.4,76.4
					C653.5,397.3,670.4,393.3,687.6,391.3L687.6,391.3z"/>
				
					<ellipse transform="matrix(0.9739 -0.227 0.227 0.9739 -41.2626 145.1872)" class="st19" cx="610.6" cy="252" rx="5.1" ry="4.9"/>
				
					<ellipse transform="matrix(0.9739 -0.227 0.227 0.9739 -31.7327 141.6753)" class="st19" cx="600.1" cy="208.8" rx="5.1" ry="4.9"/>
				
					<ellipse transform="matrix(0.9739 -0.227 0.227 0.9739 -26.8315 152.0832)" class="st19" cx="647.8" cy="192.7" rx="5.1" ry="4.9"/>
				
					<ellipse transform="matrix(0.9739 -0.227 0.227 0.9739 -64.8544 156.8225)" class="st19" cx="649.4" cy="360.4" rx="5.1" ry="4.9"/>
				
					<ellipse transform="matrix(0.9739 -0.227 0.227 0.9739 -52.252 156.6392)" class="st19" cx="654.9" cy="305.5" rx="5.1" ry="4.9"/>
				
					<ellipse transform="matrix(0.9739 -0.227 0.227 0.9739 -44.6683 152.5908)" class="st19" cx="641.1" cy="270.5" rx="2.7" ry="2.6"/>
				<circle class="st19" cx="644.4" cy="376.5" r="2.5"/>
				
					<ellipse transform="matrix(0.9739 -0.227 0.227 0.9739 -36.9476 155.7059)" class="st19" cx="658.5" cy="238.5" rx="2.7" ry="2.6"/>
				
					<ellipse transform="matrix(0.9739 -0.227 0.227 0.9739 -34.9769 148.4617)" class="st19" cx="628" cy="226.3" rx="2.7" ry="2.6"/>
				
					<ellipse transform="matrix(0.9739 -0.227 0.227 0.9739 -29.5509 146.229)" class="st19" cx="621" cy="201.6" rx="2.7" ry="2.6"/>
				
					<ellipse transform="matrix(0.9739 -0.227 0.227 0.9739 -36.5976 140.347)" class="st19" cx="591.9" cy="229.3" rx="2.7" ry="2.6"/>
				<circle class="st19" cx="671.1" cy="379.3" r="2.5"/>
				
					<ellipse transform="matrix(0.9739 -0.227 0.227 0.9739 -59.3838 159.2043)" class="st19" cx="662.5" cy="337.8" rx="2.7" ry="2.6"/>
				
					<ellipse transform="matrix(0.9739 -0.227 0.227 0.9739 -49.6181 148.7429)" class="st19" cx="621.9" cy="290.1" rx="2.7" ry="2.6"/>
				
					<ellipse transform="matrix(0.9739 -0.227 0.227 0.9739 -57.4811 151.5602)" class="st19" cx="630.2" cy="325.7" rx="2.7" ry="2.6"/>
				<path class="st2" d="M550.3,172.1l11.1,35.7c32.4-25.4,68.8-10,106.8-26.5l-5.7-35.4c-0.8-4.8-4.9-8.3-9.7-8.4
					c-2.1-0.1-4.5-0.1-7.4,0c-10.2,0.4-29.9,3.9-42.4,6.8s-31.8,8.5-41,12.7c-2.6,1.2-4.8,2.3-6.7,3.3
					C551,162.5,548.9,167.4,550.3,172.1z"/>
				
					<ellipse transform="matrix(0.9739 -0.227 0.227 0.9739 -24.3457 143.7019)" class="st20" cx="612.6" cy="177.7" rx="3.9" ry="3.8"/>
				
					<ellipse transform="matrix(0.9739 -0.227 0.227 0.9739 -18.2738 148.4956)" class="st20" cx="636.5" cy="153.7" rx="3.9" ry="3.8"/>
				
					<ellipse transform="matrix(0.9739 -0.227 0.227 0.9739 -22.9993 134.4132)" class="st20" cx="572.9" cy="167.2" rx="3.9" ry="3.8"/>
				<path class="st20" d="M601,154.2c0.2,1.1,1.3,1.9,2.5,1.7c1.1-0.2,1.9-1.3,1.7-2.5c-0.2-1.1-1.3-1.9-2.5-1.7c0,0,0,0-0.1,0
					C601.5,151.9,600.8,153,601,154.2L601,154.2z"/>
				<path class="st20" d="M555.7,179.9c0.2,1.1,1.3,1.9,2.5,1.7c1.1-0.2,1.9-1.3,1.7-2.5c-0.2-1.1-1.3-1.9-2.5-1.7c0,0,0,0-0.1,0
					C556.2,177.7,555.4,178.8,555.7,179.9L555.7,179.9z"/>
				<path class="st20" d="M587.1,177.7c0.2,1.1,1.3,1.9,2.5,1.7c1.1-0.2,1.9-1.3,1.7-2.5c-0.2-1.1-1.3-1.9-2.5-1.7c0,0,0,0-0.1,0
					C587.6,175.4,586.9,176.5,587.1,177.7z"/>
				<path class="st20" d="M574.3,191.7c0.2,1.1,1.3,1.9,2.5,1.7c1.1-0.2,1.9-1.3,1.7-2.5c-0.2-1.1-1.3-1.9-2.5-1.7c0,0,0,0-0.1,0
					C574.8,189.5,574.1,190.6,574.3,191.7z"/>
				<path class="st20" d="M655.2,156.7c0.2,1.1,1.3,1.9,2.5,1.7c1.1-0.2,1.9-1.3,1.7-2.5c-0.2-1.1-1.3-1.9-2.5-1.7c0,0,0,0-0.1,0
					C655.7,154.5,654.9,155.6,655.2,156.7L655.2,156.7z"/>
				<path class="st20" d="M638.5,171.6c0.2,1.1,1.3,1.9,2.5,1.7c1.1-0.2,1.9-1.3,1.7-2.5c-0.2-1.1-1.3-1.9-2.5-1.7c0,0,0,0-0.1,0
					C639,169.4,638.3,170.5,638.5,171.6z"/>
				<path class="st21" d="M599.9,327.9c8.2,30.5,16.4,119.5,16.4,119.5l40.6-9.5c0,0-8.9-57.5-16.6-95.6c-0.3-1.6,5.3-0.6,8.6-6
					c2.1-3.5,1.8-12.7-2.8-18.6c-1.9-2.4-10.3,4.2-10.9,1.9c-0.9-3.4-1.2-4.8-2.6-9c0,0,9.2,0.2,10.3-6.6c0.1-0.4-0.7-10.8-8.1-12
					c-4-0.7-7.4,5.1-7.6,4.7c-2.2-5.3-4.8-10.5-7.8-15.5c-10-16.3-17.9-33.7-23.4-52l-20.6-90.7c-23.5,8-41.3,18.6-39,28.4
					l21.6,71.2c5.5,18.3,13.4,35.7,23.4,52C588.8,302.5,597.1,317.4,599.9,327.9z"/>
				
					<ellipse transform="matrix(0.9739 -0.227 0.227 0.9739 -81.1938 163.5789)" class="st22" cx="670.6" cy="434.8" rx="55.7" ry="18"/>
				
					<ellipse transform="matrix(0.9739 -0.227 0.227 0.9739 -81.1938 163.5789)" class="st23" cx="670.6" cy="434.8" rx="41.7" ry="9.5"/>
				<path class="st24" d="M630,444.2c1.2,5.1,16.3,6,42.8-0.2s39.6-13.6,38.4-18.7c-0.4-1.7-4.8-4.9-14.9-3.9
					c-1.3,6-8,9.2-25.7,13.3s-28.3,3.3-30.1-0.3C631.9,437.8,629.6,442.6,630,444.2z"/>
				<path class="st3" d="M604.5,382l20.5-3.7l1.7-0.3c3.4-0.6,5.4-5.7,4.3-11.3c-0.3-1.6-0.8-3.1-1.5-4.5c-1.6-3.1-4.1-4.9-6.5-4.5
					l-26,4.7c-1.3,0.1-2.4,1-2.9,2.2C591.6,370,597.9,383,604.5,382z"/>
				<g class="st25">
					<path class="st12" d="M626.9,161.7c0.7,2.4,1.3,4.8,1.9,7.2l1.9,7.2c1.2,4.8,2.5,9.7,3.6,14.5c2.4,9.7,4.6,19.4,6.6,29.1
						c1,4.9,1.9,9.7,2.8,14.6s1.5,9.7,2,14.5c0.2,2.4,0.4,4.7,0.4,7c0,0.5,0,1.1,0,1.6v0.4v0.5v1c-0.1,1.3-0.1,2.5-0.2,3.8
						c-0.2,5.1-0.2,10.2-0.2,15.3c0.1,10.3,1,20.5,2.6,30.7c0.8,5.1,1.9,10.2,3.2,15.2c0.2,0.6,0.3,1.2,0.5,1.9s0.3,1.2,0.5,1.9
						s0.4,1.2,0.6,1.8l0.6,1.8l2.3,7.2c6.1,19.1,12.3,38.2,18.6,57.3c0.5,1.4,2.1,2.2,3.6,1.6c1.3-0.5,2.1-1.9,1.7-3.2l0,0
						c-5.4-19.3-10.8-38.7-16-58l-2-7.3l-1-3.6c-0.2-0.6-0.3-1.2-0.4-1.8s-0.3-1.2-0.4-1.8c-1.1-4.7-1.9-9.5-2.5-14.4
						c-1.2-9.7-1.6-19.5-1.4-29.3c0.1-4.9,0.4-9.8,0.7-14.8c0.1-1.2,0.2-2.5,0.3-3.7l0.1-0.9v-0.5V258c0.1-0.7,0.1-1.4,0.1-2.1
						c0.1-2.8,0-5.4-0.2-8.1c-0.3-5.2-0.9-10.3-1.5-15.4s-1.4-10.1-2.3-15.1c-1.7-10-3.5-19.9-5.6-29.8c-1-4.9-2-9.9-3.1-14.8
						l-1.6-7.4c-0.5-2.5-1.1-4.9-1.7-7.4c-1-4.1-5.1-6.7-9.2-5.7c-4.1,1-6.7,5.1-5.7,9.2C626.8,161.5,626.8,161.6,626.9,161.7
						L626.9,161.7z"/>
				</g>
				<path class="st3" d="M578.9,313.4l39-1.2l0,0l9.6-0.3c6.4-0.2,12.3-5.9,11.2-12.5c-0.9-5.9-6-10.3-12-10.2l-48.5-0.1
					c-2.5,0.1-4.2,2.5-5.1,5.7C571.1,302,573.2,313.6,578.9,313.4z"/>
				<path class="st14" d="M614.1,307.4l14.3,0.3c1.9,0,3.5-3,3.5-6.7l0,0c0.1-3.8-1.4-6.8-3.2-6.9l-14.3-0.3
					C611.9,293.7,611.7,307.3,614.1,307.4z"/>
				<path class="st3" d="M596.2,362.8l27.2-3.4l6.1-0.8c5-0.6,8.3-6.6,7.5-13.2c-0.2-1.6-0.6-3.2-1.3-4.6c-1.9-4.1-5.5-6.8-9.2-6.3
					l-37.8,4.8c-3,0.1-5.5,2.2-6.1,5.1C580.6,351.5,587.7,363.7,596.2,362.8z"/>
				<path class="st3" d="M582.2,338.5l47.6-3.1h0.1l7.8-0.5c5.7-0.4,9.9-6.1,9.5-12.9c-0.1-1.5-0.4-2.9-1-4.2
					c-1.8-4.5-5.8-7.5-10.2-7.2l-58.8,3.8c-2.1,0-4,1.3-4.7,3.3C569.4,324.4,575,339.1,582.2,338.5z"/>
				<path class="st14" d="M613.9,375.5l11.1-2c1.5-0.3,2.2-2.8,1.7-5.7l0,0c-0.5-2.9-2.1-5-3.6-4.8l-11.1,2
					C610.1,365.3,612,375.8,613.9,375.5z"/>
				<path class="st21" d="M654.9,317.3c8.1,0.3,16.1-1.6,23.2-5.4l15.5,20.8c-3-9.8-5.4-18.5-6.7-25c-0.3-1.6-0.5-3.2-0.6-4.8
					c-0.2-2.3-0.2-4.8-0.2-7.4l-10.9-7.2l-11-1.2l-10.5,9.4l-10.6,7.6C642.9,304.1,642.1,316.5,654.9,317.3z"/>
				<path class="st3" d="M645.9,307.6c10.2,3.2,25.3-2.5,32.8-10.5c0,0,4.9,6.7,8.6,12.9c-0.8-10.5-0.1-32.2,0.8-44.4
					c-4.2-2.7-8.1-4.6-11-4.9c-6.2-0.7-13.3,8-21.2,16.8S637.3,305,645.9,307.6z"/>
				<path class="st14" d="M664,287c0.8,3.5-6.6,11.9-10.3,14s-7.7,1.6-9.2,0.4s6.2-15.3,10.3-18.5C656.9,281.5,662.5,280.3,664,287z
					"/>
				<path class="st14" d="M624.4,330.4l14.3-1c1.9-0.1,3.2-3.3,2.9-7l0,0c-0.2-3.7-2-6.7-3.8-6.5l-14.3,1
					C621.1,317,622,330.5,624.4,330.4z"/>
				<path class="st14" d="M615,354.4l14.2-1.8c1.9-0.2,3-3.4,2.5-7.2l0,0c-0.5-3.7-2.4-6.5-4.2-6.3l-14.2,1.8
					C610.9,341.3,612.6,354.7,615,354.4z"/>
				<path class="st4" d="M604.5,382l20.5-3.7c0,0-17.2,0.8-21.7,0s-9.5-12.7-9.2-13.6C591.6,370,597.9,383,604.5,382z"/>
				<path class="st4" d="M578.9,313.4l50.6-2.4c0,0-43.8-0.8-49.3-2.4s-7.2-13.5-7.2-13.9C571.1,302,573.2,313.6,578.9,313.4z"/>
				<path class="st4" d="M582.2,338.5l47.6-3.1c-1.8,0.1-40.4,1.1-47-1c-6.7-2.2-10.3-16.7-10.3-16.7
					C569.4,324.4,575,339.1,582.2,338.5z"/>
				<path class="st4" d="M596.2,362.8l27.2-3.4l9.1-1.9c0,0-26.9,2.5-36.5,1.1c-10.2-1.5-13.3-14.2-13.3-14.2h-0.2
					C580.6,351.5,587.7,363.7,596.2,362.8z"/>
				<path class="st4" d="M678.7,297.1c0,0,3.3-4,4-7.5c0,0-0.2,8.4-1.8,10.6L678.7,297.1z"/>
			</g>
		</g>
	</g>
	<g>
		<defs>
			<rect id="SVGID_00000142890849876889369140000010460580518757860236_" width="1000" height="500"/>
		</defs>
		<clipPath id="SVGID_00000017493261818407733400000009448450032464742321_">
			<use xlink:href="#SVGID_00000142890849876889369140000010460580518757860236_"  style="overflow:visible;"/>
		</clipPath>
		<path style="clip-path:url(#SVGID_00000017493261818407733400000009448450032464742321_);fill:#375A7F;" d="M97.8,511.1
			c0,0,47.6-83.4,52.5-104.4c2.9-12.6,7.2-35.6,10.8-38.9c3.5-3.3,22.5-15.6,22.8-15.8l0,0c0-0.4-0.1-0.8-0.1-1.1
			c-0.7-11.1-0.2-22.3,1.7-33.3l8.5-51.3c-3.2,7.8-6.1,12.4-9.9,7.8c-3.9-4.6-0.3-12.2,4.9-15.1s9.1-3.7,12.1-4.7
			c5.3-1.8,7.9-8,4.5-10.9s-6.8,6.3-9.7,1c-2.9-5.2,4.6-11.4,9.8-6.5s5.6,7.3,9.3,9.4c6.3,3.5,15.5,0,17.8-9
			c1.9-7.4-2.2-6.6-5.6-7.2c-2.7-0.5-3-6.7,4.7-3c3.2,1.5,4.9,3.7,5.3,8c0.3,3.7,3,3.8,5.5,0.2c2-2.8,4.1-11.8,11.8-11.4
			c7.7,0.5,12.2,10.5,5.6,9.9c-10.5-1-12.4,2.4-13.6,4.2c-3.7,5.6,3.7,16.3,10.3,14.1c4-1.3,9.7-7.5,17.8-4.3
			c3.8,1.5,7.3,6.6,0.4,9.3c-3.4,1.3-8.3-10.1-12-3.1c-1.9,3.6,2.3,8.5,8.6,9.4c6.3,0.9,11.3-1.8,17.6-0.8c9.3,1.3,15.7,8.3,7.9,11
			c-5.4,1.8-3.6-6.4-8.7-7.6s-6.8,2.5-6.5,6.6c0.3,5.3,10.2,7.1,7.4,16.9c-1.9,6.7-7.7,5.6-6.7,1.1c0.2-0.7,0.2-1.3,0.3-2L269.6,334
			c-3.6,11.7-8.6,22.9-14.9,33.4h1.6c1.7,0.1,2.8,1.6,3.3,3.7c0.3,1.2,0.5,2.6,0.5,4c0,3.8-1.3,7.7-3.7,8.3
			c-0.2,0.1-0.4,0.1-0.7,0.1l-9.9-0.3c0,0.1-0.1,0.2-0.1,0.2l11.2,0.7c1.4,0,2.6,0.9,3.1,2.2l0,0l0,0c1.8,4.1-1.3,12.9-5.6,13.7
			c-0.3,0-0.6,0.1-0.9,0l-13.1-0.8c0,0.1,0,0.1,0,0.2l8.9,1.1c1.9,0.1,3.6,1.4,4,3.3c0.1,0.5,0.2,0.9,0.2,1.4
			c0.1,4.3-3.3,10-7.7,10.7c-0.4,0.1-0.8,0.1-1.2,0.1c0.5,0.2,0.9,0.7,1.1,1.2v0.1v-0.1c1.5,3.3-2.1,11-6.1,11.4c-0.3,0-0.5,0-0.8,0
			l-3-0.5c-2.5,18.9-4.3,38-4.7,42.6c0,0.3,0,0.7-0.1,1c-1.5,6.4-18.7,7.8-38.4,3.2c-4.7-1.1-9-2.4-13-3.9
			c-3.5,12.3-8,27.2-14.3,47.2L97.8,511.1z"/>
	</g>
	<g>
		<defs>
			<rect id="SVGID_00000058566481436883880040000013269895543431270810_" width="1000" height="500"/>
		</defs>
		<clipPath id="SVGID_00000122705553512522630600000010279190600720182661_">
			<use xlink:href="#SVGID_00000058566481436883880040000013269895543431270810_"  style="overflow:visible;"/>
		</clipPath>
		<path style="clip-path:url(#SVGID_00000122705553512522630600000010279190600720182661_);fill:#375A7F;" d="M433.9,336.9
			c-0.1,0-0.2-0.1-0.3-0.1l0,0c-0.3-0.6-3.7-7.9-18.4-14.6c-8.1-4.3-11.5,2.2-16.3,0.1c-4.7-2-11.2,3.3-11.3,3.4l-1.1-0.3
			c-3-0.7-6.1,1.1-6.8,4.2c0,0.1,0,0.2-0.1,0.3l-10.9,59.6c-2.9,1.7-14.3,8.5-16.7,10.5c-2.8,2.3-6.7,19.2-9.3,28.4
			c-4.3,15.3-56.4,86.5-56.4,86.5l29,60.5c8.3-19.1,35.6-68,53.1-102.4l0.1-0.2l0,0c0,0,0,0,0-0.1l24.1,5.8c2.3,0.6,4.6-0.8,5.3-3
			l8.3-27.6l2.2,0.5c0.2,0,0.4,0.1,0.6,0c2.6-0.2,5.1-4.4,5-7.2c0-0.4-0.1-0.8-0.2-1.2c-0.2-0.6-0.8-1-1.4-1.1l-3.3-0.7v-0.1
			l5.7,0.7c0.3,0,0.5,0,0.8,0c3.3-0.3,5.9-4.4,6-7.7c0-0.5,0-1-0.2-1.4c-0.3-1.4-1.6-2.4-3-2.4l-5.8-0.7v-0.1l6.8,0.4
			c0.4,0,0.9,0,1.3-0.2c2.8-1.2,4.7-7.1,3.4-10c-0.4-0.9-1.3-1.6-2.3-1.6l-5.6-0.3l0.1-0.2l4.7,0.1c0.2,0,0.3,0,0.5-0.1
			c2.4-0.6,3.2-5.8,2.2-9.1l0,0l0,0c-0.4-1.6-1.3-2.7-2.5-2.7h-1.4l17.8-59C438.6,340.9,436.9,337.8,433.9,336.9z M388.7,325.9
			l1.7,0.4l7.4,1.7c0.8,0.2,1.7,0.4,2.6,0.7L388.7,325.9z"/>
	</g>
</g>
<g>
	<g>
		<g class="st28">
			<path class="st12" d="M334.2,293.1c0-0.1,0-0.2,0-0.3c0-0.1,0-0.2,0-0.3c0-0.2-0.1-0.2-0.1-0.3c-0.1-0.2-0.3-0.3-0.7-0.3
				c-0.1,0-0.2,0-0.3,0c-0.2,0-0.3,0-0.5,0.1c-0.3,0.1-0.6,0.4-0.8,0.6c-0.2,0.2-0.4,0.7-0.4,1.2c0,0.3,0.1,0.6,0.1,1
				c0.1,0.5,0.3,0.6,0.6,0.8c0.3,0.3,0.6,0.7,1,0.7c0.5,0,0.6,0.3,0.8,0.5s0.5,0.3,0.8,0.9s0.4,0.3,0.6,0.8c0.2,0.4,0.6,0.9,0.6,1.5
				c0,0.9-0.1,1.5-0.1,1.9c0,0.4-0.2,0.6-0.5,1.2c-0.3,0.6-0.6,0.4-0.7,0.6c-0.1,0.2-0.4,0.6-0.7,0.8c-0.3,0.1-0.9,0.4-1.5,0.4
				c-0.2,0-0.3,0-0.5-0.1c-0.8-0.2-1.4-0.7-1.6-1c-0.2-0.3-0.3-0.5-0.6-0.7c-0.3-0.2-0.3-0.6-0.4-1c0-0.3-0.2-0.6-0.2-1
				c0-0.4,0.1-0.5,0.3-0.8s0.6-0.4,0.8-0.5c0.1,0,0.1,0,0.1,0c0.2,0,0.3,0.1,0.4,0.4c0.1,0.1,0.1,0.3,0.1,0.4c0,0.3,0,0.4,0,0.5
				c0,0.4,0.2,0.8,0.2,1c0.1,0.2,0.1,0.7,0.2,0.8c0.1,0.2,0.4,0.5,0.6,0.6c0.1,0.1,0.2,0.1,0.3,0.1c0.2,0,0.5-0.1,0.8-0.2
				c0.4-0.2,0.4-0.3,0.6-0.4c0.2-0.1,0.2-0.4,0.5-1c0.1-0.2,0.2-0.5,0.2-1c0-0.3-0.1-0.8-0.2-1.3c-0.1-0.5-0.5-1-0.6-1.2
				c-0.1-0.2-0.3-0.3-0.6-0.5c-0.3-0.2-0.3-0.2-0.7-0.4s-0.5-0.3-0.9-0.5c-0.6-0.4-1.2-0.9-1.5-1.4c-0.2-0.4-0.2-0.9-0.2-1.4
				c0-0.2,0.1-0.9,0.3-1.2c0.2-0.3,0.5-0.7,0.6-1.1s0.6-0.5,0.8-0.6c0.2-0.1,0.8-0.4,1.1-0.6c0.1-0.1,0.3-0.1,0.4-0.1
				c0.2,0,0.4,0.1,0.7,0.1c0.5,0,0.6,0.3,0.9,0.5c0.3,0.2,0.5,0.4,0.8,0.7c0.2,0.3,0.3,0.5,0.3,0.8c0,0,0,0.1,0,0.1
				c-0.1,0.2-0.1,0.6-0.2,0.8c-0.1,0.2-0.5,0.4-0.8,0.4c-0.1,0-0.1,0-0.2,0C334.3,293.6,334.2,293.4,334.2,293.1z"/>
			<path class="st12" d="M337.7,292c0.1,0,0.3-0.1,0.6-0.1c0.2,0,0.4,0,0.4,0.2c0.1,0.3,0.3,0.4,0.3,0.6c0,0,0,0.1,0,0.1
				c-0.1,0.2-0.1,0.6-0.1,1.2c0,0.1,0,0.2,0,0.3c0,0.3,0.1,0.6,0.1,0.8c-0.1,0.7,0,1.3-0.1,1.6c0,0.1,0,0.3,0,0.6c0,0.3,0,0.7,0,0.9
				s0,0.4,0,0.7c0,0.1,0,0.3,0.1,0.6c0.1,0.5,0.1,0.7,0.1,1c0,0.1,0,0.2,0,0.4c-0.1,0.3-0.1,0.6-0.1,0.8c0,0.2,0,0.3,0.1,0.5
				c0.1,0.3,0.1,0.9,0.1,1.3c0,0.4-0.2,1.2-0.7,1.2s-0.4-0.3-0.6-0.5c-0.2-0.2-0.4-0.6-0.4-0.9c0-0.2,0-0.8,0.1-1.3
				c0-0.5,0.2-0.7,0.2-1.1v-0.1c0-0.5,0.1-0.8,0.1-1.3v-0.2c0-0.6,0-1.1-0.1-1.6v-0.8c0-0.2,0-0.4,0-0.6c0-0.1,0-0.2,0-0.3
				c0-0.3,0.1-0.5,0.1-0.7c0-0.1,0-0.1,0-0.2c0-0.1,0-0.1,0-0.2c0-0.2,0.1-0.3,0.1-0.5c0-0.1,0-0.1,0-0.2c0-0.1-0.1-0.2-0.1-0.3
				c0-0.1,0-0.2,0-0.3c0-0.3-0.1-0.2-0.1-0.8C337.4,292.3,337.6,292,337.7,292z"/>
			<path class="st12" d="M346.7,304c0-0.2,0-0.5,0.1-0.6c0-0.1,0.1-0.1,0.1-0.2c0-0.1,0-0.3-0.1-0.5c0-0.1,0-0.1,0-0.2
				c0-0.2,0.1-0.4,0.1-0.6v-0.2c0-0.2,0.1-0.4,0.1-0.6c0-0.2,0.1-0.5,0.1-0.9c0-0.1,0-0.2,0-0.3c0-0.1,0-0.1,0-0.2
				c0-0.5,0.2-1,0.2-1.5c0-0.4,0-0.8,0-1.2c0-0.2,0-0.4,0-0.5c0-0.5-0.1-1.2-0.1-1.7v-0.7c0-0.2,0-0.3,0-0.5c0-0.3-0.2-0.4-0.4-0.5
				c-0.2-0.1-0.5-0.1-0.7-0.1c-0.1,0-0.1,0-0.2,0c-0.2,0-0.6,0.3-0.8,0.3c-0.1,0-0.1,0-0.1-0.1c-0.1-0.1-0.3-0.4-0.3-0.7
				c0-0.1,0-0.1,0-0.1c0.1-0.3,0.1-0.5,0.3-0.5h0.1c0.3,0,1-0.1,1.2-0.1h0.1c0.1,0,1,0.1,1.5,0.1h0.3c0.1,0,0.3,0,0.4,0
				c0.3,0,0.5,0,0.6,0c0.1,0,0.5,0.1,0.8,0.1c0.1,0,0.2,0,0.3,0c0.1,0,0.2,0,0.3,0c0.2,0,0.4,0.1,0.5,0.3c0,0,0,0.1,0,0.2
				c0,0.3-0.1,0.9-0.3,0.9c-0.1,0-0.3,0.1-0.5,0.1c-0.1,0-0.1,0-0.2,0c-0.3-0.1-1,0-1.1-0.1c0,0-0.1,0-0.1,0c-0.1,0-0.2,0.1-0.3,0.3
				c-0.1,0.1-0.1,0.3-0.1,0.4v0.6c0,0.5-0.1,1-0.1,1.5c0,0.3,0.1,0.7,0.1,0.9c0,0.1,0,0.2-0.1,0.3c-0.1,0.3-0.2,0.8-0.2,1.1
				c0,0.3,0,1,0,1.3c0,0.3,0.1,0.9,0.1,1.2v0.2c0,0.3,0.1,0.8,0.1,1.1c0,0.3,0,0.8,0,1.2c0,0.3-0.3,0.8-0.4,1
				c-0.1,0.2-0.4,0.2-0.6,0.2c-0.1,0-0.1,0-0.2,0c-0.2,0-0.4,0-0.5-0.2C346.7,304.4,346.7,304.2,346.7,304z"/>
			<path class="st12" d="M352.1,302c0-0.2,0-0.4,0-0.5c0-0.5,0-0.7-0.1-0.8c0-0.1-0.1-0.3-0.1-0.4c0-0.2,0-0.3,0-0.4
				c0-0.2,0-0.4,0-0.6c0-0.1,0-0.1,0-0.2c0-0.1,0-0.1,0-0.2c0-0.2,0-0.5,0-0.8c0-0.3,0.1-0.5,0.1-0.7c0-0.1,0-0.2,0-0.3
				c0-0.2-0.1-0.3-0.1-0.5v-1.8c0-0.2-0.1-0.4-0.1-0.6c0-0.3,0-0.5,0-0.8c0-0.4,0-0.9,0.1-1c0.1-0.1,0.2-0.2,0.4-0.2
				c0.1,0,0.2,0,0.3,0.1c0.3,0.2,0.6,0.3,0.7,0.6c0,0.2,0.1,0.4,0.1,0.7c0,0.1,0,0.2,0,0.4c0,0.1,0,0.3,0,0.5c0,0.3,0,0.7,0,0.9
				c0,0.1,0,0.1,0,0.2c0,0.3,0,0.9-0.1,1.4c0,0.1,0,0.2,0,0.2c0,0.3,0.1,0.5,0.1,0.7c0,0.1,0,0.2,0,0.3c-0.1,0.3-0.1,0.5-0.1,0.7
				c0,0.1,0,0.3,0,0.4c0.1,0.4,0.1,1.4,0.1,1.8c0,0.2,0,0.3,0,0.3c0,0.3,0,0.6,0.1,0.8c0.1,0.4,0.3,0.4,0.3,0.7
				c0.2,0.5,0.8,0.8,1.1,0.8c0.4,0,0.6,0,1-0.4c0.3-0.3,0.6-0.6,0.7-1c0.1-0.4,0.3-0.8,0.3-1.2c0.1-0.4,0.1-0.9,0.1-1.2
				c0-0.5,0.1-1.1,0.3-1.3c0.1-0.1,0.1-0.2,0.1-0.3c0-0.2-0.1-0.5-0.1-0.6c-0.1-0.1-0.1-0.3-0.1-0.5c0-0.1,0-0.2,0-0.3
				c0-0.3,0.1-0.6,0.1-0.9c0-0.2,0-0.3,0-0.3c-0.1-0.3-0.1-0.6-0.1-1c0-0.4,0-0.6-0.1-0.9c0-0.3-0.2-0.4-0.2-0.6c0,0,0-0.1,0-0.1
				c0.1-0.3,0.2-0.6,0.3-0.7c0.1-0.1,0.4-0.2,0.7-0.2c0.2,0,0.3,0.1,0.4,0.2c0.1,0.3,0.3,0.8,0.3,1c0,0.5,0.1,0.9,0.1,1.2
				c0,0.1,0,0.2,0,0.2c0,0.3-0.1,0.7-0.1,1c0,0.1,0,0.2,0,0.3c0,0.1,0,0.3,0,0.4c0,0.2,0,0.4,0,0.8c0,0.5-0.1,1.1-0.1,1.4
				c0,0.1,0,0.2,0,0.3c0,0.2,0,0.5-0.1,0.7c0,0.3-0.1,0.9-0.3,1.6c-0.1,0.7,0,1.1-0.2,1.4c-0.2,0.3-0.3,0.6-0.5,0.9
				c-0.2,0.2-0.2,0.3-0.4,0.5c-0.2,0.2-0.3,0.3-0.6,0.5c-0.2,0.2-0.3,0.1-0.6,0.3s-0.9,0.3-1.3,0.3c-0.4,0-1.2-0.2-1.4-0.4
				c-0.3-0.3-0.7-0.6-0.8-0.9c-0.2-0.2-0.3-0.8-0.3-0.9C352.1,302.4,352.1,302.2,352.1,302z"/>
			<path class="st12" d="M369.9,294.2c-0.1-0.2-0.3-0.2-0.3-0.5c-0.1-0.3-0.1-0.5-0.4-0.6c-0.1-0.1-0.5-0.1-0.7-0.1
				c-0.1,0-0.2,0-0.2,0l-0.6,0.3c-0.2,0.1-0.3,0.1-0.4,0.4c-0.1,0.3-0.2,0.5-0.3,0.8c-0.2,0.5-0.4,1.1-0.5,1.7
				c0,0.5-0.1,1.2-0.1,1.6c0,0.3-0.3,0.5-0.3,0.7c0,0.3,0.2,0.3,0.3,0.5c0.1,0.2,0.1,1.2,0.1,1.5c0,0.3,0.2,0.7,0.2,0.9
				c0,0.2,0.1,0.3,0.3,0.8c0.2,0.5,0.4,0.6,0.6,0.7c0.2,0.1,0.4,0.3,0.6,0.3c0.2,0,0.3,0.1,0.7,0.1s0.7-0.3,0.9-0.7
				c0.1-0.2,0.3-0.4,0.4-0.7c0.1-0.3,0.4-0.4,0.7-0.4c0.3,0,0.4,0.2,0.5,0.4c0,0,0,0.1,0,0.1c0,0.1-0.1,0.3-0.1,0.6
				c0,0.3-0.1,0.3-0.3,0.5c-0.2,0.2-0.2,0.3-0.3,0.5c-0.1,0.2-0.3,0.4-0.5,0.5c-0.1,0.1-0.7,0.5-1.4,0.5c-0.7,0-1.6-0.3-1.9-0.5
				l-0.6-0.5c-0.3-0.2-0.3-0.7-0.5-0.9c-0.1-0.1-0.5-0.6-0.6-0.9c-0.1-0.3-0.2-0.8-0.2-1.2v-0.1c0-0.2,0-0.3,0-0.5
				c0-0.1,0-0.2-0.1-0.3c-0.1-0.1-0.1-0.2-0.1-0.4c0-0.2,0-0.3,0.1-0.5c0-0.1-0.1-0.1-0.1-0.4v-0.1c0-0.4,0-0.8,0-1.2s0-0.7,0.2-0.9
				c0.1-0.3,0.1-0.5,0.1-0.8c0-0.3,0.2-0.9,0.4-1.2c0.2-0.4,0.2-0.6,0.5-1c0.1-0.2,0.5-0.3,0.6-0.3c0.1,0,0-0.2,0.1-0.4
				c0.1-0.2,0.4-0.4,0.7-0.6c0.2-0.1,0.9-0.3,1.2-0.3c0.3,0,0.9,0.1,1.3,0.1c0.4,0,0.6,0.4,0.8,0.6c0.2,0.2,0.5,0.3,0.5,0.6v0.2
				c0,0.1,0,0.1,0.1,0.3c0,0.1,0.1,0.2,0.1,0.3c0,0.2-0.1,0.4-0.1,0.5c-0.1,0.1-0.2,0.3-0.6,0.3S370.1,294.4,369.9,294.2z"/>
			<path class="st12" d="M376.1,291.8c0.3,0,0.7,0,0.8,0.1c0.3,0,0.7,0.2,1,0.4c0.3,0.2,0.3,0.3,0.5,0.5c0.7,0.7,0.5,1,0.7,1.3
				c0.2,0.4,0.2,0.7,0.3,1.2c0,0.5,0,0.7,0.1,1.1c0,0.3,0,0.5,0,0.8v0.3c0,0.4-0.2,1.3-0.2,1.8s-0.1,1.2-0.2,1.7
				c-0.1,0.2-0.1,0.4-0.1,0.5c0,0.2,0,0.2,0,0.3c-0.1,0.3-0.1,0.4-0.2,0.7s-0.4,0.5-0.5,0.7c-0.1,0.2-0.3,0.5-0.5,0.8
				c-0.2,0.3-1,0.7-1.8,0.7s-1.5-0.2-1.7-0.3s-0.4-0.4-0.6-0.6c-0.2-0.2-0.6-1-0.8-1.3s-0.1-0.6-0.2-1c-0.1-0.3,0-0.6-0.2-1
				c-0.1-0.1-0.1-0.3-0.1-0.5v-0.3c0-0.2,0-0.4,0-0.6c0-0.1,0-0.2,0-0.3c0-0.4,0.1-0.7,0.1-1.1c0-0.3,0-0.5,0-0.8
				c0-0.2,0-0.3,0.1-0.6c0.1-0.4,0.1-0.6,0.2-1.4c0.1-0.3,0.3-0.7,0.4-0.9c0-0.2,0.3-0.7,0.7-1.2s1.1-0.8,1.5-1
				C375.5,291.8,375.8,291.8,376.1,291.8z M374.9,293.8c-0.1,0.3-0.4,0.7-0.5,1c-0.1,0.3-0.1,0.8-0.2,1.1c0,0.1,0,0.1,0,0.2
				c0,0.1,0.1,0.3,0.1,0.5c0,0.1,0,0.2-0.1,0.3c-0.1,0.4-0.2,0.8-0.2,1.2c0,0.1,0,0.1,0,0.2c0,0.2,0,0.4,0,0.5c0,0.1,0,0.1,0,0.2
				c0,0.1,0,0.1,0,0.1c0,0.1,0,0.3,0,0.5c0,0.1,0,0.1,0,0.2c0,0.1,0,0.1,0,0.2c0,0.2,0.1,0.3,0.1,0.6c0,0.4,0.1,0.6,0.2,0.8
				c0.1,0.2,0.3,0.6,0.4,0.8c0.1,0.2,0.1,0.3,0.2,0.6c0.1,0.3,0.7,0.5,1.2,0.5c0.4,0,0.7-0.3,0.9-0.5s0.5-0.6,0.6-0.9
				c0.1-0.3,0.3-0.7,0.3-1c0-0.3,0.2-0.4,0.2-0.6c0-0.1-0.1-0.2-0.1-0.4c0-0.1,0-0.2,0.1-0.4c0.1-0.4,0.2-0.7,0.2-0.9
				c0-0.1,0-0.1,0-0.2c0-0.3-0.1-0.3-0.1-0.5c0-0.3,0-0.4,0-0.5c0-0.1,0-0.2,0-0.6c0-0.2,0-0.3,0-0.4c0-0.1,0-0.2,0-0.4
				c0-0.2,0-0.2,0-0.3c0-0.1,0-0.2-0.1-0.5c-0.1-0.5-0.1-0.4-0.2-0.7c-0.1-0.3-0.1-0.4-0.4-0.8c-0.3-0.3-0.5-0.4-0.7-0.5
				c-0.1,0-0.3,0-0.5,0c-0.1,0-0.3,0-0.4,0C375.6,293.3,375,293.5,374.9,293.8z"/>
			<path class="st12" d="M381.2,304.3c0-0.3,0-0.7-0.1-1.2c0-0.1,0-0.2,0-0.3c0-0.3,0.1-0.5,0.1-0.8c0-0.1,0-0.1,0-0.2
				c0-0.1,0-0.2,0-0.3c0-0.2,0-0.4,0-0.6v-0.3c0-0.3,0.1-0.6,0.1-0.9c0-0.1,0-0.1,0-0.2c0-0.3-0.1-0.4-0.1-0.7c0-0.1,0-0.2,0-0.4
				c0-0.4,0.1-0.7,0.1-1c0-0.3,0-0.6,0-0.8c0-0.2,0-0.3,0-0.4c0-0.3,0-0.5,0.1-1c0.1-0.5,0.1-1.1,0.2-1.4s0.4-0.6,0.6-0.9
				c0.2-0.3,0.5-0.6,0.8-0.7s0.6-0.3,1-0.3c0.5,0,1,0.1,1.2,0.2c0.3,0.2,0.6,0.2,0.6,0.4c0,0.2,0.3,0.6,0.4,0.9
				c0.1,0.3,0.3,0.4,0.3,0.8c0,0.4,0.1,0.6,0.2,0.9c0,0.3,0.1,0.5,0.2,0.5c0,0,0.1,0,0.1,0c0.1-0.2,0.3-0.6,0.3-0.9
				c0.1-0.3,0.4-0.7,0.5-1c0.1-0.3,0.4-0.7,0.7-0.9l0.7-0.7c0.2-0.2,0.7-0.3,0.9-0.3c0.3,0,1.1,0.2,1.3,0.5c0.2,0.3,0.5,0.3,0.6,0.7
				c0.1,0.3,0.2,0.6,0.2,0.9c0,0.2,0.3,0.4,0.3,0.7c0,0.3-0.1,1.6-0.1,2v0.5c0,0.3,0,0.5,0,0.7c0,0.1,0,0.2,0,0.2c0,0.1,0,0.3,0,0.5
				c0,0.2,0.1,0.6,0.1,0.9c0,0.1,0,0.1,0,0.1c0,0.3,0,0.8,0,1.2c0,0.3,0.2,0.9,0.2,1.2c0,0.3-0.1,0.6-0.1,0.9c0,0.1,0,0.2,0,0.3
				c0.1,0.3,0.1,0.5,0.1,0.8c0,0.3-0.2,0.7-0.5,0.8c-0.1,0-0.1,0-0.2,0c-0.3,0-0.7-0.1-0.8-0.2c-0.1-0.1-0.3-0.2-0.3-0.3
				c0,0,0-0.1,0-0.1c0-0.1,0.1-0.4,0.1-0.6c0-0.1,0-0.1,0-0.2c0-0.1,0-0.2,0-0.3c0-0.2,0-0.5,0-0.8c0-0.4,0.1-0.6,0.1-0.9
				c0-0.1,0-0.2,0-0.2c0-0.2-0.1-0.2-0.1-0.3s0-0.2,0-0.5c0-0.3,0-0.5,0-0.8c0-0.1,0-0.3,0-0.4c-0.1-0.4,0-0.4-0.1-1
				c0-0.3,0.1-0.5,0.1-1c0-0.2,0-0.4,0-0.6c0-0.1,0-0.2,0-0.3c-0.1-0.3-0.1-0.2-0.1-0.7c0-0.5-0.1-0.7-0.1-1c-0.1-0.7-0.3-1-0.8-1
				c-0.3,0-0.7,0.3-0.8,0.6s-0.4,0.6-0.6,1c-0.2,0.3-0.1,0-0.3,0.6c-0.2,0.6-0.2,0.5-0.5,1.2c-0.2,0.7-0.2,1-0.3,1.6
				c-0.1,0.6-0.1,0.9-0.2,1.4v0.2c0,0.4,0.1,1,0.1,1.4c0,0.3,0,0.4,0,0.5c0,0.2,0,0.4,0,0.7c0,0.2,0,0.5,0,0.8c0,0.1,0,0.3,0,0.3
				c-0.1,0.3-0.4,0.5-0.7,0.5h-0.1c-0.3,0-0.7-0.2-0.7-0.5c0-0.2,0-0.6,0-0.9c0-0.1,0-0.2,0-0.3c0-0.3,0.1-0.7,0.1-0.9
				c0-0.1,0-0.2,0-0.2c0-0.2,0.1-0.3,0.1-0.5s0-0.3,0-0.4c0-0.1,0-0.3,0-0.4c0-0.2,0-0.3,0-0.3c0-0.2,0.1-0.2,0.1-0.5v-0.5
				c0-0.1,0-0.2,0-0.3c-0.1-0.4-0.1-0.6-0.1-1.1c-0.1-0.6-0.2-1-0.3-1.4c-0.1-0.4-0.2-0.9-0.3-1.3c-0.1-0.4-0.1-0.4-0.3-0.6
				c-0.1-0.2-0.2-0.5-0.4-0.6c-0.2-0.1-0.3-0.3-0.6-0.3s-0.5,0-0.7,0.2c-0.1,0.2-0.5,0.5-0.6,1c-0.1,0.4-0.2,0.9-0.2,1.1
				c0,0,0,0.1,0,0.1c0,0.1,0.1,0.3,0.1,0.5c0,0.1,0,0.1,0,0.2c-0.1,0.3-0.1,0.5-0.1,0.9c-0.1,0.4-0.1,0.5-0.1,0.9v0.2
				c0,0.6,0,0.8,0,1.3v0.6c0,0.2,0,0.3,0,0.4c0,0.1,0,0.1,0,0.2c0,0.3,0.1,0.6,0.1,1v0.2c0,0.3,0.1,0.7,0.1,1.1c0,0.1,0,0.2,0,0.3
				c-0.1,0.5-0.1,1-0.7,1C381.5,304.6,381.3,304.6,381.2,304.3z"/>
			<path class="st12" d="M394.5,304c0-0.1,0-0.1,0-0.2c0.1-0.3,0.1-0.5,0.1-0.8c0-0.1,0-0.1,0-0.2c0-0.2,0-0.4,0-0.7
				c0-0.1,0-0.2,0-0.4c-0.1,0-0.6-0.1-0.6-0.3c0-0.1,0-0.1,0-0.2c0-0.2,0-0.3,0.1-0.4c0.1-0.1,0.4-0.1,0.5-0.2
				c0.1-0.1,0.1-0.5,0.1-0.8c0-0.2,0.1-0.8,0.1-1.2c0-0.1,0-0.2,0-0.3c0-0.2-0.1-0.4-0.1-0.6c0-0.2,0-0.4,0-0.7c0-0.1,0-0.3,0-0.4
				c0-0.1,0-0.2-0.1-0.3c-0.1-0.2-0.1-0.3-0.1-0.3c0-0.1,0-0.1,0-0.3c0-0.2,0.1-0.3,0.1-0.5c0-0.1,0-0.1,0-0.3c0,0,0-0.1,0-0.1
				c-0.1-0.4-0.1-0.6-0.1-0.9c0-0.2,0-0.3,0-0.4c0-0.1,0-0.2-0.1-0.2c-0.1-0.1-0.7-0.5-0.7-0.6c0-0.1-0.1-0.2-0.1-0.4
				c0-0.1,0-0.1,0.1-0.2c0.1-0.1,0.4-0.2,0.6-0.2h0.1c0.3,0,1.7,0,2.1,0c0.3,0,1.1,0.1,1.4,0.1c0.1,0,0.3,0,0.4,0.1
				c0.1,0.1,1,0.5,1,0.6c0.2,0.2,0.6,0.7,0.7,1s0.5,0.6,0.5,1.1c0,0.6,0.1,0.9,0.1,1.1c0,0.1,0,0.1,0,0.2c-0.1,0.3-0.1,0.6-0.2,1
				c-0.1,0.4-0.3,1-0.5,1.3c-0.2,0.4-0.9,1-1.1,1.3c-0.3,0.3-0.2,0.4-0.5,0.5c-0.3,0.2-0.3,0.2-0.6,0.4c-0.4,0.1-0.5,0.2-0.7,0.4
				c-0.2,0.1-0.5,0.3-0.7,0.4c-0.2,0.1-0.3,0.1-0.3,0.3c0,0.2-0.2,0.8-0.2,1.2c0,0.1,0,0.2,0,0.2c0,0,0,0.1,0,0.1
				c0.1,0.3,0.1,0.6,0.1,0.8c0,0.1,0,0.1,0,0.1c-0.1,0.1-0.1,0.3-0.5,0.5c-0.2,0.1-0.3,0.1-0.5,0.1c-0.2,0-0.4-0.1-0.5-0.2
				C394.6,304.5,394.5,304.3,394.5,304z M396.3,300c0.1,0,0.2,0,0.3-0.1c0.3-0.1,0.5-0.2,0.8-0.3c0.3-0.1,0.6-0.5,0.8-0.7
				s0.4-0.2,0.5-0.5c0.1-0.3,0.5-1,0.6-1.4c0.2-0.4,0.1-0.7,0.2-1.1c0-0.3-0.1-0.7-0.2-1c-0.1-0.4-0.2-0.6-0.3-0.8
				c-0.1-0.3-0.5-0.5-0.8-0.6c-0.4-0.1-0.8-0.3-1-0.3c0,0-0.1,0-0.3,0c-0.3,0-0.7,0-0.8,0.1c-0.1,0.1-0.1,0.3-0.1,0.5
				c0,0.1,0,0.3,0,0.6c0.1,0.5,0.1,0.5,0.1,1.1v0.8c0,0.2,0,0.3,0,0.5c0,0.1,0,0.3,0.1,0.4c0,0.1,0,0.2,0,0.3c0,0.2-0.1,0.2-0.1,0.5
				c0,0.1,0,0.2,0,0.3c0,0.2,0,0.4,0,0.7c0,0.4,0,0.7,0,1C396.1,300,396.2,300,396.3,300z"/>
			<path class="st12" d="M402.2,304c0-0.1,0-0.2,0-0.5c0-0.2,0-0.5,0-0.8c0-0.1,0-0.2,0-0.2c0-0.3-0.3-0.8-0.3-1
				c0-0.3,0.2-0.5,0.3-0.8c0-0.1,0.1-0.4,0.1-0.6c0-0.3,0-0.7,0-0.9V299c0-0.4,0.1-0.7,0.1-1.1c0-0.4,0-0.6-0.1-0.8
				c0-0.2-0.1-0.3-0.1-0.5c0-0.1,0-0.2,0-0.3c0,0,0,0,0-0.1c0.1-0.2,0.1-0.3,0.1-0.5c0-0.1,0-0.1,0-0.2c0,0,0-0.1,0-0.1
				c0-0.1,0-0.4,0-0.7c0-0.5,0-0.8-0.1-1.2c0-0.4-0.3-0.6-0.4-0.8c0-0.1-0.1-0.3-0.1-0.4c0-0.1,0-0.1,0.1-0.2
				c0.1-0.1,0.7-0.4,1.1-0.4c0,0,0,0,0.1,0c0.2,0.1,0.8,0.3,1.2,0.3c0.3,0,0.9-0.1,1.3-0.1s0.5,0,0.7,0c0.2,0,0.4,0,0.6,0.1
				c0.3,0.2,0.7,0.3,1.1,0.8s0.7,1.1,0.7,1.4c0,0.2,0.1,0.5,0.1,0.8c0,0.1,0,0.2,0,0.3c-0.1,0.3-0.1,0.5-0.2,0.9c0,0.4,0,0.6-0.2,1
				c-0.2,0.4-0.1,0.6-0.4,0.9c-0.3,0.3-0.6,0.7-0.8,1c-0.1,0.1-0.4,0.7-0.5,0.7c-0.1,0.1-0.2,0.2-0.2,0.4c0,0.1,0,0.1,0,0.2
				c0.1,0.3,0.4,0.8,0.7,1.2c0.3,0.4,0.5,0.3,0.6,0.7c0.1,0.4,0.2,0.5,0.4,0.5c0.3,0.1,0.6,0.4,0.7,0.8c0.1,0.1,0.2,0.4,0.2,0.6
				c0,0.1,0,0.3-0.1,0.3c-0.1,0.1-0.3,0.1-0.6,0.1c-0.5,0-1-0.1-1.1-0.4c-0.1-0.3-0.4-0.8-0.6-0.9c-0.2-0.1-0.4-0.6-0.7-1
				c-0.3-0.4-0.2-0.7-0.5-0.9c-0.2-0.2-0.1-0.3-0.3-0.3c0,0-0.1,0-0.1,0c-0.3,0.1-0.4,0.1-0.6,0.3c-0.2,0.1-0.3,0.3-0.3,0.6
				c0,0,0,0.1,0,0.1c0,0.3-0.2,0.8-0.2,1.2c0,0.3,0.1,0.6,0.1,1.1c0,0.2,0,0.3-0.3,0.3c-0.2,0-0.5,0.1-0.7,0.1
				c-0.2,0-0.4-0.1-0.4-0.3V304z M403.8,300.2c0.1,0,0.2,0,0.4-0.1c0.3-0.1,0.2-0.1,0.6-0.3c0.4-0.2,0.5-0.3,0.8-0.7
				c0.4-0.4,0.3-0.4,0.6-0.7c0.3-0.3,0.2-0.6,0.4-1c0.2-0.4,0.2-0.6,0.4-0.8c0.1-0.2,0.3-0.6,0.3-0.9c0-0.1-0.2-0.6-0.3-0.7
				s-0.1-0.6-0.2-1c-0.1-0.3-0.3-0.5-0.8-0.6c-0.5-0.1-1-0.1-1.1-0.2c0,0-0.1,0-0.2,0c-0.3,0-0.9,0.1-1,0.2c-0.1,0-0.1,0.1-0.1,0.2
				c0,0.2,0.1,0.4,0.1,0.7c0,0.3,0,0.4,0,0.5c0,0.1,0,0.2,0,0.4c0,0.2,0,0.5,0,0.8c0,0.1,0,0.2,0,0.5c0,0.3-0.1,0.4-0.1,0.7
				c0,0.3,0,0.4,0,0.6c0,0.1,0,0.1,0,0.2c0,0.1,0,0.1,0,0.2c0,0.2,0,0.4,0,0.6c0,0.1,0,0.2,0,0.2c0.1,0.3,0.1,1.1,0.1,1.3
				C403.6,300.1,403.7,300.2,403.8,300.2z"/>
			<path class="st12" d="M410.6,304.7c-0.2,0-0.1-0.1-0.3-0.1c-0.2,0-0.3,0-0.3-0.3c0-0.2-0.1-0.5-0.1-0.8c0-0.3,0-0.4,0-0.7
				c0-0.3,0-0.6,0.1-0.7c0,0,0-0.1,0-0.1c0-0.1,0-0.2-0.1-0.4c-0.1-0.3-0.3-0.7-0.3-0.8c0-0.1,0-0.2,0-0.3c0-0.1,0-0.2,0.1-0.2
				c0.1-0.1,0.4-0.1,0.4-0.1c0,0,0-0.1,0-0.1c0-0.1-0.1-0.3-0.1-0.7c0-0.5,0-0.8,0.1-0.8c0.1-0.1,0.1-0.2,0.1-0.5v-1.8
				c0-0.2,0-0.3,0-0.5c0-0.1,0-0.1,0-0.2c0-0.2,0-0.4,0-0.6c0-0.2,0-0.3,0.1-0.4c0.2-0.2,0.1-0.4,0.2-0.7c0.2-0.2,0.5-0.5,0.5-0.7
				c0-0.4,0.4-0.6,0.7-0.8c0.3-0.2,0.7-0.3,0.8-0.4c0.1-0.1,0.9-0.3,1.2-0.3c0.3,0,0.9,0.1,1.2,0.3c0.3,0.2,0.6,0.5,0.8,0.7
				c0.2,0.2,0.6,0.7,0.7,1.1c0.1,0.4,0.2,1.1,0.2,1.3c0,0.2,0.1,0.8,0.1,1.1c0,0.1,0,0.2,0,0.2c0,0.1-0.1,0.5-0.1,0.8
				c0,0.2,0,0.4,0,0.5c0,0.2,0,0.9,0,1.4c0,0.5,0.1,0.7,0.1,0.9c0,0,0,0,0,0.1c0,0.1,0,0.3,0,0.5c0,0.1,0,0.3,0,0.4
				c-0.1,0.3-0.1,0.7-0.1,1c0,0.2,0.1,0.5,0.1,0.8c0,0.3,0,0.6,0,0.8c0,0.2-0.1,0.7-0.3,0.8c-0.1,0-0.3,0-0.5,0c-0.2,0-0.3,0-0.5,0
				c-0.3,0-0.4-0.2-0.4-0.4v-0.5c0-0.1,0-0.2,0-0.4c0-0.2-0.1-0.4-0.1-0.5c0-0.1,0-0.2,0.1-0.2c0.1-0.1,0.2-0.3,0.2-0.6
				c0-0.2,0.1-0.3,0.1-0.3c0-0.1,0-0.1-0.2-0.1h-0.1c-0.3,0-0.3,0.2-0.6,0.2c0,0-0.1,0-0.1,0c-0.1,0-0.1,0-0.1,0c0,0,0,0-0.1,0
				c0,0-0.1,0-0.2,0c-0.5-0.1-0.6-0.1-0.9-0.1c-0.4,0-0.5,0.1-0.7,0.1h-0.3c-0.1,0-0.2,0-0.3,0.1c-0.2,0.2-0.3,0.2-0.3,0.5
				c0,0.3,0,0.3,0,0.6c0,0.3,0,0.3,0,0.6c0,0.3,0.1,0.4,0.1,0.7c0,0.1,0,0.1,0,0.2c-0.1,0.3-0.3,0.3-0.6,0.4
				C410.6,304.6,410.6,304.7,410.6,304.7z M411.7,300.4h0.4c0.3,0,0.5-0.1,0.8-0.1c0.1,0,0.3,0,0.4,0c0.2,0,0.4,0,0.5,0.1
				c0.1,0,0.2,0.1,0.2,0.1c0.2,0,0.5-0.1,0.6-0.1c0.2,0,0.3-0.1,0.5-0.2c0,0,0.1-0.1,0.1-0.1c0-0.1-0.1-0.2-0.1-0.3
				c0-0.3,0-0.4,0-0.5c0-0.1,0-0.2,0.1-0.3c0-0.1,0-0.1,0-0.2c0-0.3-0.2-0.5-0.2-0.9c0-0.1,0-0.1,0-0.2c0-0.1,0-0.1,0-0.2
				c0-0.2,0-0.3,0-0.5c0-0.1,0-0.1,0-0.3c0-0.3-0.1-0.8-0.1-1c0-0.3-0.1-0.7-0.1-1.1v-0.1c0-0.3,0-0.4-0.2-0.6
				c-0.2-0.3-0.2-0.5-0.8-0.6c-0.1,0-0.1,0-0.2,0c-0.2,0-0.3,0.1-0.6,0.1c-0.3,0.1-0.6,0.1-0.8,0.5c-0.2,0.3-0.4,0.5-0.5,0.8
				c-0.1,0.3-0.1,0.9-0.3,1c-0.1,0.1-0.1,0.1-0.1,0.2c0,0.2,0.1,0.4,0.1,0.7c0,0.1,0,0.2,0,0.3c0,0.1,0,0.2,0,0.4v0.3
				c0,0.4-0.1,0.5-0.1,0.9c0,0.4,0,0.8-0.1,1.3v0.2c0,0.3,0.1,0.2,0.1,0.4C411.6,300.3,411.6,300.4,411.7,300.4z"/>
			<path class="st12" d="M423.6,304.7c-0.2,0-0.1-0.1-0.3-0.1c-0.2,0-0.3,0-0.3-0.3c0-0.2-0.1-0.5-0.1-0.8c0-0.3,0-0.4,0-0.7
				c0-0.3,0-0.6,0.1-0.7c0,0,0-0.1,0-0.1c0-0.1,0-0.2-0.1-0.4c-0.1-0.3-0.3-0.7-0.3-0.8c0-0.1,0-0.2,0-0.3c0-0.1,0-0.2,0.1-0.2
				c0.1-0.1,0.4-0.1,0.4-0.1c0,0,0-0.1,0-0.1c0-0.1-0.1-0.3-0.1-0.7c0-0.5,0-0.8,0.1-0.8c0.1-0.1,0.1-0.2,0.1-0.5v-1.8
				c0-0.2,0-0.3,0-0.5c0-0.1,0-0.1,0-0.2c0-0.2,0-0.4,0-0.6c0-0.2,0-0.3,0.1-0.4c0.2-0.2,0.1-0.4,0.2-0.7c0.2-0.2,0.5-0.5,0.5-0.7
				c0-0.4,0.4-0.6,0.7-0.8c0.3-0.2,0.7-0.3,0.8-0.4c0.1-0.1,0.9-0.3,1.2-0.3c0.3,0,0.9,0.1,1.2,0.3c0.3,0.2,0.6,0.5,0.8,0.7
				c0.2,0.2,0.6,0.7,0.7,1.1c0.1,0.4,0.2,1.1,0.2,1.3c0,0.2,0.1,0.8,0.1,1.1c0,0.1,0,0.2,0,0.2c0,0.1-0.1,0.5-0.1,0.8
				c0,0.2,0,0.4,0,0.5c0,0.2,0,0.9,0,1.4c0,0.5,0.1,0.7,0.1,0.9c0,0,0,0,0,0.1c0,0.1,0,0.3,0,0.5c0,0.1,0,0.3,0,0.4
				c-0.1,0.3-0.1,0.7-0.1,1c0,0.2,0.1,0.5,0.1,0.8c0,0.3,0,0.6,0,0.8c0,0.2-0.1,0.7-0.3,0.8c-0.1,0-0.3,0-0.5,0c-0.2,0-0.3,0-0.5,0
				c-0.3,0-0.4-0.2-0.4-0.4v-0.5c0-0.1,0-0.2,0-0.4c0-0.2-0.1-0.4-0.1-0.5c0-0.1,0-0.2,0.1-0.2c0.1-0.1,0.2-0.3,0.2-0.6
				c0-0.2,0.1-0.3,0.1-0.3c0-0.1,0-0.1-0.2-0.1h-0.1c-0.3,0-0.3,0.2-0.6,0.2c0,0-0.1,0-0.1,0c-0.1,0-0.1,0-0.1,0c0,0,0,0-0.1,0
				c0,0-0.1,0-0.2,0c-0.5-0.1-0.6-0.1-0.9-0.1c-0.4,0-0.5,0.1-0.7,0.1h-0.3c-0.1,0-0.2,0-0.3,0.1c-0.2,0.2-0.3,0.2-0.3,0.5
				c0,0.3,0,0.3,0,0.6c0,0.3,0,0.3,0,0.6c0,0.3,0.1,0.4,0.1,0.7c0,0.1,0,0.1,0,0.2c-0.1,0.3-0.3,0.3-0.6,0.4
				C423.6,304.6,423.6,304.7,423.6,304.7z M424.7,300.4h0.4c0.3,0,0.5-0.1,0.8-0.1c0.1,0,0.3,0,0.4,0c0.2,0,0.4,0,0.5,0.1
				c0.1,0,0.2,0.1,0.2,0.1c0.2,0,0.5-0.1,0.6-0.1c0.2,0,0.3-0.1,0.5-0.2c0,0,0.1-0.1,0.1-0.1c0-0.1-0.1-0.2-0.1-0.3
				c0-0.3,0-0.4,0-0.5c0-0.1,0-0.2,0.1-0.3c0-0.1,0-0.1,0-0.2c0-0.3-0.2-0.5-0.2-0.9c0-0.1,0-0.1,0-0.2c0-0.1,0-0.1,0-0.2
				c0-0.2,0-0.3,0-0.5c0-0.1,0-0.1,0-0.3c0-0.3-0.1-0.8-0.1-1c0-0.3-0.1-0.7-0.1-1.1v-0.1c0-0.3,0-0.4-0.2-0.6
				c-0.2-0.3-0.2-0.5-0.8-0.6c-0.1,0-0.1,0-0.2,0c-0.2,0-0.3,0.1-0.6,0.1c-0.3,0.1-0.6,0.1-0.8,0.5c-0.2,0.3-0.4,0.5-0.5,0.8
				c-0.1,0.3-0.1,0.9-0.3,1c-0.1,0.1-0.1,0.1-0.1,0.2c0,0.2,0.1,0.4,0.1,0.7c0,0.1,0,0.2,0,0.3c0,0.1,0,0.2,0,0.4v0.3
				c0,0.4-0.1,0.5-0.1,0.9c0,0.4,0,0.8-0.1,1.3v0.2c0,0.3,0.1,0.2,0.1,0.4C424.6,300.3,424.6,300.4,424.7,300.4z"/>
			<path class="st12" d="M431.5,292.1c0.1-0.1,0.5-0.2,0.7-0.2c0.3,0,0.8,0.3,0.8,0.8c0,0.4-0.1,0.8-0.1,1.1c0,0.3,0,1.2-0.1,1.4
				c0,0.1,0,0.1,0,0.2c0,0.2,0,0.4,0,0.6c-0.1,0.4-0.1,0.6-0.1,0.9c0,0.3,0.1,0.5,0.1,0.8c0,0.1,0,0.1,0,0.2c0,0.2,0,0.4,0,0.6
				c0,0.2,0,0.4,0,0.6c0,0.8,0,1.3,0,1.8v0.9c0,0.2,0,0.4,0,0.6c0,0.3,0,0.4,0.1,0.6c0.1,0.3,0.6,0.4,1,0.5c0.1,0,0.3,0,0.4,0
				c0.2,0,0.5,0,0.7,0c0.3,0,0.6-0.2,0.9-0.3c0.1,0,0.1,0,0.1,0c0.3,0,0.5,0.2,0.6,0.4c0,0.4-0.1,1-0.3,1.1
				c-0.2,0.1-0.4,0.1-0.6,0.1h-0.4c-0.5,0-0.8,0.1-1,0.1c-0.1,0-0.2,0-0.2-0.1c-0.1-0.1-0.3-0.2-0.5-0.2c0,0-0.1,0-0.1,0
				c-0.3,0.1-1,0.1-1.4,0.1c-0.3,0-0.7-0.1-0.8-0.4c-0.1-0.3-0.2-0.6-0.2-0.8c0-0.1,0-0.1,0-0.2c0.1-0.3,0.3-0.5,0.3-0.8
				c0-0.3,0-1,0-1.5c0-0.4,0.1-1,0.1-1.3v-0.3c0,0,0-0.1,0-0.1c0-0.2-0.1-0.4-0.1-0.5c0-0.1,0-0.2,0.1-0.3c0.1-0.1,0.1-0.4,0.1-0.6
				c0-0.1,0-0.1,0-0.2c-0.1-0.1,0-0.4-0.1-0.6c0-0.2,0-0.3,0-0.5c0-0.1,0-0.2,0-0.3c0-0.2,0.1-0.3,0.1-0.4c0-0.1,0-0.2-0.1-0.5
				c-0.1-0.4-0.1-0.7-0.1-1c0-0.1,0-0.2,0-0.3c0-0.3-0.1-0.6-0.1-1C431.3,292.6,431.4,292.2,431.5,292.1z"/>
			<path class="st12" d="M442.1,294.2c-0.1-0.2-0.3-0.2-0.3-0.5c-0.1-0.3-0.1-0.5-0.4-0.6c-0.1-0.1-0.5-0.1-0.7-0.1
				c-0.1,0-0.2,0-0.2,0l-0.6,0.3c-0.2,0.1-0.3,0.1-0.4,0.4c-0.1,0.3-0.2,0.5-0.3,0.8c-0.2,0.5-0.4,1.1-0.5,1.7
				c0,0.5-0.1,1.2-0.1,1.6c0,0.3-0.3,0.5-0.3,0.7c0,0.3,0.2,0.3,0.3,0.5c0.1,0.2,0.1,1.2,0.1,1.5c0,0.3,0.2,0.7,0.2,0.9
				c0,0.2,0.1,0.3,0.3,0.8c0.2,0.5,0.4,0.6,0.6,0.7c0.2,0.1,0.4,0.3,0.6,0.3c0.2,0,0.3,0.1,0.7,0.1s0.7-0.3,0.9-0.7
				c0.1-0.2,0.3-0.4,0.4-0.7c0.1-0.3,0.4-0.4,0.7-0.4c0.3,0,0.4,0.2,0.5,0.4c0,0,0,0.1,0,0.1c0,0.1-0.1,0.3-0.1,0.6
				c0,0.3-0.1,0.3-0.3,0.5c-0.2,0.2-0.2,0.3-0.3,0.5c-0.1,0.2-0.3,0.4-0.5,0.5c-0.1,0.1-0.7,0.5-1.4,0.5c-0.7,0-1.6-0.3-1.9-0.5
				l-0.6-0.5c-0.3-0.2-0.3-0.7-0.5-0.9c-0.1-0.1-0.5-0.6-0.6-0.9c-0.1-0.3-0.2-0.8-0.2-1.2v-0.1c0-0.2,0-0.3,0-0.5
				c0-0.1,0-0.2-0.1-0.3c-0.1-0.1-0.1-0.2-0.1-0.4c0-0.2,0-0.3,0.1-0.5c0-0.1-0.1-0.1-0.1-0.4v-0.1c0-0.4,0-0.8,0-1.2s0-0.7,0.2-0.9
				c0.1-0.3,0.1-0.5,0.1-0.8c0-0.3,0.2-0.9,0.4-1.2c0.2-0.4,0.2-0.6,0.5-1c0.1-0.2,0.5-0.3,0.6-0.3c0.1,0,0-0.2,0.1-0.4
				c0.1-0.2,0.4-0.4,0.7-0.6c0.2-0.1,0.9-0.3,1.2-0.3c0.3,0,0.9,0.1,1.3,0.1c0.4,0,0.6,0.4,0.8,0.6c0.2,0.2,0.5,0.3,0.5,0.6v0.2
				c0,0.1,0,0.1,0.1,0.3c0,0.1,0.1,0.2,0.1,0.3c0,0.2-0.1,0.4-0.1,0.5c-0.1,0.1-0.2,0.3-0.6,0.3S442.2,294.4,442.1,294.2z"/>
			<path class="st12" d="M445.4,304.7c-0.2,0-0.1-0.1-0.3-0.1c-0.2,0-0.3,0-0.3-0.3c0-0.2-0.1-0.5-0.1-0.8c0-0.3,0-0.4,0-0.7
				c0-0.3,0-0.6,0.1-0.7c0,0,0-0.1,0-0.1c0-0.1,0-0.2-0.1-0.4c-0.1-0.3-0.3-0.7-0.3-0.8c0-0.1,0-0.2,0-0.3c0-0.1,0-0.2,0.1-0.2
				c0.1-0.1,0.4-0.1,0.4-0.1c0,0,0-0.1,0-0.1c0-0.1-0.1-0.3-0.1-0.7c0-0.5,0-0.8,0.1-0.8c0.1-0.1,0.1-0.2,0.1-0.5v-1.8
				c0-0.2,0-0.3,0-0.5c0-0.1,0-0.1,0-0.2c0-0.2,0-0.4,0-0.6c0-0.2,0-0.3,0.1-0.4c0.2-0.2,0.1-0.4,0.2-0.7c0.2-0.2,0.5-0.5,0.5-0.7
				c0-0.4,0.4-0.6,0.7-0.8c0.3-0.2,0.7-0.3,0.8-0.4c0.1-0.1,0.9-0.3,1.2-0.3c0.3,0,0.9,0.1,1.2,0.3c0.3,0.2,0.6,0.5,0.8,0.7
				c0.2,0.2,0.6,0.7,0.7,1.1c0.1,0.4,0.2,1.1,0.2,1.3c0,0.2,0.1,0.8,0.1,1.1c0,0.1,0,0.2,0,0.2c0,0.1-0.1,0.5-0.1,0.8
				c0,0.2,0,0.4,0,0.5c0,0.2,0,0.9,0,1.4c0,0.5,0.1,0.7,0.1,0.9c0,0,0,0,0,0.1c0,0.1,0,0.3,0,0.5c0,0.1,0,0.3,0,0.4
				c-0.1,0.3-0.1,0.7-0.1,1c0,0.2,0.1,0.5,0.1,0.8c0,0.3,0,0.6,0,0.8c0,0.2-0.1,0.7-0.3,0.8c-0.1,0-0.3,0-0.5,0c-0.2,0-0.3,0-0.5,0
				c-0.3,0-0.4-0.2-0.4-0.4v-0.5c0-0.1,0-0.2,0-0.4c0-0.2-0.1-0.4-0.1-0.5c0-0.1,0-0.2,0.1-0.2c0.1-0.1,0.2-0.3,0.2-0.6
				c0-0.2,0.1-0.3,0.1-0.3c0-0.1,0-0.1-0.2-0.1h-0.1c-0.3,0-0.3,0.2-0.6,0.2c0,0-0.1,0-0.1,0c-0.1,0-0.1,0-0.1,0c0,0,0,0-0.1,0
				c0,0-0.1,0-0.2,0c-0.5-0.1-0.6-0.1-0.9-0.1c-0.4,0-0.5,0.1-0.7,0.1h-0.3c-0.1,0-0.2,0-0.3,0.1c-0.2,0.2-0.3,0.2-0.3,0.5
				c0,0.3,0,0.3,0,0.6c0,0.3,0,0.3,0,0.6c0,0.3,0.1,0.4,0.1,0.7c0,0.1,0,0.1,0,0.2c-0.1,0.3-0.3,0.3-0.6,0.4
				C445.5,304.6,445.4,304.7,445.4,304.7z M446.5,300.4h0.4c0.3,0,0.5-0.1,0.8-0.1c0.1,0,0.3,0,0.4,0c0.2,0,0.4,0,0.6,0.1
				c0.1,0,0.2,0.1,0.2,0.1c0.2,0,0.5-0.1,0.6-0.1c0.2,0,0.3-0.1,0.5-0.2c0,0,0.1-0.1,0.1-0.1c0-0.1-0.1-0.2-0.1-0.3
				c0-0.3,0-0.4,0-0.5c0-0.1,0-0.2,0.1-0.3c0-0.1,0-0.1,0-0.2c0-0.3-0.2-0.5-0.2-0.9c0-0.1,0-0.1,0-0.2c0-0.1,0-0.1,0-0.2
				c0-0.2,0-0.3,0-0.5c0-0.1,0-0.1,0-0.3c0-0.3-0.1-0.8-0.1-1c0-0.3-0.1-0.7-0.1-1.1v-0.1c0-0.3,0-0.4-0.2-0.6
				c-0.2-0.3-0.2-0.5-0.8-0.6c-0.1,0-0.1,0-0.2,0c-0.2,0-0.3,0.1-0.6,0.1c-0.3,0.1-0.6,0.1-0.8,0.5c-0.2,0.3-0.4,0.5-0.5,0.8
				c-0.1,0.3-0.1,0.9-0.3,1c-0.1,0.1-0.1,0.1-0.1,0.2c0,0.2,0.1,0.4,0.1,0.7c0,0.1,0,0.2,0,0.3c0,0.1,0,0.2,0,0.4v0.3
				c0,0.4-0.1,0.5-0.1,0.9c0,0.4,0,0.8-0.1,1.3v0.2c0,0.3,0.1,0.2,0.1,0.4C446.4,300.3,446.5,300.4,446.5,300.4z"/>
			<path class="st12" d="M453,303.9c0-0.1,0-0.2,0-0.3c0.1-0.3,0.1-0.5,0.1-0.8c0-0.3,0.1-0.5,0.1-0.8c0-0.1,0-0.1,0-0.2
				c0-0.1,0-0.1,0-0.2c0-0.3,0.1-0.7,0.1-1.2c0-0.1,0-0.2,0-0.2c0-0.3,0.1-0.4,0.1-0.8c0-0.1,0-0.2,0-0.3c0-0.2,0-0.4,0-0.5v-1
				c0-0.3,0.1-0.5,0.1-0.8c0-0.1,0-0.2,0-0.3c0-0.3-0.1-0.6-0.1-0.9v-0.3c0-0.4,0.1-0.7,0.1-1c0-0.1,0-0.2,0-0.3
				c0-0.3-0.2-0.5-0.2-0.8c0,0,0-0.1,0-0.1c0.1-0.3,0.1-0.6,0.3-0.8c0.2-0.1,0.3-0.3,0.5-0.3c0,0,0.1,0,0.1,0
				c0.3,0.1,0.6,0.3,0.8,0.7c0.2,0.3,0.6,0.8,0.7,1.1c0.1,0.3,0.4,0.7,0.5,0.9c0.1,0.3,0.1,0.8,0.3,1c0.2,0.3,0.3,0.5,0.5,0.8
				c0.2,0.3,0.5,0.6,0.6,0.9c0.1,0.3,0.3,0.7,0.3,0.9c0,0.2,0.2,0.5,0.4,0.9c0.2,0.4,0.5,0.8,0.5,0.9c0.1,0.2,0.3,0.6,0.4,0.7
				c0.1,0.1,0.3,0.3,0.3,0.3c0,0,0-0.1,0-0.1c0-0.3-0.1-1.1-0.1-1.4c0-0.4,0.2-0.6,0.2-1.1c0-0.1,0-0.1,0-0.2c0-0.2,0-0.4,0-0.5V297
				c0-0.6,0.1-0.7,0.1-1.1c0-0.1,0-0.2,0-0.3c0-0.6-0.1-0.7-0.1-1.1c0-0.4-0.1-0.8-0.1-1.2c-0.1-0.3-0.1-0.5-0.1-0.8
				c0-0.1,0-0.1,0-0.1c0.1-0.3,0.3-0.5,0.5-0.5c0.1,0,0.2-0.1,0.3-0.1c0.2,0,0.5,0.1,0.6,0.2c0.1,0.2,0.2,0.6,0.2,0.9
				c0,0.1,0,0.2,0,0.3c-0.1,0.3-0.1,0.7-0.1,1.1c0,0.2,0,0.5,0,0.8s0,0.5,0,0.7c0,0.1,0,0.3,0,0.4v1.2c0,0.1,0,0.3,0,0.4v0.5
				c0,0.2,0,0.3,0,0.5c-0.1,0.2-0.1,0.6-0.1,0.9v1.7c0,0.4,0,0.8,0,1.1c0,0.3,0.1,0.6,0.1,0.9c0,0.1,0,0.3,0,0.4
				c0,0.4,0,0.7-0.4,0.8c-0.1,0-0.1,0-0.2,0c-0.3,0-0.5-0.1-0.7-0.4c-0.3-0.3-0.4-0.5-0.5-0.9c-0.1-0.4-0.1-0.7-0.3-1
				c-0.2-0.3-0.2-0.6-0.4-0.9c-0.2-0.3-0.3-0.4-0.4-0.9c-0.1-0.4-0.3-0.5-0.5-1c-0.2-0.5-0.1-0.8-0.5-1.1c-0.3-0.3-0.4-0.5-0.4-0.7
				c0-0.1,0-0.2,0-0.2c0-0.1,0-0.2-0.1-0.3c-0.1-0.1-0.1-0.3-0.2-0.4c-0.1-0.1-0.1-0.3-0.2-0.5c-0.1-0.2-0.1-0.5-0.2-0.6
				c-0.2-0.1-0.2-0.2-0.3-0.4c-0.1-0.2-0.2-0.5-0.3-0.7c0-0.1-0.2,0.6-0.2,0.9c0,0.2,0.1,0.8,0.1,1.3c0,0.1,0,0.2,0,0.3
				c0,0.3,0.1,0.5,0.1,0.7c0,0.1,0,0.2,0,0.2c-0.1,0.1-0.1,0.3-0.1,0.4c0,0.1,0,0.3,0,0.4c0.1,0.3,0.1,0.6,0.1,0.9
				c0,0.4-0.1,0.8-0.1,1.1c0,0.2-0.1,0.4-0.1,0.6c0,0.1,0,0.3,0,0.6c0,0.2,0,0.4,0,0.6c0,0.1,0,0.3,0,0.5c0.1,0.5,0.1,0.6,0.1,0.8
				c0,0.3-0.2,0.6-0.4,0.7c-0.1,0-0.2,0-0.3,0c-0.3,0-0.7,0-0.8-0.2C453.1,304.4,453,304.2,453,303.9z"/>
			<path class="st12" d="M463,292.3c0.2-0.1,0.2-0.2,0.5-0.3c0.1,0,0.1,0,0.2,0c0.1,0,0.2,0,0.3,0c0.1,0,0.2,0,0.4-0.1
				c0.1,0,0.1,0,0.2,0c0.4,0,1.1,0.1,1.4,0.1c0.1,0,0.1,0,0.1,0c0.2-0.1,0.9-0.1,1-0.1c0.1,0,1,0,1.3,0c0.3,0,0.4,0.3,0.4,0.5
				c0,0.4,0,0.7-0.2,0.9c-0.2,0.3-0.3,0.5-0.5,1c-0.3,0.6-0.4,0.6-0.7,1.2c-0.3,0.6-0.3,0.7-0.5,1.1c-0.2,0.4-0.1,0.4-0.4,0.8
				c-0.2,0.4-0.3,0.7-0.5,1c-0.2,0.3-0.4,0.6-0.6,1.1c-0.2,0.5-0.3,0.4-0.4,0.9c-0.1,0.4-0.3,0.6-0.4,0.7c-0.1,0.1-0.1,0.4-0.4,0.8
				c-0.3,0.4-0.5,0.8-0.6,1.3c0,0.1,0.5,0.2,0.9,0.2h0.4c0.3,0,1.2-0.1,1.4-0.2c0.1-0.1,0.7-0.2,0.8-0.2c0.2,0,1.1,0.2,1.2,0.3
				c0.1,0.1,0.1,0.3,0.1,0.5v0.2c0,0.2-0.6,0.5-1,0.5h-0.2c-0.3,0-0.6,0-0.8,0c-0.3,0-0.6,0-0.8,0h-0.2c-0.3,0-0.7,0-0.9,0
				c-0.2,0-0.6,0-0.8-0.1c-0.1,0-0.4,0-0.6,0c-0.1,0-0.2,0-0.4,0c-0.2,0.1-0.5,0.2-0.7,0.2c-0.1,0-0.1,0-0.2,0
				c-0.3-0.1-0.4-0.1-0.4-0.5s0.2-0.8,0.5-1c0.3-0.2,0.5-0.8,0.7-1.2c0.2-0.4,0.4-0.8,0.7-1.2c0.1-0.2,0.5-0.7,0.6-1
				c0.1-0.3,0.4-1.1,0.7-1.5c0.3-0.4,0.6-0.8,0.8-1.3c0.2-0.4,0.5-1,0.7-1.4c0.1-0.5,0.2-0.5,0.3-0.8c0.1-0.4,0.2-0.4,0.3-0.6
				c0.2-0.2,0.6-0.7,0.6-1c0-0.1-0.1-0.1-0.3-0.1h-0.4c-0.3,0-0.7,0-1.1,0c-0.1,0-0.2,0-0.3,0c-0.4,0.1-0.6,0-0.8,0.1
				c-0.2,0.1-0.2,0-0.6,0.1c-0.3,0-0.4,0.1-0.6,0.1c-0.1,0-0.1,0-0.2,0c-0.3-0.1-0.6-0.2-0.6-0.6C462.7,292.6,462.9,292.4,463,292.3
				z"/>
			<path class="st12" d="M470.3,304.7c-0.2,0-0.1-0.1-0.3-0.1c-0.2,0-0.3,0-0.3-0.3c0-0.2-0.1-0.5-0.1-0.8c0-0.3,0-0.4,0-0.7
				c0-0.3,0-0.6,0.1-0.7c0,0,0-0.1,0-0.1c0-0.1,0-0.2-0.1-0.4c-0.1-0.3-0.3-0.7-0.3-0.8c0-0.1,0-0.2,0-0.3c0-0.1,0-0.2,0.1-0.2
				c0.1-0.1,0.4-0.1,0.4-0.1c0,0,0-0.1,0-0.1c0-0.1-0.1-0.3-0.1-0.7c0-0.5,0-0.8,0.1-0.8c0.1-0.1,0.1-0.2,0.1-0.5v-1.8
				c0-0.2,0-0.3,0-0.5c0-0.1,0-0.1,0-0.2c0-0.2,0-0.4,0-0.6c0-0.2,0-0.3,0.1-0.4c0.2-0.2,0.1-0.4,0.2-0.7c0.2-0.2,0.5-0.5,0.5-0.7
				c0-0.4,0.4-0.6,0.7-0.8c0.3-0.2,0.7-0.3,0.8-0.4c0.1-0.1,0.9-0.3,1.2-0.3c0.3,0,0.9,0.1,1.2,0.3c0.3,0.2,0.6,0.5,0.8,0.7
				c0.2,0.2,0.6,0.7,0.7,1.1c0.1,0.4,0.2,1.1,0.2,1.3c0,0.2,0.1,0.8,0.1,1.1c0,0.1,0,0.2,0,0.2c0,0.1-0.1,0.5-0.1,0.8
				c0,0.2,0,0.4,0,0.5c0,0.2,0,0.9,0,1.4c0,0.5,0.1,0.7,0.1,0.9c0,0,0,0,0,0.1c0,0.1,0,0.3,0,0.5c0,0.1,0,0.3,0,0.4
				c-0.1,0.3-0.1,0.7-0.1,1c0,0.2,0.1,0.5,0.1,0.8c0,0.3,0,0.6,0,0.8c0,0.2-0.1,0.7-0.3,0.8c-0.1,0-0.3,0-0.5,0c-0.2,0-0.3,0-0.5,0
				c-0.3,0-0.4-0.2-0.4-0.4v-0.5c0-0.1,0-0.2,0-0.4c0-0.2-0.1-0.4-0.1-0.5c0-0.1,0-0.2,0.1-0.2c0.1-0.1,0.2-0.3,0.2-0.6
				c0-0.2,0.1-0.3,0.1-0.3c0-0.1,0-0.1-0.2-0.1h-0.1c-0.3,0-0.3,0.2-0.6,0.2c0,0-0.1,0-0.1,0c-0.1,0-0.1,0-0.1,0c0,0,0,0-0.1,0
				c0,0-0.1,0-0.2,0c-0.5-0.1-0.6-0.1-0.9-0.1c-0.4,0-0.5,0.1-0.7,0.1h-0.3c-0.1,0-0.2,0-0.3,0.1c-0.2,0.2-0.3,0.2-0.3,0.5
				c0,0.3,0,0.3,0,0.6c0,0.3,0,0.3,0,0.6c0,0.3,0.1,0.4,0.1,0.7c0,0.1,0,0.1,0,0.2c-0.1,0.3-0.3,0.3-0.6,0.4
				C470.4,304.6,470.4,304.7,470.3,304.7z M471.5,300.4h0.4c0.3,0,0.5-0.1,0.8-0.1c0.1,0,0.3,0,0.4,0c0.2,0,0.4,0,0.5,0.1
				c0.1,0,0.2,0.1,0.2,0.1c0.2,0,0.5-0.1,0.6-0.1c0.2,0,0.3-0.1,0.5-0.2c0,0,0.1-0.1,0.1-0.1c0-0.1-0.1-0.2-0.1-0.3
				c0-0.3,0-0.4,0-0.5c0-0.1,0-0.2,0.1-0.3c0-0.1,0-0.1,0-0.2c0-0.3-0.2-0.5-0.2-0.9c0-0.1,0-0.1,0-0.2c0-0.1,0-0.1,0-0.2
				c0-0.2,0-0.3,0-0.5c0-0.1,0-0.1,0-0.3c0-0.3-0.1-0.8-0.1-1c0-0.3-0.1-0.7-0.1-1.1v-0.1c0-0.3,0-0.4-0.2-0.6
				c-0.2-0.3-0.2-0.5-0.8-0.6c-0.1,0-0.1,0-0.2,0c-0.2,0-0.3,0.1-0.6,0.1c-0.3,0.1-0.6,0.1-0.8,0.5c-0.2,0.3-0.4,0.5-0.5,0.8
				c-0.1,0.3-0.1,0.9-0.3,1c-0.1,0.1-0.1,0.1-0.1,0.2c0,0.2,0.1,0.4,0.1,0.7c0,0.1,0,0.2,0,0.3c0,0.1,0,0.2,0,0.4v0.3
				c0,0.4-0.1,0.5-0.1,0.9c0,0.4,0,0.8-0.1,1.3v0.2c0,0.3,0.1,0.2,0.1,0.4C471.3,300.3,471.4,300.4,471.5,300.4z"/>
			<path class="st12" d="M482.9,292.1c0.1-0.1,0.5-0.2,0.7-0.2c0.3,0,0.8,0.3,0.8,0.8c0,0.4-0.1,0.8-0.1,1.1c0,0.3,0,1.2-0.1,1.4
				c0,0.1,0,0.1,0,0.2c0,0.2,0,0.4,0,0.6c-0.1,0.4-0.1,0.6-0.1,0.9c0,0.3,0.1,0.5,0.1,0.8c0,0.1,0,0.1,0,0.2c0,0.2,0,0.4,0,0.6
				c0,0.2,0,0.4,0,0.6c0,0.8,0,1.3,0,1.8v0.9c0,0.2,0,0.4,0,0.6c0,0.3,0,0.4,0.1,0.6c0.1,0.3,0.6,0.4,1,0.5c0.1,0,0.3,0,0.4,0
				c0.2,0,0.5,0,0.7,0c0.3,0,0.6-0.2,0.9-0.3c0.1,0,0.1,0,0.1,0c0.3,0,0.5,0.2,0.6,0.4c0,0.4-0.1,1-0.3,1.1
				c-0.2,0.1-0.4,0.1-0.6,0.1h-0.4c-0.5,0-0.8,0.1-1,0.1c-0.1,0-0.2,0-0.2-0.1c-0.1-0.1-0.3-0.2-0.5-0.2c0,0-0.1,0-0.1,0
				c-0.3,0.1-1,0.1-1.4,0.1c-0.3,0-0.7-0.1-0.8-0.4c-0.1-0.3-0.2-0.6-0.2-0.8c0-0.1,0-0.1,0-0.2c0.1-0.3,0.3-0.5,0.3-0.8
				c0-0.3,0-1,0-1.5c0-0.4,0.1-1,0.1-1.3v-0.3c0,0,0-0.1,0-0.1c0-0.2-0.1-0.4-0.1-0.5c0-0.1,0-0.2,0.1-0.3c0.1-0.1,0.1-0.4,0.1-0.6
				c0-0.1,0-0.1,0-0.2c-0.1-0.1,0-0.4-0.1-0.6c0-0.2,0-0.3,0-0.5c0-0.1,0-0.2,0-0.3c0-0.2,0.1-0.3,0.1-0.4c0-0.1,0-0.2-0.1-0.5
				c-0.1-0.4-0.1-0.7-0.1-1c0-0.1,0-0.2,0-0.3c0-0.3-0.1-0.6-0.1-1C482.6,292.6,482.7,292.2,482.9,292.1z"/>
			<path class="st12" d="M492.1,291.8c0.3,0,0.7,0,0.8,0.1c0.3,0,0.7,0.2,1,0.4c0.3,0.2,0.3,0.3,0.5,0.5c0.7,0.7,0.5,1,0.7,1.3
				c0.2,0.4,0.2,0.7,0.3,1.2c0,0.5,0,0.7,0.1,1.1c0,0.3,0,0.5,0,0.8v0.3c0,0.4-0.2,1.3-0.2,1.8s-0.1,1.2-0.2,1.7
				c-0.1,0.2-0.1,0.4-0.1,0.5c0,0.2,0,0.2,0,0.3c-0.1,0.3-0.1,0.4-0.2,0.7s-0.4,0.5-0.5,0.7c-0.1,0.2-0.3,0.5-0.5,0.8
				c-0.2,0.3-1,0.7-1.8,0.7s-1.5-0.2-1.7-0.3s-0.4-0.4-0.6-0.6c-0.2-0.2-0.6-1-0.8-1.3s-0.1-0.6-0.2-1c-0.1-0.3,0-0.6-0.2-1
				c-0.1-0.1-0.1-0.3-0.1-0.5v-0.3c0-0.2,0-0.4,0-0.6c0-0.1,0-0.2,0-0.3c0-0.4,0.1-0.7,0.1-1.1c0-0.3,0-0.5,0-0.8
				c0-0.2,0-0.3,0.1-0.6c0.1-0.4,0.1-0.6,0.2-1.4c0.1-0.3,0.3-0.7,0.4-0.9c0-0.2,0.3-0.7,0.7-1.2s1.1-0.8,1.5-1
				C491.5,291.8,491.8,291.8,492.1,291.8z M490.9,293.8c-0.1,0.3-0.4,0.7-0.5,1c-0.1,0.3-0.1,0.8-0.2,1.1c0,0.1,0,0.1,0,0.2
				c0,0.1,0.1,0.3,0.1,0.5c0,0.1,0,0.2-0.1,0.3c-0.1,0.4-0.2,0.8-0.2,1.2c0,0.1,0,0.1,0,0.2c0,0.2,0,0.4,0,0.5c0,0.1,0,0.1,0,0.2
				c0,0.1,0,0.1,0,0.1c0,0.1,0,0.3,0,0.5c0,0.1,0,0.1,0,0.2c0,0.1,0,0.1,0,0.2c0,0.2,0.1,0.3,0.1,0.6c0,0.4,0.1,0.6,0.2,0.8
				c0.1,0.2,0.3,0.6,0.4,0.8c0.1,0.2,0.1,0.3,0.2,0.6c0.1,0.3,0.7,0.5,1.2,0.5c0.4,0,0.7-0.3,0.9-0.5s0.5-0.6,0.6-0.9
				c0.1-0.3,0.3-0.7,0.3-1c0-0.3,0.2-0.4,0.2-0.6c0-0.1-0.1-0.2-0.1-0.4c0-0.1,0-0.2,0.1-0.4c0.1-0.4,0.2-0.7,0.2-0.9
				c0-0.1,0-0.1,0-0.2c0-0.3-0.1-0.3-0.1-0.5c0-0.3,0-0.4,0-0.5c0-0.1,0-0.2,0-0.6c0-0.2,0-0.3,0-0.4c0-0.1,0-0.2,0-0.4
				c0-0.2,0-0.2,0-0.3c0-0.1,0-0.2-0.1-0.5c-0.1-0.5-0.1-0.4-0.2-0.7c-0.1-0.3-0.1-0.4-0.4-0.8c-0.3-0.3-0.5-0.4-0.7-0.5
				c-0.1,0-0.3,0-0.5,0c-0.1,0-0.3,0-0.4,0C491.5,293.3,491,293.5,490.9,293.8z"/>
			<path class="st12" d="M501.1,294.1c0,0,0-0.1,0-0.1c0-0.1,0-0.2,0-0.3c0-0.2-0.1-0.3-0.1-0.4c-0.1-0.2-0.4-0.3-0.6-0.3
				c0,0-0.1,0-0.1,0c-0.1,0-0.2,0-0.3,0c-0.1,0-0.3,0-0.4,0.1c-0.3,0.1-0.6,0.4-0.7,0.5c-0.1,0.2-0.3,0.8-0.4,1.1c0,0.1,0,0.3,0,0.4
				c0,0.2,0,0.3,0.1,0.6c0.1,0.4,0.3,0.6,0.5,0.8c0.2,0.2,0.6,0.6,1,0.6c0.4,0,0.5,0.4,0.7,0.6c0.3,0.1,0.6,0.2,1,0.7
				c0.3,0.5,0.2,0.4,0.4,0.8c0.2,0.3,0.5,0.8,0.5,1.4l-0.1,1.7c0,0.3-0.1,0.3-0.4,0.8c-0.2,0.5-0.6,0.5-0.7,0.8
				c-0.1,0.2-0.5,0.5-0.8,0.7c-0.2,0.1-0.7,0.3-1.2,0.3c-0.2,0-0.3,0-0.5-0.1c-0.7-0.1-1.3-0.5-1.4-0.8s-0.3-0.4-0.6-0.6
				c-0.2-0.2-0.3-0.5-0.4-0.8c0,0,0-0.1,0-0.1c-0.1-0.4-0.1-0.5-0.1-0.9c0-0.4,0.1-0.5,0.2-0.7c0.1-0.2,0.5-0.3,0.7-0.4
				c0,0,0.1,0,0.1,0c0.1,0,0.3,0.1,0.4,0.3c0.1,0.1,0.1,0.2,0.1,0.3s0,0.2,0,0.3c0,0.1,0,0.1,0,0.2c0,0.3,0.2,0.7,0.2,0.9
				c0.1,0.2,0.2,0.6,0.3,0.7c0.1,0.1,0.3,0.4,0.6,0.5c0.1,0.1,0.2,0.1,0.3,0.1c0.2,0,0.3,0,0.6-0.1c0.4-0.2,0.4-0.2,0.6-0.4
				c0.2-0.1,0.2-0.4,0.4-0.9c0.3-0.6,0.2-0.6,0.2-0.9c0-0.2-0.1-0.6-0.2-1c-0.1-0.5-0.4-0.7-0.5-0.9c-0.1-0.2-0.2-0.3-0.5-0.5
				c-0.3-0.2-0.3-0.2-0.6-0.3c-0.3-0.2-0.4-0.3-0.8-0.5c-0.3-0.2-0.4-0.5-0.8-0.7c-0.3-0.2-0.6-0.5-0.7-1c-0.1-0.4-0.2-1-0.2-1.2
				s0-0.8,0.2-1.1c0.2-0.3,0.5-0.7,0.5-1c0.1-0.3,0.7-0.7,0.9-0.8c0.2-0.1,0.5-0.2,0.9-0.4c0.1,0,0.2-0.1,0.3-0.1
				c0.3,0,0.6,0.1,0.9,0.1c0.4,0,0.5,0.1,0.9,0.2c0.3,0.2,0.4,0.3,0.6,0.6c0.1,0.2,0.2,0.4,0.2,0.6c0,0.1,0,0.2,0,0.2
				c-0.1,0.2,0,0.5-0.1,0.8c-0.1,0.2-0.3,0.3-0.5,0.3c-0.1,0-0.1,0-0.2,0C501.3,294.6,501.1,294.4,501.1,294.1z"/>
			<path class="st12" d="M510.7,292.4c0.2-0.2,0.4-0.4,0.6-0.5c0,0,0.1,0,0.1,0c0.2,0,0.3,0.2,0.3,0.6c0,0.2,0,0.3,0,0.5
				c0,0.2,0.1,0.3,0.2,0.4c0.2,0.1,1.2,0.3,1.7,0.5c0.3,0.2,0.4,0.6,0.4,0.9c0,0.1,0,0.3-0.1,0.4c-0.1,0.2-0.4,0.4-0.7,0.4
				c-0.1,0-0.1,0-0.2-0.1c-0.1-0.1-0.4-0.3-0.4-0.6c0-0.3-0.4-0.4-0.6-0.5c-0.1,0-0.2,0-0.3,0c-0.1,0-0.2,0.1-0.2,0.3
				c0,0.4,0.1,0.8,0.1,1c0,0.1,0,0.1,0,0.2c0,0.1,0,0.2,0,0.3c0,0.4-0.1,0.9,0.1,1c1.4,0.2,2.2,0.7,2.4,1.2c0.2,0.5,0.4,0.6,0.4,1
				c0,0.4-0.2,1.9-0.6,2.2c-0.4,0.2-0.1,0.3-0.4,0.5c-0.3,0.2-0.8,0.4-1,0.5c-0.2,0.1-0.6,0.1-0.8,0.2c-0.1,0-0.3,0-0.3,0.1
				c0,0,0,0.1,0.1,0.2c0.1,0.2,0.1,0.4,0.1,0.7c0,0.2,0,0.4-0.2,0.5c0,0,0,0-0.1,0c-0.2,0.1-0.5,0.3-0.8,0.3c-0.1,0-0.1,0-0.2,0
				c-0.2-0.1-0.2-0.2-0.2-0.3c0-0.3,0-0.6,0-1.2c0-0.1,0-0.1,0-0.1c-0.1,0-0.6,0-0.9-0.1c-0.3-0.1-0.7-0.4-0.7-0.7
				c0-0.1,0-0.2,0-0.2c0-0.3,0.1-0.6,0.3-0.7c0.1-0.1,0.3-0.2,0.4-0.2c0.2,0,0.2,0.1,0.3,0.2c0.1,0.2,0.3,0.5,0.5,0.5c0,0,0,0,0.1,0
				c0.1-0.1,0.3-0.3,0.3-0.8c0-0.7,0.1-1,0.1-1.3v-1.3c0-0.3-1-0.1-1.4-0.5c-0.3-0.3-0.6-0.5-0.8-0.9c-0.1-0.2-0.2-0.6-0.2-0.9
				c0-0.2,0-0.5,0.1-0.6c0.1-0.3,0.3-0.9,0.6-1.1c0.3-0.1,0.5-0.6,0.8-0.6c0.2,0,0.9-0.3,0.9-0.3s0-0.5,0.1-0.5
				C510.5,293.1,510.6,292.6,510.7,292.4z M509.5,295.4c-0.1,0.1-0.1,0.4-0.1,0.6c0,0.2,0,0.4,0,0.5c0.1,0.2,0.4,0.3,0.7,0.5
				c0.1,0,0.1,0.1,0.1,0.1c0.2,0,0.3-0.2,0.3-0.5v-0.3c0-0.3,0-0.6,0-0.9c0-0.3,0-0.6-0.1-0.7C510.2,294.7,509.7,295,509.5,295.4z
				 M511.5,301.2c0,0.3,0.1,0.5,0.3,0.5c0.3-0.1,0.6-0.3,1-0.5c0.3-0.3,0.4-0.5,0.5-0.8c0.1-0.1,0.1-0.3,0.1-0.6
				c0-0.3-0.1-0.5-0.1-0.6c-0.1-0.3-0.6-0.5-0.8-0.6c-0.1-0.1-0.4-0.2-0.6-0.2c-0.1,0-0.2,0.1-0.2,0.2c-0.1,0.4-0.1,0.5-0.1,1
				c0,0.5-0.1,1.1-0.1,1.4C511.5,301.1,511.5,301.1,511.5,301.2z"/>
			<path class="st12" d="M516.3,295.8c-0.3,0-0.6-0.3-0.6-0.6c0-0.2,0-0.7,0-1c0-0.6,0.3-1,0.5-1.2c0.2-0.2,0.5-0.7,0.7-0.8
				c0.2-0.1,0.9-0.3,1.3-0.3c0.2,0,0.4-0.1,0.6-0.1c0.1,0,0.3,0,0.4,0.1c0.3,0.3,0.8,0.4,0.9,0.7c0.2,0.3,0.4,0.7,0.5,1.4
				c0,0.4,0.1,0.6,0.1,0.8c0,0.1,0,0.2-0.1,0.4c-0.2,0.6-0.1,0.9-0.3,1.2c-0.2,0.3-0.1,0.5-0.4,0.7c-0.1,0.1-0.1,0.1-0.1,0.2
				c0,0.2,0.2,0.3,0.3,0.5c0.2,0.3,0.7,0.9,0.8,1.4c0,0.3,0.1,0.8,0.1,1.2c0,0.1,0,0.2,0,0.3c0,0.4,0,1.4-0.3,1.9
				c-0.4,0.6-0.4,0.7-0.7,1c-0.3,0.3-0.6,0.4-1,0.7c-0.3,0.2-0.7,0.3-1.3,0.3c-0.6,0-1.1-0.1-1.4-0.2c-0.3-0.2-0.5-0.4-0.7-0.8
				c0,0,0-0.1,0-0.1c0,0-0.2-0.5-0.3-0.8c-0.1-0.2-0.1-0.2-0.1-0.3c0-0.3,0.2-0.5,0.3-0.7c0.1-0.2,0.4-0.3,0.6-0.3
				c0.1,0,0.2,0,0.2,0.1c0.1,0.2,0.4,0.6,0.4,1c0,0.5,0.3,0.6,0.3,0.8c0,0.1,0.3,0.2,0.5,0.2c0.1,0,0.3,0,0.4-0.1
				c0.4-0.1,0.8-0.1,1.1-0.5c0.3-0.4,0.4-0.7,0.4-1s0.1-0.6,0.1-1.4c0-0.8,0-0.9-0.1-1.2c-0.2-0.5-0.4-0.9-0.6-1.1
				c-0.1-0.1-0.3-0.2-0.4-0.2c0,0-0.1,0-0.1,0c-0.1,0.1-0.8,0.5-1.1,0.5c-0.3,0-0.5-0.4-0.5-0.6c0-0.2,0.1-0.5,0.3-0.6
				c0.2-0.1,0.8-0.3,1.1-0.4c0.2-0.1,0.6-0.3,0.7-0.6c0.1-0.3,0.3-0.9,0.3-1.2c0-0.1,0-0.3,0-0.5c0-0.3,0-0.5-0.1-0.8
				c-0.2-0.4-0.4-0.8-0.6-0.8c-0.4,0-0.5,0-0.8,0.1c-0.2,0.1-0.8,0.1-0.9,0.7c0,0.1,0,0.3,0,0.4c0,0.3,0.1,0.5,0.1,0.7
				c0,0.1-0.1,0.3-0.1,0.5C516.9,295.6,516.6,295.8,516.3,295.8z"/>
			<path class="st12" d="M526.1,291.8c0,0,0.1,0,0.2,0c0.3,0.1,0.6,0.1,0.8,0.4c0.2,0.2,0.4,0.4,0.6,0.8c0.2,0.3,0.6,1.2,0.6,2
				c0,0.1,0,0.1,0,0.2c0,0.5,0.2,0.7,0.2,1c0,0.1,0.1,0.4,0.1,0.4c0,0,0,0.4,0,0.6s0,1.2-0.1,1.7c0,0.1,0,0.3,0,0.4
				c0,0.3,0,0.6,0,0.8c0,0.1,0,0.3,0,0.4c-0.1,0.4-0.3,1.1-0.4,1.7c-0.1,0.5-0.4,0.9-0.7,1.2c-0.3,0.4-0.4,0.7-0.7,0.8
				c-0.3,0.1-0.2,0.1-0.7,0.3c-0.3,0.1-0.5,0.1-0.7,0.1c-0.1,0-0.3,0-0.4-0.1c-0.3-0.1-0.5-0.2-0.8-0.3c-0.3-0.1-0.6-0.3-1-1.1
				c-0.3-0.6-0.3-0.7-0.5-1.4c-0.1-0.8-0.3-1.3-0.3-1.6c0-0.1,0-0.3,0-0.5c0-0.4,0-0.8,0-1.1c0-0.3,0-0.6,0-0.9c0-0.2,0-0.3,0-0.5
				c0.1-0.6,0-1.5,0.2-2c0.2-0.5,0.1-0.8,0.3-1.2s0.4-0.5,0.7-0.9c0.3-0.3,0.6-0.7,0.9-0.8s0.6-0.2,0.9-0.2
				C525.5,291.9,525.8,291.8,526.1,291.8z M524.8,293.3c-0.2,0.1-0.5,0.5-0.6,0.8c-0.1,0.3-0.4,0.7-0.5,1.1s-0.1,1.3-0.1,1.6
				c0,0.1-0.1,0.3-0.1,0.6c0,0.2,0,0.5,0.1,0.8c0,0.2,0,0.3,0,0.8c0,0.2,0,0.5,0,0.9c0.1,1.1,0.3,2.1,0.6,2.6c0.3,0.4,0.5,1,1,1
				c0.1,0,0.1,0,0.2,0c0.3,0,0.5-0.2,0.8-0.4c0.3-0.2,0.3-0.3,0.4-0.8c0.1-0.5,0.1-0.3,0.3-0.8s0.1-0.9,0.2-1.3
				c0.1-0.4,0.2-1,0.2-1.7s-0.1-1.8-0.1-2.3c0-0.5-0.1-0.7-0.2-1s-0.1-0.6-0.2-1.1c0-0.5-0.5-0.8-0.8-0.9c-0.2-0.1-0.4-0.1-0.6-0.1
				c-0.1,0-0.1,0-0.2,0C525,293,525,293.1,524.8,293.3z"/>
			<path class="st12" d="M533.7,291.8c0,0,0.1,0,0.2,0c0.3,0.1,0.6,0.1,0.8,0.4c0.2,0.2,0.4,0.4,0.6,0.8c0.2,0.3,0.6,1.2,0.6,2
				c0,0.1,0,0.1,0,0.2c0,0.5,0.2,0.7,0.2,1c0,0.1,0.1,0.4,0.1,0.4c0,0,0,0.4,0,0.6s0,1.2-0.1,1.7c0,0.1,0,0.3,0,0.4
				c0,0.3,0,0.6,0,0.8c0,0.1,0,0.3,0,0.4c-0.1,0.4-0.3,1.1-0.4,1.7c-0.1,0.5-0.4,0.9-0.7,1.2c-0.3,0.4-0.4,0.7-0.7,0.8
				c-0.3,0.1-0.2,0.1-0.7,0.3c-0.3,0.1-0.5,0.1-0.7,0.1c-0.1,0-0.3,0-0.4-0.1c-0.3-0.1-0.5-0.2-0.8-0.3c-0.3-0.1-0.6-0.3-1-1.1
				c-0.3-0.6-0.3-0.7-0.5-1.4c-0.1-0.8-0.3-1.3-0.3-1.6c0-0.1,0-0.3,0-0.5c0-0.4,0-0.8,0-1.1c0-0.3,0-0.6,0-0.9c0-0.2,0-0.3,0-0.5
				c0.1-0.6,0-1.5,0.2-2c0.2-0.5,0.1-0.8,0.3-1.2s0.4-0.5,0.7-0.9c0.3-0.3,0.6-0.7,0.9-0.8s0.6-0.2,0.9-0.2
				C533.1,291.9,533.4,291.8,533.7,291.8z M532.4,293.3c-0.2,0.1-0.5,0.5-0.6,0.8c-0.1,0.3-0.4,0.7-0.5,1.1s-0.1,1.3-0.1,1.6
				c0,0.1-0.1,0.3-0.1,0.6c0,0.2,0,0.5,0.1,0.8c0,0.2,0,0.3,0,0.8c0,0.2,0,0.5,0,0.9c0.1,1.1,0.3,2.1,0.6,2.6c0.3,0.4,0.5,1,1,1
				c0.1,0,0.1,0,0.2,0c0.3,0,0.5-0.2,0.8-0.4c0.3-0.2,0.3-0.3,0.4-0.8c0.1-0.5,0.1-0.3,0.3-0.8s0.1-0.9,0.2-1.3
				c0.1-0.4,0.2-1,0.2-1.7s-0.1-1.8-0.1-2.3c0-0.5-0.1-0.7-0.2-1s-0.1-0.6-0.2-1.1c0-0.5-0.5-0.8-0.8-0.9c-0.2-0.1-0.4-0.1-0.6-0.1
				c-0.1,0-0.1,0-0.2,0C532.6,293,532.6,293.1,532.4,293.3z"/>
			<path class="st12" d="M541.3,291.8c0,0,0.1,0,0.2,0c0.3,0.1,0.6,0.1,0.8,0.4c0.2,0.2,0.4,0.4,0.6,0.8c0.2,0.3,0.6,1.2,0.6,2
				c0,0.1,0,0.1,0,0.2c0,0.5,0.2,0.7,0.2,1c0,0.1,0.1,0.4,0.1,0.4c0,0,0,0.4,0,0.6s0,1.2-0.1,1.7c0,0.1,0,0.3,0,0.4
				c0,0.3,0,0.6,0,0.8c0,0.1,0,0.3,0,0.4c-0.1,0.4-0.3,1.1-0.4,1.7c-0.1,0.5-0.4,0.9-0.7,1.2c-0.3,0.4-0.4,0.7-0.7,0.8
				c-0.3,0.1-0.2,0.1-0.7,0.3c-0.3,0.1-0.5,0.1-0.7,0.1c-0.1,0-0.3,0-0.4-0.1c-0.3-0.1-0.5-0.2-0.8-0.3c-0.3-0.1-0.6-0.3-1-1.1
				c-0.3-0.6-0.3-0.7-0.5-1.4c-0.1-0.8-0.3-1.3-0.3-1.6c0-0.1,0-0.3,0-0.5c0-0.4,0-0.8,0-1.1c0-0.3,0-0.6,0-0.9c0-0.2,0-0.3,0-0.5
				c0.1-0.6,0-1.5,0.2-2c0.2-0.5,0.1-0.8,0.3-1.2s0.4-0.5,0.7-0.9c0.3-0.3,0.6-0.7,0.9-0.8s0.6-0.2,0.9-0.2
				C540.8,291.9,541.1,291.8,541.3,291.8z M540,293.3c-0.2,0.1-0.5,0.5-0.6,0.8c-0.1,0.3-0.4,0.7-0.5,1.1s-0.1,1.3-0.1,1.6
				c0,0.1-0.1,0.3-0.1,0.6c0,0.2,0,0.5,0.1,0.8c0,0.2,0,0.3,0,0.8c0,0.2,0,0.5,0,0.9c0.1,1.1,0.3,2.1,0.6,2.6c0.3,0.4,0.5,1,1,1
				c0.1,0,0.1,0,0.2,0c0.3,0,0.5-0.2,0.8-0.4c0.3-0.2,0.3-0.3,0.4-0.8c0.1-0.5,0.1-0.3,0.3-0.8s0.1-0.9,0.2-1.3
				c0.1-0.4,0.2-1,0.2-1.7s-0.1-1.8-0.1-2.3c0-0.5-0.1-0.7-0.2-1s-0.1-0.6-0.2-1.1c0-0.5-0.5-0.8-0.8-0.9c-0.2-0.1-0.4-0.1-0.6-0.1
				c-0.1,0-0.1,0-0.2,0C540.3,293,540.2,293.1,540,293.3z"/>
		</g>
		<g class="st28">
			<path class="st15" d="M320,287.7c0-2.9,1-7.5,2.9-13.8c0.1-0.5,0.4-1.4,0.8-2.7c0.4-1.3,0.7-2.3,0.9-3c0.8-0.3,1.5-0.5,2.2-0.5
				c0.7,0,1.2,0.1,1.5,0.2c-1.1,6.4-1.6,12.1-1.6,17l0.3,3.7c-2.5,0.8-4.8,1.2-6.7,1.2C320.1,289.5,320,288.8,320,287.7z
				 M330.5,258.6c0.6,0.6,0.9,1.4,0.9,2.3s-0.4,1.8-1.2,2.6c-0.8,0.7-1.8,1.1-2.8,1.1c-1.1,0-1.9-0.3-2.5-0.9
				c-0.6-0.6-0.9-1.4-0.9-2.3s0.4-1.8,1.3-2.6c0.8-0.7,1.8-1.1,2.8-1.1C329.1,257.7,329.9,258,330.5,258.6z"/>
			<path class="st15" d="M342.5,277.9c-2.1,0-4.1-0.6-6-1.8c-0.9-0.6-1.7-1.4-2.3-2.5c-0.6-1.1-0.9-2.3-0.9-3.7
				c0-2.6,0.9-4.8,2.6-6.4c1.7-1.7,3.8-2.6,6.3-2.9c-1.7-0.4-3-1.2-4-2.3c-1-1.1-1.5-2.5-1.5-4.2c0-2.5,1-4.6,3-6.1
				c2-1.5,4.3-2.2,6.9-2.2c2.6,0,4.7,0.5,6.4,1.6c1.7,1.1,2.6,2.6,2.6,4.4c0,0.7-0.1,1.3-0.3,1.9s-0.5,1.1-0.7,1.3l-0.3,0.4
				c-0.9,0-2-0.2-3.1-0.5c-1.1-0.3-2-0.7-2.5-1.2l0.5-4.6c-0.4-0.4-1.2-0.7-2.2-0.7c-1.1,0-1.9,0.5-2.5,1.6
				c-0.6,1.1-0.9,2.3-0.9,3.7s0.2,2.4,0.5,3.2c0.3,0.7,0.8,1.3,1.4,1.6c0.9,0.6,2,1,3.2,1.2l-0.4,2.4c-2.1,0-4,0.6-5.6,1.9
				c-1.6,1.3-2.4,2.9-2.4,5c0,1.3,0.4,2.4,1.3,3.2c0.8,0.8,1.9,1.3,3.3,1.3c2.4,0,4.9-1.2,7.5-3.7l1.8,1.6
				C350.8,275.9,346.9,277.9,342.5,277.9z"/>
			<path class="st15" d="M356.9,277.5H356c0-1.4,0.4-4.1,1.3-8c0.8-3.9,1.3-6.2,1.3-6.7c0-1-0.4-2-1.2-3.1l-0.4-0.5l0-0.6
				c1.6-0.4,4.2-0.7,7.7-0.7c0.4,0.5,0.6,1.4,0.6,2.8c2.6-2,4.8-3,6.5-3c1.1,0,1.9,0.4,2.6,1.1c0.6,0.7,1,1.7,1,2.8s-0.3,3-1,5.8
				c-0.7,2.7-1,4.6-1,5.5s0.1,1.4,0.4,1.4c0.2,0,0.8-0.3,1.9-0.8l0.5-0.3l0.8,1.6c-0.3,0.2-0.6,0.5-1.1,0.9
				c-0.4,0.4-1.3,0.8-2.5,1.4c-1.2,0.6-2.3,0.9-3.2,0.9c-2.2,0-3.2-1.2-3.2-3.7c0-1,0.3-2.9,1-5.7c0.7-2.8,1-4.6,1-5.4
				c0-0.8-0.3-1.2-0.8-1.2c-0.9,0-1.9,0.4-3.2,1.1c-0.1,0.5-0.4,1.8-0.9,4c-1,4.6-1.6,7.9-1.6,9.9
				C361.4,277.3,359.6,277.5,356.9,277.5z"/>
			<path class="st15" d="M382.6,257.7c1.3,0,2.2,0.3,2.9,0.8c0.6,0.5,1,1.6,1,3.3c0,0.9-0.3,2.7-0.8,5.4s-0.8,4.4-0.8,5
				c0,1.2,0.2,1.8,0.7,1.8c1.1,0,2.4-0.8,3.7-2.5c1.3-1.7,2.1-3.1,2.1-4.2l-3-3.4c0.1-1.3,0.4-2.4,0.9-3.5c0.5-1,1-1.8,1.4-2.2
				l0.6-0.6c1.3,0,2.2,0.3,2.9,1c0.7,0.7,1,1.5,1,2.4c0,2.3-0.6,4.8-1.7,7.4c-1.2,2.6-2.7,4.8-4.6,6.6c-1.9,1.8-3.9,2.7-5.9,2.7
				c-1.2,0-2.2-0.4-2.9-1.2c-0.7-0.8-1-1.8-1-3s0.1-3,0.3-5.1c0.2-2.1,0.3-4.2,0.3-6.4c0-0.5-0.2-1-0.5-1.7c-0.3-0.7-0.7-1.2-1-1.6
				l0.1-0.5C379.8,258,381.3,257.7,382.6,257.7z"/>
			<path class="st15" d="M402.5,273c0,0.8,0.1,1.2,0.4,1.2c0.2,0,0.9-0.3,2-0.8l0.5-0.3l0.8,1.6c-0.3,0.2-0.6,0.5-1.1,0.9
				c-0.4,0.4-1.3,0.8-2.5,1.4c-1.2,0.6-2.3,0.9-3.4,0.9c-1,0-1.9-0.3-2.4-1c-0.6-0.6-0.9-1.5-0.9-2.6s0.4-3,1.1-5.8
				c0.7-2.8,1.1-4.6,1.1-5.4c0-1.2-0.4-2.4-1.2-3.5l-0.4-0.5l0-0.6c1.6-0.4,4.1-0.7,7.6-0.7c0.4,0.4,0.6,1.3,0.6,2.6
				s-0.4,3.4-1.2,6.3c-0.8,2.9-1.2,4.7-1.2,5.2C402.5,272.5,402.5,272.9,402.5,273z M396.6,253.2c2.5-1.3,6-3.6,10.6-6.9
				c0.3,0.4,0.6,1.1,1,2c0.4,0.9,0.6,1.6,0.6,2c0,0.8-0.5,1.5-1.6,2c-2.3,1-5.5,2-9.7,2.8L396.6,253.2z"/>
			<path class="st15" d="M414.1,277.9c-2,0-3.6-0.7-4.8-2.2s-1.7-3.4-1.7-6c0-3.3,0.9-6.1,2.6-8.5c1.8-2.4,4.2-3.6,7.3-3.6l1.6,0.1
				c0.5-0.3,1.1-0.4,1.7-0.4c2.3,0,3.5,2.2,3.5,6.6c1.2-0.1,2.4-0.2,3.7-0.5l0.7-0.2l0.3,1.7c-1,0.4-2.3,0.8-4,1.1l-0.9,0.2
				c-0.6,3.1-1.7,5.8-3.4,8.1C419,276.8,416.8,277.9,414.1,277.9z M416.5,274.1c1.2,0,2.4-0.8,3.4-2.4s1.7-3.3,2.1-5.1
				c-3.2,0-4.8-1.2-4.8-3.6c0-0.9,0.2-1.8,0.6-2.7l0.2-0.4c-0.1-0.1-0.3-0.1-0.4-0.1c-0.2,0-0.3,0-0.4,0.1c-0.7,0.5-1.4,1.6-2.1,3.3
				c-0.7,1.7-1,3.7-1,6C414,272.5,414.8,274.1,416.5,274.1z"/>
			<path class="st15" d="M453.7,258c0.1,0.1,0.2,0.4,0.2,0.8c0,0.4,0,0.8-0.1,1.3c-0.1,0.5-0.2,1.5-0.3,3.1c-0.1,1.6-0.3,3-0.4,4.2
				c-1.5,13.3-5.6,20-12.2,20c-1.1,0-2-0.3-2.9-0.8s-1.3-1.3-1.3-2.2c0-1.2,0.7-2.3,2.2-3.2c1.5-1,3.4-1.7,5.9-2.3
				c0,0,0.1-0.4,0.3-1.2s0.3-1.5,0.4-2c-1.8,1.3-3.4,2-5,2s-2.8-0.6-3.8-1.8c-1-1.2-1.5-3.2-1.5-5.8c0-3.5,0.8-6.4,2.4-8.7
				c1.6-2.3,3.6-3.5,6.2-3.5c1.5,0,2.9,0.4,4.3,1.1c1.5-0.5,3.1-0.8,4.9-0.8L453.7,258z M440.5,282.2c-1,0.6-1.5,1.2-1.5,1.7
				s0.3,0.8,1,0.8c0.6,0,1.4-0.3,2.2-0.9c0.8-0.6,1.5-1.6,2-3C442.7,281.2,441.5,281.6,440.5,282.2z M445.6,260.3
				c-1.3,0-2.3,1-3,3.1c-0.7,2.1-1.1,4.3-1.1,6.8s0.6,3.8,1.7,3.8c0.7,0,1.6-0.3,2.6-0.8c0.8-5,1.4-9.1,1.8-12.3
				C446.7,260.5,446,260.3,445.6,260.3z"/>
			<path class="st15" d="M456.4,277.5H456c-0.1-0.2-0.1-0.8-0.1-1.6s0.4-3.1,1.2-6.8c0.8-3.7,1.2-5.8,1.2-6.4c0-0.9-0.4-1.9-1.2-3
				l-0.4-0.5l0-0.6c1.6-0.4,4.2-0.7,7.7-0.7c0.4,0.8,0.5,1.9,0.5,3.2c0.3-0.5,1-1.2,2-2.1c1-0.9,2.1-1.3,3.2-1.3
				c1.6,0,2.4,1.4,2.4,4.2c-0.1,0.2-0.3,0.4-0.6,0.7c-0.3,0.3-0.8,0.7-1.5,1.2c-0.8,0.5-1.5,0.8-2.2,0.9c0,0-0.3-0.4-0.8-1.2
				c-0.5-0.8-0.8-1.2-1.1-1.2c-0.7,0.3-1.4,0.7-2,1.3c-1.4,6.1-2,10.1-2,11.9c0,0.7,0,1.1,0,1.4
				C461.5,277.3,459.4,277.5,456.4,277.5z"/>
			<path class="st15" d="M484.9,259c0.1-0.1,0.2-0.4,0.5-1.2c1.4,0,3.3,0.4,5.6,1.2c-0.7,2.5-1.3,5-1.8,7.7
				c-0.4,2.7-0.7,4.6-0.7,5.7c0,1.1,0.1,1.7,0.4,1.7c0.2,0,0.8-0.3,2-0.8l0.5-0.3l0.8,1.6c-0.3,0.2-0.6,0.5-1,0.9
				c-0.4,0.4-1.2,0.8-2.4,1.4c-1.2,0.6-2.3,0.9-3.2,0.9c-1.8,0-2.9-0.8-3.2-2.5c-1.9,1.7-3.6,2.5-5.1,2.5c-1.5,0-2.8-0.6-3.9-1.8
				c-1.1-1.2-1.6-3-1.6-5.6c0-4,0.8-7.1,2.4-9.4c1.6-2.3,3.6-3.4,5.9-3.4C481.7,257.7,483.3,258.1,484.9,259z M479.8,274.1
				c0.7,0,1.5-0.3,2.4-0.8c0.2-4.2,0.9-8.3,2.1-12.4c-0.9-0.4-1.6-0.6-2.3-0.6c-1.1,0-2,1-2.7,3.1c-0.8,2.1-1.1,4.4-1.1,6.9
				C478.2,272.9,478.7,274.1,479.8,274.1z"/>
			<path class="st15" d="M506.9,258.2c-0.1,0.7-0.3,1.6-0.8,2.6c-1.1-0.1-2.2-0.2-3.2-0.2h-0.8c-1.4,6.6-2,10.7-2,12.3
				c0,0.9,0.2,1.3,0.6,1.3s1.4-0.4,3-1.1l0.8,1.5c-2.6,2.2-5.1,3.3-7.3,3.3c-1,0-1.9-0.3-2.6-1c-0.7-0.7-1-1.5-1-2.6
				c0-1.1,0.1-2.3,0.4-3.7c0.3-1.4,0.6-3,1-5c0.4-2,0.8-3.6,1-4.8c-1.1,0.1-1.9,0.2-2.4,0.3c-0.1-0.4-0.1-0.8-0.1-1.4
				c0-0.6,0-1.1,0.1-1.5h2.8c0.2-1.6,0.4-3.1,0.4-4.5l0-1.4v-0.1c2.3-0.8,4.5-1.2,6.5-1.2c0.1,0.6,0.2,1.3,0.2,2.2
				c0,0.9-0.3,2.6-0.8,5H506.9z"/>
			<path class="st15" d="M515.7,260.5c0,1.2-0.4,3.4-1.2,6.4s-1.2,5-1.2,6s0.1,1.4,0.4,1.4c0.2,0,0.9-0.3,2-0.8l0.5-0.3l0.8,1.6
				c-0.3,0.2-0.6,0.5-1.1,0.9s-1.3,0.8-2.5,1.4c-1.2,0.6-2.3,0.9-3.4,0.9c-1,0-1.9-0.3-2.4-1s-0.9-1.5-0.9-2.6s0.4-3,1.1-5.8
				c0.7-2.8,1.1-4.6,1.1-5.4c0-1.2-0.4-2.4-1.2-3.5l-0.4-0.5l0-0.6c1.6-0.4,4.1-0.7,7.6-0.7C515.5,258.4,515.7,259.2,515.7,260.5z
				 M510.6,253.1c-0.6-0.6-0.9-1.4-0.9-2.3s0.4-1.8,1.2-2.6s1.8-1.1,2.8-1.1c1.1,0,1.9,0.3,2.5,0.9s0.9,1.4,0.9,2.3
				s-0.4,1.8-1.3,2.6s-1.8,1.1-2.8,1.1C512,253.9,511.2,253.6,510.6,253.1z"/>
			<path class="st15" d="M532.3,271.6c0,1.9-0.8,3.4-2.5,4.6c-1.6,1.2-3.5,1.8-5.6,1.8c-2.1,0-3.8-0.4-5-1.3
				c-1.2-0.9-1.8-1.7-1.8-2.4c0-0.4,0.5-1.1,1.6-2c1-0.9,1.9-1.5,2.6-1.7c1.5,1.1,2.7,2.8,3.6,5.2c1.1-0.1,1.6-0.6,1.6-1.6
				c0-1.4-1.2-3.3-3.6-5.8c-2.4-2.5-3.6-4.5-3.6-6c0-1.5,0.7-2.6,2-3.4c1.3-0.8,2.9-1.2,4.8-1.2c1.9,0,3.3,0.3,4.2,1
				c0.9,0.7,1.4,1.6,1.4,2.7c0,1.1-0.9,2.7-2.7,4.7c0.2,0.2,0.5,0.5,0.8,0.8c0.3,0.3,0.8,1,1.3,1.9
				C532,269.8,532.3,270.7,532.3,271.6z M529.9,261.4c0-1-0.7-1.6-2.1-1.6c-0.7,0-1.2,0.1-1.7,0.4c-0.4,0.3-0.7,0.6-0.7,1
				c0,0.7,0.7,1.6,2,2.8l0.7,0.6C529.3,263.5,529.9,262.5,529.9,261.4z"/>
			<path class="st15" d="M535.3,277c-0.6-0.6-0.9-1.4-0.9-2.3s0.4-1.8,1.2-2.6c0.8-0.7,1.8-1.1,2.8-1.1s1.9,0.3,2.5,0.9
				c0.6,0.6,0.9,1.4,0.9,2.3c0,1-0.4,1.8-1.3,2.6c-0.8,0.7-1.8,1.1-2.8,1.1C536.7,277.9,535.9,277.6,535.3,277z M545.8,247.9
				c0,2.9-1,7.5-2.9,13.8c-0.1,0.5-0.4,1.4-0.8,2.7c-0.4,1.3-0.7,2.3-0.9,3c-0.8,0.3-1.5,0.4-2.1,0.4c-0.6,0-1.1,0-1.6-0.1
				c1.1-6.4,1.6-12.1,1.6-17l-0.3-3.7c2.5-0.8,4.8-1.2,6.8-1.2C545.7,246.1,545.8,246.8,545.8,247.9z"/>
		</g>
		<g>
			<g class="st28">
				<path class="st12" d="M318,284.7c0-2.9,1-7.5,2.9-13.8c0.1-0.5,0.4-1.4,0.8-2.7c0.4-1.3,0.7-2.3,0.9-3c0.8-0.3,1.5-0.5,2.2-0.5
					c0.7,0,1.2,0.1,1.5,0.2c-1.1,6.4-1.6,12.1-1.6,17l0.3,3.7c-2.5,0.8-4.8,1.2-6.7,1.2C318.1,286.5,318,285.8,318,284.7z
					 M328.5,255.6c0.6,0.6,0.9,1.4,0.9,2.3s-0.4,1.8-1.2,2.6c-0.8,0.7-1.8,1.1-2.8,1.1c-1.1,0-1.9-0.3-2.5-0.9
					c-0.6-0.6-0.9-1.4-0.9-2.3s0.4-1.8,1.3-2.6c0.8-0.7,1.8-1.1,2.8-1.1C327.1,254.7,327.9,255,328.5,255.6z"/>
				<path class="st12" d="M340.5,274.9c-2.1,0-4.1-0.6-6-1.8c-0.9-0.6-1.7-1.4-2.3-2.5c-0.6-1.1-0.9-2.3-0.9-3.7
					c0-2.6,0.9-4.8,2.6-6.4c1.7-1.7,3.8-2.6,6.3-2.9c-1.7-0.4-3-1.2-4-2.3c-1-1.1-1.5-2.5-1.5-4.2c0-2.5,1-4.6,3-6.1
					c2-1.5,4.3-2.2,6.9-2.2c2.6,0,4.7,0.5,6.4,1.6c1.7,1.1,2.6,2.6,2.6,4.4c0,0.7-0.1,1.3-0.3,1.9s-0.5,1.1-0.7,1.3l-0.3,0.4
					c-0.9,0-2-0.2-3.1-0.5c-1.1-0.3-2-0.7-2.5-1.2l0.5-4.6c-0.4-0.4-1.2-0.7-2.2-0.7c-1.1,0-1.9,0.5-2.5,1.6
					c-0.6,1.1-0.9,2.3-0.9,3.7s0.2,2.4,0.5,3.2c0.3,0.7,0.8,1.3,1.4,1.6c0.9,0.6,2,1,3.2,1.2l-0.4,2.4c-2.1,0-4,0.6-5.6,1.9
					c-1.6,1.3-2.4,2.9-2.4,5c0,1.3,0.4,2.4,1.3,3.2c0.8,0.8,1.9,1.3,3.3,1.3c2.4,0,4.9-1.2,7.5-3.7l1.8,1.6
					C348.8,272.9,344.9,274.9,340.5,274.9z"/>
				<path class="st12" d="M354.9,274.5H354c0-1.4,0.4-4.1,1.3-8c0.8-3.9,1.3-6.2,1.3-6.7c0-1-0.4-2-1.2-3.1l-0.4-0.5l0-0.6
					c1.6-0.4,4.2-0.7,7.7-0.7c0.4,0.5,0.6,1.4,0.6,2.8c2.6-2,4.8-3,6.5-3c1.1,0,1.9,0.4,2.6,1.1c0.6,0.7,1,1.7,1,2.8s-0.3,3-1,5.8
					c-0.7,2.7-1,4.6-1,5.5s0.1,1.4,0.4,1.4c0.2,0,0.8-0.3,1.9-0.8l0.5-0.3l0.8,1.6c-0.3,0.2-0.6,0.5-1.1,0.9
					c-0.4,0.4-1.3,0.8-2.5,1.4c-1.2,0.6-2.3,0.9-3.2,0.9c-2.2,0-3.2-1.2-3.2-3.7c0-1,0.3-2.9,1-5.7c0.7-2.8,1-4.6,1-5.4
					c0-0.8-0.3-1.2-0.8-1.2c-0.9,0-1.9,0.4-3.2,1.1c-0.1,0.5-0.4,1.8-0.9,4c-1,4.6-1.6,7.9-1.6,9.9
					C359.4,274.3,357.6,274.5,354.9,274.5z"/>
				<path class="st12" d="M380.6,254.7c1.3,0,2.2,0.3,2.9,0.8c0.6,0.5,1,1.6,1,3.3c0,0.9-0.3,2.7-0.8,5.4s-0.8,4.4-0.8,5
					c0,1.2,0.2,1.8,0.7,1.8c1.1,0,2.4-0.8,3.7-2.5c1.3-1.7,2.1-3.1,2.1-4.2l-3-3.4c0.1-1.3,0.4-2.4,0.9-3.5c0.5-1,1-1.8,1.4-2.2
					l0.6-0.6c1.3,0,2.2,0.3,2.9,1c0.7,0.7,1,1.5,1,2.4c0,2.3-0.6,4.8-1.7,7.4c-1.2,2.6-2.7,4.8-4.6,6.6c-1.9,1.8-3.9,2.7-5.9,2.7
					c-1.2,0-2.2-0.4-2.9-1.2c-0.7-0.8-1-1.8-1-3s0.1-3,0.3-5.1c0.2-2.1,0.3-4.2,0.3-6.4c0-0.5-0.2-1-0.5-1.7c-0.3-0.7-0.7-1.2-1-1.6
					l0.1-0.5C377.8,255,379.3,254.7,380.6,254.7z"/>
				<path class="st12" d="M400.5,270c0,0.8,0.1,1.2,0.4,1.2c0.2,0,0.9-0.3,2-0.8l0.5-0.3l0.8,1.6c-0.3,0.2-0.6,0.5-1.1,0.9
					c-0.4,0.4-1.3,0.8-2.5,1.4c-1.2,0.6-2.3,0.9-3.4,0.9c-1,0-1.9-0.3-2.4-1c-0.6-0.6-0.9-1.5-0.9-2.6s0.4-3,1.1-5.8
					c0.7-2.8,1.1-4.6,1.1-5.4c0-1.2-0.4-2.4-1.2-3.5l-0.4-0.5l0-0.6c1.6-0.4,4.1-0.7,7.6-0.7c0.4,0.4,0.6,1.3,0.6,2.6
					s-0.4,3.4-1.2,6.3c-0.8,2.9-1.2,4.7-1.2,5.2C400.5,269.5,400.5,269.9,400.5,270z M394.6,250.2c2.5-1.3,6-3.6,10.6-6.9
					c0.3,0.4,0.6,1.1,1,2c0.4,0.9,0.6,1.6,0.6,2c0,0.8-0.5,1.5-1.6,2c-2.3,1-5.5,2-9.7,2.8L394.6,250.2z"/>
				<path class="st12" d="M412.1,274.9c-2,0-3.6-0.7-4.8-2.2s-1.7-3.4-1.7-6c0-3.3,0.9-6.1,2.6-8.5c1.8-2.4,4.2-3.6,7.3-3.6l1.6,0.1
					c0.5-0.3,1.1-0.4,1.7-0.4c2.3,0,3.5,2.2,3.5,6.6c1.2-0.1,2.4-0.2,3.7-0.5l0.7-0.2l0.3,1.7c-1,0.4-2.3,0.8-4,1.1l-0.9,0.2
					c-0.6,3.1-1.7,5.8-3.4,8.1C417,273.8,414.8,274.9,412.1,274.9z M414.5,271.1c1.2,0,2.4-0.8,3.4-2.4s1.7-3.3,2.1-5.1
					c-3.2,0-4.8-1.2-4.8-3.6c0-0.9,0.2-1.8,0.6-2.7l0.2-0.4c-0.1-0.1-0.3-0.1-0.4-0.1c-0.2,0-0.3,0-0.4,0.1
					c-0.7,0.5-1.4,1.6-2.1,3.3c-0.7,1.7-1,3.7-1,6C412,269.5,412.8,271.1,414.5,271.1z"/>
				<path class="st12" d="M451.7,255c0.1,0.1,0.2,0.4,0.2,0.8c0,0.4,0,0.8-0.1,1.3c-0.1,0.5-0.2,1.5-0.3,3.1c-0.1,1.6-0.3,3-0.4,4.2
					c-1.5,13.3-5.6,20-12.2,20c-1.1,0-2-0.3-2.9-0.8s-1.3-1.3-1.3-2.2c0-1.2,0.7-2.3,2.2-3.2c1.5-1,3.4-1.7,5.9-2.3
					c0,0,0.1-0.4,0.3-1.2s0.3-1.5,0.4-2c-1.8,1.3-3.4,2-5,2s-2.8-0.6-3.8-1.8c-1-1.2-1.5-3.2-1.5-5.8c0-3.5,0.8-6.4,2.4-8.7
					c1.6-2.3,3.6-3.5,6.2-3.5c1.5,0,2.9,0.4,4.3,1.1c1.5-0.5,3.1-0.8,4.9-0.8L451.7,255z M438.5,279.2c-1,0.6-1.5,1.2-1.5,1.7
					s0.3,0.8,1,0.8c0.6,0,1.4-0.3,2.2-0.9c0.8-0.6,1.5-1.6,2-3C440.7,278.2,439.5,278.6,438.5,279.2z M443.6,257.3
					c-1.3,0-2.3,1-3,3.1c-0.7,2.1-1.1,4.3-1.1,6.8s0.6,3.8,1.7,3.8c0.7,0,1.6-0.3,2.6-0.8c0.8-5,1.4-9.1,1.8-12.3
					C444.7,257.5,444,257.3,443.6,257.3z"/>
				<path class="st12" d="M454.4,274.5H454c-0.1-0.2-0.1-0.8-0.1-1.6s0.4-3.1,1.2-6.8c0.8-3.7,1.2-5.8,1.2-6.4c0-0.9-0.4-1.9-1.2-3
					l-0.4-0.5l0-0.6c1.6-0.4,4.2-0.7,7.7-0.7c0.4,0.8,0.5,1.9,0.5,3.2c0.3-0.5,1-1.2,2-2.1c1-0.9,2.1-1.3,3.2-1.3
					c1.6,0,2.4,1.4,2.4,4.2c-0.1,0.2-0.3,0.4-0.6,0.7c-0.3,0.3-0.8,0.7-1.5,1.2c-0.8,0.5-1.5,0.8-2.2,0.9c0,0-0.3-0.4-0.8-1.2
					c-0.5-0.8-0.8-1.2-1.1-1.2c-0.7,0.3-1.4,0.7-2,1.3c-1.4,6.1-2,10.1-2,11.9c0,0.7,0,1.1,0,1.4
					C459.5,274.3,457.4,274.5,454.4,274.5z"/>
				<path class="st12" d="M482.9,256c0.1-0.1,0.2-0.4,0.5-1.2c1.4,0,3.3,0.4,5.6,1.2c-0.7,2.5-1.3,5-1.8,7.7
					c-0.4,2.7-0.7,4.6-0.7,5.7c0,1.1,0.1,1.7,0.4,1.7c0.2,0,0.8-0.3,2-0.8l0.5-0.3l0.8,1.6c-0.3,0.2-0.6,0.5-1,0.9
					c-0.4,0.4-1.2,0.8-2.4,1.4c-1.2,0.6-2.3,0.9-3.2,0.9c-1.8,0-2.9-0.8-3.2-2.5c-1.9,1.7-3.6,2.5-5.1,2.5c-1.5,0-2.8-0.6-3.9-1.8
					c-1.1-1.2-1.6-3-1.6-5.6c0-4,0.8-7.1,2.4-9.4c1.6-2.3,3.6-3.4,5.9-3.4C479.7,254.7,481.3,255.1,482.9,256z M477.8,271.1
					c0.7,0,1.5-0.3,2.4-0.8c0.2-4.2,0.9-8.3,2.1-12.4c-0.9-0.4-1.6-0.6-2.3-0.6c-1.1,0-2,1-2.7,3.1c-0.8,2.1-1.1,4.4-1.1,6.9
					C476.2,269.9,476.7,271.1,477.8,271.1z"/>
				<path class="st12" d="M504.9,255.2c-0.1,0.7-0.3,1.6-0.8,2.6c-1.1-0.1-2.2-0.2-3.2-0.2h-0.8c-1.4,6.6-2,10.7-2,12.3
					c0,0.9,0.2,1.3,0.6,1.3c0.4,0,1.4-0.4,3-1.1l0.8,1.5c-2.6,2.2-5.1,3.3-7.3,3.3c-1,0-1.9-0.3-2.6-1c-0.7-0.7-1-1.5-1-2.6
					c0-1.1,0.1-2.3,0.4-3.7c0.3-1.4,0.6-3,1-5c0.4-2,0.8-3.6,1-4.8c-1.1,0.1-1.9,0.2-2.4,0.3c-0.1-0.4-0.1-0.8-0.1-1.4
					c0-0.6,0-1.1,0.1-1.5h2.8c0.2-1.6,0.4-3.1,0.4-4.5l0-1.4v-0.1c2.3-0.8,4.5-1.2,6.5-1.2c0.1,0.6,0.2,1.3,0.2,2.2
					c0,0.9-0.3,2.6-0.8,5H504.9z"/>
				<path class="st12" d="M513.7,257.5c0,1.2-0.4,3.4-1.2,6.4s-1.2,5-1.2,6s0.1,1.4,0.4,1.4c0.2,0,0.9-0.3,2-0.8l0.5-0.3l0.8,1.6
					c-0.3,0.2-0.6,0.5-1.1,0.9s-1.3,0.8-2.5,1.4c-1.2,0.6-2.3,0.9-3.4,0.9c-1,0-1.9-0.3-2.4-1s-0.9-1.5-0.9-2.6s0.4-3,1.1-5.8
					c0.7-2.8,1.1-4.6,1.1-5.4c0-1.2-0.4-2.4-1.2-3.5l-0.4-0.5l0-0.6c1.6-0.4,4.1-0.7,7.6-0.7C513.5,255.4,513.7,256.2,513.7,257.5z
					 M508.6,250.1c-0.6-0.6-0.9-1.4-0.9-2.3s0.4-1.8,1.2-2.6s1.8-1.1,2.8-1.1c1.1,0,1.9,0.3,2.5,0.9s0.9,1.4,0.9,2.3
					s-0.4,1.8-1.3,2.6s-1.8,1.1-2.8,1.1C510,250.9,509.2,250.6,508.6,250.1z"/>
				<path class="st12" d="M530.3,268.6c0,1.9-0.8,3.4-2.5,4.6c-1.6,1.2-3.5,1.8-5.6,1.8c-2.1,0-3.8-0.4-5-1.3
					c-1.2-0.9-1.8-1.7-1.8-2.4c0-0.4,0.5-1.1,1.6-2c1-0.9,1.9-1.5,2.6-1.7c1.5,1.1,2.7,2.8,3.6,5.2c1.1-0.1,1.6-0.6,1.6-1.6
					c0-1.4-1.2-3.3-3.6-5.8c-2.4-2.5-3.6-4.5-3.6-6c0-1.5,0.7-2.6,2-3.4c1.3-0.8,2.9-1.2,4.8-1.2c1.9,0,3.3,0.3,4.2,1
					c0.9,0.7,1.4,1.6,1.4,2.7c0,1.1-0.9,2.7-2.7,4.7c0.2,0.2,0.5,0.5,0.8,0.8c0.3,0.3,0.8,1,1.3,1.9
					C530,266.8,530.3,267.7,530.3,268.6z M527.9,258.4c0-1-0.7-1.6-2.1-1.6c-0.7,0-1.2,0.1-1.7,0.4c-0.4,0.3-0.7,0.6-0.7,1
					c0,0.7,0.7,1.6,2,2.8l0.7,0.6C527.3,260.5,527.9,259.5,527.9,258.4z"/>
				<path class="st12" d="M533.3,274c-0.6-0.6-0.9-1.4-0.9-2.3s0.4-1.8,1.2-2.6c0.8-0.7,1.8-1.1,2.8-1.1s1.9,0.3,2.5,0.9
					c0.6,0.6,0.9,1.4,0.9,2.3c0,1-0.4,1.8-1.3,2.6c-0.8,0.7-1.8,1.1-2.8,1.1C534.7,274.9,533.9,274.6,533.3,274z M543.8,244.9
					c0,2.9-1,7.5-2.9,13.8c-0.1,0.5-0.4,1.4-0.8,2.7c-0.4,1.3-0.7,2.3-0.9,3c-0.8,0.3-1.5,0.4-2.1,0.4c-0.6,0-1.1,0-1.6-0.1
					c1.1-6.4,1.6-12.1,1.6-17l-0.3-3.7c2.5-0.8,4.8-1.2,6.8-1.2C543.7,243.1,543.8,243.8,543.8,244.9z"/>
			</g>
		</g>
	</g>
</g>
</svg>
