<?xml version="1.0" encoding="utf-8"?>
<!-- Generator: Adobe Illustrator 26.0.2, SVG Export Plug-In . SVG Version: 6.00 Build 0)  -->
<svg version="1.1" id="Layer_1" xmlns="http://www.w3.org/2000/svg" xmlns:xlink="http://www.w3.org/1999/xlink" x="0px" y="0px"
	 viewBox="0 0 1000 500" style="enable-background:new 0 0 1000 500;" xml:space="preserve">
<style type="text/css">
	.st0{fill:url(#SVGID_1_);}
	.st1{fill:#0C3C53;}
	.st2{fill:#205772;}
	.st3{fill:#E67D65;}
	.st4{fill:#FFF1D0;}
	.st5{fill:#174456;}
	.st6{fill:#DF9F70;}
	.st7{fill:#F8D7B8;}
	.st8{fill:#1C4758;}
	.st9{fill:#FEF3D2;}
	.st10{fill:#C15C4C;}
	.st11{fill:#CE5A46;}
	.st12{fill:#ED896F;}
	.st13{fill:#174455;}
	.st14{fill:#FDD5B4;}
	.st15{fill:#164456;}
	.st16{fill:#F2BE8B;}
	.st17{fill:#9B6E63;}
	.st18{fill:#FAE0B9;}
	.st19{fill:none;}
	.st20{fill:#FDECCB;}
	.st21{fill:#FEF2D1;}
	.st22{fill:#F8D6B8;}
	.st23{fill:#FFF2D1;}
	.st24{fill:#0E77A9;}
	.st25{fill:#65BCE8;}
	.st26{fill:#063956;}
	.st27{fill:#032F42;}
	.st28{fill:#C26468;}
	.st29{fill:#C25356;}
	.st30{fill:#241214;}
	.st31{fill:#532B2D;}
	.st32{fill:#0D1730;}
	.st33{fill:#FFFFFF;}
	.st34{fill:#FF63AE;}
	.st35{fill:none;stroke:#8BB3F9;stroke-width:1.7852;stroke-miterlimit:10;}
	.st36{fill:#8BB3F9;}
	.st37{fill:#1A549D;}
	.st38{fill:#011C5E;}
	.st39{fill:#2060BA;}
	.st40{fill:#032071;}
	.st41{fill:#8486AC;}
	.st42{fill:#783C3D;}
	.st43{fill:#E2F6FF;}
	.st44{fill:#F5E4C6;}
	.st45{fill:#F2D29A;}
	.st46{opacity:0.25;fill:#B64C00;enable-background:new    ;}
	.st47{fill:#FFBE5A;}
	.st48{opacity:0.65;fill:#EDF2FB;enable-background:new    ;}
	.st49{fill:#E74C3C;}
	.st50{fill:none;stroke:#F39C12;stroke-width:3;stroke-linecap:round;stroke-miterlimit:10;stroke-dasharray:1.0034,10.0343;}
	.st51{fill:#F39C12;}
	.st52{enable-background:new    ;}
	.st53{fill:#A73321;}
	.st54{fill:#B2E4FD;}
	.st55{fill:#54578C;}
	.st56{fill:#1C1E4E;}
	.st57{fill:#1B1D4D;}
	.st58{fill:#060606;}
	.st59{fill:#8C91CB;}
	.st60{fill:#F1B9B8;}
</style>
<linearGradient id="SVGID_1_" gradientUnits="userSpaceOnUse" x1="500" y1="250.1" x2="500" y2="-9.094947e-13">
	<stop  offset="0" style="stop-color:#FFF1D0;stop-opacity:0"/>
	<stop  offset="1" style="stop-color:#FFF1D0"/>
</linearGradient>
<rect class="st0" width="1000" height="250.1"/>
<g id="OBJECT">
	<polygon class="st1" points="969,348.8 989.2,360 989.2,428.8 969,428.8 	"/>
	<polygon class="st2" points="939.8,495.2 939.8,294.8 900.3,302.8 900.3,495.2 	"/>
	<polygon class="st3" points="975.2,495.2 975.2,321.9 939.8,294.8 939.8,495.2 	"/>
	<polygon class="st4" points="975.2,333.7 975.2,336.5 939.8,314.5 939.8,311.8 	"/>
	<polygon class="st1" points="939.8,495.2 939.8,461.2 900.3,427.4 900.3,495.2 	"/>
	<polygon class="st5" points="868.7,466.7 831.1,466.7 831.1,322.5 868.7,309.4 	"/>
	<polygon class="st4" points="887.7,466.7 868.7,466.7 868.7,309.4 887.7,322.5 	"/>
	<polygon class="st3" points="903.9,495.2 903.9,444.9 870.6,444.9 870.6,405.6 858.4,405.6 858.4,390.9 845.9,390.9 845.9,405.6 
		833.5,409.4 833.5,495.2 	"/>
	<polygon class="st2" points="807.2,495.2 807.2,278.4 784.6,289 784.6,495.2 	"/>
	<path class="st1" d="M802.2,495.2c-0.5-32.8-0.8-66.3-0.8-72.6c0-15.7-8-35.9-8-50.7v-77l-8.8,5.5v194.8H802.2z"/>
	<polygon class="st6" points="791.3,426.4 773.2,426.4 773.2,310.2 791.3,299.6 	"/>
	<rect x="758.9" y="346.4" class="st7" width="25.8" height="112.4"/>
	<polygon class="st3" points="784.6,346.4 773.2,355.4 773.2,458.7 784.6,458.7 	"/>
	<polygon class="st8" points="725.4,495.2 725.4,128.7 715.4,142.2 715.4,495.2 	"/>
	<polygon class="st8" points="740,129.9 732.6,129.9 732.6,110.5 740,103.8 	"/>
	<rect x="725.4" y="128.7" class="st4" width="46.6" height="366.5"/>
	<rect x="740" y="103.8" class="st4" width="16.7" height="24.8"/>
	<polygon class="st9" points="666.2,458.7 694.6,458.7 694.6,273 666.2,250.7 	"/>
	<rect x="630.3" y="250.7" class="st5" width="35.9" height="208"/>
	<polygon class="st3" points="731.8,495.2 729.1,396.8 685.5,360.6 685.5,495.2 	"/>
	<path class="st10" d="M731.8,495.2l-2.7-98.3c-10.1,8.4-25.6,39.5-28.6,63.4c-1.2,9.4-2.5,24.4-4.1,35L731.8,495.2z"/>
	<polygon class="st11" points="685.5,495.2 685.5,458.4 679,454.2 679,433.9 641.5,432.5 618.6,449.5 618.6,495.2 	"/>
	<polygon class="st5" points="773.2,495.2 773.2,422.6 715,429.2 715,495.2 	"/>
	<polygon class="st11" points="796,495.2 796,427.4 773.2,422.6 773.2,495.2 	"/>
	<polygon class="st3" points="835,495.2 835,299.6 807.2,278.4 807.2,495.2 	"/>
	<path class="st12" d="M835,495.2v-94.8c-4.3,28.7-15.2,74.8-21,94.8H835z"/>
	<polygon class="st1" points="974,428.8 978.1,428.8 978.1,406.9 974,408.5 	"/>
	<polygon class="st3" points="999.3,495.2 999.3,425.6 969,422.6 969,422.6 969,495.2 	"/>
	<polygon class="st1" points="969,495.2 969,422.6 962.6,423.9 962.6,495.2 	"/>
	<polygon class="st3" points="991.7,408.6 978.1,406.9 978.1,428.5 991.7,429.8 	"/>
	<path class="st10" d="M983.7,495.2c-3.7-16.3-9.1-40.5-14.7-50.3v50.3H983.7z"/>
	<polygon class="st4" points="999.3,425.6 999.3,430.5 969,427.9 969,422.6 	"/>
	<polygon class="st2" points="502.6,125.9 502.6,312.7 480.9,312.7 480.9,143.7 485.7,139.8 	"/>
	<path class="st13" d="M498.3,285.8c-0.3,9.3-5.1,19.1-10.2,26.9h-7.2v-169l4.7-3.9c1.2,31,2.6,61.2,6.1,79.5
		C495.7,239.6,499,266.1,498.3,285.8z"/>
	<polygon class="st4" points="544.2,144.2 544.2,312.7 502.6,312.7 502.6,125.9 	"/>
	<polygon class="st14" points="544.2,216.1 544.2,312.7 511.7,312.7 	"/>
	<polygon class="st5" points="438.3,342.3 395.2,342.3 395.2,122.4 438.3,104.3 	"/>
	<polygon class="st4" points="458.2,342.3 438.3,342.3 438.3,104.3 458.2,120.4 	"/>
	<polygon class="st15" points="328.6,411.8 315.8,411.8 315.8,191.3 328.6,171.7 	"/>
	<polygon class="st11" points="328.6,406 351.7,406 351.7,191.4 328.6,171.7 	"/>
	<rect x="247.7" y="187.6" class="st5" width="20.5" height="221.7"/>
	<polygon class="st4" points="282.7,176 262.2,176 247.7,187.6 268.3,187.6 	"/>
	<polygon class="st3" points="268.3,348.4 282.7,348.4 282.7,176 268.3,187.6 	"/>
	<polygon class="st16" points="220.4,282.8 241.3,282.8 241.3,267.3 220.4,264.8 	"/>
	<polygon class="st17" points="220.4,282.8 199.6,282.8 199.6,267.3 220.4,264.8 	"/>
	<rect x="208.2" y="276.8" class="st18" width="46" height="2.3"/>
	<rect x="208.2" y="279.2" class="st16" width="46" height="88.4"/>
	<polygon class="st11" points="31.1,495.2 31.1,461.2 24.9,461.2 24.9,442.8 -0.7,442.8 -0.7,495.2 	"/>
	<rect x="-0.7" y="461.2" class="st5" width="13.2" height="34"/>
	<polygon class="st3" points="94.2,495.2 94.2,343.5 85.3,343.5 85.3,335.6 77.8,335.6 77.8,327.4 47.5,327.4 47.5,335.6 40,335.6 
		40,343.5 31.1,343.5 31.1,495.2 	"/>
	<path class="st10" d="M94.2,495.2V343.5c0,0-30.6,39.3-36.6,76.5c-5.5,34.3-4.9,53-21.8,75.2H94.2z"/>
	<polygon class="st5" points="137.2,495.2 137.2,429.7 71.2,437.4 71.2,495.2 	"/>
	<polygon class="st11" points="192.4,495.2 192.4,436.7 137.2,429.7 137.2,495.2 	"/>
	<polygon class="st11" points="181.4,435.3 162.6,435.3 162.6,207.1 181.4,180 	"/>
	<polygon class="st3" points="218.5,495.2 218.5,207.8 181.4,180 181.4,495.2 	"/>
	<polygon class="st19" points="302.2,495.2 302.2,446.8 259,406 259,495.2 	"/>
	<polygon class="st2" points="449.5,495.2 449.5,251.6 427.1,273.7 427.1,495.2 	"/>
	<polygon class="st3" points="480.9,495.2 480.9,268.2 449.5,251.6 449.5,495.2 	"/>
	<polygon class="st3" points="429,495.2 429,330.1 348,327.6 348,495.2 	"/>
	<polygon class="st5" points="348,495.2 348,327.6 337.3,330.2 337.3,495.2 	"/>
	<rect x="372.5" y="308" class="st3" width="33.8" height="23.5"/>
	<polygon class="st5" points="372.5,331.5 361.4,331.5 361.4,312 372.5,308 	"/>
	<polygon class="st20" points="429,330.1 429,335.4 348,332.5 348,327.6 	"/>
	<path class="st10" d="M429,495.2L429,495.2c-23.3-17-41.6-39.2-48.3-75.8c-5-27.1-23.4-42.5-32.7-48.6v124.4H429z"/>
	<polygon class="st2" points="302.2,495.2 302.2,251.6 259,267.7 259,495.2 	"/>
	<polygon class="st3" points="341.5,495.2 341.5,258.3 302.2,251.6 302.2,495.2 	"/>
	<polygon class="st21" points="341.5,274.6 341.5,276.8 302.2,272.7 302.2,270.5 	"/>
	<polygon class="st5" points="244.2,495.2 244.2,337.6 218.5,351.5 218.5,495.2 	"/>
	<polygon class="st11" points="264.2,495.2 264.2,351.5 244.2,337.6 244.2,495.2 	"/>
	<polygon class="st2" points="531.1,495.2 531.1,300.2 480.9,308 480.9,495.2 	"/>
	<polygon class="st5" points="531.1,495.2 531.1,461.1 480.9,423.8 480.9,495.2 	"/>
	<polygon class="st3" points="579,495.2 579,308 531.1,300.2 531.1,495.2 	"/>
	<polygon class="st22" points="579,319.3 579,324.6 531.1,319.8 531.1,314.5 	"/>
	<polygon class="st2" points="590.9,495.2 595.4,322.1 574.7,322.1 570.1,495.2 	"/>
	<rect x="588.7" y="322.1" class="st23" width="35" height="173.1"/>
	<polygon class="st23" points="574.7,314.7 611.8,314.7 611.8,302.6 589.9,302.6 	"/>
	<rect x="-0.7" y="443.5" class="st24" width="1000" height="56.5"/>
	<rect x="-0.7" y="443.5" class="st2" width="1000" height="32.5"/>
	<polygon class="st2" points="977.3,384.3 973.2,460.5 943.3,460.5 939.2,384.3 	"/>
	<polygon class="st25" points="977.3,384.3 973.2,460.5 966.8,460.5 968,384.3 	"/>
	<path class="st2" d="M957.9,386.6c-0.2-0.9-20.3-89.3-23.8-101.9l0.7-0.2c3.6,12.6,23.7,101.1,23.9,102L957.9,386.6z"/>
	<path class="st2" d="M934.6,285.4c-1.6-5.6-4.7-12.5-6.6-13.2s-1.1,5.6,0,8.6s7.9,9.6,7.9,9.6L934.6,285.4z"/>
	<path class="st2" d="M939.3,304.4c-6.2-4.2-12-7.7-18.9-7.1s-3.7,5.5,0.9,6.7S939.3,304.4,939.3,304.4z"/>
	<path class="st2" d="M939.1,303.8c0.7-4.3,3.6-7.6,6.2-10.2c1.5-1.7,3.3-3.2,5.2-4.5c1.5-0.9,2.8,1.2,1.3,3.8
		c-2.6,3.7-5.5,7.1-8.8,10.2C941.9,303.8,940.5,304.1,939.1,303.8z"/>
	<path class="st2" d="M943.4,322c-1.8-2.1-3.8-4.1-5.9-5.9c-2.4-1.8-9.5-7.1-11.8-7.8s-5.1-0.8-3.6,2.5S933.2,320,936,321
		C938.4,321.7,940.9,322,943.4,322z"/>
	<path class="st2" d="M943.4,322c0.9-2,2.1-3.9,3.5-5.6c1.5-1.8,3.3-3.4,5.3-4.6c1.3-0.5,4.8-1.6,3.7,1.8s-6.5,7.4-8.5,8.1
		C946.1,322.1,944.8,322.2,943.4,322z"/>
	<path class="st2" d="M946.6,335.5c-2.4-0.6-8.1-1-11,0.6s-2.9,6.6,2.7,6.5S946.6,335.5,946.6,335.5z"/>
	<path class="st2" d="M952.4,360.8c-3.6-2.3-8.9-5.3-11.5-6.1s-2.4-3.6,0-4c4-0.4,7.8,1.5,10,4.8
		C951.8,357.1,952.3,358.9,952.4,360.8z"/>
	<path class="st2" d="M946.6,335.9c0.9,2.9,3.8,4.6,6.8,4.1c2.7-0.4,4.4-2.3,4.6-6.3c0.2-2.2-0.2-4.4-1.1-6.4
		c-1,1.6-2.7,2.5-4.6,2.6C948.6,330,945.4,331.8,946.6,335.9z"/>
	<path class="st2" d="M954.6,370.4c-2.4-1.1-5.1-1.2-7.6-0.4c-1.7,0.6-2.5,2.2-0.7,2.7c0.9,0.2,5.5,0.4,7-0.3
		C954.2,372.1,954.7,371.2,954.6,370.4z"/>
	<path class="st2" d="M960.8,386.5c-1.1-20.4,4.1-111.4,8.5-137.3l0.7,0.1c-4.3,25.9-9.5,116.8-8.5,137.1L960.8,386.5z"/>
	<path class="st2" d="M969,253.6c-0.8-3.3-0.4-6.7,0.9-9.8c1.1-2,3.1-4.7,4.7-5.5s2.2,2.8,1.1,6.3S969.3,255,969,253.6z"/>
	<path class="st2" d="M968,262.2c1.3-3.1,5.4-6.5,9.7-7.1s8.7-1.6,9.7-2.8c0,0-0.4,4.9-3,7.9s-8.3,2.7-10.7,2.6S968,262.2,968,262.2
		z"/>
	<path class="st2" d="M966.7,276.4c-0.4-5.3-6.9-13.8-15.8-18c-1-0.5,2.5,10.4,6.1,13.8C962.5,277.5,966.7,276.4,966.7,276.4z"/>
	<path class="st2" d="M966.7,276.4c2.2-2.6,6.8-6.5,12-6.7s7.6,2.5,7.6,2.5s-4.2,4.3-8.7,5.1C970.7,278.3,966.7,276.4,966.7,276.4z"
		/>
	<path class="st2" d="M964.5,302.6c-0.3-3.2-3.2-8.9-13.9-6.9c0,0,1.1,1.6,2.3,3.9c1.5,2.8,2.9,4.7,4.9,5.7s6.5,0,6.5,0L964.5,302.6
		z"/>
	<path class="st2" d="M964.7,299.7c1-1.7,9.2-9.4,11.8-10.4s6.2-0.3,2.9,3.3c-2.6,2.7-5.6,4.9-9,6.5
		C968.6,300,964.7,299.7,964.7,299.7z"/>
	<path class="st2" d="M963,326.3c0.3-3.6,2.6-6.8,6-8.2c6.1-2.4,7.9,0.6,7.3,4s-5.2,6-6.7,6.4C966.8,329.2,962.9,327.9,963,326.3z"
		/>
	<path class="st2" d="M962.3,331.2c-0.2-3-4.3-6.9-11.5-5.9c1,1,2.1,1.8,3.3,2.3C956,328.3,962.5,333.2,962.3,331.2z"/>
	<path class="st2" d="M961.7,354.4c0-2.5-3.8-6.9-4.5-7.9c-0.5-0.9-0.9-1.8-1.2-2.8c-0.4,1.2-0.5,2.3-0.6,3.5c0,2,2.2,5.2,3.1,6.5
		S961.7,355.7,961.7,354.4z"/>
	<path class="st2" d="M962,351.4c0.9-0.8,1.6-1.8,1.9-2.9c0.6-2.8,4.1-5.3,6.8-6.9c1.6-1.2,3.1-2.5,4.3-4.1c0.6,1.7,0.9,3.6,0.7,5.4
		c-0.3,1.9-2.9,8.1-9.2,8.6C965,351.6,963.5,351.6,962,351.4z"/>
	<path class="st2" d="M963.7,372.6c-1.9,0.1-3.9-0.1-3.1-1.5s3.4-3.5,5.2-4.6c1.6-1.2,3.5-2,5.4-2.5c0,0-0.5,3.1-1,4.8
		C969.8,370.1,968.3,372.4,963.7,372.6z"/>
	<polygon class="st2" points="77.4,384.3 73.3,460.5 43.4,460.5 39.2,384.3 	"/>
	<polygon class="st25" points="77.4,384.3 73.3,460.5 66.9,460.5 68.1,384.3 	"/>
	<path class="st2" d="M58,386.6c-0.2-0.9-20.3-89.3-23.8-101.9l0.7-0.2c3.5,12.6,23.7,101.1,23.8,102L58,386.6z"/>
	<path class="st2" d="M34.7,285.4c-1.6-5.6-4.6-12.5-6.6-13.2s-1.1,5.6,0,8.6s7.9,9.6,7.9,9.6L34.7,285.4z"/>
	<path class="st2" d="M39.3,304.4c-6.2-4.2-12-7.7-18.9-7.1s-3.7,5.5,0.9,6.7S39.3,304.4,39.3,304.4z"/>
	<path class="st2" d="M39.2,303.8c0.7-4.3,3.6-7.6,6.2-10.2c1.5-1.7,3.3-3.2,5.2-4.5c1.5-0.9,2.8,1.2,1.3,3.8
		c-2.6,3.7-5.5,7.1-8.8,10.2C41.9,303.9,40.5,304.1,39.2,303.8z"/>
	<path class="st2" d="M43.5,322c-1.8-2.1-3.8-4.1-5.9-5.9c-2.4-1.8-9.5-7.1-11.8-7.8s-5.1-0.8-3.6,2.5s11.1,9.2,14,10.2
		C38.5,321.7,41,322,43.5,322z"/>
	<path class="st2" d="M43.5,322c1-2,2.1-3.9,3.5-5.6c1.5-1.8,3.3-3.4,5.3-4.6c1.3-0.5,4.8-1.6,3.7,1.8s-6.5,7.4-8.5,8.1
		C46.2,322.1,44.8,322.2,43.5,322z"/>
	<path class="st2" d="M46.6,335.5c-2.4-0.6-8.1-1-11,0.6s-2.9,6.6,2.7,6.5S46.6,335.5,46.6,335.5z"/>
	<path class="st2" d="M52.4,360.8c-3.6-2.3-8.9-5.3-11.5-6.1s-2.4-3.6,0-4c4-0.4,7.8,1.5,10,4.8C51.8,357.1,52.4,358.9,52.4,360.8z"
		/>
	<path class="st2" d="M46.7,335.9c0.9,2.9,3.8,4.6,6.8,4.1c2.7-0.4,4.4-2.3,4.6-6.3c0.2-2.2-0.2-4.4-1-6.4c-1,1.6-2.7,2.5-4.6,2.6
		C48.7,330,45.5,331.8,46.7,335.9z"/>
	<path class="st2" d="M54.6,370.4c-2.4-1.1-5.1-1.2-7.6-0.4c-1.7,0.6-2.5,2.2-0.7,2.7c0.9,0.2,5.5,0.4,7-0.3
		C54.2,372.1,54.8,371.2,54.6,370.4z"/>
	<path class="st2" d="M60.9,386.5c-1.1-20.4,4.1-111.4,8.5-137.3l0.7,0.1c-4.3,25.9-9.5,116.8-8.5,137.1L60.9,386.5z"/>
	<path class="st2" d="M69.1,253.6c-0.8-3.3-0.5-6.7,0.9-9.8c1.1-2,3.1-4.7,4.7-5.5s2.2,2.8,1.1,6.3S69.4,255,69.1,253.6z"/>
	<path class="st2" d="M68,262.2c1.3-3.1,5.4-6.5,9.7-7.1s8.7-1.6,9.7-2.8c0,0-0.4,4.9-3,7.9s-8.3,2.7-10.7,2.6S68,262.2,68,262.2z"
		/>
	<path class="st2" d="M66.7,276.4c-0.4-5.3-6.9-13.8-15.8-18c-1-0.5,2.5,10.4,6.1,13.8C62.6,277.5,66.7,276.4,66.7,276.4z"/>
	<path class="st2" d="M66.7,276.4c2.2-2.6,6.8-6.5,12-6.7s7.6,2.5,7.6,2.5s-4.2,4.3-8.7,5.1C70.7,278.3,66.7,276.4,66.7,276.4z"/>
	<path class="st2" d="M64.6,302.6c-0.3-3.2-3.2-8.9-13.9-6.9c0.8,1.3,1.6,2.6,2.3,3.9c1.5,2.8,2.9,4.7,4.9,5.7s6.5,0,6.5,0
		L64.6,302.6z"/>
	<path class="st2" d="M64.8,299.7c1-1.7,9.2-9.4,11.8-10.4s6.2-0.3,2.9,3.3c-2.6,2.7-5.6,4.9-9,6.5C68.7,300,64.8,299.7,64.8,299.7z
		"/>
	<path class="st2" d="M63.1,326.3c0.3-3.6,2.6-6.8,6-8.2c6.1-2.4,7.9,0.6,7.3,4s-5.2,6-6.7,6.4C66.8,329.2,63,327.9,63.1,326.3z"/>
	<path class="st2" d="M62.4,331.2c-0.2-3-4.3-6.9-11.5-5.9c1,1,2.1,1.8,3.3,2.3C56.1,328.3,62.5,333.2,62.4,331.2z"/>
	<path class="st2" d="M61.7,354.4c0-2.5-3.8-6.9-4.5-7.9c-0.5-0.9-0.9-1.8-1.2-2.8c-0.3,1.2-0.5,2.3-0.5,3.5c0,2,2.2,5.2,3.1,6.5
		S61.7,355.7,61.7,354.4z"/>
	<path class="st2" d="M62,351.4c0.9-0.7,1.6-1.8,1.9-2.9c0.6-2.8,4.1-5.3,6.8-6.9c1.6-1.2,3-2.6,4.2-4.1c0.6,1.7,0.9,3.6,0.7,5.4
		c-0.3,1.9-2.9,8.1-9.2,8.6C65,351.6,63.5,351.6,62,351.4z"/>
	<path class="st2" d="M63.7,372.6c-1.9,0.1-3.9-0.1-3.1-1.5s3.4-3.5,5.2-4.6c1.6-1.2,3.5-2,5.4-2.5c0,0-0.5,3.1-1,4.8
		C69.8,370.1,68.3,372.4,63.7,372.6z"/>
	<g>
		<path class="st26" d="M341.3,113.7c0,0-13.2,41.1-33.4,41.1c-2.8,0-5.4-0.1-7.8-0.2c-15-1-22.6-5.8-25.6-23.7
			c-3.5-21.5,3.8-39.8,16.2-43.1c3.9-1,8.2-0.6,12.9,1.6C323.8,89.3,341.3,113.7,341.3,113.7z"/>
		<path class="st27" d="M300.1,154.5c-15-1-22.6-5.8-25.6-23.7c-3.6-21.5,3.8-39.8,16.2-43.1c-0.5,12.6,4.3,24.9,13.3,33.7
			C314.3,131.8,309.9,144.6,300.1,154.5z"/>
		<path class="st28" d="M337.6,121.5l-2.8,15.8l-0.6,3.5l-1.4,8.2c0,0-1.2,12.2-15,11.6l-5.1,25.6l3.7,5.6l-23.8,16.4h-8
			c-0.5,0-12.2-25.7-12.2-25.7l8.6-45.6c0,0-5.8-2.1-6.1-12.4c-0.3-10.3,1-13.4,9.7-13.1s8.2,8.6,7.6,13.1c2.5-1.1,4.5-3.2,5.5-5.7
			c1.7-4.3,6.2-11.6,15.2-10.3C321.7,109.7,328.5,122.7,337.6,121.5z"/>
		<polygon class="st29" points="289.8,204.9 275,168.5 272.6,181.3 		"/>
		<path class="st29" d="M313.8,180.2l3.9-19.6c-4.2-0.6-10.1-4.3-10.1-4.3L313.8,180.2z"/>
		<path class="st29" d="M281.5,131.5c-0.4,0-0.7-0.3-0.7-0.6c-0.8-6,6.2-11,7.6-11.9c0.1-0.4,0-0.8-0.2-1.1
			c-0.4-0.6-1.4-1.4-4.2-1.8c-1.2-0.3-2.4,0.1-3.3,0.8c-1.3,1.3-1.2,3.8-1.1,4.7c0.1,0.4-0.2,0.7-0.6,0.8l0,0
			c-0.4,0.1-0.7-0.2-0.8-0.6l0,0c0-0.2-0.5-3.8,1.5-5.9c1.2-1.1,2.9-1.6,4.5-1.2c2.7,0.3,4.5,1.2,5.2,2.5c0.4,0.8,0.5,1.7,0.2,2.5
			c-0.1,0.1-0.2,0.2-0.3,0.3c-0.1,0-7.9,5.1-7.2,10.7C282.2,131.1,281.9,131.4,281.5,131.5C281.6,131.5,281.6,131.5,281.5,131.5
			L281.5,131.5z"/>
		<path class="st26" d="M349.2,96.2c0,0,4.4-6.8-4.1-10.2s-9.3,5.8-22.5,2c-4.9-1.4-12.8-4.6-17.7-1.5c-6.4,4.1-2.3,10.2,0.3,15.3
			c0.2,0.4,0.4,0.8,0.9,0.9s0.9-0.4,0.6-0.8c4.6,5.4,11.3,9.5,17.5,12.9c8,4.4,17.9,7.4,26.7,3.4C370.6,109.1,356,97.3,349.2,96.2z"
			/>
		<path class="st27" d="M323.4,104.2c-0.3,0-0.6-0.3-0.6-0.6c0-0.2,0.1-0.4,0.3-0.5c7.4-4.8,13.4-11.6,17.2-19.6
			c0.1-0.3,0.5-0.5,0.8-0.4s0.5,0.5,0.4,0.8V84c-3.9,8.2-10,15.1-17.6,20.1C323.6,104.1,323.5,104.2,323.4,104.2z"/>
		<path class="st27" d="M332.3,104c-0.3,0-0.5-0.2-0.6-0.5s0.2-0.6,0.5-0.7l0,0c5-0.7,9.8-2.3,14.2-4.7c4.4-2.4,7.8-6.2,9.7-10.8
			c0.1-0.3,0.4-0.5,0.7-0.4s0.5,0.4,0.4,0.7v0.1c-2,4.9-5.6,9-10.2,11.5C342.5,101.7,337.5,103.3,332.3,104L332.3,104z"/>
		<path class="st30" d="M331.7,126.6c-0.2,1,0.4,2,1.5,2.2c1,0.2,2-0.4,2.2-1.5c0.2-1-0.4-2-1.4-2.2
			C333,124.9,332,125.6,331.7,126.6L331.7,126.6z"/>
		<path class="st30" d="M311.9,124.1c-0.2,1,0.4,2,1.5,2.2c1,0.2,2-0.4,2.2-1.5c0.2-1-0.4-2-1.4-2.2S312.1,123.1,311.9,124.1
			L311.9,124.1z"/>
		<path class="st30" d="M337.2,123.5l-9.3-1c0,0,0.7-1.9,3.6-2.2c0.6-0.1,1.1-0.1,1.7,0c1.3,0.1,2.5,0.5,3.5,1.2
			c0.2,0.2,0.5,0.4,0.7,0.6L337.2,123.5z"/>
		<path class="st30" d="M308.4,120l10.5,1.2c0,0-0.9-2.9-5.2-3.3S308.4,120,308.4,120z"/>
		<path class="st31" d="M325.9,123l-1.9,15.6C324,138.6,335.5,137.2,325.9,123z"/>
		<path class="st31" d="M334.8,137.3l-0.6,3.5l-0.4-0.1c-2.4-0.4-4.2-1.5-4-2.5s2.2-1.4,4.6-1L334.8,137.3z"/>
		<path class="st31" d="M309.4,135.2c-2.4-0.4-4.2-1.5-4-2.5s2.2-1.4,4.6-1s4.2,1.5,4.1,2.5S311.8,135.6,309.4,135.2z"/>
		<path class="st31" d="M318.3,151.4c-1.2-0.2-2.1-0.7-2-1.2s1.1-0.7,2.3-0.5s2.1,0.7,2,1.2S319.5,151.6,318.3,151.4z"/>
		<path class="st32" d="M321,146.8c-1.1,0.2-2.3,0.1-3.4-0.2c-1.2-0.3-2.3-0.9-3.2-1.7c-1.3-1.3-1.9-3.1-1.7-4.9
			c0-0.6,0.6-1.1,1.2-1.1c0.1,0,0.1,0,0.2,0h0.2l10.1,2.6l0.2,0.1c0.6,0.2,1,0.8,0.8,1.4c0,0.1-0.1,0.2-0.1,0.2
			C324.5,145,322.9,146.3,321,146.8z"/>
		<path class="st33" d="M321.4,142.9l-5-1.1c-1.3-0.3-2.2-1.5-2.1-2.9l10.1,2.6C323.8,142.6,322.6,143.2,321.4,142.9z"/>
		<path class="st34" d="M321,146.8c-1.1,0.2-2.3,0.1-3.4-0.2c-1.2-0.3-2.3-0.9-3.2-1.7c1.1-0.8,2.4-1,3.7-0.7
			C319.4,144.5,320.5,145.5,321,146.8z"/>
		<path class="st33" d="M171.9,279.8l25.8-61.8c0,0,6.3-17.2,16.1-19.9s14.3-4.8,22-4.8s30.8-7.7,30.8-7.7l5.6-7.6l16.8,25.3
			l28.8-14.6l4.3,7.5v1.4c0,0,9.7,7.3,15,9.4s24.7,10.5,27.8,29s11.3,64,11.3,64l10.7,69c0,0-5.4-0.2-8-3.4s-17.7-17.1-28.1-17.1
			s-22.9,4.1-23.8,6.6s-6.8,24-11.8,28.5s-54.9,14-54.9,14h-41l-12.6-1.9c0,0-1.4-62.8-5-67.7S171.9,279.8,171.9,279.8z"/>
		<path class="st35" d="M218.8,455c0,0,1.3-1.4,1.6,0s0.4,5.9-0.8,4.7S215.3,454.8,218.8,455z"/>
		<path class="st36" d="M200.7,245.1l2.6,78.8c0,0-7.6-20.1-12.8-21.1C190.5,302.8,201.5,266.5,200.7,245.1z"/>
		<path class="st36" d="M273,214.6l4.1-13.2c0,0,8.2,6,11.5,1.2L272.2,178l-5.6,7.6l-1.2,0.4c-0.1,1.7,0,3.4,0.1,5.1
			C266,194.3,273,214.6,273,214.6z"/>
		<path class="st36" d="M322.1,197.6v-1.4l-4.3-7.5l-27.1,13.8c0.4,2.5,1.3,5.3,3.4,5.8c4.1,0.9,12.4-3.9,12.4-3.9l-5,13.5
			L322.1,197.6z"/>
		<path class="st36" d="M360.7,263.8c0,0-8.6,73.6-5.7,80c0,0-26.4,4.8-34.2,15.4C320.8,359.2,350.1,277.4,360.7,263.8z"/>
		<ellipse class="st33" cx="164.6" cy="328.1" rx="38.8" ry="38.6"/>
		<path class="st28" d="M189.3,311.5l-12.7-55.9l-15.4-68.4l-0.2-1.8l-19.7,4.6l-2.8,112.6c0,0-2.1,26.4,0,34.4s20.2,32.9,43,17.5
			C199.1,338.2,189.3,311.5,189.3,311.5z"/>
		<path class="st29" d="M189.3,311.5l-7.2-31.8c2.8,27.6,3.7,63.4-9.7,67.1c-16.6,4.7-26.4-0.4-33.6-8.7c3.4,9,20.9,31,42.6,16.2
			C199.1,338.2,189.3,311.5,189.3,311.5z"/>
		<rect x="219.7" y="397.2" class="st37" width="125.3" height="72.6"/>
		<polygon class="st38" points="317.6,469.9 326.1,469.8 330.4,430.2 284.2,469.9 		"/>
		<path class="st39" d="M159.8,467.5l7.9,32.4h75.2c0,0-5.2-46.4-11.7-76.6s-26-47.2-55.6-37.5S150,430,150,430L159.8,467.5z"/>
		<path class="st39" d="M372.7,499.9c12.6-23.6,23.1-47.9,24.5-51.6c3.8-10,14.8-46.3-20.8-54.1s-47.7,30.1-47.7,30.1l-33.5,75.6
			H372.7z"/>
		<path class="st40" d="M328.9,423.9c12.6,1.6,38.3,0.9,55.1-27.5c-2.4-1-4.9-1.8-7.5-2.3C343,386.8,330.2,420.1,328.9,423.9z"/>
		<path class="st41" d="M261.1,249.4L261.1,249.4l-41.5-0.4c-0.6,0-1.1-0.5-1.1-1.1s0.5-1.1,1.1-1.1l0,0l41.5,0.4
			c0.6-0.1,1.1,0.4,1.2,1s-0.4,1.1-1,1.2C261.2,249.4,261.1,249.4,261.1,249.4L261.1,249.4z"/>
		<path class="st41" d="M267.5,393.4c-0.6,0-1.1-0.5-1.1-1.1l-0.7-60.9c0-0.1,0-0.1,0-0.2L288.1,206c0.1-0.6,0.7-1,1.2-0.9
			c0.6,0.1,1,0.7,0.9,1.2l-22.3,125.1l0.7,60.8C268.6,392.9,268.1,393.4,267.5,393.4L267.5,393.4L267.5,393.4z"/>
		<path class="st41" d="M293.6,239.6c-2.4,0-4.4-2-4.4-4.4s2-4.4,4.4-4.4s4.4,2,4.4,4.4S296.1,239.6,293.6,239.6z M293.6,232.2
			c-1.7,0-3,1.3-3,3s1.3,3,3,3s3-1.3,3-3S295.3,232.2,293.6,232.2L293.6,232.2z"/>
		<path class="st41" d="M288.9,274c-2.4,0-4.4-2-4.4-4.4s2-4.4,4.4-4.4s4.4,2,4.4,4.4S291.3,274,288.9,274z M288.9,266.6
			c-1.7,0-3,1.3-3,3s1.3,3,3,3s3-1.3,3-3C291.9,268,290.5,266.6,288.9,266.6L288.9,266.6L288.9,266.6z"/>
		<path class="st41" d="M283,310.2c-2.4,0-4.4-2-4.4-4.4s2-4.4,4.4-4.4s4.4,2,4.4,4.4S285.4,310.2,283,310.2z M283,302.8
			c-1.7,0-3,1.3-3,3s1.3,3,3,3s3-1.3,3-3S284.7,302.8,283,302.8z"/>
		<path class="st33" d="M386.9,374.7c0,18.8-14.8,34.1-33,34.1s-33-15.3-33-34.1s14.8-34.1,33-34.1S386.9,355.8,386.9,374.7z"/>
		<path class="st28" d="M242.7,472.3c0,0,4.2-3.8,2.8-5.9s-14.9-5.9-15.4-7.9s-0.1-7.2,0-7.5s14.2-19.2,15.7-22.7
			c1.2-3.3,2.2-6.6,3-10l81.5-13.9l22-4.4c0,0,17.2-2.7,22.5-13.6s-3-24.5-4.1-25.9s-9.1-9.7-22.7-6.8S301.4,373,301.4,373
			l-52.5,24.7c0,0-6.6,1.8-9.1,5S202,451.5,202,451.5s-3.4,3.3-0.8,7.2s10.8,12.7,10.8,12.7s3.6,0.7,3.1-2.9l7,5.7
			c0,0,1.8,1.8,3.5-1s-2.1-6.8-1.2-6.9S240.2,472.5,242.7,472.3z"/>
		<path class="st42" d="M264.9,417.7c-0.3,0-0.5-0.1-0.6-0.4l-11.4-21.5c-0.2-0.3-0.1-0.8,0.2-1l0,0c0.3-0.2,0.8-0.1,1,0.3l0,0
			l11.4,21.5c0.2,0.3,0.1,0.8-0.2,1c0,0,0,0-0.1,0C265.2,417.7,265,417.7,264.9,417.7z"/>
		<path class="st42" d="M270.9,415.3c-0.3,0-0.5-0.1-0.6-0.4l-11.4-21.5c-0.2-0.3-0.1-0.8,0.2-1c0,0,0,0,0.1,0
			c0.3-0.2,0.8-0.1,1,0.3l0,0l11.4,21.5c0.2,0.3,0.1,0.8-0.2,1c0,0,0,0-0.1,0C271.2,415.3,271,415.3,270.9,415.3z"/>
		<path class="st42" d="M247.8,398.6c-1.6,0-2.9-1.3-2.9-2.9c0-1.2,0.7-2.2,1.7-2.7l15-6.5c1.5-0.6,3.2,0,3.8,1.5s0,3.2-1.5,3.8
			l-15,6.5C248.5,398.5,248.1,398.6,247.8,398.6z M262.8,387.7c-0.2,0-0.4,0-0.6,0.1l-15,6.5c-0.7,0.3-1.1,1.2-0.8,1.9l0,0
			c0.3,0.7,1.2,1.1,1.9,0.8l15-6.5c0.7-0.3,1.1-1.2,0.8-1.9C263.9,388,263.3,387.7,262.8,387.7L262.8,387.7z"/>
		<path class="st29" d="M247.2,418.9c-1.4,4.5-14.5,20.8-14.7,21.5c-0.1,0.4,1.4,2.2,2.7,3.6c4.2-5.9,9.7-13.6,10.6-15.7
			c0.9-2.3,1.7-4.6,2.3-7C247.8,420.5,247.5,419.7,247.2,418.9z"/>
		<path class="st29" d="M375.8,383.8l-95.7,25.3l2.9,3.4l47.2-8l22-4.4c0,0,17.2-2.7,22.5-13.6C375.2,385.6,375.6,384.7,375.8,383.8
			z"/>
		<path class="st43" d="M149.4,135.2c-1.2-0.9-2.2-2-3.2-3.1l-13.2-29c1.4-0.4,0.8-2.2,0.8-2.2l-0.9-2.8l-5.9,1.8l-5.9,1.8l0.9,2.8
			v0.1c0.1,0.5,0.5,1,1,1.3h0.2c0.1,0,0.1,0,0.2,0s0.3,0,0.4-0.1l5.4,31.4c0,0.4-0.1,0.7-0.1,1.1c-0.2,1.1-0.4,2.2-0.7,3.3
			c-0.8,2.9-1,4.4,4,20.6l0,0c5,16.2,9.9,32.1,9.9,32.1s1.5,3.6,13.8-0.1s11.5-7.7,11.5-7.7l-9.9-32.1
			C152.8,138.3,151.8,137.2,149.4,135.2z"/>
		<path class="st44" d="M144.6,132.9c-1.4-1.2-12.9-30-12.9-30c1.6-0.5,1.5-1.6,1.5-1.6l-0.9-3l-5.3,1.6l-5.3,1.6l0.9,3
			c0,0,0.5,1,2.2,0.5c0,0,6.7,30.3,6.2,32.1s-2.1,7.6-1.1,10.8l13.1,42.7c0,0.1,0,0.1,0.1,0.1v0.1l0,0c0.1,0.2,0.3,0.4,0.5,0.5
			l0.1,0.1c1,0.7,3.5,1.4,8.9,0.1l0.4-0.1c0.6-0.1,1.2-0.3,1.9-0.5c10.8-3.3,9.7-7,9.7-7l-13.1-42.6
			C150.6,137.9,146,134,144.6,132.9z"/>
		<path class="st45" d="M122.7,104.5c0,0,0.5,1,2.2,0.5c0,0,6.7,30.3,6.2,32.1s-2.1,7.6-1.1,10.8l13.1,42.7c0,0,1.2,3.7,12,0.3
			c-6.5,2-7.4-1.4-7.4-1.4l-13.3-43.1c-1.6-5.2,0.2-10.7,0.2-10.7l-8.2-30.3l1-1.1l-2.2,0.7l-0.6-2l2.2-2.9l-5,1.5L122.7,104.5z"/>
		<polygon class="st46" points="124.9,105 131.7,102.9 132.3,104.3 125.2,106.5 		"/>
		<path class="st46" d="M144.6,132.9c-0.1-0.1-0.2-0.2-0.2-0.3l-13.3,4.1c0,0.1,0,0.2,0,0.4c-0.5,1.7-2.1,7.6-1.1,10.8l13.1,42.6
			c0,0,1.2,3.7,12,0.3l-11.2-36.2c-3.3-10.8,7.4-4,10.1-5.7c-1.2-4-2.1-6.9-2.4-7.7C150.6,137.9,146,134,144.6,132.9z"/>
		<path class="st47" d="M151,159.1c0.1,0.3-0.1,0.6-0.4,0.7c-0.3,0.1-0.6-0.1-0.7-0.4c-0.1-0.3,0.1-0.6,0.4-0.7
			C150.6,158.6,150.9,158.8,151,159.1L151,159.1z"/>
		<path class="st47" d="M137.4,151.1c0.1,0.2-0.1,0.5-0.3,0.6s-0.5-0.1-0.6-0.3s0.1-0.5,0.3-0.6l0,0
			C137.1,150.7,137.4,150.9,137.4,151.1L137.4,151.1z"/>
		<path class="st47" d="M145.8,142.2c0,0.2,0,0.3-0.2,0.4c-0.2,0-0.3,0-0.4-0.2c0-0.2,0.1-0.3,0.2-0.3
			C145.6,142,145.8,142.1,145.8,142.2z"/>
		<path class="st47" d="M142.5,165c0.1,0.2-0.1,0.4-0.2,0.4c-0.2,0.1-0.4-0.1-0.4-0.2c-0.1-0.2,0-0.4,0.2-0.4
			C142.2,164.7,142.4,164.8,142.5,165L142.5,165z"/>
		<path class="st47" d="M154.2,167c0.1,0.3-0.1,0.5-0.3,0.6c-0.3,0.1-0.5,0-0.6-0.3l0,0c-0.1-0.3,0.1-0.5,0.3-0.6
			C153.8,166.6,154.1,166.7,154.2,167L154.2,167z"/>
		<path class="st47" d="M156.3,177.2c0.1,0.4-0.1,0.9-0.5,1s-0.9-0.1-1-0.5s0.1-0.9,0.5-1l0,0C155.7,176.5,156.1,176.8,156.3,177.2z
			"/>
		<path class="st47" d="M155.9,174c0,0.1,0,0.2-0.1,0.2l0,0c-0.1,0-0.2,0-0.2-0.1s0-0.2,0.1-0.2l0,0
			C155.8,173.8,155.9,173.9,155.9,174L155.9,174z"/>
		<path class="st47" d="M146.6,182.4c0,0.1,0,0.2-0.2,0.3c-0.1,0-0.3-0.1-0.3-0.2c0-0.1,0-0.2,0.1-0.2
			C146.4,182.2,146.6,182.3,146.6,182.4L146.6,182.4z"/>
		<path class="st47" d="M147.9,172.9c0.1,0.2-0.1,0.4-0.3,0.5s-0.4-0.1-0.5-0.3l0,0c-0.1-0.2,0.1-0.4,0.3-0.5
			C147.6,172.6,147.8,172.7,147.9,172.9z"/>
		<path class="st47" d="M157.1,185.4c0.1,0.3-0.1,0.7-0.4,0.8l0,0c-0.3,0.1-0.7-0.1-0.8-0.4c-0.1-0.3,0.1-0.7,0.5-0.8
			C156.6,185,156.9,185.1,157.1,185.4z"/>
		<path class="st47" d="M138.2,142.7c0,0.1,0,0.2-0.2,0.3c-0.1,0-0.2,0-0.3-0.2c0-0.1,0-0.2,0.1-0.3
			C138,142.5,138.1,142.6,138.2,142.7L138.2,142.7z"/>
		<path class="st47" d="M144.4,145.3c0.1,0.3-0.1,0.5-0.3,0.6c-0.3,0.1-0.5-0.1-0.6-0.3c-0.1-0.3,0.1-0.5,0.3-0.6l0,0
			C144,144.9,144.3,145,144.4,145.3L144.4,145.3z"/>
		<path class="st47" d="M140.9,130c0.1,0.3-0.1,0.6-0.4,0.7l0,0c-0.3,0.1-0.6-0.1-0.7-0.4l0,0c-0.1-0.3,0.1-0.6,0.4-0.7
			C140.5,129.5,140.8,129.7,140.9,130z"/>
		<path class="st47" d="M134.2,131.4c0.1,0.2-0.1,0.4-0.3,0.5s-0.4-0.1-0.5-0.3l0,0c-0.1-0.2,0.1-0.4,0.3-0.5
			C133.9,131,134.1,131.1,134.2,131.4z"/>
		<path class="st47" d="M129.5,112c0,0.1,0,0.2-0.1,0.2s-0.2,0-0.2-0.1s0-0.2,0.1-0.2l0,0C129.4,111.8,129.5,111.9,129.5,112
			L129.5,112z"/>
		<path class="st47" d="M133,111.5c0.1,0.2-0.1,0.4-0.2,0.5l0,0c-0.2,0-0.4-0.1-0.4-0.3c0-0.2,0.1-0.3,0.2-0.4
			S132.9,111.3,133,111.5L133,111.5z"/>
		<path class="st47" d="M129.8,106.9c0,0.1,0,0.3-0.2,0.3l0,0c-0.1,0-0.3,0-0.3-0.2l0,0c0-0.1,0-0.3,0.2-0.3
			C129.6,106.6,129.8,106.7,129.8,106.9z"/>
		<path class="st47" d="M149.9,146.2c0.1,0.2,0,0.4-0.2,0.4l0,0c-0.2,0.1-0.4,0-0.4-0.2l0,0c-0.1-0.2,0.1-0.4,0.2-0.4
			C149.7,145.9,149.9,146,149.9,146.2z"/>
		<path class="st47" d="M149.3,153.1c0.1,0.2,0,0.4-0.2,0.5s-0.4-0.1-0.5-0.3s0-0.4,0.2-0.5S149.2,152.8,149.3,153.1
			C149.3,153,149.3,153,149.3,153.1L149.3,153.1z"/>
		<path class="st47" d="M146.9,186.8c0.1,0.4-0.1,0.7-0.4,0.8l0,0c-0.4,0.1-0.7-0.2-0.8-0.5s0.1-0.6,0.4-0.7
			C146.4,186.3,146.8,186.5,146.9,186.8z"/>
		<path class="st47" d="M160.4,185c0.1,0.3-0.1,0.6-0.4,0.7c-0.3,0.1-0.6-0.1-0.7-0.4c0-0.3,0.2-0.6,0.5-0.6S160.3,184.8,160.4,185
			L160.4,185z"/>
		<path class="st47" d="M155,181.4c0.1,0.3-0.1,0.6-0.4,0.7s-0.6-0.1-0.7-0.4c-0.1-0.3,0.1-0.6,0.4-0.7
			C154.6,180.9,154.9,181,155,181.4z"/>
		<polygon class="st3" points="135.1,126 142,122.7 138.2,114.3 132.2,116.7 126,118.1 127.5,127.2 135.1,126 		"/>
		<polygon class="st3" points="141.6,121.9 141.3,121.2 134.6,124.3 127.2,125.4 127.3,126.1 134.8,125 		"/>
		<path class="st3" d="M132.6,117.9l6.1-2.5l-0.3-0.7l-6,2.4c-1.9,0.4-4.6,1.1-6.3,1.4l0.1,0.7C127.4,119.2,129.4,118.7,132.6,117.9
			L132.6,117.9z"/>
		<path class="st3" d="M133.1,119.4l6.3-2.5l-0.3-0.7l-6.2,2.5c-2,0.5-4.8,1.1-6.5,1.5l0.1,0.7C127.7,120.6,129.7,120.2,133.1,119.4
			L133.1,119.4z"/>
		<path class="st3" d="M158.4,176.6l-13.4,4.1c-0.7,0.2-1.4,0.1-2-0.2s-1.1-0.9-1.3-1.5l-8-26.1c-0.2-0.7-0.1-1.4,0.2-2
			s0.9-1.1,1.6-1.3l13.4-4.1c1.4-0.4,2.8,0.3,3.3,1.7l8,26.1c0.2,0.6,0.1,1.3-0.2,1.9C159.7,175.8,159.1,176.3,158.4,176.6z"/>
		<path class="st3" d="M150.4,146.6c-0.6-0.4-1.4-0.4-2.1-0.2l-12,3.7c-0.7,0.2-1.3,0.7-1.6,1.4s-0.4,1.4-0.2,2.1l7.6,24.6
			c0.2,0.7,0.7,1.3,1.3,1.7s1.4,0.4,2.1,0.2l12-3.7c0.7-0.2,1.3-0.7,1.6-1.4c0.3-0.6,0.3-1.3,0.1-2l-7.6-24.6
			C151.5,147.5,151.1,146.9,150.4,146.6z M158.7,173c0.2,0.5,0.1,1.1-0.1,1.6s-0.7,0.9-1.2,1.1l-12,3.7c-0.5,0.1-1.1,0.1-1.5-0.2
			c-0.5-0.3-0.8-0.7-1-1.3l-7.6-24.6c-0.2-0.5-0.1-1.1,0.1-1.6s0.7-0.8,1.2-1l12-3.7c0.5-0.2,1.1-0.1,1.6,0.2s0.8,0.7,1,1.3
			L158.7,173z"/>
		<path class="st48" d="M142.3,133.3l-2.6-7.5l3.7,7.2c0,0,5.7,5,6.5,6.2c0.5,0.7,0.4,1.7-0.3,2.3s-1.7,0.4-2.3-0.3
			c0,0,0-0.1-0.1-0.1C146.1,139.1,143.5,134.6,142.3,133.3z"/>
		<path class="st48" d="M141.8,133.8c0,0-1.9,1.4-1,3.1C141.7,138.6,144.3,136.9,141.8,133.8z"/>
		<path class="st43" d="M132.9,98.1c0,0.1-0.1,0.2-0.3,0.4l0,0c-1.7,0.9-3.5,1.6-5.3,2.1c-1.8,0.6-3.6,1-5.5,1.3l0,0
			c-0.3,0-0.5,0-0.5-0.1c-0.1-0.4,2.4-1.5,5.7-2.4C130.3,98.5,132.8,97.7,132.9,98.1z"/>
		<path class="st45" d="M132.5,98.4c-1.7,0.9-3.5,1.6-5.3,2.1c-1.8,0.6-3.6,1-5.5,1.3c1.7-0.9,3.5-1.6,5.3-2.1
			C128.8,99.1,130.7,98.7,132.5,98.4z"/>
		<path class="st28" d="M141.3,191.1c0,0-3.6-8.5-2.4-8.7c1.4-0.2,11.1-1.9,11.3-4.5s-1-3.5-1-3.5s-9.2,1.1-10.1-0.3
			c-0.9-1.4-2.3-3.7,0.5-3.1s12.8,1.4,12.4-2.3c-0.4-3.7-17.7-5.7-17.7-5.7s-2-4.1,0.7-3.5s14.9,4,15.8,0.7c0.9-3.3,1.1-4.7-21-9.3
			c0,0-2.9-3.4,3.6-1.6c0,0,3.8,1,4.4-1.7c0.6-2.7-1.2-4.1-3.2-5.2s-8.5-4.3-9.5-3.9s-3.8,4-2.5,6.4s2,3.8,1.6,4.6s-3.8,4.6-3.1,9
			s1.3,9.2,1.7,11.9s0.2,6.7,4.9,11.1s13.4,11.9,13.6,11.3C141.4,192.3,141.4,191.7,141.3,191.1z"/>
	</g>
	<g>
		<circle class="st49" cx="500" cy="260" r="123.7"/>
		<g>
			<path class="st50" d="M615.9,260c0,64-51.9,115.9-115.9,115.9c-153.8-6.1-153.7-225.8,0-231.9C564,144.1,615.9,196,615.9,260
				L615.9,260z"/>
		</g>
		<g>
			<path class="st51" d="M522.2,223.2c0.5,0.8,1,1.4,1.7,2.5c0.7-3.1,1.4-5.9,2.1-9c0.6,0.7,1.1,1.3,1.6,1.9c0.1,0,0.3-0.1,0.4-0.1
				c0.3-2.9,0.7-5.8,1-8.9c0.7,0.5,1.3,1,2.1,1.7c0-3.1,0-6.1,0-9.2c0.8,0.5,1.5,1,2.6,1.7c-0.5-3.3-0.9-6.3-1.4-9.5
				c2.8,0.9,4.1,3.3,5.3,5.8c0.9-2,1.8-3.9,2.5-5.8c0.7-1.8,1.4-3.7,2.2-5.5c1.7,4.4,1.2,8.7-0.4,13c1.7-0.9,3.3-1.7,4.8-2.5
				c0.1,0.2,0.2,0.3,0.3,0.5c-1.6,3.2-3.2,6.3-4.8,9.6c1-0.1,1.8-0.1,3-0.2c-2.1,3.2-4.1,6-6.2,9c0.9,0,1.7,0,3.1,0
				c-2.6,2.9-4.9,5.6-7.4,8.3c1,0.1,1.8,0.1,2.6,0.2c0.1,0.1,0.1,0.3,0.2,0.4c-2.6,2.3-5.2,4.6-7.9,6.9c1,0.2,1.8,0.4,3.1,0.7
				c-3.2,2.2-6.1,4.2-9,6.2c0.9,0.4,1.7,0.7,2.9,1.1c-2.6,1.3-4.8,2.5-6.9,3.6c-0.8,0.4-1.6,0.7-2.4,1.1c-1.7,0.8-3.3,0.8-4.9-0.1
				c-0.4-0.2-1-0.3-1.4-0.1c-2.7,1.4-5.3,2.8-8,4.2c-0.3,0.2-0.6,0.4-1.3,0.8c8.9,2.8,17.6,3.3,26.6,2.1c0.1,0.8,0.2,1.5,0.4,2.3
				c-5.1,0.7-10.1,0.8-15.1,0.4c-4.8-0.4-9.6-1.4-14.1-3.3c-0.6-0.2-1.4-0.2-2,0c-8.8,3-17.8,3.7-27,2.6c-0.4,0-0.7-0.2-1.2-0.3
				c0.1-0.7,0.2-1.4,0.3-2.2c8.6,1.2,17,0.7,25.7-1.7c-2.6-1.5-4.8-2.8-7-4c-0.2-0.1-0.7,0.2-1,0.3c-1.7,0.8-3.5,1-5.2,0.1
				c-2.8-1.4-5.6-2.9-8.9-4.6c1.3-0.4,2.1-0.7,3.1-1c-3-2-5.9-4-9.2-6.1c1.1-0.4,1.8-0.6,2.8-1c-2.5-2.3-5.1-4.5-8-7.1
				c1.1-0.2,1.9-0.4,2.9-0.5c-2.3-2.6-4.6-5.2-7.1-8.1c1.2-0.1,2-0.1,3-0.2c-2-2.9-3.9-5.8-6.1-9.1c1.2,0.1,2.1,0.2,3,0.3
				c-1.7-3.3-3.3-6.5-4.9-9.8c0.1-0.1,0.1-0.3,0.2-0.4c1.6,0.9,3.3,1.7,5,2.6c-1.6-4.4-2.1-8.9-0.3-13.6c1.6,4.1,3,7.9,4.6,12
				c1.3-2.6,2.4-5,5.3-5.9c-0.4,3.1-0.9,6.1-1.3,9.4c1.1-0.6,1.7-1,2.5-1.5c0,3.2,0,6.1,0,9.3c0.8-0.7,1.5-1.3,2.2-1.9
				c0.3,3.1,0.7,6.1,1,9c0.1,0,0.3,0.1,0.4,0.1c0.5-0.7,0.9-1.4,1.5-2.4c0.8,3.4,1.5,6.2,2.2,9.3c0.7-1,1.2-1.6,1.8-2.3
				c1.1,2.9,2.1,5.6,3.2,8.5c0.6-1.1,1-1.8,1.5-2.5c1.5,2.9,3.1,5.6,4.4,8.4c0.4,0.9,0.6,2.2,0.4,3.2c-0.2,1.1,0.1,1.7,0.9,2.2
				c3.2,1.9,6.3,3.7,9.5,5.5c0.3,0.2,0.9,0.3,1.2,0.1c4.8-1.8,9.4-4,13.4-7.3c0.3-0.3,0.3-0.9,0.4-1.4c0.2-1.2,0-2.6,0.4-3.7
				c1.2-2.7,2.8-5.3,4.3-8.2c0.4,0.7,0.8,1.4,1.5,2.4C520.1,228.9,521.1,226.2,522.2,223.2z M470.1,226.9c1.6,2.1,3.3,4.3,4.9,6.4
				c-0.1,0.1-0.2,0.2-0.3,0.3c-3-2.5-6.1-4.6-10.1-5c1.6,1.7,3.3,3.2,5,4.7c1.8,1.6,3.7,2.4,6,0.8c0.9,1,1.7,1.9,2.6,2.9
				c0.8,0.9,1.6,1.8,2.5,2.7c-6.5-3.2-8.4-3.8-10.9-3.4c2.1,1.5,4.1,3,6.2,4.4c1.5,1,3.2,1.3,5,0.2c0.2-0.1,0.8-0.1,1,0.1
				c1.8,1.4,3.6,2.8,5.4,4.3c-3.7-1.2-7.2-3-11.3-2c2.6,1.4,5.1,2.9,7.8,3.9c0.9,0.3,2.3-0.1,3.2-0.6c1-0.7,1.5-0.4,2.4,0
				c3.3,1.8,6.5,3.9,10,5.2c8.6,3.3,17.6,4.2,26.8,3.2c0.5-0.1,1-0.2,2-0.4c-0.6-0.3-0.7-0.3-0.8-0.3c-1.4,0.1-2.7,0.2-4.1,0.3
				c-13.5,0.9-25.7-2.6-36.5-10.7c-0.4-0.3-0.4-1-0.5-1.6c-0.1-1.1,0.3-2.3-0.1-3.1c-1-2.3-2.4-4.4-3.8-6.9
				c-0.9,3.5,0.3,6.4,1.9,9.6c-1.8-1.6-3.3-3-4.7-4.3c2.7-4.5-1.5-7.4-2-11.1c-1.4,3.2-0.6,6.2,0.6,9.3c-1.3-1.3-2.5-2.7-3.5-4.2
				c-0.2-0.3,0-0.9,0.1-1.4c0.2-1,0.8-2.1,0.6-3.1c-0.4-2.4-1.2-4.8-2-7.6c-1.6,3.3-1.4,6.3-0.7,9.5c-1.1-1.7-2.2-3.4-3.2-5
				c3.6-3.7,0.2-7.6,0.5-11.3c-0.8,1.4-1.4,2.9-1.7,4.4c-0.2,1.6,0,3.2,0,5c-1-2-1.9-3.8-2.6-5.1c0.9-1.6,1.9-2.7,2-3.9
				c0.3-2.6,0.1-5.2,0.1-7.8c-2.9,2.8-3,6.2-2.8,9.8c-1.5-4.2-4.3-7.9-3.6-12.7c0.1-0.9-0.2-1.9-0.5-2.7c-0.9-2.4-2-4.8-3.1-7.4
				c-0.1,0.4-0.2,0.6-0.2,0.9c-0.3,3.9,0.3,7.5,2.4,10.9c0.7,1.1,1,2.3,1.4,3.5c-0.1,0.1-0.3,0.1-0.4,0.2c-1.7-2.2-3.4-4.4-6.1-5.7
				c1.1,2.5,2.3,4.9,3.5,7.3c0.8,1.4,1.9,2.2,3.6,2.3c0.3,0,0.8,0.2,0.9,0.4c0.9,2,1.8,4,2.7,6.1c-2.5-2.8-4.9-5.5-8.5-6.8
				c1.3,2.2,2.6,4.2,4,6.3c1.1,1.5,2.5,2.5,4.5,2.1c0.3-0.1,0.9,0.1,1,0.3C467.8,222.5,469,224.7,470.1,226.9
				c-2.8-2.8-5.6-5.6-9.8-6.4c1.9,2.3,3.9,4.5,6.1,6.6c0.6,0.6,1.9,0.6,2.9,0.7C469.5,227.8,469.8,227.2,470.1,226.9z M539.9,219.4
				c-4.1,0.8-7.1,3.3-10,6c1.3-2.2,2.5-4.4,3.8-6.7c1.6,0.5,3.2,0.4,4.3-1c1.8-2.3,3.5-4.7,5.2-7.1c-0.1-0.1-0.2-0.2-0.4-0.3
				c-3.4,1.4-5.8,4.1-8.2,6.8c0.7-1.9,1.4-3.6,2.1-5.4c0.3-0.8,0.8-0.9,1.5-1.1c1-0.3,2.3-0.8,2.9-1.6c1.6-2.5,2.8-5.1,4.2-7.7
				c-0.2-0.2-0.4-0.3-0.6-0.5c-2,2-4,4-6,6.1c0.8-2.5,2.1-4.9,3-7.4c1.1-3,1.1-6.1,0.4-7.7c-0.9,2-1.9,4-2.7,6.1
				c-0.4,1.2-0.9,2.5-0.8,3.7c0.4,4.8-2.2,8.6-3.8,12.7c-0.2-1.8,0-3.6-0.2-5.3s-0.9-3.4-2.6-5c0,2.3,0.1,4.1,0,6
				c-0.1,2.3,0.1,4.3,2.5,5.6c-1,1.9-1.9,3.7-2.8,5.5c0.2-3.3,0.2-6.3-1.9-9.4c-0.3,2.1-0.5,3.8-0.8,5.5c-0.5,2.3-0.6,4.4,1.5,6
				c-1.1,1.7-2.1,3.2-3.1,4.8c0.5-6.2,0.4-7.1-1-8.8c-0.5,1.8-1,3.6-1.5,5.4c-0.7,2-0.8,4,0.9,5.7c-1.4,1.7-2.7,3.3-4,4.8
				c1-3.2,1.9-6.2,0.5-9.6c-0.7,1.8-1.4,3.4-2.1,5c-0.9,2.1-1.8,4.1,0.1,6.2c-1.7,1.6-3.2,3-4.7,4.5c1.5-3.1,2.8-6,1.8-9.6
				c-1.2,2.1-2.5,4-3.4,6.1c-0.5,1.1-0.7,2.5-0.4,3.6c0.3,1.2,0,1.7-0.9,2.2c-2.7,1.6-5.4,3.3-8.2,4.9c-1.2,0.7-2.4,1.3-3.6,1.9
				c4.1-0.8,7.4-3.1,10.9-5.2c1.4,1.9,3.3,1.8,5.1,0.9c2.4-1.1,4.6-2.3,7-3.5c-3.8-0.9-7.2,0.4-10.5,1.9c0-0.1-0.1-0.3-0.2-0.4
				c1.8-1.4,3.5-2.9,4.8-3.9c1.8,0.2,3.3,0.9,4.2,0.4c2.8-1.3,5.3-3.1,7.9-4.7c-0.1-0.1-0.2-0.3-0.3-0.4c-3.8,0-7.1,1.7-10.5,3.4
				c1.6-1.8,3.3-3.6,4.5-5c1.8,0,3.5,0.5,4.4-0.1c2.5-1.6,4.7-3.6,7-5.5c-0.7-0.3-1.2-0.4-1.5-0.2c-3,1.4-5.9,2.9-8.6,4.2
				c1.2-1.7,2.6-3.7,4.1-5.7c2.6,0.9,3.7,0.6,5.6-1.3C536.7,223.1,538.3,221.2,539.9,219.4z M463,208.4c4.1-3,2-7.5,3.6-11.4
				C463.4,199.4,462,204,463,208.4z M533.8,195.9c0.3,2.7,0.5,5.1,0.7,7.5c0.2,1.7,0.8,3.1,2.8,3.7
				C537.8,202.8,537,199.1,533.8,195.9z M495.7,252.3c-4.2,0.7-8.3,1.6-12.5,1.9c-4.2,0.3-8.4,0.1-12.8,0.1
				C476.2,256,492.9,254.6,495.7,252.3z"/>
			<path class="st51" d="M481.4,191.2c-0.4-0.2-0.7-0.2-0.9-0.4v-0.1c3.8-6.7,9.8-9.5,17.5-9.4c-0.3-6.9,1.9-12.6,7.9-16.6
				c0.6,1,1.2,1.9,1.9,3c-5.2,3-7.5,7.6-7.5,13.6c7.7-0.1,13.8,2.5,17.7,9.4c-0.2,0.1-0.4,0.2-0.8,0.5c3.3,4.5,4.7,9.4,3.3,15.2
				c-0.5-0.3-0.8-0.5-1.4-0.8c0,2.4,0.2,4.6-0.1,6.8c-0.2,2.1-0.9,4.2-1.3,6.4c-0.2,0-0.4,0-0.6,0c-0.5-0.6-1.1-1.3-2-2.3
				c0.1,4.4-0.9,7.9-3.8,10.7c-0.5-0.8-0.8-1.5-1.4-2.6c-0.9,3.4-2.1,6.3-5,8.1c-0.4-0.7-0.7-1.4-1.1-2.2c-1.5,2-2.9,3.9-4.5,6.2
				c-1.7-2.1-3.2-3.9-4.8-5.8c-0.3,0.6-0.6,1.1-1,1.8c-2.9-1.7-4-4.6-5.1-8c-0.5,1-0.9,1.6-1.3,2.5c-3.1-2.8-4-6.3-3.9-10.6
				c-0.8,1-1.4,1.6-2,2.4c-2.3-4.2-2-8.6-1.9-13.1c-0.5,0.2-0.8,0.4-1.3,0.6C476.6,200.7,477.8,195.8,481.4,191.2z M509.2,192.6
				c0.2,1.3,0.5,2.4,0.5,3.5c0,2.5,1.6,4.1,3.6,4.8c2.4,0.8,4.7,1.6,6.6,3.9c0.7-4.7-0.4-8.5-2.8-12.1c-1.7-2.6-4.9-3.9-8.1-3.2
				c0.8,1.1,1.5,2.1,2.4,3.4C510.5,192.8,509.9,192.7,509.2,192.6z M478.4,204.1c1.9-1,3.6-1.9,5.4-2.9c1.2-0.7,2.6-1.3,3.3-2.4
				c1.1-1.8,1.7-3.9,2.6-6.2c-1.2,0.1-1.8,0.2-2.6,0.3c0.9-1.3,1.8-2.5,2.7-3.9c-2.1,0.4-4,0.8-5.8,1.1c-0.4,0.1-0.8,0.2-1,0.5
				C479.6,194.5,477.6,198.9,478.4,204.1z M499,198.4c-1.6,1.5-3.4,3.1-5.1,4.8c-0.3,0.2-0.4,0.8-0.3,1.1c0.9,3.5,3,6.2,5.7,8.7
				c2.5-2.5,4.4-5.1,5.4-8.4c0.1-0.5,0-1.3-0.3-1.6C502.5,201.5,500.7,199.9,499,198.4z M509.6,199.9c-0.2,1.3-1.1,2.8-0.2,4.5
				c1,2.1,1.7,4.4,2.8,6.4c1,1.7,2.4,3.1,3.6,4.7c0.4,0.5,0.8,1,1.3,1.7c1.4-3.8,1.2-7.3,1.2-10.9c0-2.2-1.1-3.1-2.9-3.8
				C513.4,201.7,511.5,200.8,509.6,199.9z M488.5,198.5c-1.4,2.5-3.3,3.5-5.6,4.1c-1.9,0.5-3,1.7-2.8,3.8c0.1,1.7-0.1,3.5,0.1,5.3
				s0.6,3.5,0.9,5.2c0.2,0,0.3,0,0.5,0c0.4-0.5,0.7-1,1.1-1.5c1-1.3,1.9-2.7,3-3.9C488.5,207.8,490,203.7,488.5,198.5z M499.2,225.4
				c3-1.5,4.2-4.3,5.3-7.2c0.1-0.3,0-0.8-0.1-1.1c-0.9-1.7-1.8-3.4-2.7-5.1c-0.7,0.6-1.6,2-2.4,2s-1.7-1.3-2.6-2
				c-0.1-0.1-0.2,0,0.1,0c-0.9,1.8-1.8,3.4-2.7,5c-0.2,0.4-0.4,1-0.2,1.3C494.9,221.1,496.3,223.8,499.2,225.4z M501.6,188.5
				c-0.6,2.2-1,4.6-1.8,6.9c-0.4,1.1-0.3,1.9,0.4,2.7c2.1,2.1,4.3,4.1,6.5,6.3c2.1-3.7,2.6-7.2,1.6-10.9c-0.1-0.5-0.5-1.1-0.9-1.4
				C505.5,190.8,503.5,189.6,501.6,188.5z M491.4,204c1.2-0.8,2.6-1.5,3.5-2.6c2.1-2.3,4.8-4.5,2.8-8.4c-0.7-1.4-0.7-3.1-1-4.6
				c-1.8,1.1-3.5,2.1-5.1,3.2c-0.6,0.4-1.3,1.1-1.5,1.9C489,197.2,489.5,200.7,491.4,204z M490.1,203.8c-0.5,1.6-0.9,3-1.5,4.4
				c-0.4,1.1-1.2,2.1-1.5,3.3c-0.5,1.8,2.2,6.9,4,8c1.1-1.5,2.4-2.9,3.2-4.6c0.7-1.4,1.3-3.2,1-4.5c-0.5-2-1.9-3.7-2.9-5.6
				c-0.4,0.4-0.7,0.8-1.2,1.3C490.8,205.3,490.5,204.6,490.1,203.8z M507.2,205.9c-0.5-0.5-1-0.9-1.4-1.3c-0.9,1.7-1.7,3.2-2.4,4.8
				c-0.3,0.7-0.5,1.5-0.4,2.3c0.2,3.2,2.8,5.2,4.2,8c2.2-2.4,3.3-5.1,4-8c0-0.2,0-0.4-0.1-0.6c-1-2.3-2-4.6-3.1-7
				C507.8,204.6,507.6,205.2,507.2,205.9z M489.8,219.9c-1.3,3.9,0.3,9.2,3.6,11.2c0.9-2,1.8-3.9,2.6-5.9c0.1-0.3,0.3-0.8,0.1-1.1
				c-1-1.8-2.1-3.5-3.2-5.3c-0.5,0.7-1,1.4-1.5,2.1C490.8,220.6,490.4,220.3,489.8,219.9z M505.5,218.8c-1,1.8-2,3.4-2.9,5
				c-0.2,0.3-0.3,0.6-0.2,0.9c0.7,2.3,1.3,4.6,3,6.4c3.2-2.8,4.6-7.9,3-11c-0.4,0.3-0.9,0.6-1.4,0.9
				C506.5,220.2,506,219.6,505.5,218.8z M497.1,225c-0.6,1.5-1.2,2.8-1.7,4.1c-0.1,0.3-0.2,0.8,0,1.1c1.1,1.7,2.3,3.3,3.5,4.9
				c3.9-2.7,4.6-5.9,2.4-10c-0.7,0.6-1.4,1.1-2.1,1.6C498.4,226.1,497.9,225.6,497.1,225z M511.2,225.7c3.7-4.1,4-11.1,1-13.2
				c-0.9,2-1.9,3.9-2.8,5.9c-0.1,0.2-0.2,0.6-0.1,0.8C510,221.3,510.5,223.3,511.2,225.7z M486,212.5c-2.9,2.3-2.6,9.4,1.1,13.1
				c0.6-2.3,1.2-4.2,1.8-6.3c0.1-0.3,0-0.7-0.2-0.9C487.8,216.4,486.9,214.5,486,212.5z M515.7,189.3c-2-4.2-9.2-7.7-13.7-6.9
				c1.9,1.8,3.9,3.7,6,5.6c0.1,0.1,0.4,0.2,0.6,0.3C511,188.6,513.4,189,515.7,189.3z M496.5,182.4c-5-0.6-11.7,2.6-14,7.1
				c2.2-0.5,4.2-0.8,6.3-1.3c0.7-0.2,1.5-0.5,2.1-1C492.8,185.6,494.7,184,496.5,182.4z M499.1,182.8c-4.8,1.6-7.8,4.4-9.8,8.7
				C493.9,190,497,187.3,499.1,182.8z M499.5,182.8c1.3,4,6,8.1,9.3,8.3C507,187.1,503.9,184.4,499.5,182.8z M499.2,185
				c-1.8,2.2-1.7,6.3,0.1,9.1C500.9,190.8,500.9,187.1,499.2,185z M499.1,180.3c0.5-5.4,2.5-9.9,7.3-12.9c-0.3-0.5-0.6-0.9-0.9-1.3
				C501.2,168.6,498.2,175.2,499.1,180.3z"/>
		</g>
		<g>
			<g class="st52">
				<path class="st53" d="M427.1,306.4c-1.6,0-3.7-0.3-6.1-0.9c-1.6,0.4-3,0.6-4.4,0.6s-2.1,0-2.3-0.1c0.2-1.8,1.1-6.2,2.7-13.3
					c1.6-7,2.4-11.5,2.4-13.3c0-0.4-0.2-0.8-0.6-1.4c-0.4-0.6-0.8-1.1-1.2-1.5l-0.6-0.6l0.1-0.7c3.9-0.8,8.1-1.2,12.6-1.2
					c2.5,0,4.5,0.6,6.1,1.8c1.6,1.2,2.4,2.8,2.4,5c0,4.1-2.5,6.9-7.5,8.5c2,0.2,3.7,1,5,2.3c1.4,1.3,2,3.1,2,5.4
					c0,2.8-1,5.1-3.1,6.9C432.8,305.5,430.2,306.4,427.1,306.4z M426.3,290.4c-0.8,0-1.6,0.1-2.2,0.2c-1.3,5.7-2.1,9.6-2.5,11.9
					c0.7,0.5,1.9,0.8,3.5,0.8c1.6,0,3-0.6,4.1-1.9c1.1-1.3,1.7-3.1,1.7-5.5C430.9,292.3,429.4,290.4,426.3,290.4z M428.8,276.8
					c-1.1,0-1.8,0.1-2,0.3c-0.4,2.7-1.1,6.2-2.1,10.6c1.2,0,2-0.1,2.5-0.2c0.5-0.1,0.9-0.3,1.3-0.6c0.4-0.2,0.8-0.6,1.3-1.1
					c1-1.1,1.6-2.9,1.6-5.3C431.4,278,430.5,276.8,428.8,276.8z"/>
				<path class="st53" d="M440,298.1c0-3.7,1.1-6.7,3.4-8.9c2.3-2.2,4.8-3.3,7.7-3.3c1.8,0,3.2,0.4,4.4,1.3c1.1,0.9,1.7,2,1.7,3.5
					s-0.4,2.7-1.1,3.7c-0.7,1-1.6,1.8-2.7,2.3c-2.1,1-4.1,1.7-5.8,2l-1.1,0.1c0.2,2.8,1.4,4.2,3.5,4.2c0.7,0,1.5-0.2,2.3-0.5
					c0.8-0.4,1.4-0.7,1.9-1.1l0.7-0.5l1.1,1.4c-0.2,0.3-0.7,0.8-1.4,1.3c-0.7,0.5-1.4,1-2,1.3c-1.7,1-3.6,1.4-5.7,1.4
					c-2.1,0-3.7-0.7-4.9-2.2C440.6,302.7,440,300.7,440,298.1z M450,294.7c0.9-1,1.3-2.3,1.3-3.9c0-1.6-0.5-2.4-1.4-2.4
					c-1.1,0-2,1-2.6,2.9c-0.6,1.9-0.9,3.7-0.9,5.4C447.9,296.3,449.1,295.7,450,294.7z"/>
				<path class="st53" d="M461.5,306.4c-1,0-1.9-0.3-2.6-1s-1-1.7-1-2.9c0-1.2,0.7-5.2,2.2-11.9c1.5-6.7,2.2-11.5,2.2-14.5l-0.3-2
					c2.3-0.8,4.5-1.2,6.5-1.2c0.3,0.4,0.4,1.2,0.4,2.2c0,2.4-0.8,7-2.3,13.9c-1.5,6.9-2.3,10.9-2.3,12c0,1.1,0.1,1.7,0.4,1.7
					l3.1-1.1l0.8,1.6c-1,0.8-2.3,1.6-3.7,2.2C463.8,306,462.6,306.4,461.5,306.4z"/>
				<path class="st53" d="M473.5,306.4c-1,0-1.9-0.3-2.6-1s-1-1.7-1-2.9c0-1.2,0.7-5.2,2.2-11.9c1.5-6.7,2.2-11.5,2.2-14.5l-0.3-2
					c2.3-0.8,4.5-1.2,6.5-1.2c0.3,0.4,0.4,1.2,0.4,2.2c0,2.4-0.8,7-2.3,13.9c-1.5,6.9-2.3,10.9-2.3,12c0,1.1,0.1,1.7,0.4,1.7
					l3.1-1.1l0.8,1.6c-1,0.8-2.3,1.6-3.7,2.2C475.7,306,474.5,306.4,473.5,306.4z"/>
				<path class="st53" d="M481.7,298.1c0-3.7,1.1-6.7,3.4-8.9c2.3-2.2,4.8-3.3,7.7-3.3c1.8,0,3.2,0.4,4.4,1.3c1.1,0.9,1.7,2,1.7,3.5
					s-0.4,2.7-1.1,3.7c-0.7,1-1.6,1.8-2.7,2.3c-2.1,1-4.1,1.7-5.8,2l-1.1,0.1c0.2,2.8,1.4,4.2,3.5,4.2c0.7,0,1.5-0.2,2.3-0.5
					c0.8-0.4,1.4-0.7,1.9-1.1l0.7-0.5l1.1,1.4c-0.2,0.3-0.7,0.8-1.4,1.3c-0.7,0.5-1.4,1-2,1.3c-1.7,1-3.6,1.4-5.7,1.4
					c-2.1,0-3.7-0.7-4.9-2.2C482.3,302.7,481.7,300.7,481.7,298.1z M491.8,294.7c0.9-1,1.3-2.3,1.3-3.9c0-1.6-0.5-2.4-1.4-2.4
					c-1.1,0-2,1-2.6,2.9c-0.6,1.9-0.9,3.7-0.9,5.4C489.7,296.3,490.9,295.7,491.8,294.7z"/>
				<path class="st53" d="M513.3,306.4c-1.6,0-3.7-0.3-6.1-0.9c-1.6,0.4-3,0.6-4.4,0.6s-2.1,0-2.3-0.1c0.2-1.8,1.1-6.2,2.7-13.3
					c1.6-7,2.4-11.5,2.4-13.3c0-0.4-0.2-0.8-0.6-1.4c-0.4-0.6-0.8-1.1-1.2-1.5l-0.6-0.6l0.1-0.7c3.9-0.8,8.1-1.2,12.6-1.2
					c2.5,0,4.5,0.6,6.1,1.8c1.6,1.2,2.4,2.8,2.4,5c0,4.1-2.5,6.9-7.5,8.5c2,0.2,3.7,1,5,2.3c1.4,1.3,2,3.1,2,5.4c0,2.8-1,5.1-3,6.9
					C519,305.5,516.4,306.4,513.3,306.4z M512.5,290.4c-0.8,0-1.6,0.1-2.2,0.2c-1.3,5.7-2.1,9.6-2.5,11.9c0.7,0.5,1.9,0.8,3.5,0.8
					s3-0.6,4.1-1.9s1.7-3.1,1.7-5.5C517.1,292.3,515.5,290.4,512.5,290.4z M515,276.8c-1.1,0-1.8,0.1-2,0.3
					c-0.4,2.7-1.1,6.2-2.1,10.6c1.2,0,2-0.1,2.5-0.2s0.9-0.3,1.3-0.6s0.8-0.6,1.3-1.1c1-1.1,1.6-2.9,1.6-5.3
					C517.5,278,516.7,276.8,515,276.8z"/>
				<path class="st53" d="M535.6,288.7c0,1.3-0.4,3.4-1.2,6.5s-1.2,5.1-1.2,6s0.1,1.4,0.4,1.4c0.2,0,0.9-0.3,2.1-0.9l0.5-0.3
					l0.8,1.6c-0.3,0.2-0.6,0.5-1.1,0.9c-0.4,0.4-1.3,0.8-2.5,1.5c-1.2,0.6-2.4,0.9-3.4,0.9c-1,0-1.9-0.3-2.5-1
					c-0.6-0.6-0.9-1.5-0.9-2.6s0.4-3,1.1-5.8c0.7-2.8,1.1-4.6,1.1-5.4c0-1.3-0.4-2.4-1.2-3.5l-0.4-0.5l0-0.6
					c1.6-0.4,4.2-0.7,7.7-0.7C535.4,286.6,535.6,287.5,535.6,288.7z M530.5,281.3c-0.6-0.6-0.9-1.4-0.9-2.4c0-1,0.4-1.9,1.2-2.6
					c0.8-0.7,1.8-1.1,2.8-1.1c1.1,0,1.9,0.3,2.5,0.9c0.6,0.6,0.9,1.4,0.9,2.4c0,1-0.4,1.8-1.3,2.6c-0.9,0.7-1.8,1.1-2.8,1.1
					S531.1,281.8,530.5,281.3z"/>
				<path class="st53" d="M538.3,298.1c0-3.7,1.1-6.7,3.4-8.9c2.3-2.2,4.8-3.3,7.7-3.3c1.8,0,3.2,0.4,4.4,1.3s1.7,2,1.7,3.5
					s-0.4,2.7-1.1,3.7c-0.7,1-1.6,1.8-2.7,2.3c-2.1,1-4.1,1.7-5.8,2l-1.1,0.1c0.2,2.8,1.4,4.2,3.5,4.2c0.7,0,1.5-0.2,2.3-0.5
					c0.8-0.4,1.4-0.7,1.9-1.1l0.7-0.5l1.1,1.4c-0.2,0.3-0.7,0.8-1.4,1.3c-0.7,0.5-1.4,1-2,1.3c-1.7,1-3.6,1.4-5.7,1.4
					c-2.1,0-3.7-0.7-4.9-2.2C538.9,302.7,538.3,300.7,538.3,298.1z M544.2,274.7c0.8,0,2.1,0.6,3.9,1.9c0.5,0.3,0.9,0.6,1.3,0.9
					c0.4,0.3,0.8,0.6,1.4,1c0.6,0.4,1,0.8,1.4,1c0.9,0.7,1.9,1.5,2.9,2.2l-1,1.7c-3.7-1.4-8-2.9-13.1-4.5
					C542.2,276.1,543.2,274.7,544.2,274.7z M548.4,294.7c0.9-1,1.3-2.3,1.3-3.9c0-1.6-0.5-2.4-1.4-2.4c-1.1,0-2,1-2.6,2.9
					s-0.9,3.7-0.9,5.4C546.3,296.3,547.5,295.7,548.4,294.7z"/>
				<path class="st53" d="M557.3,306H557c-0.1-0.2-0.1-0.8-0.1-1.6c0-0.9,0.4-3.1,1.2-6.9s1.2-5.9,1.2-6.4c0-0.9-0.4-1.9-1.3-3
					l-0.4-0.5l0-0.6c1.6-0.4,4.2-0.7,7.8-0.7c0.4,0.8,0.5,1.9,0.5,3.3c0.3-0.5,1-1.3,2.1-2.2s2.1-1.3,3.2-1.3c1.6,0,2.4,1.4,2.4,4.2
					c-0.2,0.2-0.4,0.4-0.6,0.7c-0.3,0.3-0.8,0.7-1.5,1.2s-1.5,0.8-2.2,0.9c0,0-0.3-0.4-0.8-1.2s-0.8-1.2-1.1-1.2
					c-0.7,0.3-1.4,0.7-2,1.3c-1.4,6.2-2.1,10.2-2.1,12c0,0.7,0,1.1,0,1.4C562.5,305.8,560.4,306,557.3,306z"/>
				<path class="st53" d="M572.6,298.1c0-3.7,1.1-6.7,3.4-8.9c2.3-2.2,4.8-3.3,7.7-3.3c1.8,0,3.2,0.4,4.4,1.3s1.7,2,1.7,3.5
					s-0.4,2.7-1.1,3.7c-0.7,1-1.6,1.8-2.7,2.3c-2.1,1-4.1,1.7-5.8,2l-1.1,0.1c0.2,2.8,1.4,4.2,3.5,4.2c0.7,0,1.5-0.2,2.3-0.5
					c0.8-0.4,1.4-0.7,1.9-1.1l0.7-0.5l1.1,1.4c-0.2,0.3-0.7,0.8-1.4,1.3c-0.7,0.5-1.4,1-2,1.3c-1.7,1-3.6,1.4-5.7,1.4
					c-2.1,0-3.7-0.7-4.9-2.2C573.2,302.7,572.6,300.7,572.6,298.1z M582.6,294.7c0.9-1,1.3-2.3,1.3-3.9c0-1.6-0.5-2.4-1.4-2.4
					c-1.1,0-2,1-2.6,2.9s-0.9,3.7-0.9,5.4C580.5,296.3,581.7,295.7,582.6,294.7z"/>
			</g>
			<g class="st52">
				<path class="st33" d="M426.1,304.4c-1.6,0-3.7-0.3-6.1-0.9c-1.6,0.4-3,0.6-4.4,0.6s-2.1,0-2.3-0.1c0.2-1.8,1.1-6.2,2.7-13.3
					c1.6-7,2.4-11.5,2.4-13.3c0-0.4-0.2-0.8-0.6-1.4c-0.4-0.6-0.8-1.1-1.2-1.5l-0.6-0.6l0.1-0.7c3.9-0.8,8.1-1.2,12.6-1.2
					c2.5,0,4.5,0.6,6.1,1.8c1.6,1.2,2.4,2.8,2.4,5c0,4.1-2.5,6.9-7.5,8.5c2,0.2,3.7,1,5,2.3c1.4,1.3,2,3.1,2,5.4
					c0,2.8-1,5.1-3.1,6.9C431.8,303.5,429.2,304.4,426.1,304.4z M425.3,288.4c-0.8,0-1.6,0.1-2.2,0.2c-1.3,5.7-2.1,9.6-2.5,11.9
					c0.7,0.5,1.9,0.8,3.5,0.8c1.6,0,3-0.6,4.1-1.9c1.1-1.3,1.7-3.1,1.7-5.5C429.9,290.3,428.4,288.4,425.3,288.4z M427.8,274.8
					c-1.1,0-1.8,0.1-2,0.3c-0.4,2.7-1.1,6.2-2.1,10.6c1.2,0,2-0.1,2.5-0.2c0.5-0.1,0.9-0.3,1.3-0.6c0.4-0.2,0.8-0.6,1.3-1.1
					c1-1.1,1.6-2.9,1.6-5.3C430.4,276,429.5,274.8,427.8,274.8z"/>
				<path class="st33" d="M439,296.1c0-3.7,1.1-6.7,3.4-8.9c2.3-2.2,4.8-3.3,7.7-3.3c1.8,0,3.2,0.4,4.4,1.3c1.1,0.9,1.7,2,1.7,3.5
					s-0.4,2.7-1.1,3.7c-0.7,1-1.6,1.8-2.7,2.3c-2.1,1-4.1,1.7-5.8,2l-1.1,0.1c0.2,2.8,1.4,4.2,3.5,4.2c0.7,0,1.5-0.2,2.3-0.5
					c0.8-0.4,1.4-0.7,1.9-1.1l0.7-0.5l1.1,1.4c-0.2,0.3-0.7,0.8-1.4,1.3c-0.7,0.5-1.4,1-2,1.3c-1.7,1-3.6,1.4-5.7,1.4
					c-2.1,0-3.7-0.7-4.9-2.2C439.6,300.7,439,298.7,439,296.1z M449,292.7c0.9-1,1.3-2.3,1.3-3.9c0-1.6-0.5-2.4-1.4-2.4
					c-1.1,0-2,1-2.6,2.9c-0.6,1.9-0.9,3.7-0.9,5.4C446.9,294.3,448.1,293.7,449,292.7z"/>
				<path class="st33" d="M460.5,304.4c-1,0-1.9-0.3-2.6-1s-1-1.7-1-2.9c0-1.2,0.7-5.2,2.2-11.9c1.5-6.7,2.2-11.5,2.2-14.5l-0.3-2
					c2.3-0.8,4.5-1.2,6.5-1.2c0.3,0.4,0.4,1.2,0.4,2.2c0,2.4-0.8,7-2.3,13.9c-1.5,6.9-2.3,10.9-2.3,12c0,1.1,0.1,1.7,0.4,1.7
					l3.1-1.1l0.8,1.6c-1,0.8-2.3,1.6-3.7,2.2C462.8,304,461.6,304.4,460.5,304.4z"/>
				<path class="st33" d="M472.5,304.4c-1,0-1.9-0.3-2.6-1s-1-1.7-1-2.9c0-1.2,0.7-5.2,2.2-11.9c1.5-6.7,2.2-11.5,2.2-14.5l-0.3-2
					c2.3-0.8,4.5-1.2,6.5-1.2c0.3,0.4,0.4,1.2,0.4,2.2c0,2.4-0.8,7-2.3,13.9c-1.5,6.9-2.3,10.9-2.3,12c0,1.1,0.1,1.7,0.4,1.7
					l3.1-1.1l0.8,1.6c-1,0.8-2.3,1.6-3.7,2.2C474.7,304,473.5,304.4,472.5,304.4z"/>
				<path class="st33" d="M480.7,296.1c0-3.7,1.1-6.7,3.4-8.9c2.3-2.2,4.8-3.3,7.7-3.3c1.8,0,3.2,0.4,4.4,1.3c1.1,0.9,1.7,2,1.7,3.5
					s-0.4,2.7-1.1,3.7c-0.7,1-1.6,1.8-2.7,2.3c-2.1,1-4.1,1.7-5.8,2l-1.1,0.1c0.2,2.8,1.4,4.2,3.5,4.2c0.7,0,1.5-0.2,2.3-0.5
					c0.8-0.4,1.4-0.7,1.9-1.1l0.7-0.5l1.1,1.4c-0.2,0.3-0.7,0.8-1.4,1.3c-0.7,0.5-1.4,1-2,1.3c-1.7,1-3.6,1.4-5.7,1.4
					c-2.1,0-3.7-0.7-4.9-2.2C481.3,300.7,480.7,298.7,480.7,296.1z M490.8,292.7c0.9-1,1.3-2.3,1.3-3.9c0-1.6-0.5-2.4-1.4-2.4
					c-1.1,0-2,1-2.6,2.9c-0.6,1.9-0.9,3.7-0.9,5.4C488.7,294.3,489.9,293.7,490.8,292.7z"/>
				<path class="st33" d="M512.3,304.4c-1.6,0-3.7-0.3-6.1-0.9c-1.6,0.4-3,0.6-4.4,0.6s-2.1,0-2.3-0.1c0.2-1.8,1.1-6.2,2.7-13.3
					c1.6-7,2.4-11.5,2.4-13.3c0-0.4-0.2-0.8-0.6-1.4c-0.4-0.6-0.8-1.1-1.2-1.5l-0.6-0.6l0.1-0.7c3.9-0.8,8.1-1.2,12.6-1.2
					c2.5,0,4.5,0.6,6.1,1.8c1.6,1.2,2.4,2.8,2.4,5c0,4.1-2.5,6.9-7.5,8.5c2,0.2,3.7,1,5,2.3c1.4,1.3,2,3.1,2,5.4c0,2.8-1,5.1-3,6.9
					C517.9,303.5,515.4,304.4,512.3,304.4z M511.5,288.4c-0.8,0-1.6,0.1-2.2,0.2c-1.3,5.7-2.1,9.6-2.5,11.9c0.7,0.5,1.9,0.8,3.5,0.8
					s3-0.6,4.1-1.9c1.1-1.3,1.7-3.1,1.7-5.5C516.1,290.3,514.5,288.4,511.5,288.4z M514,274.8c-1.1,0-1.8,0.1-2,0.3
					c-0.4,2.7-1.1,6.2-2.1,10.6c1.2,0,2-0.1,2.5-0.2s0.9-0.3,1.3-0.6c0.4-0.2,0.8-0.6,1.3-1.1c1-1.1,1.6-2.9,1.6-5.3
					C516.5,276,515.7,274.8,514,274.8z"/>
				<path class="st33" d="M534.6,286.7c0,1.3-0.4,3.4-1.2,6.5c-0.8,3.1-1.2,5.1-1.2,6s0.1,1.4,0.4,1.4c0.2,0,0.9-0.3,2.1-0.9
					l0.5-0.3l0.8,1.6c-0.3,0.2-0.6,0.5-1.1,0.9c-0.4,0.4-1.3,0.8-2.5,1.5c-1.2,0.6-2.4,0.9-3.4,0.9c-1,0-1.9-0.3-2.5-1
					c-0.6-0.6-0.9-1.5-0.9-2.6s0.4-3,1.1-5.8c0.7-2.8,1.1-4.6,1.1-5.4c0-1.3-0.4-2.4-1.2-3.5l-0.4-0.5l0-0.6
					c1.6-0.4,4.2-0.7,7.7-0.7C534.4,284.6,534.6,285.5,534.6,286.7z M529.5,279.3c-0.6-0.6-0.9-1.4-0.9-2.4c0-1,0.4-1.9,1.2-2.6
					c0.8-0.7,1.8-1.1,2.8-1.1c1.1,0,1.9,0.3,2.5,0.9c0.6,0.6,0.9,1.4,0.9,2.4c0,1-0.4,1.8-1.3,2.6c-0.9,0.7-1.8,1.1-2.8,1.1
					S530.1,279.8,529.5,279.3z"/>
				<path class="st33" d="M537.3,296.1c0-3.7,1.1-6.7,3.4-8.9c2.3-2.2,4.8-3.3,7.7-3.3c1.8,0,3.2,0.4,4.4,1.3s1.7,2,1.7,3.5
					s-0.4,2.7-1.1,3.7c-0.7,1-1.6,1.8-2.7,2.3c-2.1,1-4.1,1.7-5.8,2l-1.1,0.1c0.2,2.8,1.4,4.2,3.5,4.2c0.7,0,1.5-0.2,2.3-0.5
					c0.8-0.4,1.4-0.7,1.9-1.1l0.7-0.5l1.1,1.4c-0.2,0.3-0.7,0.8-1.4,1.3c-0.7,0.5-1.4,1-2,1.3c-1.7,1-3.6,1.4-5.7,1.4
					c-2.1,0-3.7-0.7-4.9-2.2C537.9,300.7,537.3,298.7,537.3,296.1z M543.2,272.7c0.8,0,2.1,0.6,3.9,1.9c0.5,0.3,0.9,0.6,1.3,0.9
					c0.4,0.3,0.8,0.6,1.4,1c0.6,0.4,1,0.8,1.4,1c0.9,0.7,1.9,1.5,2.9,2.2l-1,1.7c-3.7-1.4-8-2.9-13.1-4.5
					C541.2,274.1,542.2,272.7,543.2,272.7z M547.4,292.7c0.9-1,1.3-2.3,1.3-3.9c0-1.6-0.5-2.4-1.4-2.4c-1.1,0-2,1-2.6,2.9
					c-0.6,1.9-0.9,3.7-0.9,5.4C545.3,294.3,546.5,293.7,547.4,292.7z"/>
				<path class="st33" d="M556.3,304H556c-0.1-0.2-0.1-0.8-0.1-1.6c0-0.9,0.4-3.1,1.2-6.9c0.8-3.7,1.2-5.9,1.2-6.4
					c0-0.9-0.4-1.9-1.3-3l-0.4-0.5l0-0.6c1.6-0.4,4.2-0.7,7.8-0.7c0.4,0.8,0.5,1.9,0.5,3.3c0.3-0.5,1-1.3,2.1-2.2s2.1-1.3,3.2-1.3
					c1.6,0,2.4,1.4,2.4,4.2c-0.2,0.2-0.4,0.4-0.6,0.7s-0.8,0.7-1.5,1.2c-0.8,0.5-1.5,0.8-2.2,0.9c0,0-0.3-0.4-0.8-1.2
					c-0.5-0.8-0.8-1.2-1.1-1.2c-0.7,0.3-1.4,0.7-2,1.3c-1.4,6.2-2.1,10.2-2.1,12c0,0.7,0,1.1,0,1.4C561.5,303.7,559.4,304,556.3,304
					z"/>
				<path class="st33" d="M571.6,296.1c0-3.7,1.1-6.7,3.4-8.9c2.3-2.2,4.8-3.3,7.7-3.3c1.8,0,3.2,0.4,4.4,1.3s1.7,2,1.7,3.5
					s-0.4,2.7-1.1,3.7c-0.7,1-1.6,1.8-2.7,2.3c-2.1,1-4.1,1.7-5.8,2l-1.1,0.1c0.2,2.8,1.4,4.2,3.5,4.2c0.7,0,1.5-0.2,2.3-0.5
					c0.8-0.4,1.4-0.7,1.9-1.1l0.7-0.5l1.1,1.4c-0.2,0.3-0.7,0.8-1.4,1.3c-0.7,0.5-1.4,1-2,1.3c-1.7,1-3.6,1.4-5.7,1.4
					c-2.1,0-3.7-0.7-4.9-2.2C572.2,300.7,571.6,298.7,571.6,296.1z M581.6,292.7c0.9-1,1.3-2.3,1.3-3.9c0-1.6-0.5-2.4-1.4-2.4
					c-1.1,0-2,1-2.6,2.9c-0.6,1.9-0.9,3.7-0.9,5.4C579.5,294.3,580.7,293.7,581.6,292.7z"/>
			</g>
			<g class="st52">
				<path class="st51" d="M442.8,317c0.4,0.5,0.7,1.1,0.7,1.7c0.1,1.2,0.1,2.6,0.2,3.8c0.1,0.9,0.1,1.8,0.2,2.7
					c0.1,0.3,0.1,0.7,0.2,1c0.2,0.8,0.1,1.5,0,2.2c-0.2,1.1-0.1,2.1-0.2,3.1c0,0.5,0,0.9-0.2,1.4c-0.1,0.2,0,0.4,0,0.5
					c0,0.2,0.1,0.3-0.1,0.4c-0.1,0.1,0,0.2,0,0.2c0.1,0.2,0.1,0.3,0,0.4c-0.2,0.3-0.2,0.3-0.5,0.1c-0.2-0.1-0.4-0.2-0.6,0
					c-0.6,0.9-0.8,0.1-1.4,0.2c-0.2,0-0.3-0.1-0.3-0.3c-0.1-0.3-0.2-0.6-0.2-0.9c0-0.7,0-1.4,0-2.1c0-0.8-0.2-1.5-0.2-2.2
					c-0.2-1.8-0.1-3.6-0.2-5.3c-0.1-0.9,0-1.9,0-2.8c-0.1-1.1,0-2.5,0.1-3.5c0-0.4,0-0.4,0.4-0.4c0.1,0,0.1,0,0.2,0
					c0.1-0.2-0.1-0.3,0-0.5c0.1-0.1,0.3-0.1,0.4-0.2c0.1-0.1,0.2-0.1,0.2-0.1C441.9,316.6,442.4,316.6,442.8,317z M443,325.5v0.6
					c0,0.1,0.2,0.4,0.2,0.6l0.1,0.6c0-0.1,0,0,0.1-0.3c0.1-0.3,0-0.6,0-0.7s-0.1-0.5-0.1-0.7l-0.1-1.1
					C443.1,324.5,443,325.1,443,325.5z"/>
				<path class="st51" d="M454.5,324.4l0.1,0.1c0.1,0.5,0.4,1,0.5,1.6c0,1.3,0,2.5-0.1,3.8c-0.1,0.6,0,1.3,0,1.9
					c0,0.5,0.2,0.9,0.3,1.4c0.1,0.3,0.8,0.6,1,0.4c0.9-0.6,1.7-1.1,2.6-1.7c0.1-0.1,0.1-0.1,0.2,0c-0.1,0.3-0.3,0.9-0.7,1.1
					c-0.4,0.2-0.9,0.5-1.2,1c-0.2,0.3-0.4,0.4-0.8,0.6c-0.3,0.3-0.4,0.3-0.8,0.5c-0.2,0.1-0.4,0.3-0.7,0.3c-0.7,0.1-1.4-0.2-1.8-0.9
					c-0.4-0.7-0.6-1.4-0.6-2.2c-0.1-0.9-0.1-1.7,0-2.6c0-1.3,0-2.6,0.3-3.9c0.1-0.4,0-0.6,0-0.9s-0.3-0.6-0.7-0.2
					c-0.9,0.9-1.6,1.7-2.1,2.9c-0.3,0.8-0.2,1.6-0.2,2.3c0,0.3,0,0.6,0,0.9c-0.1,1.2-0.2,2.4-0.1,3.6c0,0.3-0.1,0.4-0.4,0.5
					c-0.1,0.1-0.2,0.1-0.3,0.2c-0.4,0.3-0.7,0.2-0.9-0.2c-0.1-0.1-0.2-0.3-0.3-0.4c-0.1,0.1-0.1,0.2-0.1,0.3
					c-0.2-0.1-0.3-0.3-0.4-0.5c-0.2-0.6-0.4-1.2-0.4-1.9c0-1.2,0-2.4,0-3.6v-4.6c0-0.4,0-0.4,0.4-0.3c0.1,0,0.3,0.1,0.4,0
					c0.2-0.1,0.5,0,0.6,0.1c0.2,0.2,0.5,0.3,0.7,0.5c0.3,0.2,0.4,0.5,0.3,0.8c0,0.5,0.1,1,0.2,1.6c0.2-0.1,0.2-0.3,0.3-0.4
					c0.3-0.7,0.7-1.3,1.2-1.9c0.5-0.6,1.2-0.8,2-0.7C453.6,323.9,454,324.2,454.5,324.4z"/>
				<path class="st51" d="M465,318.6c0.2,0.2,0.3,0.4,0.6,0.6c0.1,0.1,0.1,0.2,0.1,0.3c0.1,0.7,0.3,1.3,0.2,2c-0.1,1.3,0.1,2.6,0,4
					c0,0.1,0,0.1,0.1,0.2c0.8-0.7,1.8-1.1,2.8-1.4c0.6-0.2,1.1-0.1,1.3,0.5c0.2,0,0.1-0.2,0.3-0.2c0.1,0.1,0.2,0.1,0.2,0.2
					c0,0.2,0,0.4,0.1,0.5c0.1,0.1,0.1,0.2,0.2,0.3c0.3,0.1,0.3,0.3,0.3,0.5c0.2,1.2,0.2,2.3,0.1,3.5c0,0.1,0,0.1,0,0.1
					c0.2,0.6,0,1.2-0.1,1.7c-0.1,0.6-0.2,1.2-0.4,1.8c-0.2,0.5-0.6,1-0.9,1.4c-0.3,0.4-0.7,0.6-1.1,0.7c-0.1,0-0.2,0.1-0.3,0
					c-0.4-0.2-0.8-0.2-1.2-0.4c-0.2-0.1-0.2-0.2-0.3-0.3c-0.2-0.2-0.3-0.5-0.6-0.7c-0.2,0.4,0.1,0.9-0.2,1.3
					c-0.3,0.1-0.2-0.2-0.4-0.3c0,0.2,0,0.3-0.2,0.4c-0.4-0.3-0.8-0.8-1.3-1c-0.1,0.1,0,0.3-0.2,0.4c-0.3-0.2-0.4-0.4-0.4-0.7
					c0.1-0.5-0.1-1-0.1-1.5c-0.1-1.3-0.1-2.5,0-3.8c0-0.5,0-1.1,0-1.6c0-1.8,0-3.6,0-5.4c0-0.8,0-1.6,0-2.3c0-0.5,0-0.5,0.4-0.6
					c0.2-0.1,0.4-0.2,0.6-0.3C464.8,318.4,464.9,318.4,465,318.6z M467.4,325.4c-0.4,0.3-0.8,0.6-1.1,1c-0.3,0.3-0.4,0.6-0.4,1
					c0,0.9,0.2,1.8,0.1,2.7c0,0.6,0.2,1.1,0.1,1.7c0,0.4,0,0.8,0,1.3c0.4,0.1,0.8,0.4,1.3,0.6c0.3-0.4,0.5-0.8,0.6-1.2
					c0.3-0.8,0.5-1.7,0.6-2.6c0.2-1.2,0.2-2.5,0.2-3.7c0-0.3-0.1-0.6-0.1-0.9c0-0.1-0.1-0.2-0.2-0.2
					C468.2,325.2,467.7,325.2,467.4,325.4z"/>
				<path class="st51" d="M475,316.5c0,0.2,0.1,0.3,0.3,0.5c0.6,0.5,0.7,1,0.1,1.4c-0.3,0.2-0.4,0.6-0.9,0.5c-0.2-0.2-0.5,0-0.7-0.1
					c-0.9-0.4-1-1.1-0.4-2c0.3-0.4,0.7-0.6,1.1-0.7C474.9,316.2,475,316.2,475,316.5z M475.7,324.5c0,0.1,0,0.2,0.1,0.2
					c0.3-0.2,0.4-0.2,0.4,0.2c0,0.1,0,0.3,0,0.4c-0.1,0.3-0.1,0.5,0,0.8c0.1,1.1,0.1,2.2,0.1,3.3c0,0.7,0.1,1.3,0.2,2
					c0,0.5,0.1,0.9,0.1,1.4c0.1,0.5-0.1,0.9,0.4,0.7c0.6-0.3,0.7-0.2,1.4-0.7c0.2-0.2,0.7-0.6,1-0.6c0.2-0.1,0.3-0.2,0.4-0.3
					c0.2-0.2,0.5-0.4,0.8-0.1c-0.2,0.3-0.4,0.4-0.6,0.6c-0.4,0.3-0.6,0.4-0.8,0.9c-0.1,0.2-0.2,0.3-0.5,0.3c-0.2,0-0.3,0.2-0.5,0.3
					c-0.2,0.1-0.3,0.2-0.5,0.3c-0.1,0.1-0.2,0.3-0.3,0.3c-0.1,0.1-0.3,0.2-0.5,0.2l-0.5,0.2c-0.1,0.1-0.2,0.1-0.4,0.1
					c-0.1,0-0.2,0-0.2,0c-0.1,0.1-0.2,0.2-0.3,0.2s-0.3-0.1-0.5-0.1c-0.2-0.1-0.5-0.1-0.8-0.3c-0.1-0.1-0.3-0.1-0.4-0.2
					c-0.4-0.4-0.4-0.9-0.5-1.5c-0.1-0.7-0.1-1.4,0-2.1c0-0.8,0.1-1.7,0.1-2.6c0.1-0.7,0.1-1.5,0.1-2.2c-0.1-0.5,0.1-1.1,0-1.6
					c0-0.2,0.2-0.4,0.3-0.5c0.2-0.2,0.6-0.3,0.9-0.3C475.3,323.8,475.5,324,475.7,324.5z"/>
				<path class="st51" d="M481.7,325c0,0.1,0,0.1,0.1,0.2c0,0,0,0.1,0.1,0.1c0.3-0.3,0.7-0.6,1-0.8c0.7-0.5,1.2-0.6,2-0.4
					c0.4,0.1,0.8,0.3,1.2,0.7c-0.1,0.3-0.4,0.3-0.6,0.2c-0.2-0.1-0.3-0.1-0.4,0.1c-0.2,0.2-0.5,0.1-0.6,0.4l-0.2,0.1
					c-0.8,0.3-1.3,0.7-1.7,1.5c-0.1,0.3-0.1,0.6-0.3,0.9c-0.2,0.2-0.2,0.4-0.2,0.7c0,0.5,0.1,1,0.1,1.4c0,1.1,0.1,2.1,0.2,3.1
					c0,0.4,0,0.9,0,1.3c0,0.2-0.4,1.1-0.5,1.2c-0.3-0.4-0.6-0.4-1-0.1c-0.2,0.2-0.3-0.1-0.4,0c-0.1,0.1,0,0.2,0,0.2h-0.1
					c-0.5-0.5-0.8-1.2-0.8-1.9c0.1-1.1-0.1-2.2-0.2-3.3c-0.1-0.5,0-1,0-1.5c0.1-0.7,0.1-1.3,0.1-2c0-0.3,0.1-0.6,0.1-0.9
					c0-0.5,0-1-0.1-1.5c-0.1-0.1-0.1-0.2,0.1-0.2c0.1-0.1,0.1,0.1,0.2,0.2c0.2-0.1,0.2-0.4,0.2-0.6c0.2-0.2,0.5-0.1,0.6-0.3
					c0.1-0.1,0.2-0.1,0.2,0C481.1,324,481.6,324.3,481.7,325z M485.7,325.5C485.7,325.5,485.7,325.6,485.7,325.5
					c-0.5-0.1-0.8-0.1-1.1,0.1c-0.2,0.2-0.4,0.3-0.7,0.3c0.1-0.2,0.3-0.2,0.4-0.3l0.2-0.1c0.2,0,0.3-0.2,0.4-0.3
					C485.3,325,485.5,325.1,485.7,325.5z M493.9,323.8c-0.2,0.3,0.1,0.6-0.7,0.7c-0.2,0-0.4,0.1-0.5,0.3c-0.1,0.3-0.5,0.3-0.7,0.4
					c-0.5,0.3-0.7,0.7-1.1,1.1c-0.1,0.2-0.2,0.3-0.5,0.7c-0.1,0.1-0.2,0.3-0.2,0.4c-0.1,0.2-0.1,0.5-0.2,0.7
					c-0.5,0.6-0.3,1.3-0.4,1.9c0,0.1,0,0.2,0,0.3c-0.2,1.2-0.1,2.4-0.3,3.6c0,0.1,0,0.3,0,0.4c-0.1,0.3,0,0.7-0.3,0.9
					c-0.2,0.1-0.1,0.3-0.1,0.4c-0.1,0.4-0.1,0.6-0.7,0.3c-0.4-0.2-0.8-0.5-1.2-0.7c-0.3-0.2-0.3-0.4-0.3-0.7
					c0.2-2.3,0.1-4.6,0.2-6.9c0-1,0.1-1.9,0.1-2.9c0-0.2,0-0.3-0.1-0.4c-0.1-0.4,0.1-0.6,0.4-0.6c0.3,0,0.7,0.1,1-0.1
					c0.1-0.1,0.3,0,0.4,0.1c0.3,0.3,0.7,0.6,0.8,1.1c0,0.1,0.1,0.2,0.2,0.3c0.3-0.5,0.7-0.7,1.1-1.1c0.3-0.3,0.7-0.5,1.2-0.6
					c1.3-0.3,1.9-0.1,1.5,0C492.9,323.5,494.2,323.4,493.9,323.8z M489,327.5c0.1-0.6,0.1-1.1,0.2-1.7c0-0.3,0-0.7-0.2-1
					C488.9,325.8,488.9,326.7,489,327.5z"/>
				<path class="st51" d="M501.2,324.4c0.4,0.4,0.6,0.9,0.4,1.5v0.2c0.2,0.7,0.1,1.2,0,1.9c-0.1,0.2,0.1,0.4,0.1,0.6
					c0,0.9,0.1,1.8,0,2.7c0,0.3-0.1,0.9-0.2,1.3c0,0.3,0.1,0.6,0.1,0.9c0.4,0.1,0.6-0.1,0.9-0.3c0.9-0.3,2-1.5,2.4-1.8
					c0,0.3-0.1,0.7-0.4,1.1c-0.3,0.3-1.1,0.9-1.3,1.2c-0.4,0.3-0.9,0.7-1.4,1c-0.5,0.3-1,0.4-1.7,0.4c-0.3,0-0.4-0.2-0.5-0.4
					c-0.1-0.2-0.2-0.4-0.4-0.6c-0.1,0-0.2,0.1-0.3,0.2s-0.1,0.2-0.2,0.2c-0.3,0-0.4,0.3-0.8,0.4c-0.4,0.2-0.6,0-0.9,0
					c-0.2,0-0.3,0.1,0,0.1c0.6,0-0.1,0.2-0.9,0.2c-0.4,0-1.2-0.2-1.4-0.5c-0.6-0.7-0.7-0.9-0.7-1.6l-0.1-1c-0.1-1,0.3-1.7,0.8-2.3
					c0.5-0.7,1.2-1.1,2.1-1.3c0.4-0.1,0.9-0.2,1.3-0.4c0.3-0.1,0.5,0.1,0.8,0c0.1-0.7,0-2-0.1-2.7c0-0.4-0.1-0.5-0.5-0.4
					c-0.8,0.3-1.3,0.4-2.2,0.4c-0.1,0-0.2,0-0.2,0.1c-0.5,0.4-0.9-0.2-1.3-0.2c0-0.2,0.1-0.2,0.1-0.2c0.7-0.2,1.4-0.4,1.8-0.5
					c0.6-0.1,1-0.3,1.6-0.5c0.3-0.1,0.4-0.1,0.6-0.2c0.3,0,0.6,0,0.8,0.2c0.3,0.1,0.5,0.3,0.8,0.3c0.1-0.2-0.1-0.2-0.2-0.3
					c-0.2,0-0.3-0.2-0.1-0.2C500.5,323.9,501,324.1,501.2,324.4z M494.7,333.8c0.2,0.1,0.2,0.3,0.4,0.4c0.2,0.1,0.3,0.4,0.6,0.3
					c-0.3-0.3-0.6-0.6-0.8-1c-0.1-0.1-0.3-0.5-0.3-0.1C494.7,333.6,494.5,333.8,494.7,333.8z M498.6,328.9c-0.1,0.1-0.1,0.2-0.3,0.2
					c-0.1,0-0.1,0-0.3,0.1c-0.3,0.2-0.3,0.3-0.6,0.5c-0.3,0.2-0.5,0.4-0.6,0.7c-0.5,1.2-0.4,2.5,0,2.9c0.3,0.3,0.4,0.5,0.8,0.4
					c0.2-0.1,0.8-0.4,1.1-0.5c0.2-0.1,0.2-0.2,0.2-0.4c0-0.1,0-0.3,0-0.5c0.1-0.5-0.2-0.9-0.1-1.7c0.1-0.4-0.1-0.7,0-1.1
					c0.1-0.3,0-0.5,0-0.8C498.8,328.8,498.6,328.9,498.6,328.9z"/>
				<path class="st51" d="M510.6,323.5c0.1,0.1,0.2,0.1,0.3,0.3c0.1,0.2,0.2,0.4,0.3,0.7c0.1-0.2,0-0.4,0.1-0.7
					c0.4,0.2,0.5,0.6,0.6,1c0.2,0.6,0.4,1.3,0.6,1.9c0.3,1,0.6,2,0.8,3c0.1,0.7,0.3,1.4,0.4,2.1c0.2,0,0.2-0.1,0.2-0.2
					c0.3-0.6,0.5-1.2,0.6-1.8c0.2-1.4,0.6-2.8,1-4.2c0.1-0.4,0.2-0.8,0.3-1.2c0.1-0.2,0.1-0.3,0.2-0.5c0.1-0.2,0.3-0.3,0.5-0.2
					c0.2,0.1,0.2,0.2,0.1,0.4c-0.1,0.7-0.3,1.3-0.5,2l-0.1,0.3c0,0.4-0.2,0.8-0.3,1.3c-0.1,0.4-0.2,0.9-0.4,1.4
					c-0.3,0.8-0.4,1.7-0.6,2.5c-0.1,0.2-0.1,0.5-0.1,0.8c0,0.1,0,0.2-0.1,0.3c-0.4,0.7-0.3,1.5-0.6,2.2c0,0,0,0.1,0,0.1
					c0,0.2,0.2,0.4-0.1,0.5c-0.2,0.1-0.3-0.1-0.5-0.2c-0.3-0.1-0.5-0.2-0.8,0c-0.2,0.1-0.6-0.1-0.7-0.4c-0.1-0.4-0.2-0.7-0.3-1.1
					c-0.1-0.2,0.1-0.3,0.1-0.6c0.3,0.3,0.4,0.7,0.6,0.9c-0.1-0.6-0.3-1.2-0.8-1.5c-0.4-0.3-0.6-0.7-0.7-1.2
					c-0.2-1.1-0.4-2.1-0.7-3.1c-0.3-1.1-0.5-2.3-0.8-3.5c-0.1-0.3-0.1-0.5-0.4-0.7c-0.2-0.2-0.2-0.4-0.2-0.7c0-0.1,0.1-0.2,0.2-0.2
					C509.7,323.2,509.9,323.2,510.6,323.5z"/>
				<path class="st51" d="M520.6,323.8c-0.1,0.2-0.5,0.1-0.6,0.3c0.1,0.1,0.2,0.1,0.3,0c0.6-0.3,1-0.4,1.7-0.2
					c0.1,0.1,0.3,0.1,0.4,0.2c0.3,0.1,0.3,0.1,0.5,0.3l0.3,0.2c0.4,0.2,0.9,1.3,0.9,2.2c0.1,0.6,0,1.1-0.2,1.7
					c-0.1,0.3-0.2,0.6-0.5,0.7c-0.1,0-0.1,0.1-0.1,0.2c-0.4,0.2-0.6,0.5-1.2,0.7c-0.3,0.1-0.5,0.3-0.8,0.4c-0.4,0.1-0.7,0.4-1.1,0.6
					c0.2,0.6,0.3,1.2,0.7,1.7c0.2,0.3,0.4,0.3,0.6,0.6c0.3,0.4,0.6,0.5,1,0.3c1.3-0.5,1.8-0.4,3-1.2c0.4-0.3,0.4-0.4,0.9-0.5
					c0.3-0.1,0.4-0.2,0.7-0.4c0.1-0.1,0.2-0.2,0.3-0.1c0.1,0.6-0.3,0.6-0.6,0.9c-0.1,0.1-0.3,0.2-0.4,0.3c-0.3,0.3-1.3,0.9-1.4,0.9
					c-0.6,0.3-0.3,0.1-0.9,0.5c-0.1,0.1-0.5,0.3-0.7,0.4c-0.4,0.3-0.9,0.3-1.1,0.4c-0.5,0.4-1.3,0.4-1.9,0.4c-0.4,0-0.8-0.1-1.2-0.5
					c-0.6-0.6-1.1-1.2-1.4-2c-0.1-0.1-0.1-0.2-0.1-0.3c-0.1-0.4-0.2-0.6-0.2-1c0-0.2,0-0.9-0.1-1.4c-0.1-0.8,0.1-2.1,0.2-2.9
					c0.2-0.9,0.4-1.9,1-2.7c0.3-0.4,0.7-0.7,1.3-0.8C520.3,323.8,520.6,323.7,520.6,323.8z M519.8,333.1c0.3,0.5,0.6,0.9,1.1,1.2
					c0-0.1,0.1-0.1,0.1-0.1c-0.2-0.3-0.4-0.6-0.6-0.8c-0.3-0.3-0.3-0.6-0.5-0.9C519.6,332.7,519.7,332.9,519.8,333.1z M520.7,325
					c-0.3,0.4-0.4,1.1-0.4,1.5c-0.1,0.9,0.1,1.9-0.1,2.8c0,0.2,0,0.4,0,0.7c0.2,0,0.4-0.3,0.6-0.4c0.4-0.3,0.7-0.6,1-0.8
					c0.4-0.3,0.4-0.7,0.5-1.3c0-0.1,0-0.3,0.1-0.4c0.1-0.4,0-0.9-0.1-1.1c-0.1-0.4-0.2-0.6-0.3-0.9c-0.1-0.2-0.2-0.5-0.3-0.6
					C521.2,324.4,521.1,324.5,520.7,325z M521.5,334.3c-0.1-0.2-0.2-0.3-0.4-0.4C521.2,334.1,521.2,334.2,521.5,334.3z"/>
				<path class="st51" d="M528.8,325c0,0.1,0,0.1,0.1,0.2c0,0,0,0.1,0.1,0.1c0.3-0.3,0.7-0.6,1-0.8c0.7-0.5,1.2-0.6,2-0.4
					c0.4,0.1,0.8,0.3,1.2,0.7c-0.1,0.3-0.4,0.3-0.6,0.2c-0.2-0.1-0.3-0.1-0.4,0.1c-0.2,0.2-0.5,0.1-0.6,0.4l-0.2,0.1
					c-0.8,0.3-1.3,0.7-1.7,1.5c-0.1,0.3-0.1,0.6-0.3,0.9c-0.2,0.2-0.2,0.4-0.2,0.7c0,0.5,0.1,1,0.1,1.4c0,1.1,0.1,2.1,0.2,3.1
					c0,0.4,0,0.9,0,1.3c0,0.2-0.4,1.1-0.5,1.2c-0.3-0.4-0.6-0.4-1-0.1c-0.2,0.2-0.3-0.1-0.4,0c-0.1,0.1,0,0.2,0,0.2h-0.1
					c-0.5-0.5-0.8-1.2-0.8-1.9c0.1-1.1-0.1-2.2-0.2-3.3c-0.1-0.5,0-1,0-1.5c0.1-0.7,0.1-1.3,0.1-2c0-0.3,0.1-0.6,0.1-0.9
					c0-0.5,0-1-0.1-1.5c-0.1-0.1-0.1-0.2,0.1-0.2c0.1-0.1,0.1,0.1,0.2,0.2c0.2-0.1,0.2-0.4,0.2-0.6c0.2-0.2,0.5-0.1,0.6-0.3
					c0.1-0.1,0.2-0.1,0.2,0C528.2,324,528.8,324.3,528.8,325z M532.9,325.5C532.8,325.5,532.8,325.6,532.9,325.5
					c-0.5-0.1-0.8-0.1-1.1,0.1c-0.2,0.2-0.4,0.3-0.7,0.3c0.1-0.2,0.3-0.2,0.4-0.3l0.2-0.1c0.2,0,0.3-0.2,0.4-0.3
					C532.4,325,532.6,325.1,532.9,325.5z"/>
				<path class="st51" d="M535.5,316.5c0,0.2,0.1,0.3,0.3,0.5c0.6,0.5,0.7,1,0.1,1.4c-0.3,0.2-0.4,0.6-0.9,0.5
					c-0.2-0.2-0.5,0-0.7-0.1c-0.9-0.4-1-1.1-0.4-2c0.3-0.4,0.7-0.6,1.1-0.7C535.4,316.2,535.5,316.2,535.5,316.5z M536.2,324.5
					c0,0.1,0,0.2,0.1,0.2c0.3-0.2,0.4-0.2,0.4,0.2c0,0.1,0,0.3,0,0.4c-0.1,0.3-0.1,0.5,0,0.8c0.1,1.1,0.1,2.2,0.1,3.3
					c0,0.7,0.1,1.3,0.2,2c0,0.5,0.1,0.9,0.1,1.4c0.1,0.5-0.1,0.9,0.4,0.7c0.6-0.3,0.7-0.2,1.4-0.7c0.2-0.2,0.7-0.6,1-0.6
					c0.2-0.1,0.3-0.2,0.4-0.3c0.2-0.2,0.5-0.4,0.8-0.1c-0.2,0.3-0.4,0.4-0.6,0.6c-0.4,0.3-0.6,0.4-0.8,0.9c-0.1,0.2-0.2,0.3-0.5,0.3
					c-0.2,0-0.3,0.2-0.5,0.3c-0.2,0.1-0.3,0.2-0.5,0.3c-0.1,0.1-0.2,0.3-0.3,0.3c-0.1,0.1-0.3,0.2-0.5,0.2l-0.5,0.2
					c-0.1,0.1-0.2,0.1-0.4,0.1c-0.1,0-0.2,0-0.2,0c-0.1,0.1-0.2,0.2-0.3,0.2c-0.1,0-0.3-0.1-0.5-0.1c-0.2-0.1-0.5-0.1-0.8-0.3
					c-0.1-0.1-0.3-0.1-0.4-0.2c-0.4-0.4-0.4-0.9-0.5-1.5c-0.1-0.7-0.1-1.4,0-2.1c0-0.8,0.1-1.7,0.1-2.6c0.1-0.7,0.1-1.5,0.1-2.2
					c-0.1-0.5,0.1-1.1,0-1.6c0-0.2,0.2-0.4,0.3-0.5c0.2-0.2,0.6-0.3,0.9-0.3C535.8,323.8,536.1,324,536.2,324.5z"/>
				<path class="st51" d="M542,320c0.2,0.5,0.2,1.2,0.3,1.7c0.6-0.1,0.8,0,1.1-0.1c0.2,0,1.2-0.2,0.6,0c0,0.1,0.9-0.1,1.1-0.1
					c0.3,0,1.2,0.2,0.7,0.4c-0.2,0.1,0.3,0.2,0.5,0.3c-0.4,0.4-1.2,0.4-1.8,0.5c-0.2,0-0.5,0-0.8,0c-0.1,0-0.7,0.1-0.9,0.1
					c-0.4-0.1-0.4,0-0.4,0.4c0,1,0.2,1.9,0.2,2.8c0.1,0.8,0.1,1.6,0.1,2.4c0,1,0.2,1.9,0.2,2.8c0,0.6,0.1,1.1,0.2,1.7
					c0.1,0.4,0.3,0.6,0.6,0.8c0.1,0.1,0.2,0.1,0.3,0l0.5-0.3c0.7-0.4,1.4-0.9,1.7-0.9c0.2,0,0.1,0.6-0.3,0.8
					c-0.4,0.2-0.5,0.6-0.8,0.8c-0.4,0.3-0.4,0.4-0.8,0.6c-0.1,0-0.3,0.1-0.4,0.2c-0.6,0.4-0.9,0.5-1.7,0.4c-0.2,0-0.3-0.1-0.5,0
					c-0.1,0.1-0.2-0.1-0.2-0.1c-0.1-0.2-0.2-0.4-0.3-0.6c-0.1-0.1-0.1-0.3-0.3-0.2c-0.1,0.1-0.1,0-0.2-0.1c-0.3-0.5-0.6-1-0.7-1.6
					c-0.1-0.8-0.1-1.5-0.1-2.3c0-1.3-0.1-2.6,0-3.9c0.1-1.1,0.1-2.1,0.2-3.2c0-0.2,0.1-0.3-0.1-0.6c-0.4,0.1-1.3,0.1-1.3-0.1
					c0.3,0,0.7-0.2,1.1-0.2c-0.4-0.1-0.9,0-1.3,0.1c-0.6,0-0.7,0-0.7-0.6c0.6-0.1,1.4-0.3,2-0.3c0.2,0,0.2,0,0.2-0.2
					c0-0.3,0-0.6,0-0.9c-0.1-0.4,0.1-0.8,0.1-1.2c0.2-0.1,0.1,0.6,0.3,0.8c0.2-0.4,0.2-0.8,0.1-1.2c0-0.3,0.1-0.6,0.4-0.8
					C541.6,318.7,541.9,319.4,542,320z M542.5,333.7c0,0.1,0.1,0.1,0.2,0.2c0.1,0.2,0.7,0.4,0.3,0c-0.3-0.3-0.6-1-0.7-1
					C542.3,332.9,542.5,333.7,542.5,333.7z"/>
				<path class="st51" d="M553.2,324.4c0.4,0.4,0.6,0.9,0.4,1.5v0.2c0.2,0.7,0.1,1.2,0,1.9c-0.1,0.2,0.1,0.4,0.1,0.6
					c0,0.9,0.1,1.8,0,2.7c0,0.3-0.1,0.9-0.2,1.3c0,0.3,0.1,0.6,0.1,0.9c0.4,0.1,0.6-0.1,0.9-0.3c0.9-0.3,2-1.5,2.4-1.8
					c0,0.3-0.1,0.7-0.4,1.1c-0.3,0.3-1.1,0.9-1.3,1.2c-0.4,0.3-0.9,0.7-1.4,1c-0.5,0.3-1,0.4-1.7,0.4c-0.3,0-0.4-0.2-0.5-0.4
					c-0.1-0.2-0.2-0.4-0.4-0.6c-0.1,0-0.2,0.1-0.3,0.2s-0.1,0.2-0.2,0.2c-0.3,0-0.4,0.3-0.8,0.4c-0.4,0.2-0.6,0-0.9,0
					c-0.2,0-0.3,0.1,0,0.1c0.6,0-0.1,0.2-0.9,0.2c-0.4,0-1.2-0.2-1.4-0.5c-0.6-0.7-0.7-0.9-0.7-1.6l-0.1-1c-0.1-1,0.3-1.7,0.8-2.3
					c0.5-0.7,1.2-1.1,2.1-1.3c0.4-0.1,0.9-0.2,1.3-0.4c0.3-0.1,0.5,0.1,0.8,0c0.1-0.7,0-2-0.1-2.7c0-0.4-0.1-0.5-0.5-0.4
					c-0.8,0.3-1.3,0.4-2.2,0.4c-0.1,0-0.2,0-0.2,0.1c-0.5,0.4-0.9-0.2-1.3-0.2c0-0.2,0.1-0.2,0.1-0.2c0.7-0.2,1.4-0.4,1.8-0.5
					c0.6-0.1,1-0.3,1.6-0.5c0.3-0.1,0.4-0.1,0.6-0.2c0.3,0,0.6,0,0.8,0.2c0.3,0.1,0.5,0.3,0.8,0.3c0.1-0.2-0.1-0.2-0.2-0.3
					c-0.2,0-0.3-0.2-0.1-0.2C552.4,323.9,552.9,324.1,553.2,324.4z M546.6,333.8c0.2,0.1,0.2,0.3,0.4,0.4c0.2,0.1,0.3,0.4,0.6,0.3
					c-0.3-0.3-0.6-0.6-0.8-1c-0.1-0.1-0.3-0.5-0.3-0.1C546.6,333.6,546.4,333.8,546.6,333.8z M550.5,328.9c-0.1,0.1-0.1,0.2-0.3,0.2
					c-0.1,0-0.1,0-0.3,0.1c-0.3,0.2-0.3,0.3-0.6,0.5s-0.5,0.4-0.6,0.7c-0.5,1.2-0.4,2.5,0,2.9c0.3,0.3,0.4,0.5,0.8,0.4
					c0.2-0.1,0.8-0.4,1.1-0.5c0.2-0.1,0.2-0.2,0.2-0.4c0-0.1,0-0.3,0-0.5c0.1-0.5-0.2-0.9-0.1-1.7c0.1-0.4-0.1-0.7,0-1.1
					c0.1-0.3,0-0.5,0-0.8C550.7,328.8,550.5,328.9,550.5,328.9z"/>
				<path class="st51" d="M561,323.7c0.1,0-0.7,0.5-0.2,0.5c0.2,0-0.1,0.2-0.5,0.4c0,0-0.2,0.1-0.3,0.1c-0.3,0.1-0.6,0.1-0.8,0.4
					c-0.2,0.3-0.7,0.4-0.6,0.9c0,0.1,0,0.3,0,0.5c0.1,0.3,0.8,1,1.1,1.2c0.6,0.4,1.2,1.2,1.5,1.6c0.4,0.6,0.7,2.2,0.6,2.9
					c-0.1,0.5-0.5,1-0.8,1.5c-0.4,0.8-1.4,1-1.9,1.2c-0.1,0.1-0.2,0.1-0.3,0.1c-0.3,0.1-0.9,0.1-1.4-0.1c-0.3-0.1-1-0.2-0.8-0.3
					c0.1,0,0.3,0.1-0.5-0.3c-0.7-0.4-0.5-0.4-0.7-0.7c-0.2-0.4,0.1-0.2,0.1-0.2c0-0.1-0.4-0.4-0.2-0.4c0.1,0,0.1,0,0.2,0
					c0.2,0,0.6,0.4,0.6,0.2c0-0.2-0.5-0.5-0.7-0.8c-0.1-0.4,0.3,0.1,0.6,0.2c0.2,0.1,0.5,0.4,1,0.4c0.3,0.2,0.8,0.2,1.1,0.1
					c0.3-0.3,0.6-0.5,0.6-0.9c0.1-0.6-0.1-1.6-0.5-2.3c-0.4-0.7-1.1-1.3-1.7-1.8c-0.6-0.7-0.7-1.6-0.4-2.4c0.2-0.6,0.4-1.1,1.2-1.3
					c0.1,0,0.2-0.1,0.3-0.2c0.4-0.3,0.9-0.3,1.3-0.4c0.4-0.1,0.8-0.2,1.1-0.3C560.3,323.5,560.7,323.7,561,323.7z M558,329l0.5,0.8
					c0.1,0.1,0.3,0.3,0.4,0.3c0-0.1,0.1-0.2,0-0.3c0,0-0.1-0.1-0.3-0.3l-0.7-0.8l-0.5-0.4C557.3,328.1,557.9,328.8,558,329z"/>
			</g>
		</g>
	</g>
	<g>
		<path class="st54" d="M834.9,311.1c-0.2,0.4-0.6,0.8-1,1.1c-3.3,2.7-15.6-3-29.1-1.4s-28.4-0.8-28.4-0.8l-2.4-1.2l-8.3,43.4
			l-4.6,3.6L685,355c0,0-0.1-5-2.3-3.9s-8.6,5.5-12.4,3s-3.8-8.2-0.8-11.4s13.7-8.1,8.1-20.6S653.8,302,653.8,302l2.6-51.2
			c0,0-0.4-18,3.8-23.5s7.2-11.3,15.2-13.9c2.9-1,6.3-2,9.8-3.1c6-1.9,12.1-4,15.3-6.1l61.3,3.9c1.7-0.2,3.3-0.3,5-0.2
			c7.8,0.1,22.4,2.2,29,16.4c9.1,19.8,7.7,28.1,10.4,34s12.7,36.5,17.9,40.9c2.9,2.5,6.1,4.7,9.5,6.4
			C833.6,305.7,836.4,308.6,834.9,311.1z"/>
		<path class="st25" d="M802.5,311c-8.7,0.5-17.4,0.2-26-1.1l-2.5-1.2l6.4-24.1C781.3,290.4,796.6,305.4,802.5,311z"/>
		<path class="st25" d="M666.5,309.2l5.5-48c0,0,5.6,50.3,10.5,57.1c0,0,13.3,25.8,44.2,37.2L685,355c0,0-0.1-5-2.3-3.9
			s-8.6,5.5-12.4,3s-3.8-8.2-0.8-11.4s13.7-8.1,8.1-20.7C675.3,316.8,670.9,312.5,666.5,309.2z"/>
		<path class="st25" d="M751.3,287.3c3.6,0.1,7.2-0.7,10.5-2.1c6.4-3,8.2-8,8.2-8.3c0.1-0.4-0.1-0.8-0.4-0.9
			c-0.4-0.1-0.8,0.1-0.9,0.4c-1.5,3.3-4.2,6-7.5,7.5c-6.7,3.1-16,2.6-27.6-1.7c-0.4-0.1-0.8,0-0.9,0.4l0,0c-0.1,0.4,0,0.8,0.4,0.9
			l0,0C739.9,286,746,287.3,751.3,287.3z"/>
		<path class="st28" d="M807.6,358c-11.3,4.8-27.6-6.8-27.6-6.8s-59.8-39.6-61-39.9s-4.5-0.2-6.5-0.8s-17.4-15.4-18.6-16.4
			s-6.3-0.9-7.8,0s-3.4,5.3-3.8,7c-0.4,1.5-1.5,2.8-3,3.3c-1,0.2-1.6-1.2-1.1-2.6s3.9-11.5,4.5-13.5s8.2-1.8,8.2-1.8l-3-4.5
			c0,0-10.4,8.6-11.8,7.7s0.3-2.9,0.3-2.9s10.8-11.2,12-11.3s3.4,1.8,5.8,2.9s3-0.2,3-0.2c-2.7-5.3-11.5-6.9-12.8-7.5
			s-2.4-2-1.5-3.6s8.2,1.2,11.3,2.2c3,0.9,5.6,2.8,7.3,5.3c1.8,2.7,5.6,5.8,9.3,9.4s20.3,15.9,20.3,15.9
			c11.6,2.1,45.2,13.3,45.2,13.3l-1.7-4.1l-0.2-0.4l39.9,1.1c0,0,0.5,2.6,1.3,6.2c1.5,7.6,4,19.8,4.4,22
			C820.6,341.6,818.9,353.2,807.6,358z"/>
		<path class="st29" d="M776.3,313.4l-0.1-0.3l0,0l4,7.2l-40.7-18.2C754.1,306.1,776.3,313.4,776.3,313.4z"/>
		<path class="st29" d="M815.6,316.2l-41-6.9l-0.2-0.4l39.9,1.1C814.4,310,814.9,312.6,815.6,316.2z"/>
		<path class="st28" d="M679,330.9c-1.7,1.9-6.1,4.9-14.1,3.8s-18-12.6-20.7-14.2s-23.5,1.2-24,1.1s-2.9-0.5-3.9-2
			S605,296.4,605,296.4c-1.5-8.3,38.7-0.2,38.7-0.2s5.5,1.7,10.1,3.2c4.5,1.5,8.3,3.5,13.7,3.9h0.7c5.8,0.2,11,5.3,11,5.3
			c0.4,1.7,0.8,3.3,1,4.8C681.9,323,680.5,329.2,679,330.9z"/>
		<path class="st29" d="M632.5,282.4c0,0-1.5-12.2,2.6-12s1.8,16.6,6.3,25S632.5,282.4,632.5,282.4z"/>
		<path class="st43" d="M631.2,270.4c-1.2-0.9-2.3-1.9-3.3-3l-14.7-28.3c1.4-0.5,0.7-2.2,0.7-2.2l-1-2.8l-5.8,2.1l-5.8,2.1l1,2.8
			v0.1c0.2,0.5,0.6,1,1.1,1.2h0.2c0.1,0,0.1,0,0.2,0c0.1,0,0.3,0,0.4-0.1l6.9,31.1c0,0.4,0,0.7-0.1,1.1c-0.1,1.1-0.3,2.2-0.6,3.3
			c-0.7,3-0.8,4.5,5,20.4l0,0c5.8,15.9,11.5,31.6,11.5,31.6s1.7,3.6,13.8-0.9s11.2-8.2,11.2-8.2l-11.5-31.6
			C634.7,273.3,633.6,272.2,631.2,270.4z"/>
		<path class="st44" d="M626.3,268.3c-1.4-1.1-14.4-29.3-14.4-29.3c1.6-0.6,1.4-1.7,1.4-1.7l-1.1-2.9l-5.2,1.9l-5.2,1.9l1.1,2.9
			c0,0,0.6,1,2.2,0.4c0,0,8.2,30,7.8,31.7s-1.7,7.6-0.6,10.9s15.3,41.9,15.3,41.9c0,0.1,0,0.1,0.1,0.1v0.1l0,0
			c0.2,0.2,0.3,0.4,0.6,0.5l0.1,0.1c1.1,0.7,3.5,1.3,8.9-0.3l0.4-0.1c0.6-0.2,1.2-0.4,1.9-0.6c10.6-3.9,9.3-7.5,9.3-7.5
			s-14.1-38.7-15.3-41.9S627.7,269.4,626.3,268.3z"/>
		<path class="st45" d="M603,241.1c0,0,0.6,1,2.2,0.4c0,0,8.2,30,7.8,31.7s-1.7,7.6-0.6,10.9s15.2,41.9,15.2,41.9s1.4,3.6,12-0.3
			c-6.4,2.3-7.4-1-7.4-1l-15.5-42.4c-1.8-5.1-0.3-10.7-0.3-10.7l-9.7-29.9l0.9-1.1l-2.2,0.8l-0.7-2l2-3l-4.9,1.8L603,241.1z"/>
		<polygon class="st46" points="605.1,241.5 611.9,239 612.5,240.4 605.5,243 		"/>
		<path class="st46" d="M626.3,268.3c-0.1-0.1-0.2-0.2-0.2-0.3l-13.1,4.8c0,0.1,0,0.2,0,0.4c-0.4,1.7-1.7,7.6-0.6,10.9
			s15.2,41.9,15.2,41.9s1.4,3.6,12-0.3l-13-35.6c-3.9-10.6,7.2-4.4,9.8-6.2c-1.4-3.9-2.5-6.8-2.8-7.6
			C632.5,273.1,627.7,269.4,626.3,268.3z"/>
		<path class="st47" d="M634,294.2c0.1,0.3-0.1,0.6-0.3,0.7c-0.3,0.1-0.6,0-0.7-0.3l0,0c-0.1-0.3,0.1-0.6,0.3-0.7
			C633.6,293.7,633.9,293.9,634,294.2L634,294.2z"/>
		<path class="st47" d="M620,286.9c0.1,0.2,0,0.5-0.3,0.6l0,0c-0.3,0.1-0.5-0.1-0.6-0.3c-0.1-0.2,0-0.5,0.3-0.5
			C619.6,286.5,619.9,286.7,620,286.9L620,286.9z"/>
		<path class="st47" d="M627.9,277.6c0.1,0.1,0,0.3-0.2,0.4c-0.1,0-0.3,0-0.4-0.2c0-0.1,0-0.3,0.2-0.4
			C627.7,277.4,627.9,277.5,627.9,277.6z"/>
		<path class="st47" d="M625.8,300.5c0,0.2-0.1,0.4-0.3,0.4s-0.3,0-0.4-0.2c-0.1-0.2,0-0.4,0.2-0.5
			C625.5,300.3,625.7,300.4,625.8,300.5C625.7,300.5,625.7,300.5,625.8,300.5z"/>
		<path class="st47" d="M637.5,301.9c0.1,0.3,0,0.5-0.3,0.6s-0.5,0-0.7-0.3c-0.1-0.3,0-0.6,0.3-0.6
			C637.2,301.5,637.5,301.7,637.5,301.9L637.5,301.9z"/>
		<path class="st47" d="M640.2,312c0.2,0.4-0.1,0.9-0.5,1.1l0,0c-0.4,0.2-0.9,0-1.1-0.5l0,0c-0.2-0.4,0.1-0.9,0.5-1.1
			S640,311.6,640.2,312z"/>
		<path class="st47" d="M639.7,308.8c0,0.1,0,0.2-0.1,0.2s-0.2,0-0.2-0.1l0,0c0-0.1,0-0.2,0.1-0.2
			C639.5,308.7,639.6,308.7,639.7,308.8z"/>
		<path class="st47" d="M630.8,317.7c0,0.1,0,0.3-0.1,0.3s-0.3,0-0.3-0.1s0-0.3,0.1-0.3l0,0C630.6,317.5,630.7,317.6,630.8,317.7z"
			/>
		<path class="st47" d="M631.5,308.2c0.1,0.2,0,0.4-0.2,0.5l0,0c-0.2,0.1-0.4,0-0.5-0.2s0-0.4,0.2-0.5l0,0
			C631.2,307.8,631.4,307.9,631.5,308.2C631.5,308.1,631.5,308.2,631.5,308.2z"/>
		<path class="st47" d="M641.4,320.2c0.1,0.3,0,0.7-0.4,0.8c-0.3,0.1-0.7,0-0.8-0.4c-0.1-0.3,0-0.7,0.4-0.8l0,0
			C640.9,319.7,641.2,319.9,641.4,320.2z"/>
		<path class="st47" d="M620.3,278.5c0,0.1,0,0.2-0.1,0.3c-0.1,0-0.2,0-0.3-0.1l0,0c0-0.1,0-0.3,0.1-0.3
			C620.2,278.3,620.3,278.4,620.3,278.5z"/>
		<path class="st47" d="M626.6,280.7c0.1,0.2,0,0.5-0.3,0.6c-0.2,0.1-0.5,0-0.6-0.3l0,0c-0.1-0.3,0.1-0.5,0.3-0.6
			C626.3,280.4,626.5,280.5,626.6,280.7z"/>
		<path class="st47" d="M622.4,265.7c0.1,0.3,0,0.6-0.3,0.7l0,0c-0.3,0.1-0.6,0-0.7-0.3c-0.1-0.3,0-0.6,0.3-0.7
			C621.9,265.2,622.3,265.4,622.4,265.7z"/>
		<path class="st47" d="M615.8,267.4c0.1,0.2,0,0.4-0.2,0.5l0,0c-0.2,0.1-0.4,0-0.5-0.2s0-0.4,0.2-0.5l0,0
			C615.5,267,615.7,267.1,615.8,267.4C615.8,267.3,615.8,267.3,615.8,267.4z"/>
		<path class="st47" d="M610.1,248.3c0,0.1,0,0.2-0.1,0.2s-0.2,0-0.2-0.1s0-0.2,0.1-0.2C610,248.1,610.1,248.2,610.1,248.3z"/>
		<path class="st47" d="M613.6,247.6c0.1,0.2,0,0.4-0.2,0.5s-0.4,0-0.5-0.2s0-0.4,0.2-0.5l0,0C613.3,247.3,613.5,247.4,613.6,247.6z
			"/>
		<path class="st47" d="M610.2,243.1c0.1,0.1,0,0.3-0.2,0.3l0,0c-0.1,0.1-0.3,0-0.3-0.2l0,0c-0.1-0.1,0-0.3,0.2-0.3l0,0
			C609.9,242.9,610.1,243,610.2,243.1C610.1,243.1,610.1,243.1,610.2,243.1z"/>
		<path class="st47" d="M632.3,281.4c0.1,0.2,0,0.4-0.2,0.4l0,0c-0.2,0.1-0.4,0-0.5-0.2s0-0.4,0.2-0.4l0,0
			C632,281.1,632.2,281.2,632.3,281.4L632.3,281.4z"/>
		<path class="st47" d="M632,288.2c0.1,0.2,0,0.4-0.2,0.5s-0.4,0-0.5-0.2s0-0.4,0.2-0.5l0,0C631.7,287.9,631.9,288,632,288.2z"/>
		<path class="st47" d="M631.2,322.1c0.1,0.4-0.1,0.7-0.4,0.9c-0.4,0.1-0.7-0.1-0.9-0.4c-0.1-0.4,0.1-0.7,0.4-0.9
			C630.7,321.6,631.1,321.7,631.2,322.1z"/>
		<path class="st47" d="M644.7,319.6c0.1,0.3,0,0.6-0.3,0.7s-0.6,0-0.7-0.3c-0.1-0.3,0-0.6,0.3-0.7l0,0
			C644.3,319.1,644.6,319.3,644.7,319.6z"/>
		<path class="st47" d="M639.1,316.2c0.1,0.3,0,0.6-0.3,0.7s-0.6,0-0.7-0.3s0-0.6,0.3-0.7C638.6,315.8,639,315.9,639.1,316.2z"/>
		<polygon class="st3" points="616.4,262 623.1,258.3 618.9,250.1 613.1,252.8 606.9,254.5 608.9,263.5 616.4,262 		"/>
		<polygon class="st3" points="622.7,257.5 622.4,256.9 615.8,260.2 608.5,261.8 608.6,262.5 616.1,260.9 		"/>
		<path class="st3" d="M613.5,254l6-2.8l-0.3-0.6l-5.9,2.7c-1.9,0.6-4.5,1.3-6.2,1.8l0.2,0.7C608.4,255.5,610.4,254.9,613.5,254
			L613.5,254z"/>
		<path class="st3" d="M614,255.4l6.1-2.9l-0.3-0.6l-6,2.8c-1.9,0.6-4.7,1.4-6.4,1.8l0.2,0.7C608.7,257,610.6,256.4,614,255.4
			L614,255.4z"/>
		<path class="st3" d="M642.3,311.2l-13.1,4.8c-0.7,0.2-1.4,0.2-2-0.1c-0.6-0.3-1.1-0.8-1.4-1.5l-9.4-25.7c-0.2-0.7-0.2-1.4,0.1-2
			s0.8-1.1,1.5-1.4l13.1-4.8c0.7-0.2,1.4-0.2,2,0.1c0.6,0.3,1.1,0.8,1.4,1.5l9.4,25.7c0.2,0.6,0.2,1.3,0,1.9
			C643.5,310.5,642.9,311,642.3,311.2z"/>
		<path class="st3" d="M632.8,281.7c-0.6-0.3-1.4-0.4-2.1-0.1l-11.8,4.3c-0.7,0.2-1.2,0.8-1.5,1.4c-0.3,0.7-0.3,1.4-0.1,2.1
			l8.8,24.2c0.3,0.7,0.8,1.3,1.4,1.6c0.6,0.3,1.4,0.4,2.1,0.1l11.8-4.3c0.7-0.3,1.3-0.8,1.5-1.5c0.2-0.6,0.2-1.4,0-2l-8.8-24.2
			C633.9,282.6,633.4,282,632.8,281.7z M642.4,307.7c0.2,0.5,0.2,1.1,0,1.6s-0.6,0.9-1.2,1.1l-11.8,4.3c-0.5,0.2-1.1,0.1-1.5-0.1
			c-0.5-0.3-0.9-0.7-1.1-1.2l-8.8-24.2c-0.2-0.5-0.2-1.1,0-1.6s0.6-0.9,1.1-1.1l11.8-4.3c0.5-0.2,1.1-0.1,1.5,0.1
			c0.5,0.2,0.9,0.7,1.1,1.2L642.4,307.7z"/>
		<path class="st48" d="M624,268.9l-3-7.4l4.1,7c0,0,6,4.7,6.8,5.9c0.6,0.7,0.6,1.7-0.1,2.3c-0.7,0.6-1.7,0.6-2.3-0.1
			c-0.1-0.1-0.1-0.2-0.2-0.2C628.1,274.5,625.2,270.1,624,268.9z"/>
		<path class="st48" d="M623.5,269.4c0,0-1.8,1.5-0.8,3.1S626.1,272.4,623.5,269.4z"/>
		<path class="st43" d="M612.8,234.2c0,0.1-0.1,0.2-0.3,0.4l0,0c-1.6,1-3.4,1.7-5.2,2.3c-1.8,0.7-3.6,1.2-5.5,1.6l0,0
			c-0.3,0-0.5,0-0.5-0.1c-0.1-0.4,2.3-1.6,5.5-2.7S612.7,233.8,612.8,234.2z"/>
		<path class="st45" d="M612.5,234.6c-1.6,1-3.4,1.7-5.2,2.3c-1.8,0.7-3.6,1.2-5.5,1.6c1.6-1,3.4-1.7,5.2-2.3
			C608.8,235.4,610.6,234.9,612.5,234.6z"/>
		<path class="st29" d="M624.2,316.3c0,0,13-6.5,11.6-9s-15.5,5.5-15.5,5.5l-0.3-1.6l13.5-13c0,0,1.8-2,0.8-3.4s-3.4-0.3-3.4-0.3
			l-16.5,13.2l0.7-2.3l13.1-11.9c0,0,1-2.6,0-3.2s-3.7,0.2-3.7,0.2L611,301.8l-0.6-4.7l6.9-7.4c0,0,1-2.2,0.1-2.6
			c-0.8-0.2-1.7-0.2-2.6-0.1l-7.3,6.3l0.5,5l10.2,18.7L624.2,316.3z"/>
		<path class="st29" d="M680.3,313.4l-12.7-10.2h0.7c5.8,0.2,11,5.3,11,5.3C679.7,310.3,680,311.9,680.3,313.4z"/>
		<path class="st25" d="M834.9,311.1l-13.2-9.1c0,0-26.5-40.1-15.5-43.7c2.7,5.9,12.7,36.5,17.9,40.9c2.9,2.5,6.1,4.7,9.5,6.4
			C833.6,305.7,836.4,308.6,834.9,311.1z"/>
		<path class="st55" d="M636.8,499.9h89.5l0.3-29.9h2.3l11.1,29.9h67.1c-5.2-20.7-15-66.2-15-66.2s-9.1-31.2-12.9-44.7
			s-13.5-36.7-13.5-36.7l-81.2-0.1l-34.3,42.4c0,0-21.8,24.2-22.2,47.4s5.2,48.1,8.2,58C636.4,500.3,636.6,499.5,636.8,499.9z"/>
		<path class="st56" d="M781.3,499.9h2.2L763,429.8c-0.1-0.6-0.6-1-1.2-1c-0.6,0.1-1,0.6-1,1.2c0,0.1,0.1,0.3,0.1,0.4L781.3,499.9z"
			/>
		<path class="st57" d="M650.5,394.2l1.4-1.8c4.2,1.6,13.4,3.8,26.2-1.8c15.3-6.6,17.6-24.5,17.9-29.1l-19.1-0.1l1.7-2.1l18.3,0.1
			h0.2l0,0c0.1,0,0.2,0,0.2,0l58.1,0.2c0.4-0.2,0.8-0.2,1.2,0h12c0.3,0.7,0.6,1.4,0.8,2.1h-12.3c1.3,17.6,16.2,26.5,22.5,29.5
			c0.2,0.9,0.5,1.7,0.8,2.7c-5.2-2.2-24-11.6-25.5-32.2h-16.1c4.4,38.6-8.1,50.1-8.6,50.5c-0.2,0.2-0.4,0.3-0.7,0.3
			s-0.6-0.1-0.8-0.4c-0.4-0.4-0.4-1.1,0.1-1.5c0.1-0.1,12.2-11.4,7.8-48.9l-38.6-0.1c-0.3,4.8-2.7,23.9-19.2,31
			c-5.3,2.4-11.1,3.7-17,3.8C658.1,396.5,654.2,395.7,650.5,394.2z"/>
		<path class="st4" d="M723.2,348.2h26.5c0.6,0,1.1,0.5,1.1,1l0,0v15c0,0.6-0.5,1.1-1.1,1.1l0,0h-26.5c-0.6,0-1.1-0.5-1.1-1.1l0,0
			v-15C722.2,348.7,722.6,348.2,723.2,348.2L723.2,348.2z M724.3,363.2h24.4v-5.5h-14.9l0,0c-0.6-0.1-1-0.6-1-1.2c0-0.5,0.5-0.9,1-1
			h14.9v-5.2h-24.4V363.2z"/>
		<path class="st56" d="M726.2,499.9l0.3-29.9h2.3l11.1,29.9h4.7l0.3-78.3h-21.6c0,0-12.1,35.9,0,78.3L726.2,499.9L726.2,499.9z"/>
		<path class="st58" d="M726.2,499.9l0.3-29.9h1.3l-9.8-19c-0.6,12.2,0.3,32.1,5.2,48.9H726.2z"/>
		<path class="st59" d="M636.8,499.9h21.3c-8.7-21.9-15.7-43.8-16.2-45.4c-1.3-3.8-4.1-30.5-5.2-40.5c-4.5,8.2-8.5,18.1-8.6,27.9
			c-0.4,23.1,5.2,48.1,8.2,58C636.4,500.3,636.6,499.5,636.8,499.9z"/>
		<path class="st25" d="M766.8,207.8c-8,6.5-21.7,14.1-42,13.8c-14-0.1-27.6-4-39.5-11.3c6-1.9,12.1-4,15.3-6.1l61.3,3.9
			C763.5,207.9,765.2,207.8,766.8,207.8z"/>
		<path class="st26" d="M761.3,169.4c-4-7-16.9-30.4-16.8-35.9c0.1-5-3.5-13.1-8-19.5c-0.9-1.9-2.1-3.7-3.5-5.3
			c-3.6-4-8.2-7-13.4-8.7c-2-1.1-4.1-2-6.3-2.7c-3.7-1.1-7.6-1.4-11.4-0.9c-3.7,0.4-7.2,1.9-10.1,4.4c-0.3,0.3-0.7,0.7-1,1
			c-0.2,0.2,0.1,0.5,0.3,0.3c0.3-0.4,0.6-0.7,1-1c0,0.1,0.1,0.3,0.2,0.3c7.2-2.3,14.9-3.4,22.3-2.1c1.6,0.3,3.2,0.7,4.8,1.2
			c0.9,0.5,1.7,1.1,2.6,1.7c0.4,0.3,0.7,0.5,1,0.8c-8.5-3.3-21.6-5.3-34.5,0.4c-15.3,6.8-19.9,26.6-16.6,39.7s14.7,21.1,14.7,21.1
			l19.7-6.2l0.1,0.6l5.2,25.4c0,0,10.3,0.6,29.1-2.9c14.3-2.6,21.7-9.7,21.7-9.7L761.3,169.4z M717.3,99.4
			c-7.4-1.8-15.2-1.2-22.5,0.8c-0.9,0.2-1.8,0.5-2.7,0.8c2.4-2,5.3-3.4,8.4-3.9c3.7-0.7,7.5-0.6,11.2,0.3c2,0.5,4,1.2,5.9,2.1
			L717.3,99.4z M721.1,101c3.8,1.4,7.2,3.6,10.1,6.4c1.2,1.2,2.3,2.5,3.3,3.9c-2-2.6-4.4-4.8-7.2-6.5c-0.9-0.5-2-1-3.1-1.4
			c-0.3-0.3-0.6-0.5-0.9-0.8C722.6,102.1,721.9,101.6,721.1,101L721.1,101z"/>
		<path class="st27" d="M734.5,130.8l-0.4-0.1c1.1-2.9-0.7-6.3-3-7.9c-2.7-1.9-6.1-2.3-8.7-2.4c-0.8,0-1.7-0.1-2.5-0.1
			c-2.3,0-4.6-0.2-6.8-0.6c-4.7-1.1-8.8-4.2-11.2-8.4l0.3-0.2c2.3,4.1,6.3,7.1,10.9,8.2c2.2,0.4,4.5,0.6,6.8,0.6
			c0.8,0,1.7,0,2.5,0.1c2.7,0.1,6.2,0.6,9,2.5C733.9,124.2,735.7,127.7,734.5,130.8z"/>
		<path class="st27" d="M739.2,138.1c-0.4-18.7-16-33.5-34.6-33.1c-0.1,0-0.1,0-0.2,0v-0.4c18.9-0.5,34.7,14.4,35.2,33.3v0.1
			L739.2,138.1z"/>
		<path class="st27" d="M721.7,117.8c-3.6-3.7-8-6.5-13-7.9l0.1-0.4c5,1.5,9.6,4.2,13.2,8L721.7,117.8z"/>
		<path class="st27" d="M745.3,153.1c2.3,3,4.2,6.3,5.7,9.8c0.4,1,0.8,2,1.1,3c0.1,0.2,0.5,0.1,0.4-0.1c-1.2-3.6-2.8-7.1-4.9-10.3
			c-0.6-0.9-1.2-1.8-1.9-2.6C745.5,152.7,745.1,152.9,745.3,153.1L745.3,153.1z"/>
		<path class="st27" d="M739.7,156.9c0.8,2.4,2.2,4.6,4,6.4c0.1,0.1,0.2,0.1,0.3,0s0.1-0.2,0-0.3l0,0c-1.8-1.8-3.1-3.9-3.9-6.3
			C740,156.6,739.6,156.7,739.7,156.9L739.7,156.9z"/>
		<path class="st27" d="M689.3,108.9c-1.4,2.8-3.6,5.1-6.5,6.6c-0.8,0.4-1.6,0.7-2.5,1c-0.1,0-0.2,0.1-0.1,0.2
			c0,0.1,0.1,0.2,0.2,0.1c3.1-0.9,5.8-2.8,7.8-5.3c0.5-0.7,1-1.5,1.4-2.3C689.7,108.9,689.4,108.7,689.3,108.9L689.3,108.9z"/>
		<path class="st27" d="M684.2,108.9c-2.3,2.5-5.3,4.3-8.5,5.3c-0.2,0.1-0.1,0.5,0.1,0.4c3.3-1,6.3-2.9,8.7-5.4
			C684.6,109,684.4,108.7,684.2,108.9L684.2,108.9z"/>
		<path class="st27" d="M762.4,171.4c0,0-7.4,7.1-21.7,9.7c-18.8,3.4-29.1,2.9-29.1,2.9l-5.2-25.4l20.5-11.1c0,0,1.7,26.2,34.2,22
			L762.4,171.4z"/>
		<path class="st27" d="M680,130.8l15.7-20.8c2,7,5.8,15.8,13.4,18.7c8.1,3,14.2-3,19.2,0.8c6.2,4.7,2.7,18.8-0.3,27.4
			C712.9,199.2,680,130.8,680,130.8z"/>
		<path class="st28" d="M761.5,207.7c0,0-8.2,10.9-29.5,10.9s-38.3-10.9-38.3-10.9s15.9-4.1,14.7-12.5s-3.9-20.8-3.9-20.8
			s-6.8,4.3-13.1,0.4s-7.9-12.6-7.9-12.6s-0.4-1.9-1-4.8l-0.7-3.5c-1.2-6.4-2.6-14.9-2.7-19.8c-0.2-8.5,4.3-13.5,5-13.7
			s15,14.8,23.8,16.7s18.4,3.6,19.9,2s3.4-2.9,7.9-1.6s8.6,6.4,6.4,12.3s-10.9,5.7-10.9,5.7s7.9,42,9.5,43.3
			C746.9,203,754,206,761.5,207.7z"/>
		<path class="st29" d="M707.2,188.8c-0.9-4.9-1.9-9.9-2.5-12.5l15.6-13.3L707.2,188.8z"/>
		<path class="st30" d="M686.9,143.8c0,1-0.8,1.9-1.8,1.9s-1.9-0.8-1.9-1.8s0.8-1.9,1.8-1.9C685.9,142,686.8,142.8,686.9,143.8z"/>
		<path class="st30" d="M706.8,144.9c0,1-0.8,1.9-1.8,1.9s-1.9-0.8-1.9-1.8s0.7-1.9,1.8-1.9C705.9,143,706.8,143.8,706.8,144.9z"/>
		<path class="st30" d="M688.3,140.5l-10.6-0.7c0,0,1.4-2.7,5.7-2.3S688.3,140.5,688.3,140.5z"/>
		<path class="st30" d="M711,141.4l-10.6-0.7c0,0,1.4-2.7,5.7-2.3S711,141.4,711,141.4z"/>
		<path class="st31" d="M693.2,141.4l-0.9,15.7C692.3,157.1,681.3,153.6,693.2,141.4z"/>
		<path class="st31" d="M686.7,155.6c0,1-1.9,1.7-4.3,1.7l-0.7-3.5h0.6C684.8,153.8,686.7,154.6,686.7,155.6z"/>
		<path class="st31" d="M707.3,156.2c2.4,0,4.4-0.8,4.4-1.7s-2-1.8-4.4-1.8s-4.4,0.8-4.4,1.7S704.9,156.2,707.3,156.2z"/>
		<path class="st31" d="M695.7,170.6c1.2,0,2.2-0.4,2.2-0.9s-1-0.9-2.2-0.9s-2.2,0.4-2.2,0.9S694.5,170.6,695.7,170.6z"/>
		<path class="st32" d="M693.8,165.6c1.1,0.4,2.3,0.6,3.4,0.4c1.2-0.1,2.4-0.5,3.4-1.1c1.5-1.1,2.4-2.7,2.5-4.5
			c0.1-0.6-0.4-1.2-1-1.3c-0.1,0-0.1,0-0.2,0h-0.2l-10.4,0.7h-0.2c-0.6,0.1-1.1,0.6-1.1,1.3c0,0.1,0,0.2,0.1,0.3
			C690.7,163.2,692,164.8,693.8,165.6z"/>
		<path class="st33" d="M694.1,161.7l5.1-0.2c1.4-0.1,2.5-1.1,2.6-2.5l-10.4,0.7C691.8,161,692.9,161.8,694.1,161.7z"/>
		<path class="st34" d="M693.8,165.6c1.1,0.4,2.3,0.6,3.4,0.4c1.2-0.1,2.4-0.5,3.4-1.1c-0.9-0.9-2.2-1.4-3.5-1.3
			C695.8,163.7,694.6,164.4,693.8,165.6z"/>
		<path class="st26" d="M678.8,100.1c-1.3,0.1-2.5,0.5-3.6,1c-0.9,0.4-1.6,1-2.3,1.7s-1.2,1.5-1.6,2.4c-0.8,1.8-1.3,3.7-2,5.5
			c-0.6,1.8-1.7,3.4-3.1,4.7c-0.4,0.3-0.7,0.6-1.1,0.9c-0.4,0.3-0.8,0.6-1.2,1c-0.8,0.7-1.5,1.5-2.1,2.4l-0.2,0.3v0.1v0.1v0.1
			l-0.1,0.2l-0.2,0.3l-0.1,0.4c-0.1,0.3-0.1,0.5-0.2,0.8c0,0.3-0.1,0.5-0.1,0.8c-0.1,1,0,2,0.1,3c0.1,0.9,0.3,1.9,0.5,2.8
			c0.1,0.2,0.1,0.4,0.2,0.7v0.2c0,0.1,0,0.1,0.1,0.2l0.1,0.3l0.5,1.2c0.6,1.4,0.8,3,0.6,4.5c-0.3,1.3-0.9,2.5-1.6,3.6
			c-0.6,0.9-1,1.9-1.3,2.9c-0.1,0.4-0.2,0.8-0.2,1.2c0,0.3-0.1,0.6-0.1,0.9v0.7l0.1-0.7c0.1-0.7,0.2-1.4,0.5-2
			c0.3-1,0.8-1.9,1.4-2.8c0.9-1.1,1.5-2.4,1.9-3.7c0.1-0.4,0.1-0.8,0.2-1.2c0-0.4,0-0.8,0-1.2s-0.1-0.8-0.2-1.3l-0.4-1.3l-0.5-1.2
			l-0.1-0.3v-0.1v-0.1c0-0.2-0.1-0.4-0.2-0.6c-0.2-0.9-0.3-1.8-0.4-2.7c-0.1-0.9-0.1-1.8,0-2.7c0-0.2,0.1-0.4,0.1-0.7
			c0-0.2,0.1-0.4,0.2-0.6l0.1-0.3l0.2-0.3l0.1-0.2l0,0l0,0v-0.1l0.2-0.3c0.4-0.6,0.8-1.1,1.3-1.6c-0.2,0.3-0.4,0.5-0.6,0.8
			s-0.2,0.3-0.3,0.4l-0.1,0.2c-0.1,0.2-0.2,0.4-0.3,0.6c-1.5,2.9,0.4,8.7,0.5,8.9c4.2,8.7-1.9,8.5-1.8,15.6s10.2,8.8,8.8,11.7
			c-2.7,5.5-6.4,0.3-6.4,0.3c0.2,3.6,5.2,7.6,9.4,5.7c4-1.8,7.6-6.3,4.1-12.6l0,0l0.8,1c0.2,0.3,0.5,0.6,0.7,0.9l0.6,1l0.5,1
			c0.1,0.4,0.3,0.7,0.4,1.1c0.1,0.4,0.2,0.7,0.2,1.1c0.1,0.4,0.1,0.8,0.1,1.1c0,0.4,0,0.8-0.1,1.2c-0.1,0.8-0.4,1.5-0.8,2.2
			c-0.4,0.7-0.9,1.4-1.4,1.9c-0.6,0.6-1.2,1.1-1.9,1.6c0.7-0.4,1.4-0.8,2.1-1.4c0.6-0.5,1.2-1.2,1.7-1.9s0.9-1.5,1.1-2.3
			c0.1-0.4,0.2-0.8,0.2-1.3c0-0.4,0-0.9,0-1.3c0-0.4-0.1-0.9-0.2-1.3c-0.1-0.4-0.2-0.8-0.3-1.3s-0.3-0.8-0.5-1.2l-0.6-1.1
			c-0.2-0.4-0.5-0.7-0.7-1.1l-0.7-1c-0.1-0.2-0.2-0.3-0.3-0.5l-0.3-0.5c-0.2-0.3-0.3-0.7-0.4-1c-0.2-0.6-0.2-1.3,0.1-1.9
			c0.2-0.6,0.7-1.3,1.1-2.1c0.2-0.4,0.4-0.8,0.6-1.2c0.2-0.4,0.3-0.9,0.3-1.3l0.1-0.7v-0.7c0-0.2,0-0.5,0-0.7l-0.1-0.7l-0.1-0.7
			l-0.1-0.6l-0.3-1.2l-0.3-1.2c-0.1-0.4-0.2-0.8-0.2-1.2c-0.1-0.8-0.2-1.5-0.2-2.3c0-0.4,0-0.8,0-1.2l0.1-1.1l0.2-0.6l0.3-0.6
			l0.4-0.6c0.2-0.2,0.3-0.4,0.5-0.5s0.3-0.3,0.5-0.5l0.6-0.4l0.7-0.3c0.2-0.1,0.5-0.2,0.7-0.3l1.5-0.6l0.8-0.3
			c0.3-0.1,0.5-0.3,0.8-0.4c0.5-0.3,1-0.5,1.5-0.9l1.4-1l0.2-0.2c4.3-2.2,7-6.5,7-11.3C695.5,104.8,688,98.1,678.8,100.1z
			 M677.9,140.5c-0.1,0.7-0.4,1.4-0.7,2.1c-0.3,0.7-0.8,1.4-1.1,2.3c-0.1,0.2-0.2,0.5-0.2,0.7c-0.1,0.2-0.1,0.5-0.1,0.8v0.4l0.1,0.4
			c0,0.2,0.1,0.5,0.2,0.7l0.1,0.3c-2.4-4.3,0.7-4.9,1.9-8.4v0.3L677.9,140.5z"/>
		<path class="st27" d="M673.4,132.2c-4.6-3.3-7.9-8-9.5-13.4c-0.2,0.2-0.3,0.4-0.5,0.6s-0.2,0.3-0.3,0.4L663,120
			c-0.1,0.2-0.2,0.4-0.3,0.6c-1.5,2.9,0.4,8.7,0.5,8.9c4.2,8.7-1.9,8.5-1.8,15.6s10.2,8.8,8.8,11.7c-2.7,5.5-6.4,0.3-6.4,0.3
			c0.2,3.6,5.2,7.6,9.4,5.7c4-1.8,7.6-6.3,4.1-12.6l0,0l0.8,1c0.2,0.3,0.5,0.6,0.7,0.9l0.6,1l0.5,1c0.1,0.4,0.3,0.7,0.4,1.1
			c0.1,0.4,0.2,0.7,0.2,1.1c0.1,0.4,0.1,0.8,0.1,1.1c0,0.4,0,0.8-0.1,1.2c-0.1,0.8-0.4,1.5-0.8,2.2c-0.4,0.7-0.9,1.4-1.4,1.9
			c-0.6,0.6-1.2,1.1-1.9,1.6c0.7-0.4,1.4-0.8,2.1-1.4c0.6-0.5,1.2-1.2,1.7-1.9s0.9-1.5,1.1-2.3c0.1-0.4,0.2-0.8,0.2-1.3
			c0-0.4,0-0.9,0-1.3c0-0.4-0.1-0.9-0.2-1.3c-0.1-0.4-0.2-0.8-0.3-1.3s-0.3-0.8-0.5-1.2l-0.6-1.1c-0.2-0.4-0.5-0.7-0.7-1.1l-0.7-1
			c-0.1-0.2-0.2-0.3-0.3-0.5l-0.3-0.5c-0.2-0.3-0.3-0.7-0.4-1c-0.2-0.6-0.2-1.3,0.1-1.9c0.2-0.6,0.7-1.3,1.1-2.1
			c0.2-0.4,0.4-0.8,0.6-1.2c0.2-0.4,0.3-0.9,0.3-1.3l0.1-0.7v-0.7c0-0.2,0-0.5,0-0.7l-0.1-0.7l-0.1-0.7l-0.1-0.6l-0.3-1.2
			C677.1,134.6,675.2,133.5,673.4,132.2z M678,140l-0.1,0.5c-0.1,0.7-0.4,1.4-0.7,2.1c-0.3,0.7-0.8,1.4-1.1,2.3
			c-0.1,0.2-0.2,0.5-0.2,0.7c-0.1,0.2-0.1,0.5-0.1,0.8v0.4l0.1,0.4c0,0.2,0.1,0.5,0.2,0.7l0.1,0.3c-2.4-4.3,0.7-4.9,1.9-8.4L678,140
			z"/>
		<path class="st29" d="M693.6,207.7c2.9-0.8,5.7-1.9,8.3-3.4c11.9,6.8,24.9,11.4,38.4,13.6c-2.8,0.4-5.6,0.6-8.4,0.6
			C710.6,218.6,693.6,207.7,693.6,207.7z"/>
		<path class="st60" d="M724.6,207.2c-6.8-0.1-13.4-1.8-19.3-5.2c0.4-0.3,0.7-0.7,1-1.1c16.9,9,30.7,3.4,37-0.5l1.4,0.8
			C738.7,205.1,731.8,207.1,724.6,207.2z"/>
	</g>
</g>
</svg>
