<svg id="Layer_1" data-name="Layer 1" xmlns="http://www.w3.org/2000/svg" xmlns:xlink="http://www.w3.org/1999/xlink" viewBox="0 0 406.49 342.78"><defs><clipPath id="clip-path"><path d="M363.12,69.05c-3.49-7-2.05-15.33-1.74-23.16S360,28.93,353,25.25c-6.1-3.23-14-.89-20.19-3.85-7.9-3.74-11-14.91-19.56-16.86s-16.05,6.8-24.81,7.61c-6,.56-11.78-2.69-17.8-2.55-7.11.17-12.89,4.84-18.38,9.67A157.92,157.92,0,0,0,90.12,280.1a67.32,67.32,0,0,0-13.75,25.07c-2.32,7.9-3.06,16.81.81,24.08,4.36,8.18,13.44,12.48,21.91,16.24,2.71,1.2,5.53,2.42,8.48,2.32s6.08-1.94,6.63-4.85c.73-3.89-3.25-7.5-2.59-11.41.59-3.47,4.44-5.25,7.86-6.09,18.57-4.54,37.78,1.91,56.48,5.91,26.51,5.67,53.78,6.41,80.88,7.13,6.77.18,13.92.27,19.82-3.05,4.52-2.55,7.77-6.81,10.88-11l36.59-48.7c4.53-6,9.1-12.12,11.89-19.11a36.91,36.91,0,0,0,1.91-6.38,157.16,157.16,0,0,0,22.43-81.16,158.88,158.88,0,0,0-3.43-32.87,24.12,24.12,0,0,0,.74-5.33c.26-10.2-6-21.09-1.06-30,3.68-6.71,13-10.57,13.06-18.22C369.7,77.58,365.39,73.63,363.12,69.05Z" style="fill:none"/></clipPath></defs><g style="clip-path:url(#clip-path)"><circle cx="202.45" cy="169.14" r="157.9" style="fill:#b1d7e7"/><path d="M179.61,209.72c1-1.07,2.06-2.13,3-3.19A35.21,35.21,0,0,0,164.38,195a33.75,33.75,0,0,1,17.72,6.34c6.23-4,11.5-9.26,17.19-14,8.87-10.72,15.67-18.93,22.6-21.53a33.69,33.69,0,0,1,7.26-1.79h0c-22,1.77-45.42,11.52-71.21,33.55a18.25,18.25,0,0,1,4.46.69C168.2,199.82,174.38,204,179.61,209.72Z" style="fill:#fff"/><path d="M164.38,195a35.21,35.21,0,0,1,18.28,11.56c6.39-6.82,11.82-13.38,16.63-19.21-5.69,4.73-11,10-17.19,14A33.75,33.75,0,0,0,164.38,195Z" style="fill:#bbbbbc"/><path d="M160.1,200.11c-1.38,1.15-2.75,2.31-4.11,3.5q-6.19,5.4-12,11.31s21.6-66.94,23.73-104.84a23.8,23.8,0,0,0-20.77-35C139.4,75,129.66,79,126.69,85.93s-2.6,14.84-2.19,22.4c.2,3.73.42,7.56,1.92,11s5.68,6.87,9.4,7.2c-20.66,41.8-33,87.07-40.09,133.15,36.62-10.38,61.15-27.88,79-45A42.13,42.13,0,0,0,160.1,200.11Z" style="fill:#ff9253"/><path d="M174.68,214.63q2.56-2.46,4.93-4.91c-5.23-5.7-11.41-9.9-17.21-11.48a18.25,18.25,0,0,0-4.46-.69,21.88,21.88,0,0,0-1.95,6.06c1.36-1.19,2.73-2.35,4.11-3.5A42.13,42.13,0,0,1,174.68,214.63Z" style="fill:#ea6928"/><path d="M187.1,326.3A289.06,289.06,0,0,0,272,333c12.17-12.35,23.85-27.78,34-44.63A157.33,157.33,0,0,1,202.45,327Q194.68,327,187.1,326.3Z" style="fill:none"/><path d="M321.24,267.87c-1.13,2.57-2.23,5.11-3.28,7.59-1.44-.21-2.87-.47-4.29-.76q-2.71,5.15-5.62,10.15c-.68,1.18-1.38,2.35-2.08,3.52a159,159,0,0,0,21-22.11c1.77-7.2,3.32-14.5,4.56-21.67C328.28,252.13,324.65,260.13,321.24,267.87Z" style="fill:#6d6e71"/><path d="M143.3,311.54c-1.41.84-2.76,1.62-4.08,2.33A157,157,0,0,0,187.1,326.3,238.52,238.52,0,0,1,143.3,311.54Z" style="fill:#6d6e71"/><path d="M128.9,277a18.26,18.26,0,0,1,11.8-.91A446.3,446.3,0,0,0,240,289.79,19.79,19.79,0,0,0,257.66,280a232,232,0,0,0,11.68-22.8c.56-1.26,1.11-2.52,1.65-3.79-1.6-1.36-3.17-2.77-4.68-4.22,7.32-8.29,11.4-18.86,15.33-29.2s8-20.92,15.28-29.23c6.31-7.18,15.64-12.41,25-12.09l-.05,0c-26.94,0-67.17-18.24-92.74-14.66a33.69,33.69,0,0,0-7.26,1.79c-6.93,2.6-13.73,10.81-22.6,21.53-4.81,5.83-10.24,12.39-16.63,19.21-1,1.06-2,2.12-3,3.19q-2.37,2.44-4.93,4.91c-17.8,17.15-42.33,34.65-78.95,45a243,243,0,0,1-40.79,7.73,402.91,402.91,0,0,0,32.16,32.8C88,297.82,89,295.5,90,293.25,105.72,287.75,115,282.94,128.9,277Z" style="fill:#fff"/><path d="M143.3,311.54C182.78,329.42,228.76,335.92,272,333c13-13.2,25.46-29.93,36.05-48.15-14.8-6.06-28.67-15-38.71-27.64A232,232,0,0,1,257.66,280,19.79,19.79,0,0,1,240,289.79a446.3,446.3,0,0,1-99.27-13.74,18.26,18.26,0,0,0-11.8.91c-13.92,6-23.18,10.79-38.87,16.29-1,2.25-2,4.57-2.93,6.94a143.53,143.53,0,0,0-6.84,21.91,255.38,255.38,0,0,0,24.94,18.42,7.3,7.3,0,0,0,1.44-6.28,8,8,0,0,0-4.31-5.26c.69-3.1,1.14-5.91,1.82-9,3.06.34,5.86.56,8.49.62C123.92,320.85,131.94,318.33,143.3,311.54Z" style="fill:#ff9253"/><path d="M269.34,257.21c10,12.69,23.91,21.58,38.71,27.64q2.91-5,5.62-10.15c-15.77-3.18-30.4-10.82-42.68-21.28C270.45,254.69,269.9,256,269.34,257.21Z" style="fill:#ea6928"/><path d="M333,182.56A31.41,31.41,0,0,1,339,195c2.57,11.31-1.28,23-5.47,33.8-4.38,11.29-9.55,22.33-14.79,33.24a117.55,117.55,0,0,1-44.08-13.45,103.4,103.4,0,0,0,46.61,19.26c3.41-7.74,7-15.74,10.27-23.28l.63-1.46c4.69-11.07,9.46-22.45,9.83-34.46C342.25,199.28,339.68,188.22,333,182.56Z" style="fill:#bbbbbc"/><path d="M296.92,190.77c-7.3,8.31-11.36,18.9-15.28,29.23s-8,20.91-15.33,29.2c1.51,1.45,3.08,2.86,4.68,4.22,12.28,10.46,26.91,18.1,42.68,21.28,1.42.29,2.85.55,4.29.76,1.05-2.48,2.15-5,3.28-7.59a103.4,103.4,0,0,1-46.61-19.26,117.55,117.55,0,0,0,44.08,13.45c5.24-10.91,10.41-21.95,14.79-33.24,4.19-10.8,8-22.49,5.47-33.8a31.41,31.41,0,0,0-6-12.46,15.57,15.57,0,0,0-6.63-3.32,23.45,23.45,0,0,0-4.38-.56C312.56,178.36,303.23,183.59,296.92,190.77Z" style="fill:#fff"/><path d="M259.32,157.83a72.81,72.81,0,0,1-6.86,13c16.89,2.89,35.18-1.6,49.18-11.63.49-1.6,1-3.21,1.43-4.81a56.71,56.71,0,0,1-7.19,3.59A48,48,0,0,1,259.32,157.83Z" style="fill:#ea6928"/><path d="M252.46,170.88a71,71,0,0,1-11.64,13.49A50,50,0,0,0,293,182.81a228.38,228.38,0,0,0,8.64-23.56C287.64,169.28,269.35,173.77,252.46,170.88Z" style="fill:#ff9253"/><path d="M354.79,89a17.44,17.44,0,0,0,.43-20,14.63,14.63,0,0,1-3.08-7.85,37.13,37.13,0,0,1,1.27-8.54c1.15-5.45,1.74-11.2.07-16.51s-6.08-10.05-11.61-10.72c-4-.48-8.1,1.19-12.1.52-7.15-1.2-11.15-9.1-17.72-12.13-4.23-2-9.21-1.69-13.64-.25S290,17.5,286.1,20c-3.26-1.76-7-3.57-10.68-4.16s-7.76.24-10.21,3c-2.19,2.49-2.68,6-3.81,9.09a22,22,0,0,1-10.06,11.65c-4.69,2.54-10.73,3.73-13.23,8.43s-.14,10.34-.05,15.63c.07,4.1-1.25,8.07-2.66,11.92s-2.92,7.72-3.27,11.8,2.94,11.83,5.92,14.64c.37-2.69.79-5.35,1.21-8,.09-.53.18-1.06.26-1.58l0-.18.24-1.42,0-.15c.08-.49.16-1,.25-1.45l0-.14c.08-.49.17-1,.25-1.47l0-.1.27-1.51V86c.09-.51.19-1,.28-1.52v-.08c.1-.51.2-1,.29-1.52l0-.08.3-1.53V81.2c.11-.51.21-1,.32-1.54v0c.11-.52.22-1,.34-1.55v0c.11-.52.23-1,.35-1.56v0c.12-.52.24-1,.37-1.56v0c.13-.52.26-1,.4-1.56h0l.42-1.56h0c.15-.52.29-1,.44-1.55h0c.15-.52.31-1,.47-1.55h0A29,29,0,0,0,261,55.53c6.27-2.24,13.49-.19,18.75,3.89s8.87,9.93,11.83,15.89,5.41,12.21,9,17.84,8.4,10.74,14.65,13.06a8,8,0,0,0-.13,6.89c.92,1.85,2.61,3.4,2.84,5.45.19,1.74-.72,3.38-1.15,5.07a9.67,9.67,0,0,0,1.53,7.8c0-.06,0-.12,0-.17a42.85,42.85,0,0,1,4.42-10.6c2.57-4.36,6.11-8.39,10.83-10.2s10.75-.84,13.73,3.24a9.31,9.31,0,0,1,1.16,2.12,18.57,18.57,0,0,0,.51-4.4c-.05-5-2.12-10.15-.2-14.73C350.05,93.68,352.81,91.6,354.79,89Z" style="fill:#68330f"/><path d="M333.58,110.45c-4.72,1.81-8.26,5.84-10.83,10.2a42.85,42.85,0,0,0-4.42,10.6c0,.05,0,.11,0,.17a9.67,9.67,0,0,1-1.53-7.8c.43-1.69,1.34-3.33,1.15-5.07-.23-2-1.92-3.6-2.84-5.45a8,8,0,0,1,.13-6.89c-6.25-2.32-11.1-7.42-14.65-13.06s-6-11.88-9-17.84S285,63.5,279.76,59.42,267.28,53.29,261,55.53A29,29,0,0,1,244.68,68.6h0c-.16.52-.32,1-.47,1.55h0c-.15.51-.29,1-.44,1.55h0l-.42,1.56h0c-.14.52-.27,1-.4,1.56v0c-.13.52-.25,1-.37,1.56v0c-.12.52-.24,1-.35,1.56v0c-.12.51-.23,1-.34,1.55v0c-.11.51-.21,1-.32,1.54v.06l-.3,1.53,0,.08c-.09.5-.19,1-.29,1.52v.08c-.09.51-.19,1-.28,1.52v.09l-.27,1.51,0,.1c-.08.49-.17,1-.25,1.47l0,.14c-.09.48-.17,1-.25,1.45l0,.15-.24,1.42,0,.18c-.08.52-.17,1-.26,1.58-.42,2.62-.84,5.28-1.21,8-2.07,15.13-2.55,31,5.88,43.31a35.54,35.54,0,0,0,15.39,12.47,48,48,0,0,0,36.56.2,56.71,56.71,0,0,0,7.19-3.59A68.09,68.09,0,0,0,320.74,139a10.27,10.27,0,0,0,4.72.3,35.15,35.15,0,0,0,14.81-5.57,21,21,0,0,0,7.87-8.72,12.38,12.38,0,0,0,.33-9.24,9.31,9.31,0,0,0-1.16-2.12C344.33,109.61,338.3,108.64,333.58,110.45Z" style="fill:#ff9253"/><path d="M121.53,59.4l43.36,78.35c2,3.68,15.31.24,29.64-7.69s24.3-17.35,22.25-21L173.42,30.68Z" style="fill:#eff3fa"/><path d="M222.92,114.21,216.78,109l-25.94,14.36-26,14.36L166,145.7a.5.5,0,0,1,0,.12h0a2.44,2.44,0,0,0,.26.76c2.25,4.06,16.88.27,32.68-8.48s26.78-19.12,24.53-23.19A2.49,2.49,0,0,0,222.92,114.21Z" style="fill:#eff3fa"/><path d="M193.19,127.64a89.55,89.55,0,0,1-17.48,7.58c-5.43,1.58-7.87,1.31-8.48,1L125.3,60.49l47-26,41.93,75.76c-.08.66-1.15,2.88-5.37,6.64A89.61,89.61,0,0,1,193.19,127.64Z" style="fill:#b1d7e7"/><path d="M245.36,85.18a12.71,12.71,0,0,1,14.88,3.95,2.15,2.15,0,0,0,2.89.76,2.12,2.12,0,0,0,.76-2.9,17.06,17.06,0,0,0-20.67-5.47,2.11,2.11,0,0,0-.76,2.9,2.17,2.17,0,0,0,2.9.76Z" style="fill:#68330f"/><path d="M278.66,96c6.57-1.54,14,.3,17.38,6.52,1.32,2.4,5,.26,3.66-2.14-4.35-7.91-13.79-10.43-22.17-8.47-2.66.63-1.53,4.71,1.13,4.09Z" style="fill:#68330f"/><path d="M283.23,107.7c2.73,0,2.73-4.23,0-4.23s-2.73,4.23,0,4.23Z" style="fill:#414042"/><path d="M250.75,98.29c2.73,0,2.73-4.24,0-4.24s-2.73,4.24,0,4.24Z" style="fill:#414042"/><path d="M266.2,126.43a28.79,28.79,0,0,1-10.81-5.7,15.08,15.08,0,0,0,.34,3.09,4.66,4.66,0,0,0,1.63,2.39,6.3,6.3,0,0,0,3.61.87A33.08,33.08,0,0,0,266.2,126.43Z" style="fill:#ea6928"/><path d="M266.15,144a24.47,24.47,0,0,0-14.6-4.45,8.36,8.36,0,0,1,3.28-3,6.55,6.55,0,0,1,5-.16,9.54,9.54,0,0,1,4,3.1A25.78,25.78,0,0,1,266.15,144Z" style="fill:#fff"/></g><circle cx="45.62" cy="217.39" r="27.97" style="fill:#9ecadd"/><circle cx="357.9" cy="278.83" r="8.9" style="fill:#ffce38"/><circle cx="396.46" cy="115.7" r="6.78" style="fill:#9ecadd"/><path d="M74.43,39.14A17.94,17.94,0,1,1,92.37,21.2,18,18,0,0,1,74.43,39.14Zm0-33.9a16,16,0,1,0,16,16A16,16,0,0,0,74.43,5.24Z" style="fill:#9ecadd"/><circle cx="10.45" cy="61.88" r="7.2" transform="translate(-52.17 57.67) rotate(-76.57)" style="fill:#9ecadd"/><path d="M163.33,128.32a176.4,176.4,0,0,0,2.34-19.12A20.51,20.51,0,0,0,147.77,79a23.44,23.44,0,0,0-10.36,2.47Z" style="fill:#ea6928"/><path d="M193.19,127.64a89.55,89.55,0,0,1-17.48,7.58c-5.43,1.58-7.87,1.31-8.48,1s-1.38-2.49-1.68-3c-1-1.85-3.75-4.6-2-6.64a6.19,6.19,0,0,1,2.84-1.58,49.38,49.38,0,0,1,14.66-2.57,74.36,74.36,0,0,0,13.15-1.2c1.76-.32,3.32-1,5-1.39.57-.14,6.09-.23,6.12-.4l-.14.68s-1.81,1.07-2,1.25c-1,.74-2.05,1.44-3.1,2.13Q196.72,125.7,193.19,127.64Z" style="fill:#ffce38"/><path d="M172.27,126.68l8.8-1.17a126.86,126.86,0,0,0,23-5.49c-6.82-1.79-13,1.28-19.93,2.33-3.41.51-8.38-.58-11.79-.06-1.71.25-2.91,1.06-4.62,1.31a14.81,14.81,0,0,0-4.25,1.69c-1.33.7-2.06,2.06-.48,2.56,1.14.36,3.37-.4,4.55-.56Z" style="fill:#eff3fa"/></svg>